Track 0: 
<meta message time_signature numerator=4 denominator=4 clocks_per_click=24 notated_32nd_notes_per_beat=8 time=0>
<meta message set_tempo tempo=600000 time=0>
<meta message end_of_track time=0>
Track 1: Electric Piano
<meta message track_name name='Electric Piano' time=0>
program_change channel=0 program=0 time=0
note_on channel=0 note=61 velocity=50 time=0
note_on channel=0 note=45 velocity=50 time=0
note_off channel=0 note=61 velocity=0 time=96
note_off channel=0 note=45 velocity=0 time=0
note_on channel=0 note=52 velocity=50 time=96
note_off channel=0 note=52 velocity=0 time=96
note_on channel=0 note=61 velocity=50 time=96
note_on channel=0 note=64 velocity=50 time=0
note_on channel=0 note=57 velocity=50 time=0
note_off channel=0 note=61 velocity=0 time=96
note_off channel=0 note=64 velocity=0 time=0
note_off channel=0 note=57 velocity=0 time=0
note_on channel=0 note=52 velocity=50 time=96
note_off channel=0 note=52 velocity=0 time=96
note_on channel=0 note=49 velocity=50 time=96
note_off channel=0 note=49 velocity=0 time=96
note_on channel=0 note=52 velocity=50 time=96
note_off channel=0 note=52 velocity=0 time=96
note_on channel=0 note=57 velocity=50 time=96
note_on channel=0 note=64 velocity=50 time=0
note_on channel=0 note=69 velocity=50 time=0
note_on channel=0 note=61 velocity=50 time=0
note_off channel=0 note=57 velocity=0 time=96
note_off channel=0 note=64 velocity=0 time=0
note_off channel=0 note=69 velocity=0 time=0
note_off channel=0 note=61 velocity=0 time=0
note_on channel=0 note=52 velocity=50 time=96
note_off channel=0 note=52 velocity=0 time=96
note_on channel=0 note=62 velocity=50 time=96
note_on channel=0 note=47 velocity=50 time=0
note_on channel=0 note=64 velocity=50 time=0
note_on channel=0 note=69 velocity=50 time=0
note_off channel=0 note=69 velocity=0 time=96
note_off channel=0 note=47 velocity=0 time=0
note_off channel=0 note=62 velocity=0 time=0
note_off channel=0 note=64 velocity=0 time=0
note_on channel=0 note=52 velocity=50 time=96
note_off channel=0 note=52 velocity=0 time=96
note_on channel=0 note=68 velocity=50 time=96
note_on channel=0 note=56 velocity=50 time=0
note_off channel=0 note=68 velocity=0 time=96
note_off channel=0 note=56 velocity=0 time=0
note_on channel=0 note=52 velocity=50 time=96
note_off channel=0 note=52 velocity=0 time=96
note_on channel=0 note=69 velocity=50 time=96
note_on channel=0 note=64 velocity=50 time=0
note_on channel=0 note=61 velocity=50 time=0
note_on channel=0 note=49 velocity=50 time=0
note_off channel=0 note=64 velocity=0 time=96
note_off channel=0 note=61 velocity=0 time=0
note_off channel=0 note=69 velocity=0 time=0
note_off channel=0 note=49 velocity=0 time=0
note_on channel=0 note=52 velocity=50 time=96
note_off channel=0 note=52 velocity=0 time=96
note_on channel=0 note=57 velocity=50 time=96
note_off channel=0 note=57 velocity=0 time=96
note_on channel=0 note=52 velocity=50 time=96
note_off channel=0 note=52 velocity=0 time=96
note_on channel=0 note=69 velocity=50 time=96
note_on channel=0 note=66 velocity=50 time=0
note_on channel=0 note=71 velocity=50 time=0
note_on channel=0 note=50 velocity=50 time=0
note_off channel=0 note=71 velocity=0 time=96
note_off channel=0 note=50 velocity=0 time=0
note_off channel=0 note=66 velocity=0 time=0
note_off channel=0 note=69 velocity=0 time=0
note_on channel=0 note=54 velocity=50 time=96
note_off channel=0 note=54 velocity=0 time=96
note_on channel=0 note=59 velocity=50 time=96
note_off channel=0 note=59 velocity=0 time=96
note_on channel=0 note=54 velocity=50 time=96
note_on channel=0 note=69 velocity=50 time=0
note_on channel=0 note=66 velocity=50 time=0
note_on channel=0 note=71 velocity=50 time=0
note_off channel=0 note=69 velocity=0 time=96
note_off channel=0 note=54 velocity=0 time=0
note_off channel=0 note=66 velocity=0 time=0
note_off channel=0 note=71 velocity=0 time=0
note_on channel=0 note=73 velocity=50 time=96
note_on channel=0 note=66 velocity=50 time=0
note_on channel=0 note=51 velocity=50 time=0
note_on channel=0 note=69 velocity=50 time=0
note_off channel=0 note=66 velocity=0 time=96
note_off channel=0 note=51 velocity=0 time=0
note_off channel=0 note=69 velocity=0 time=0
note_off channel=0 note=73 velocity=0 time=0
note_on channel=0 note=54 velocity=50 time=96
note_off channel=0 note=54 velocity=0 time=96
note_on channel=0 note=57 velocity=50 time=96
note_on channel=0 note=66 velocity=50 time=0
note_on channel=0 note=61 velocity=50 time=0
note_on channel=0 note=69 velocity=50 time=0
note_off channel=0 note=66 velocity=0 time=96
note_off channel=0 note=57 velocity=0 time=0
note_off channel=0 note=61 velocity=0 time=0
note_off channel=0 note=69 velocity=0 time=0
note_on channel=0 note=54 velocity=50 time=96
note_off channel=0 note=54 velocity=0 time=96
note_on channel=0 note=61 velocity=50 time=96
note_on channel=0 note=40 velocity=50 time=0
note_on channel=0 note=64 velocity=50 time=0
note_on channel=0 note=69 velocity=50 time=0
note_off channel=0 note=40 velocity=0 time=96
note_off channel=0 note=64 velocity=0 time=0
note_off channel=0 note=69 velocity=0 time=0
note_off channel=0 note=61 velocity=0 time=0
note_on channel=0 note=52 velocity=50 time=96
note_off channel=0 note=52 velocity=0 time=96
note_on channel=0 note=57 velocity=50 time=96
note_off channel=0 note=57 velocity=0 time=96
note_on channel=0 note=61 velocity=50 time=96
note_off channel=0 note=61 velocity=0 time=96
note_on channel=0 note=59 velocity=50 time=96
note_on channel=0 note=68 velocity=50 time=0
note_off channel=0 note=59 velocity=0 time=96
note_off channel=0 note=68 velocity=0 time=0
note_on channel=0 note=66 velocity=50 time=96
note_on channel=0 note=62 velocity=50 time=0
note_off channel=0 note=66 velocity=0 time=96
note_off channel=0 note=62 velocity=0 time=0
note_on channel=0 note=64 velocity=50 time=96
note_on channel=0 note=61 velocity=50 time=0
note_off channel=0 note=61 velocity=0 time=96
note_off channel=0 note=64 velocity=0 time=0
note_on channel=0 note=59 velocity=50 time=96
note_on channel=0 note=62 velocity=50 time=0
note_off channel=0 note=59 velocity=0 time=96
note_off channel=0 note=62 velocity=0 time=0
note_on channel=0 note=45 velocity=50 time=96
note_on channel=0 note=61 velocity=50 time=0
note_off channel=0 note=45 velocity=0 time=96
note_off channel=0 note=61 velocity=0 time=0
note_on channel=0 note=52 velocity=50 time=96
note_off channel=0 note=52 velocity=0 time=96
note_on channel=0 note=64 velocity=50 time=96
note_on channel=0 note=61 velocity=50 time=0
note_on channel=0 note=57 velocity=50 time=0
note_off channel=0 note=64 velocity=0 time=96
note_off channel=0 note=61 velocity=0 time=0
note_off channel=0 note=57 velocity=0 time=0
note_on channel=0 note=52 velocity=50 time=96
note_off channel=0 note=52 velocity=0 time=96
note_on channel=0 note=49 velocity=50 time=96
note_off channel=0 note=49 velocity=0 time=96
note_on channel=0 note=52 velocity=50 time=96
note_off channel=0 note=52 velocity=0 time=96
note_on channel=0 note=61 velocity=50 time=96
note_on channel=0 note=64 velocity=50 time=0
note_on channel=0 note=69 velocity=50 time=0
note_on channel=0 note=57 velocity=50 time=0
note_off channel=0 note=61 velocity=0 time=96
note_off channel=0 note=69 velocity=0 time=0
note_off channel=0 note=57 velocity=0 time=0
note_off channel=0 note=64 velocity=0 time=0
note_on channel=0 note=52 velocity=50 time=96
note_off channel=0 note=52 velocity=0 time=96
note_on channel=0 note=62 velocity=50 time=96
note_on channel=0 note=47 velocity=50 time=0
note_on channel=0 note=69 velocity=50 time=0
note_on channel=0 note=64 velocity=50 time=0
note_off channel=0 note=69 velocity=0 time=96
note_off channel=0 note=62 velocity=0 time=0
note_off channel=0 note=64 velocity=0 time=0
note_off channel=0 note=47 velocity=0 time=0
note_on channel=0 note=52 velocity=50 time=96
note_off channel=0 note=52 velocity=0 time=96
note_on channel=0 note=68 velocity=50 time=96
note_on channel=0 note=56 velocity=50 time=0
note_off channel=0 note=68 velocity=0 time=96
note_off channel=0 note=56 velocity=0 time=0
note_on channel=0 note=52 velocity=50 time=96
note_off channel=0 note=52 velocity=0 time=96
note_on channel=0 note=49 velocity=50 time=96
note_on channel=0 note=69 velocity=50 time=0
note_on channel=0 note=61 velocity=50 time=0
note_on channel=0 note=64 velocity=50 time=0
note_off channel=0 note=49 velocity=0 time=96
note_off channel=0 note=61 velocity=0 time=0
note_off channel=0 note=69 velocity=0 time=0
note_off channel=0 note=64 velocity=0 time=0
note_on channel=0 note=52 velocity=50 time=96
note_off channel=0 note=52 velocity=0 time=96
note_on channel=0 note=57 velocity=50 time=96
note_off channel=0 note=57 velocity=0 time=96
note_on channel=0 note=52 velocity=50 time=96
note_off channel=0 note=52 velocity=0 time=96
note_on channel=0 note=66 velocity=50 time=96
note_on channel=0 note=71 velocity=50 time=0
note_on channel=0 note=69 velocity=50 time=0
note_on channel=0 note=50 velocity=50 time=0
note_off channel=0 note=50 velocity=0 time=96
note_off channel=0 note=66 velocity=0 time=0
note_off channel=0 note=69 velocity=0 time=0
note_off channel=0 note=71 velocity=0 time=0
note_on channel=0 note=54 velocity=50 time=96
note_off channel=0 note=54 velocity=0 time=96
note_on channel=0 note=69 velocity=50 time=96
note_on channel=0 note=57 velocity=50 time=0
note_on channel=0 note=49 velocity=50 time=0
note_on channel=0 note=73 velocity=50 time=0
note_on channel=0 note=64 velocity=50 time=0
note_off channel=0 note=57 velocity=0 time=96
note_off channel=0 note=49 velocity=0 time=0
note_off channel=0 note=73 velocity=0 time=0
note_off channel=0 note=69 velocity=0 time=0
note_off channel=0 note=64 velocity=0 time=0
note_on channel=0 note=62 velocity=50 time=96
note_on channel=0 note=47 velocity=50 time=0
note_on channel=0 note=74 velocity=50 time=0
note_on channel=0 note=57 velocity=50 time=0
note_on channel=0 note=69 velocity=50 time=0
note_off channel=0 note=74 velocity=0 time=96
note_off channel=0 note=62 velocity=0 time=0
note_off channel=0 note=57 velocity=0 time=0
note_off channel=0 note=69 velocity=0 time=0
note_off channel=0 note=47 velocity=0 time=0
note_on channel=0 note=49 velocity=50 time=96
note_on channel=0 note=64 velocity=50 time=0
note_on channel=0 note=73 velocity=50 time=0
note_on channel=0 note=69 velocity=50 time=0
note_off channel=0 note=73 velocity=0 time=96
note_off channel=0 note=69 velocity=0 time=0
note_off channel=0 note=49 velocity=0 time=0
note_off channel=0 note=64 velocity=0 time=0
note_on channel=0 note=57 velocity=50 time=96
note_off channel=0 note=57 velocity=0 time=96
note_on channel=0 note=52 velocity=50 time=96
note_on channel=0 note=62 velocity=50 time=0
note_on channel=0 note=64 velocity=50 time=0
note_on channel=0 note=71 velocity=50 time=0
note_off channel=0 note=62 velocity=0 time=96
note_off channel=0 note=64 velocity=0 time=0
note_off channel=0 note=71 velocity=0 time=0
note_off channel=0 note=52 velocity=0 time=0
note_on channel=0 note=56 velocity=50 time=96
note_off channel=0 note=56 velocity=0 time=96
note_on channel=0 note=62 velocity=50 time=96
note_on channel=0 note=64 velocity=50 time=0
note_on channel=0 note=71 velocity=50 time=0
note_on channel=0 note=45 velocity=50 time=0
note_off channel=0 note=62 velocity=0 time=96
note_off channel=0 note=64 velocity=0 time=0
note_off channel=0 note=71 velocity=0 time=0
note_off channel=0 note=45 velocity=0 time=0
note_on channel=0 note=52 velocity=50 time=96
note_off channel=0 note=52 velocity=0 time=96
note_on channel=0 note=56 velocity=50 time=96
note_off channel=0 note=56 velocity=0 time=96
note_on channel=0 note=52 velocity=50 time=96
note_off channel=0 note=52 velocity=0 time=96
note_on channel=0 note=69 velocity=50 time=96
note_on channel=0 note=57 velocity=50 time=0
note_off channel=0 note=69 velocity=0 time=96
note_off channel=0 note=57 velocity=0 time=0
note_on channel=0 note=71 velocity=50 time=96
note_on channel=0 note=59 velocity=50 time=0
note_off channel=0 note=71 velocity=0 time=96
note_off channel=0 note=59 velocity=0 time=0
note_on channel=0 note=73 velocity=50 time=96
note_on channel=0 note=61 velocity=50 time=0
note_off channel=0 note=73 velocity=0 time=96
note_off channel=0 note=61 velocity=0 time=0
note_on channel=0 note=74 velocity=50 time=96
note_on channel=0 note=62 velocity=50 time=0
note_off channel=0 note=62 velocity=0 time=96
note_off channel=0 note=74 velocity=0 time=0
note_on channel=0 note=76 velocity=50 time=96
note_on channel=0 note=64 velocity=50 time=0
note_on channel=0 note=49 velocity=50 time=0
note_off channel=0 note=49 velocity=0 time=96
note_off channel=0 note=76 velocity=0 time=0
note_off channel=0 note=64 velocity=0 time=0
note_on channel=0 note=52 velocity=50 time=96
note_off channel=0 note=52 velocity=0 time=96
note_on channel=0 note=57 velocity=50 time=96
note_off channel=0 note=57 velocity=0 time=96
note_on channel=0 note=64 velocity=50 time=96
note_on channel=0 note=52 velocity=50 time=0
note_on channel=0 note=76 velocity=50 time=0
note_off channel=0 note=76 velocity=0 time=96
note_off channel=0 note=64 velocity=0 time=0
note_off channel=0 note=52 velocity=0 time=0
note_on channel=0 note=78 velocity=50 time=96
note_on channel=0 note=66 velocity=50 time=0
note_on channel=0 note=46 velocity=50 time=0
note_off channel=0 note=78 velocity=0 time=96
note_off channel=0 note=66 velocity=0 time=0
note_off channel=0 note=46 velocity=0 time=0
note_on channel=0 note=54 velocity=50 time=96
note_off channel=0 note=54 velocity=0 time=96
note_on channel=0 note=61 velocity=50 time=96
note_off channel=0 note=61 velocity=0 time=96
note_on channel=0 note=54 velocity=50 time=96
note_off channel=0 note=54 velocity=0 time=96
note_on channel=0 note=47 velocity=50 time=96
note_on channel=0 note=64 velocity=50 time=0
note_on channel=0 note=76 velocity=50 time=0
note_off channel=0 note=76 velocity=0 time=96
note_off channel=0 note=47 velocity=0 time=0
note_off channel=0 note=64 velocity=0 time=0
note_on channel=0 note=54 velocity=50 time=96
note_off channel=0 note=54 velocity=0 time=96
note_on channel=0 note=75 velocity=50 time=96
note_on channel=0 note=63 velocity=50 time=0
note_on channel=0 note=59 velocity=50 time=0
note_off channel=0 note=63 velocity=0 time=96
note_off channel=0 note=59 velocity=0 time=0
note_off channel=0 note=75 velocity=0 time=0
note_on channel=0 note=54 velocity=50 time=96
note_off channel=0 note=54 velocity=0 time=96
note_on channel=0 note=71 velocity=50 time=96
note_on channel=0 note=59 velocity=50 time=0
note_on channel=0 note=47 velocity=50 time=0
note_off channel=0 note=71 velocity=0 time=96
note_off channel=0 note=59 velocity=0 time=0
note_off channel=0 note=47 velocity=0 time=0
note_on channel=0 note=54 velocity=50 time=96
note_off channel=0 note=54 velocity=0 time=96
note_on channel=0 note=59 velocity=50 time=96
note_off channel=0 note=59 velocity=0 time=96
note_on channel=0 note=54 velocity=50 time=96
note_on channel=0 note=61 velocity=50 time=0
note_on channel=0 note=73 velocity=50 time=0
note_off channel=0 note=61 velocity=0 time=96
note_off channel=0 note=73 velocity=0 time=0
note_off channel=0 note=54 velocity=0 time=0
note_on channel=0 note=42 velocity=50 time=96
note_on channel=0 note=74 velocity=50 time=0
note_on channel=0 note=62 velocity=50 time=0
note_off channel=0 note=62 velocity=0 time=96
note_off channel=0 note=42 velocity=0 time=0
note_off channel=0 note=74 velocity=0 time=0
note_on channel=0 note=54 velocity=50 time=96
note_off channel=0 note=54 velocity=0 time=96
note_on channel=0 note=57 velocity=50 time=96
note_off channel=0 note=57 velocity=0 time=96
note_on channel=0 note=74 velocity=50 time=96
note_on channel=0 note=62 velocity=50 time=0
note_on channel=0 note=54 velocity=50 time=0
note_off channel=0 note=54 velocity=0 time=96
note_off channel=0 note=62 velocity=0 time=0
note_off channel=0 note=74 velocity=0 time=0
note_on channel=0 note=44 velocity=50 time=96
note_on channel=0 note=64 velocity=50 time=0
note_on channel=0 note=76 velocity=50 time=0
note_off channel=0 note=64 velocity=0 time=96
note_off channel=0 note=44 velocity=0 time=0
note_off channel=0 note=76 velocity=0 time=0
note_on channel=0 note=52 velocity=50 time=96
note_off channel=0 note=52 velocity=0 time=96
note_on channel=0 note=59 velocity=50 time=96
note_off channel=0 note=59 velocity=0 time=96
note_on channel=0 note=52 velocity=50 time=96
note_off channel=0 note=52 velocity=0 time=96
note_on channel=0 note=49 velocity=50 time=96
note_on channel=0 note=69 velocity=50 time=0
note_off channel=0 note=49 velocity=0 time=96
note_off channel=0 note=69 velocity=0 time=0
note_on channel=0 note=52 velocity=50 time=96
note_on channel=0 note=69 velocity=50 time=0
note_on channel=0 note=71 velocity=50 time=0
note_on channel=0 note=68 velocity=50 time=96
note_off channel=0 note=52 velocity=0 time=0
note_off channel=0 note=71 velocity=0 time=0
note_off channel=0 note=69 velocity=0 time=0
note_on channel=0 note=69 velocity=50 time=96
note_on channel=0 note=57 velocity=50 time=0
note_off channel=0 note=68 velocity=0 time=0
note_off channel=0 note=69 velocity=0 time=96
note_off channel=0 note=57 velocity=0 time=0
note_on channel=0 note=71 velocity=50 time=96
note_on channel=0 note=52 velocity=50 time=0
note_off channel=0 note=71 velocity=0 time=96
note_off channel=0 note=52 velocity=0 time=0
note_on channel=0 note=64 velocity=50 time=96
note_on channel=0 note=45 velocity=50 time=0
note_on channel=0 note=69 velocity=50 time=0
note_on channel=0 note=73 velocity=50 time=0
note_off channel=0 note=64 velocity=0 time=96
note_off channel=0 note=73 velocity=0 time=0
note_off channel=0 note=69 velocity=0 time=0
note_off channel=0 note=45 velocity=0 time=0
note_on channel=0 note=52 velocity=50 time=96
note_off channel=0 note=52 velocity=0 time=96
note_on channel=0 note=61 velocity=50 time=96
note_off channel=0 note=61 velocity=0 time=96
note_on channel=0 note=52 velocity=50 time=96
note_off channel=0 note=52 velocity=0 time=96
note_on channel=0 note=50 velocity=50 time=96
note_on channel=0 note=71 velocity=50 time=0
note_on channel=0 note=69 velocity=50 time=0
note_on channel=0 note=66 velocity=50 time=0
note_off channel=0 note=50 velocity=0 time=96
note_off channel=0 note=71 velocity=0 time=0
note_off channel=0 note=69 velocity=0 time=0
note_off channel=0 note=66 velocity=0 time=0
note_on channel=0 note=54 velocity=50 time=96
note_off channel=0 note=54 velocity=0 time=96
note_on channel=0 note=71 velocity=50 time=96
note_on channel=0 note=66 velocity=50 time=0
note_on channel=0 note=69 velocity=50 time=0
note_on channel=0 note=59 velocity=50 time=0
note_off channel=0 note=69 velocity=0 time=96
note_off channel=0 note=66 velocity=0 time=0
note_off channel=0 note=59 velocity=0 time=0
note_off channel=0 note=71 velocity=0 time=0
note_on channel=0 note=54 velocity=50 time=96
note_off channel=0 note=54 velocity=0 time=96
note_on channel=0 note=64 velocity=50 time=96
note_on channel=0 note=68 velocity=50 time=0
note_on channel=0 note=52 velocity=50 time=0
note_on channel=0 note=71 velocity=50 time=0
note_off channel=0 note=71 velocity=0 time=96
note_off channel=0 note=64 velocity=0 time=0
note_off channel=0 note=68 velocity=0 time=0
note_off channel=0 note=52 velocity=0 time=0
note_on channel=0 note=56 velocity=50 time=96
note_off channel=0 note=56 velocity=0 time=96
note_on channel=0 note=64 velocity=50 time=96
note_on channel=0 note=68 velocity=50 time=0
note_on channel=0 note=74 velocity=50 time=0
note_on channel=0 note=59 velocity=50 time=0
note_off channel=0 note=74 velocity=0 time=96
note_off channel=0 note=64 velocity=0 time=0
note_off channel=0 note=59 velocity=0 time=0
note_off channel=0 note=68 velocity=0 time=0
note_on channel=0 note=56 velocity=50 time=96
note_on channel=0 note=73 velocity=50 time=96
note_off channel=0 note=56 velocity=0 time=0
note_on channel=0 note=45 velocity=50 time=96
note_off channel=0 note=73 velocity=0 time=0
note_on channel=0 note=64 velocity=50 time=0
note_on channel=0 note=73 velocity=50 time=0
note_on channel=0 note=69 velocity=50 time=0
note_off channel=0 note=73 velocity=0 time=96
note_off channel=0 note=45 velocity=0 time=0
note_off channel=0 note=69 velocity=0 time=0
note_off channel=0 note=64 velocity=0 time=0
note_on channel=0 note=52 velocity=50 time=96
note_off channel=0 note=52 velocity=0 time=96
note_on channel=0 note=61 velocity=50 time=96
note_off channel=0 note=61 velocity=0 time=96
note_on channel=0 note=52 velocity=50 time=96
note_off channel=0 note=52 velocity=0 time=96
note_on channel=0 note=76 velocity=50 time=96
note_on channel=0 note=64 velocity=50 time=0
note_on channel=0 note=69 velocity=50 time=0
note_on channel=0 note=49 velocity=50 time=0
note_off channel=0 note=64 velocity=0 time=96
note_off channel=0 note=69 velocity=0 time=0
note_off channel=0 note=76 velocity=0 time=0
note_off channel=0 note=49 velocity=0 time=0
note_on channel=0 note=52 velocity=50 time=96
note_off channel=0 note=52 velocity=0 time=96
note_on channel=0 note=57 velocity=50 time=96
note_off channel=0 note=57 velocity=0 time=96
note_on channel=0 note=74 velocity=50 time=96
note_on channel=0 note=52 velocity=50 time=0
note_off channel=0 note=74 velocity=0 time=96
note_off channel=0 note=52 velocity=0 time=0
note_on channel=0 note=73 velocity=50 time=0
note_on channel=0 note=71 velocity=50 time=96
note_on channel=0 note=69 velocity=50 time=0
note_on channel=0 note=66 velocity=50 time=0
note_on channel=0 note=50 velocity=50 time=0
note_off channel=0 note=73 velocity=0 time=0
note_off channel=0 note=69 velocity=0 time=96
note_off channel=0 note=71 velocity=0 time=0
note_off channel=0 note=50 velocity=0 time=0
note_off channel=0 note=66 velocity=0 time=0
note_on channel=0 note=54 velocity=50 time=96
note_off channel=0 note=54 velocity=0 time=96
note_on channel=0 note=69 velocity=50 time=96
note_on channel=0 note=66 velocity=50 time=0
note_on channel=0 note=71 velocity=50 time=0
note_on channel=0 note=59 velocity=50 time=0
note_off channel=0 note=66 velocity=0 time=96
note_off channel=0 note=71 velocity=0 time=0
note_off channel=0 note=59 velocity=0 time=0
note_off channel=0 note=69 velocity=0 time=0
note_on channel=0 note=54 velocity=50 time=96
note_off channel=0 note=54 velocity=0 time=96
note_on channel=0 note=71 velocity=50 time=96
note_on channel=0 note=64 velocity=50 time=0
note_on channel=0 note=52 velocity=50 time=0
note_on channel=0 note=68 velocity=50 time=0
note_off channel=0 note=64 velocity=0 time=96
note_off channel=0 note=52 velocity=0 time=0
note_off channel=0 note=68 velocity=0 time=0
note_off channel=0 note=71 velocity=0 time=0
note_on channel=0 note=56 velocity=50 time=96
note_off channel=0 note=56 velocity=0 time=96
note_on channel=0 note=68 velocity=50 time=96
note_on channel=0 note=64 velocity=50 time=0
note_on channel=0 note=74 velocity=50 time=0
note_on channel=0 note=59 velocity=50 time=0
note_off channel=0 note=64 velocity=0 time=96
note_off channel=0 note=74 velocity=0 time=0
note_off channel=0 note=59 velocity=0 time=0
note_off channel=0 note=68 velocity=0 time=0
note_on channel=0 note=56 velocity=50 time=96
note_on channel=0 note=73 velocity=50 time=96
note_off channel=0 note=56 velocity=0 time=0
note_on channel=0 note=45 velocity=50 time=96
note_on channel=0 note=61 velocity=50 time=0
note_on channel=0 note=69 velocity=50 time=0
note_off channel=0 note=73 velocity=0 time=0
note_off channel=0 note=45 velocity=0 time=96
note_off channel=0 note=69 velocity=0 time=0
note_off channel=0 note=61 velocity=0 time=0
note_on channel=0 note=52 velocity=50 time=96
note_off channel=0 note=52 velocity=0 time=96
note_on channel=0 note=57 velocity=50 time=96
note_off channel=0 note=57 velocity=0 time=96
note_on channel=0 note=68 velocity=50 time=96
note_off channel=0 note=68 velocity=0 time=96
note_on channel=0 note=69 velocity=50 time=96
note_off channel=0 note=69 velocity=0 time=96
note_on channel=0 note=59 velocity=50 time=96
note_on channel=0 note=71 velocity=50 time=0
note_off channel=0 note=71 velocity=0 time=96
note_off channel=0 note=59 velocity=0 time=0
note_on channel=0 note=73 velocity=50 time=96
note_on channel=0 note=61 velocity=50 time=0
note_off channel=0 note=73 velocity=0 time=96
note_off channel=0 note=61 velocity=0 time=0
note_on channel=0 note=62 velocity=50 time=96
note_on channel=0 note=74 velocity=50 time=0
note_off channel=0 note=74 velocity=0 time=96
note_off channel=0 note=62 velocity=0 time=0
note_on channel=0 note=76 velocity=50 time=96
note_on channel=0 note=49 velocity=50 time=0
note_on channel=0 note=64 velocity=50 time=0
note_off channel=0 note=76 velocity=0 time=96
note_off channel=0 note=49 velocity=0 time=0
note_off channel=0 note=64 velocity=0 time=0
note_on channel=0 note=52 velocity=50 time=96
note_off channel=0 note=52 velocity=0 time=96
note_on channel=0 note=57 velocity=50 time=96
note_off channel=0 note=57 velocity=0 time=96
note_on channel=0 note=76 velocity=50 time=96
note_on channel=0 note=64 velocity=50 time=0
note_on channel=0 note=52 velocity=50 time=0
note_off channel=0 note=76 velocity=0 time=96
note_off channel=0 note=64 velocity=0 time=0
note_off channel=0 note=52 velocity=0 time=0
note_on channel=0 note=78 velocity=50 time=96
note_on channel=0 note=46 velocity=50 time=0
note_on channel=0 note=66 velocity=50 time=0
note_off channel=0 note=66 velocity=0 time=96
note_off channel=0 note=46 velocity=0 time=0
note_off channel=0 note=78 velocity=0 time=0
note_on channel=0 note=54 velocity=50 time=96
note_off channel=0 note=54 velocity=0 time=96
note_on channel=0 note=61 velocity=50 time=96
note_off channel=0 note=61 velocity=0 time=96
note_on channel=0 note=54 velocity=50 time=96
note_off channel=0 note=54 velocity=0 time=96
note_on channel=0 note=64 velocity=50 time=96
note_on channel=0 note=76 velocity=50 time=0
note_on channel=0 note=47 velocity=50 time=0
note_off channel=0 note=76 velocity=0 time=96
note_off channel=0 note=47 velocity=0 time=0
note_off channel=0 note=64 velocity=0 time=0
note_on channel=0 note=54 velocity=50 time=96
note_off channel=0 note=54 velocity=0 time=96
note_on channel=0 note=59 velocity=50 time=96
note_on channel=0 note=63 velocity=50 time=0
note_on channel=0 note=75 velocity=50 time=0
note_off channel=0 note=75 velocity=0 time=96
note_off channel=0 note=59 velocity=0 time=0
note_off channel=0 note=63 velocity=0 time=0
note_on channel=0 note=54 velocity=50 time=96
note_off channel=0 note=54 velocity=0 time=96
note_on channel=0 note=71 velocity=50 time=96
note_on channel=0 note=59 velocity=50 time=0
note_on channel=0 note=47 velocity=50 time=0
note_off channel=0 note=71 velocity=0 time=96
note_off channel=0 note=59 velocity=0 time=0
note_off channel=0 note=47 velocity=0 time=0
note_on channel=0 note=54 velocity=50 time=96
note_off channel=0 note=54 velocity=0 time=96
note_on channel=0 note=59 velocity=50 time=96
note_off channel=0 note=59 velocity=0 time=96
note_on channel=0 note=73 velocity=50 time=96
note_on channel=0 note=61 velocity=50 time=0
note_on channel=0 note=54 velocity=50 time=0
note_off channel=0 note=73 velocity=0 time=96
note_off channel=0 note=61 velocity=0 time=0
note_off channel=0 note=54 velocity=0 time=0
note_on channel=0 note=42 velocity=50 time=96
note_on channel=0 note=62 velocity=50 time=0
note_on channel=0 note=74 velocity=50 time=0
note_off channel=0 note=74 velocity=0 time=96
note_off channel=0 note=62 velocity=0 time=0
note_off channel=0 note=42 velocity=0 time=0
note_on channel=0 note=54 velocity=50 time=96
note_off channel=0 note=54 velocity=0 time=96
note_on channel=0 note=57 velocity=50 time=96
note_off channel=0 note=57 velocity=0 time=96
note_on channel=0 note=62 velocity=50 time=96
note_on channel=0 note=74 velocity=50 time=0
note_on channel=0 note=54 velocity=50 time=0
note_off channel=0 note=54 velocity=0 time=96
note_off channel=0 note=74 velocity=0 time=0
note_off channel=0 note=62 velocity=0 time=0
note_on channel=0 note=76 velocity=50 time=96
note_on channel=0 note=64 velocity=50 time=0
note_on channel=0 note=44 velocity=50 time=0
note_off channel=0 note=76 velocity=0 time=96
note_off channel=0 note=64 velocity=0 time=0
note_off channel=0 note=44 velocity=0 time=0
note_on channel=0 note=52 velocity=50 time=96
note_off channel=0 note=52 velocity=0 time=96
note_on channel=0 note=59 velocity=50 time=96
note_off channel=0 note=59 velocity=0 time=96
note_on channel=0 note=52 velocity=50 time=96
note_off channel=0 note=52 velocity=0 time=96
note_on channel=0 note=49 velocity=50 time=96
note_on channel=0 note=69 velocity=50 time=0
note_off channel=0 note=49 velocity=0 time=96
note_off channel=0 note=69 velocity=0 time=0
note_on channel=0 note=69 velocity=50 time=96
note_on channel=0 note=52 velocity=50 time=0
note_on channel=0 note=71 velocity=50 time=0
note_off channel=0 note=69 velocity=0 time=96
note_off channel=0 note=52 velocity=0 time=0
note_on channel=0 note=68 velocity=50 time=0
note_off channel=0 note=71 velocity=0 time=0
note_on channel=0 note=57 velocity=50 time=96
note_on channel=0 note=69 velocity=50 time=0
note_off channel=0 note=68 velocity=0 time=0
note_off channel=0 note=69 velocity=0 time=96
note_off channel=0 note=57 velocity=0 time=0
note_on channel=0 note=52 velocity=50 time=96
note_on channel=0 note=71 velocity=50 time=0
note_off channel=0 note=71 velocity=0 time=96
note_off channel=0 note=52 velocity=0 time=0
note_on channel=0 note=64 velocity=50 time=96
note_on channel=0 note=45 velocity=50 time=0
note_on channel=0 note=69 velocity=50 time=0
note_on channel=0 note=73 velocity=50 time=0
note_off channel=0 note=69 velocity=0 time=96
note_off channel=0 note=73 velocity=0 time=0
note_off channel=0 note=64 velocity=0 time=0
note_off channel=0 note=45 velocity=0 time=0
note_on channel=0 note=52 velocity=50 time=96
note_off channel=0 note=52 velocity=0 time=96
note_on channel=0 note=61 velocity=50 time=96
note_off channel=0 note=61 velocity=0 time=96
note_on channel=0 note=52 velocity=50 time=96
note_off channel=0 note=52 velocity=0 time=96
note_on channel=0 note=71 velocity=50 time=96
note_on channel=0 note=50 velocity=50 time=0
note_on channel=0 note=69 velocity=50 time=0
note_on channel=0 note=66 velocity=50 time=0
note_off channel=0 note=69 velocity=0 time=96
note_off channel=0 note=66 velocity=0 time=0
note_off channel=0 note=50 velocity=0 time=0
note_off channel=0 note=71 velocity=0 time=0
note_on channel=0 note=54 velocity=50 time=96
note_off channel=0 note=54 velocity=0 time=96
note_on channel=0 note=66 velocity=50 time=96
note_on channel=0 note=69 velocity=50 time=0
note_on channel=0 note=59 velocity=50 time=0
note_on channel=0 note=71 velocity=50 time=0
note_off channel=0 note=59 velocity=0 time=96
note_off channel=0 note=71 velocity=0 time=0
note_off channel=0 note=69 velocity=0 time=0
note_off channel=0 note=66 velocity=0 time=0
note_on channel=0 note=54 velocity=50 time=96
note_off channel=0 note=54 velocity=0 time=96
note_on channel=0 note=64 velocity=50 time=96
note_on channel=0 note=71 velocity=50 time=0
note_on channel=0 note=52 velocity=50 time=0
note_on channel=0 note=68 velocity=50 time=0
note_off channel=0 note=68 velocity=0 time=96
note_off channel=0 note=52 velocity=0 time=0
note_off channel=0 note=71 velocity=0 time=0
note_off channel=0 note=64 velocity=0 time=0
note_on channel=0 note=56 velocity=50 time=96
note_off channel=0 note=56 velocity=0 time=96
note_on channel=0 note=74 velocity=50 time=96
note_on channel=0 note=59 velocity=50 time=0
note_on channel=0 note=64 velocity=50 time=0
note_on channel=0 note=68 velocity=50 time=0
note_off channel=0 note=74 velocity=0 time=96
note_off channel=0 note=59 velocity=0 time=0
note_off channel=0 note=64 velocity=0 time=0
note_off channel=0 note=68 velocity=0 time=0
note_on channel=0 note=56 velocity=50 time=96
note_on channel=0 note=73 velocity=50 time=96
note_off channel=0 note=56 velocity=0 time=0
note_on channel=0 note=73 velocity=50 time=96
note_off channel=0 note=73 velocity=0 time=0
note_on channel=0 note=45 velocity=50 time=0
note_on channel=0 note=69 velocity=50 time=0
note_on channel=0 note=64 velocity=50 time=0
note_off channel=0 note=64 velocity=0 time=96
note_off channel=0 note=69 velocity=0 time=0
note_off channel=0 note=73 velocity=0 time=0
note_off channel=0 note=45 velocity=0 time=0
note_on channel=0 note=52 velocity=50 time=96
note_off channel=0 note=52 velocity=0 time=96
note_on channel=0 note=61 velocity=50 time=96
note_off channel=0 note=61 velocity=0 time=96
note_on channel=0 note=52 velocity=50 time=96
note_off channel=0 note=52 velocity=0 time=96
note_on channel=0 note=49 velocity=50 time=96
note_on channel=0 note=76 velocity=50 time=0
note_on channel=0 note=69 velocity=50 time=0
note_on channel=0 note=64 velocity=50 time=0
note_off channel=0 note=49 velocity=0 time=96
note_off channel=0 note=76 velocity=0 time=0
note_off channel=0 note=69 velocity=0 time=0
note_off channel=0 note=64 velocity=0 time=0
note_on channel=0 note=52 velocity=50 time=96
note_off channel=0 note=52 velocity=0 time=96
note_on channel=0 note=57 velocity=50 time=96
note_off channel=0 note=57 velocity=0 time=96
note_on channel=0 note=52 velocity=50 time=96
note_on channel=0 note=74 velocity=50 time=0
note_off channel=0 note=74 velocity=0 time=96
note_on channel=0 note=73 velocity=50 time=0
note_off channel=0 note=52 velocity=0 time=0
note_on channel=0 note=69 velocity=50 time=96
note_off channel=0 note=73 velocity=0 time=0
note_on channel=0 note=66 velocity=50 time=0
note_on channel=0 note=71 velocity=50 time=0
note_on channel=0 note=50 velocity=50 time=0
note_off channel=0 note=69 velocity=0 time=96
note_off channel=0 note=50 velocity=0 time=0
note_off channel=0 note=71 velocity=0 time=0
note_off channel=0 note=66 velocity=0 time=0
note_on channel=0 note=54 velocity=50 time=96
note_off channel=0 note=54 velocity=0 time=96
note_on channel=0 note=69 velocity=50 time=96
note_on channel=0 note=66 velocity=50 time=0
note_on channel=0 note=71 velocity=50 time=0
note_on channel=0 note=59 velocity=50 time=0
note_off channel=0 note=69 velocity=0 time=96
note_off channel=0 note=59 velocity=0 time=0
note_off channel=0 note=66 velocity=0 time=0
note_off channel=0 note=71 velocity=0 time=0
note_on channel=0 note=54 velocity=50 time=96
note_off channel=0 note=54 velocity=0 time=96
note_on channel=0 note=71 velocity=50 time=96
note_on channel=0 note=68 velocity=50 time=0
note_on channel=0 note=64 velocity=50 time=0
note_on channel=0 note=52 velocity=50 time=0
note_off channel=0 note=71 velocity=0 time=96
note_off channel=0 note=68 velocity=0 time=0
note_off channel=0 note=64 velocity=0 time=0
note_off channel=0 note=52 velocity=0 time=0
note_on channel=0 note=56 velocity=50 time=96
note_off channel=0 note=56 velocity=0 time=96
note_on channel=0 note=59 velocity=50 time=96
note_on channel=0 note=64 velocity=50 time=0
note_on channel=0 note=68 velocity=50 time=0
note_on channel=0 note=74 velocity=50 time=0
note_off channel=0 note=59 velocity=0 time=96
note_off channel=0 note=74 velocity=0 time=0
note_off channel=0 note=68 velocity=0 time=0
note_off channel=0 note=64 velocity=0 time=0
note_on channel=0 note=56 velocity=50 time=96
note_on channel=0 note=73 velocity=50 time=96
note_off channel=0 note=56 velocity=0 time=0
note_on channel=0 note=61 velocity=50 time=96
note_on channel=0 note=45 velocity=50 time=0
note_on channel=0 note=69 velocity=50 time=0
note_off channel=0 note=73 velocity=0 time=0
note_off channel=0 note=45 velocity=0 time=96
note_off channel=0 note=61 velocity=0 time=0
note_off channel=0 note=69 velocity=0 time=0
note_on channel=0 note=52 velocity=50 time=96
note_off channel=0 note=52 velocity=0 time=96
note_on channel=0 note=57 velocity=50 time=96
note_off channel=0 note=57 velocity=0 time=96
note_on channel=0 note=56 velocity=50 time=96
note_off channel=0 note=56 velocity=0 time=96
note_on channel=0 note=57 velocity=50 time=96
note_off channel=0 note=57 velocity=0 time=96
note_on channel=0 note=54 velocity=50 time=96
note_on channel=0 note=50 velocity=50 time=0
note_off channel=0 note=50 velocity=0 time=96
note_off channel=0 note=54 velocity=0 time=0
note_on channel=0 note=49 velocity=50 time=96
note_on channel=0 note=52 velocity=50 time=0
note_off channel=0 note=49 velocity=0 time=96
note_off channel=0 note=52 velocity=0 time=0
note_on channel=0 note=47 velocity=50 time=96
note_on channel=0 note=50 velocity=50 time=0
note_off channel=0 note=47 velocity=0 time=96
note_off channel=0 note=50 velocity=0 time=0
note_on channel=0 note=45 velocity=50 time=96
note_on channel=0 note=49 velocity=50 time=0
note_on channel=0 note=85 velocity=50 time=0
note_on channel=0 note=86 velocity=50 time=96
note_off channel=0 note=45 velocity=0 time=0
note_off channel=0 note=49 velocity=0 time=0
note_off channel=0 note=85 velocity=0 time=0
note_off channel=0 note=86 velocity=0 time=96
note_on channel=0 note=88 velocity=50 time=0
note_off channel=0 note=88 velocity=0 time=96
note_on channel=0 note=86 velocity=50 time=96
note_on channel=0 note=52 velocity=50 time=0
note_on channel=0 note=85 velocity=50 time=96
note_off channel=0 note=52 velocity=0 time=0
note_off channel=0 note=86 velocity=0 time=0
note_on channel=0 note=83 velocity=50 time=96
note_off channel=0 note=85 velocity=0 time=0
note_off channel=0 note=83 velocity=0 time=96
note_on channel=0 note=81 velocity=50 time=96
note_on channel=0 note=49 velocity=50 time=0
note_off channel=0 note=81 velocity=0 time=96
note_on channel=0 note=83 velocity=50 time=0
note_off channel=0 note=49 velocity=0 time=0
note_on channel=0 note=85 velocity=50 time=96
note_off channel=0 note=83 velocity=0 time=0
note_off channel=0 note=85 velocity=0 time=96
note_on channel=0 note=57 velocity=50 time=96
note_on channel=0 note=81 velocity=50 time=0
note_off channel=0 note=57 velocity=0 time=96
note_off channel=0 note=81 velocity=0 time=0
note_on channel=0 note=80 velocity=50 time=0
note_off channel=0 note=80 velocity=0 time=96
note_on channel=0 note=78 velocity=50 time=0
note_off channel=0 note=78 velocity=0 time=96
note_on channel=0 note=47 velocity=50 time=96
note_on channel=0 note=57 velocity=50 time=0
note_on channel=0 note=76 velocity=50 time=0
note_on channel=0 note=74 velocity=50 time=96
note_off channel=0 note=47 velocity=0 time=0
note_off channel=0 note=57 velocity=0 time=0
note_off channel=0 note=76 velocity=0 time=0
note_on channel=0 note=76 velocity=50 time=96
note_off channel=0 note=74 velocity=0 time=0
note_off channel=0 note=76 velocity=0 time=96
note_on channel=0 note=56 velocity=50 time=96
note_on channel=0 note=76 velocity=50 time=0
note_on channel=0 note=78 velocity=50 time=96
note_off channel=0 note=56 velocity=0 time=0
note_off channel=0 note=76 velocity=0 time=0
note_on channel=0 note=74 velocity=50 time=96
note_off channel=0 note=78 velocity=0 time=0
note_off channel=0 note=74 velocity=0 time=96
note_on channel=0 note=73 velocity=50 time=96
note_on channel=0 note=57 velocity=50 time=0
note_on channel=0 note=49 velocity=50 time=0
note_on channel=0 note=71 velocity=50 time=96
note_off channel=0 note=57 velocity=0 time=0
note_off channel=0 note=49 velocity=0 time=0
note_off channel=0 note=73 velocity=0 time=0
note_on channel=0 note=69 velocity=50 time=96
note_off channel=0 note=71 velocity=0 time=0
note_off channel=0 note=69 velocity=0 time=96
note_on channel=0 note=68 velocity=50 time=96
note_on channel=0 note=71 velocity=50 time=96
note_off channel=0 note=68 velocity=0 time=0
note_on channel=0 note=69 velocity=50 time=96
note_off channel=0 note=71 velocity=0 time=0
note_off channel=0 note=69 velocity=0 time=96
note_on channel=0 note=59 velocity=50 time=96
note_on channel=0 note=50 velocity=50 time=0
note_on channel=0 note=66 velocity=50 time=0
note_off channel=0 note=59 velocity=0 time=96
note_off channel=0 note=50 velocity=0 time=0
note_off channel=0 note=66 velocity=0 time=0
note_on channel=0 note=69 velocity=50 time=0
note_on channel=0 note=81 velocity=50 time=96
note_off channel=0 note=69 velocity=0 time=0
note_off channel=0 note=81 velocity=0 time=96
note_on channel=0 note=69 velocity=50 time=96
note_on channel=0 note=81 velocity=50 time=96
note_off channel=0 note=69 velocity=0 time=0
note_on channel=0 note=69 velocity=50 time=96
note_on channel=0 note=59 velocity=50 time=0
note_off channel=0 note=81 velocity=0 time=0
note_off channel=0 note=59 velocity=0 time=96
note_off channel=0 note=69 velocity=0 time=0
note_on channel=0 note=61 velocity=50 time=96
note_on channel=0 note=66 velocity=50 time=0
note_on channel=0 note=51 velocity=50 time=0
note_on channel=0 note=69 velocity=50 time=96
note_off channel=0 note=61 velocity=0 time=0
note_off channel=0 note=66 velocity=0 time=0
note_off channel=0 note=51 velocity=0 time=0
note_on channel=0 note=81 velocity=50 time=96
note_off channel=0 note=69 velocity=0 time=0
note_off channel=0 note=81 velocity=0 time=96
note_on channel=0 note=69 velocity=50 time=96
note_on channel=0 note=57 velocity=50 time=0
note_on channel=0 note=73 velocity=50 time=96
note_off channel=0 note=69 velocity=0 time=0
note_off channel=0 note=57 velocity=0 time=0
note_on channel=0 note=85 velocity=50 time=96
note_off channel=0 note=73 velocity=0 time=0
note_off channel=0 note=85 velocity=0 time=96
note_on channel=0 note=52 velocity=50 time=96
note_on channel=0 note=73 velocity=50 time=0
note_on channel=0 note=57 velocity=50 time=0
note_on channel=0 note=76 velocity=50 time=96
note_off channel=0 note=57 velocity=0 time=0
note_off channel=0 note=73 velocity=0 time=0
note_off channel=0 note=52 velocity=0 time=0
note_on channel=0 note=80 velocity=50 time=96
note_off channel=0 note=76 velocity=0 time=0
note_off channel=0 note=80 velocity=0 time=96
note_on channel=0 note=81 velocity=50 time=96
note_off channel=0 note=81 velocity=0 time=96
note_on channel=0 note=83 velocity=50 time=0
note_off channel=0 note=83 velocity=0 time=96
note_on channel=0 note=85 velocity=50 time=0
note_off channel=0 note=85 velocity=0 time=96
note_on channel=0 note=83 velocity=50 time=96
note_on channel=0 note=56 velocity=50 time=0
note_on channel=0 note=85 velocity=50 time=96
note_off channel=0 note=83 velocity=0 time=0
note_off channel=0 note=56 velocity=0 time=0
note_on channel=0 note=54 velocity=50 time=96
note_on channel=0 note=86 velocity=50 time=0
note_off channel=0 note=85 velocity=0 time=0
note_off channel=0 note=54 velocity=0 time=96
note_off channel=0 note=86 velocity=0 time=0
note_on channel=0 note=85 velocity=50 time=96
note_on channel=0 note=52 velocity=50 time=0
note_on channel=0 note=86 velocity=50 time=96
note_off channel=0 note=85 velocity=0 time=0
note_off channel=0 note=52 velocity=0 time=0
note_on channel=0 note=50 velocity=50 time=96
note_off channel=0 note=86 velocity=0 time=0
note_on channel=0 note=83 velocity=50 time=0
note_off channel=0 note=83 velocity=0 time=96
note_off channel=0 note=50 velocity=0 time=0
note_on channel=0 note=85 velocity=50 time=96
note_on channel=0 note=49 velocity=50 time=0
note_on channel=0 note=45 velocity=50 time=0
note_on channel=0 note=86 velocity=50 time=96
note_off channel=0 note=85 velocity=0 time=0
note_off channel=0 note=49 velocity=0 time=0
note_off channel=0 note=45 velocity=0 time=0
note_on channel=0 note=88 velocity=50 time=96
note_off channel=0 note=86 velocity=0 time=0
note_off channel=0 note=88 velocity=0 time=96
note_on channel=0 note=52 velocity=50 time=96
note_on channel=0 note=86 velocity=50 time=0
note_on channel=0 note=85 velocity=50 time=96
note_off channel=0 note=52 velocity=0 time=0
note_off channel=0 note=86 velocity=0 time=0
note_on channel=0 note=83 velocity=50 time=96
note_off channel=0 note=85 velocity=0 time=0
note_off channel=0 note=83 velocity=0 time=96
note_on channel=0 note=81 velocity=50 time=96
note_on channel=0 note=49 velocity=50 time=0
note_off channel=0 note=81 velocity=0 time=96
note_on channel=0 note=83 velocity=50 time=0
note_off channel=0 note=49 velocity=0 time=0
note_on channel=0 note=85 velocity=50 time=96
note_off channel=0 note=83 velocity=0 time=0
note_off channel=0 note=85 velocity=0 time=96
note_on channel=0 note=57 velocity=50 time=96
note_on channel=0 note=81 velocity=50 time=0
note_on channel=0 note=80 velocity=50 time=96
note_off channel=0 note=57 velocity=0 time=0
note_off channel=0 note=81 velocity=0 time=0
note_on channel=0 note=78 velocity=50 time=96
note_off channel=0 note=80 velocity=0 time=0
note_off channel=0 note=78 velocity=0 time=96
note_on channel=0 note=57 velocity=50 time=96
note_on channel=0 note=47 velocity=50 time=0
note_on channel=0 note=76 velocity=50 time=0
note_on channel=0 note=74 velocity=50 time=96
note_off channel=0 note=57 velocity=0 time=0
note_off channel=0 note=47 velocity=0 time=0
note_off channel=0 note=76 velocity=0 time=0
note_on channel=0 note=76 velocity=50 time=96
note_off channel=0 note=74 velocity=0 time=0
note_off channel=0 note=76 velocity=0 time=96
note_on channel=0 note=76 velocity=50 time=96
note_on channel=0 note=56 velocity=50 time=0
note_on channel=0 note=78 velocity=50 time=96
note_off channel=0 note=56 velocity=0 time=0
note_off channel=0 note=76 velocity=0 time=0
note_on channel=0 note=74 velocity=50 time=96
note_off channel=0 note=78 velocity=0 time=0
note_off channel=0 note=74 velocity=0 time=96
note_on channel=0 note=49 velocity=50 time=96
note_on channel=0 note=73 velocity=50 time=0
note_on channel=0 note=57 velocity=50 time=0
note_off channel=0 note=49 velocity=0 time=96
note_on channel=0 note=71 velocity=50 time=0
note_off channel=0 note=57 velocity=0 time=0
note_off channel=0 note=73 velocity=0 time=0
note_on channel=0 note=69 velocity=50 time=96
note_off channel=0 note=71 velocity=0 time=0
note_off channel=0 note=69 velocity=0 time=96
note_on channel=0 note=68 velocity=50 time=96
note_on channel=0 note=71 velocity=50 time=96
note_off channel=0 note=68 velocity=0 time=0
note_on channel=0 note=69 velocity=50 time=96
note_off channel=0 note=71 velocity=0 time=0
note_off channel=0 note=69 velocity=0 time=96
note_on channel=0 note=69 velocity=50 time=96
note_on channel=0 note=50 velocity=50 time=0
note_on channel=0 note=59 velocity=50 time=0
note_off channel=0 note=69 velocity=0 time=96
note_off channel=0 note=50 velocity=0 time=0
note_off channel=0 note=59 velocity=0 time=0
note_on channel=0 note=78 velocity=50 time=0
note_on channel=0 note=69 velocity=50 time=96
note_off channel=0 note=78 velocity=0 time=0
note_off channel=0 note=69 velocity=0 time=96
note_on channel=0 note=76 velocity=50 time=96
note_on channel=0 note=52 velocity=50 time=0
note_on channel=0 note=61 velocity=50 time=0
note_off channel=0 note=76 velocity=0 time=96
note_off channel=0 note=52 velocity=0 time=0
note_on channel=0 note=69 velocity=50 time=0
note_off channel=0 note=61 velocity=0 time=0
note_on channel=0 note=62 velocity=50 time=96
note_on channel=0 note=74 velocity=50 time=0
note_on channel=0 note=54 velocity=50 time=0
note_off channel=0 note=69 velocity=0 time=0
note_off channel=0 note=62 velocity=0 time=96
note_off channel=0 note=54 velocity=0 time=0
note_off channel=0 note=74 velocity=0 time=0
note_on channel=0 note=52 velocity=50 time=96
note_on channel=0 note=61 velocity=50 time=0
note_on channel=0 note=76 velocity=50 time=0
note_on channel=0 note=69 velocity=50 time=96
note_off channel=0 note=52 velocity=0 time=0
note_off channel=0 note=76 velocity=0 time=0
note_off channel=0 note=61 velocity=0 time=0
note_on channel=0 note=81 velocity=50 time=96
note_off channel=0 note=69 velocity=0 time=0
note_off channel=0 note=81 velocity=0 time=96
note_on channel=0 note=52 velocity=50 time=96
note_on channel=0 note=59 velocity=50 time=0
note_on channel=0 note=76 velocity=50 time=0
note_off channel=0 note=52 velocity=0 time=96
note_off channel=0 note=76 velocity=0 time=0
note_on channel=0 note=68 velocity=50 time=0
note_off channel=0 note=59 velocity=0 time=0
note_off channel=0 note=68 velocity=0 time=96
note_on channel=0 note=80 velocity=50 time=0
note_off channel=0 note=80 velocity=0 time=96
note_on channel=0 note=80 velocity=50 time=96
note_on channel=0 note=45 velocity=50 time=0
note_on channel=0 note=59 velocity=50 time=0
note_on channel=0 note=50 velocity=50 time=0
note_on channel=0 note=52 velocity=50 time=0
note_off channel=0 note=80 velocity=0 time=96
note_off channel=0 note=45 velocity=0 time=0
note_off channel=0 note=50 velocity=0 time=0
note_off channel=0 note=52 velocity=0 time=0
note_on channel=0 note=86 velocity=50 time=0
note_off channel=0 note=59 velocity=0 time=0
note_on channel=0 note=85 velocity=50 time=96
note_off channel=0 note=86 velocity=0 time=0
note_off channel=0 note=85 velocity=0 time=96
note_on channel=0 note=83 velocity=50 time=96
note_on channel=0 note=81 velocity=50 time=96
note_off channel=0 note=83 velocity=0 time=0
note_on channel=0 note=80 velocity=50 time=96
note_off channel=0 note=81 velocity=0 time=0
note_off channel=0 note=80 velocity=0 time=96
note_on channel=0 note=81 velocity=50 time=96
note_on channel=0 note=49 velocity=50 time=0
note_on channel=0 note=57 velocity=50 time=0
note_off channel=0 note=81 velocity=0 time=96
note_off channel=0 note=49 velocity=0 time=0
note_off channel=0 note=57 velocity=0 time=0
note_on channel=0 note=59 velocity=50 time=96
note_off channel=0 note=59 velocity=0 time=96
note_on channel=0 note=61 velocity=50 time=96
note_off channel=0 note=61 velocity=0 time=96
note_on channel=0 note=62 velocity=50 time=96
note_off channel=0 note=62 velocity=0 time=96
note_on channel=0 note=69 velocity=50 time=96
note_on channel=0 note=61 velocity=50 time=0
note_on channel=0 note=64 velocity=50 time=0
note_off channel=0 note=69 velocity=0 time=96
note_off channel=0 note=64 velocity=0 time=0
note_off channel=0 note=61 velocity=0 time=0
note_on channel=0 note=71 velocity=50 time=96
note_off channel=0 note=71 velocity=0 time=96
note_on channel=0 note=73 velocity=50 time=96
note_off channel=0 note=73 velocity=0 time=96
note_on channel=0 note=74 velocity=50 time=96
note_on channel=0 note=64 velocity=50 time=0
note_off channel=0 note=74 velocity=0 time=96
note_off channel=0 note=64 velocity=0 time=0
note_on channel=0 note=76 velocity=50 time=96
note_on channel=0 note=66 velocity=50 time=0
note_on channel=0 note=58 velocity=50 time=0
note_off channel=0 note=76 velocity=0 time=96
note_off channel=0 note=66 velocity=0 time=0
note_on channel=0 note=75 velocity=50 time=0
note_off channel=0 note=58 velocity=0 time=0
note_on channel=0 note=76 velocity=50 time=96
note_off channel=0 note=75 velocity=0 time=0
note_off channel=0 note=76 velocity=0 time=96
note_on channel=0 note=78 velocity=50 time=96
note_on channel=0 note=85 velocity=50 time=96
note_off channel=0 note=78 velocity=0 time=0
note_on channel=0 note=77 velocity=50 time=96
note_off channel=0 note=85 velocity=0 time=0
note_off channel=0 note=77 velocity=0 time=96
note_on channel=0 note=64 velocity=50 time=96
note_on channel=0 note=59 velocity=50 time=0
note_on channel=0 note=78 velocity=50 time=0
note_off channel=0 note=59 velocity=0 time=96
note_off channel=0 note=78 velocity=0 time=0
note_off channel=0 note=64 velocity=0 time=0
note_on channel=0 note=77 velocity=50 time=0
note_on channel=0 note=78 velocity=50 time=96
note_off channel=0 note=77 velocity=0 time=0
note_off channel=0 note=78 velocity=0 time=96
note_on channel=0 note=79 velocity=50 time=96
note_on channel=0 note=63 velocity=50 time=0
note_on channel=0 note=80 velocity=50 time=96
note_off channel=0 note=79 velocity=0 time=0
note_off channel=0 note=63 velocity=0 time=0
note_on channel=0 note=82 velocity=50 time=96
note_off channel=0 note=80 velocity=0 time=0
note_off channel=0 note=82 velocity=0 time=96
note_on channel=0 note=83 velocity=50 time=96
note_on channel=0 note=59 velocity=50 time=0
note_off channel=0 note=83 velocity=0 time=96
note_off channel=0 note=59 velocity=0 time=0
note_on channel=0 note=61 velocity=50 time=480
note_off channel=0 note=61 velocity=0 time=96
note_on channel=0 note=62 velocity=50 time=96
note_off channel=0 note=62 velocity=0 time=96
note_on channel=0 note=54 velocity=50 time=96
note_on channel=0 note=74 velocity=50 time=0
note_off channel=0 note=74 velocity=0 time=96
note_off channel=0 note=54 velocity=0 time=0
note_on channel=0 note=56 velocity=50 time=96
note_on channel=0 note=76 velocity=50 time=0
note_off channel=0 note=56 velocity=0 time=96
note_off channel=0 note=76 velocity=0 time=0
note_on channel=0 note=78 velocity=50 time=96
note_on channel=0 note=57 velocity=50 time=0
note_off channel=0 note=57 velocity=0 time=96
note_off channel=0 note=78 velocity=0 time=0
note_on channel=0 note=76 velocity=50 time=96
note_on channel=0 note=56 velocity=50 time=0
note_on channel=0 note=64 velocity=50 time=0
note_on channel=0 note=80 velocity=50 time=96
note_off channel=0 note=76 velocity=0 time=0
note_off channel=0 note=56 velocity=0 time=0
note_off channel=0 note=64 velocity=0 time=0
note_on channel=0 note=81 velocity=50 time=96
note_off channel=0 note=80 velocity=0 time=0
note_off channel=0 note=81 velocity=0 time=96
note_on channel=0 note=83 velocity=50 time=96
note_on channel=0 note=80 velocity=50 time=96
note_off channel=0 note=83 velocity=0 time=0
note_on channel=0 note=74 velocity=50 time=96
note_off channel=0 note=80 velocity=0 time=0
note_off channel=0 note=74 velocity=0 time=96
note_on channel=0 note=57 velocity=50 time=96
note_on channel=0 note=73 velocity=50 time=0
note_on channel=0 note=71 velocity=50 time=96
note_off channel=0 note=73 velocity=0 time=0
note_off channel=0 note=57 velocity=0 time=0
note_on channel=0 note=73 velocity=50 time=96
note_off channel=0 note=71 velocity=0 time=0
note_off channel=0 note=73 velocity=0 time=96
note_on channel=0 note=74 velocity=50 time=96
note_on channel=0 note=73 velocity=50 time=96
note_off channel=0 note=74 velocity=0 time=0
note_off channel=0 note=73 velocity=0 time=96
note_on channel=0 note=74 velocity=50 time=0
note_on channel=0 note=59 velocity=50 time=0
note_off channel=0 note=59 velocity=0 time=96
note_off channel=0 note=74 velocity=0 time=0
note_on channel=0 note=76 velocity=50 time=96
note_on channel=0 note=61 velocity=50 time=0
note_on channel=0 note=78 velocity=50 time=96
note_off channel=0 note=76 velocity=0 time=0
note_off channel=0 note=61 velocity=0 time=0
note_on channel=0 note=80 velocity=50 time=96
note_off channel=0 note=78 velocity=0 time=0
note_off channel=0 note=80 velocity=0 time=96
note_on channel=0 note=81 velocity=50 time=96
note_on channel=0 note=76 velocity=50 time=96
note_off channel=0 note=81 velocity=0 time=0
note_on channel=0 note=73 velocity=50 time=96
note_off channel=0 note=76 velocity=0 time=0
note_off channel=0 note=73 velocity=0 time=96
note_on channel=0 note=50 velocity=50 time=96
note_on channel=0 note=59 velocity=50 time=0
note_on channel=0 note=78 velocity=50 time=0
note_off channel=0 note=50 velocity=0 time=96
note_off channel=0 note=59 velocity=0 time=0
note_off channel=0 note=78 velocity=0 time=0
note_on channel=0 note=71 velocity=50 time=0
note_on channel=0 note=78 velocity=50 time=96
note_off channel=0 note=71 velocity=0 time=0
note_off channel=0 note=78 velocity=0 time=96
note_on channel=0 note=59 velocity=50 time=96
note_on channel=0 note=81 velocity=50 time=0
note_on channel=0 note=71 velocity=50 time=96
note_off channel=0 note=59 velocity=0 time=0
note_off channel=0 note=81 velocity=0 time=0
note_off channel=0 note=71 velocity=0 time=96
note_on channel=0 note=81 velocity=50 time=0
note_off channel=0 note=81 velocity=0 time=96
note_on channel=0 note=80 velocity=50 time=96
note_on channel=0 note=52 velocity=50 time=0
note_on channel=0 note=59 velocity=50 time=0
note_on channel=0 note=71 velocity=50 time=96
note_off channel=0 note=80 velocity=0 time=0
note_off channel=0 note=52 velocity=0 time=0
note_off channel=0 note=59 velocity=0 time=0
note_off channel=0 note=71 velocity=0 time=96
note_on channel=0 note=80 velocity=50 time=0
note_off channel=0 note=80 velocity=0 time=96
note_on channel=0 note=83 velocity=50 time=96
note_on channel=0 note=62 velocity=50 time=0
note_on channel=0 note=80 velocity=50 time=96
note_off channel=0 note=83 velocity=0 time=0
note_off channel=0 note=62 velocity=0 time=0
note_on channel=0 note=61 velocity=50 time=96
note_off channel=0 note=80 velocity=0 time=0
note_on channel=0 note=83 velocity=50 time=0
note_off channel=0 note=61 velocity=0 time=96
note_off channel=0 note=83 velocity=0 time=0
note_on channel=0 note=81 velocity=50 time=96
note_on channel=0 note=57 velocity=50 time=0
note_on channel=0 note=61 velocity=50 time=0
note_on channel=0 note=83 velocity=50 time=96
note_off channel=0 note=81 velocity=0 time=0
note_off channel=0 note=57 velocity=0 time=0
note_off channel=0 note=61 velocity=0 time=0
note_on channel=0 note=80 velocity=50 time=96
note_off channel=0 note=83 velocity=0 time=0
note_off channel=0 note=80 velocity=0 time=96
note_on channel=0 note=81 velocity=50 time=96
note_on channel=0 note=83 velocity=50 time=96
note_off channel=0 note=81 velocity=0 time=0
note_on channel=0 note=84 velocity=50 time=96
note_off channel=0 note=83 velocity=0 time=0
note_off channel=0 note=84 velocity=0 time=96
note_on channel=0 note=64 velocity=50 time=96
note_on channel=0 note=85 velocity=50 time=0
note_off channel=0 note=85 velocity=0 time=96
note_on channel=0 note=86 velocity=50 time=0
note_off channel=0 note=64 velocity=0 time=0
note_on channel=0 note=88 velocity=50 time=96
note_off channel=0 note=86 velocity=0 time=0
note_off channel=0 note=88 velocity=0 time=96
note_on channel=0 note=90 velocity=50 time=96
note_on channel=0 note=92 velocity=50 time=96
note_on channel=0 note=62 velocity=50 time=0
note_off channel=0 note=90 velocity=0 time=0
note_off channel=0 note=92 velocity=0 time=96
note_off channel=0 note=62 velocity=0 time=0
note_on channel=0 note=93 velocity=50 time=0
note_on channel=0 note=61 velocity=50 time=0
note_off channel=0 note=61 velocity=0 time=96
note_off channel=0 note=93 velocity=0 time=0
note_on channel=0 note=78 velocity=50 time=96
note_on channel=0 note=50 velocity=50 time=0
note_on channel=0 note=59 velocity=50 time=0
note_on channel=0 note=71 velocity=50 time=96
note_off channel=0 note=50 velocity=0 time=0
note_off channel=0 note=59 velocity=0 time=0
note_off channel=0 note=78 velocity=0 time=0
note_on channel=0 note=78 velocity=50 time=96
note_off channel=0 note=71 velocity=0 time=0
note_off channel=0 note=78 velocity=0 time=96
note_on channel=0 note=81 velocity=50 time=96
note_on channel=0 note=51 velocity=50 time=0
note_on channel=0 note=59 velocity=50 time=0
note_on channel=0 note=71 velocity=50 time=96
note_off channel=0 note=81 velocity=0 time=0
note_off channel=0 note=51 velocity=0 time=0
note_off channel=0 note=59 velocity=0 time=0
note_off channel=0 note=71 velocity=0 time=96
note_on channel=0 note=81 velocity=50 time=0
note_off channel=0 note=81 velocity=0 time=96
note_on channel=0 note=59 velocity=50 time=96
note_on channel=0 note=80 velocity=50 time=0
note_on channel=0 note=52 velocity=50 time=0
note_on channel=0 note=71 velocity=50 time=96
note_off channel=0 note=59 velocity=0 time=0
note_off channel=0 note=80 velocity=0 time=0
note_off channel=0 note=52 velocity=0 time=0
note_off channel=0 note=71 velocity=0 time=96
note_on channel=0 note=80 velocity=50 time=0
note_off channel=0 note=80 velocity=0 time=96
note_on channel=0 note=62 velocity=50 time=96
note_on channel=0 note=83 velocity=50 time=0
note_on channel=0 note=80 velocity=50 time=96
note_off channel=0 note=62 velocity=0 time=0
note_off channel=0 note=83 velocity=0 time=0
note_on channel=0 note=61 velocity=50 time=96
note_off channel=0 note=80 velocity=0 time=0
note_on channel=0 note=88 velocity=50 time=0
note_off channel=0 note=88 velocity=0 time=96
note_off channel=0 note=61 velocity=0 time=0
note_on channel=0 note=45 velocity=50 time=96
note_on channel=0 note=85 velocity=50 time=0
note_on channel=0 note=57 velocity=50 time=0
note_on channel=0 note=81 velocity=50 time=96
note_off channel=0 note=45 velocity=0 time=0
note_off channel=0 note=85 velocity=0 time=0
note_off channel=0 note=57 velocity=0 time=0
note_on channel=0 note=76 velocity=50 time=96
note_off channel=0 note=81 velocity=0 time=0
note_off channel=0 note=76 velocity=0 time=96
note_on channel=0 note=73 velocity=50 time=96
note_on channel=0 note=74 velocity=50 time=96
note_off channel=0 note=73 velocity=0 time=0
note_on channel=0 note=71 velocity=50 time=96
note_off channel=0 note=74 velocity=0 time=0
note_off channel=0 note=71 velocity=0 time=96
note_on channel=0 note=57 velocity=50 time=96
note_on channel=0 note=69 velocity=50 time=0
note_off channel=0 note=69 velocity=0 time=96
note_off channel=0 note=57 velocity=0 time=0
note_on channel=0 note=59 velocity=50 time=96
note_off channel=0 note=59 velocity=0 time=96
note_on channel=0 note=61 velocity=50 time=96
note_off channel=0 note=61 velocity=0 time=96
note_on channel=0 note=62 velocity=50 time=96
note_off channel=0 note=62 velocity=0 time=96
note_on channel=0 note=69 velocity=50 time=96
note_on channel=0 note=61 velocity=50 time=0
note_on channel=0 note=64 velocity=50 time=0
note_off channel=0 note=64 velocity=0 time=96
note_off channel=0 note=61 velocity=0 time=0
note_off channel=0 note=69 velocity=0 time=0
note_on channel=0 note=71 velocity=50 time=96
note_off channel=0 note=71 velocity=0 time=96
note_on channel=0 note=73 velocity=50 time=96
note_off channel=0 note=73 velocity=0 time=96
note_on channel=0 note=74 velocity=50 time=96
note_on channel=0 note=64 velocity=50 time=0
note_off channel=0 note=64 velocity=0 time=96
note_off channel=0 note=74 velocity=0 time=0
note_on channel=0 note=76 velocity=50 time=96
note_on channel=0 note=58 velocity=50 time=0
note_on channel=0 note=66 velocity=50 time=0
note_on channel=0 note=75 velocity=50 time=96
note_off channel=0 note=76 velocity=0 time=0
note_off channel=0 note=58 velocity=0 time=0
note_off channel=0 note=66 velocity=0 time=0
note_off channel=0 note=75 velocity=0 time=96
note_on channel=0 note=76 velocity=50 time=0
note_off channel=0 note=76 velocity=0 time=96
note_on channel=0 note=78 velocity=50 time=96
note_off channel=0 note=78 velocity=0 time=96
note_on channel=0 note=85 velocity=50 time=0
note_on channel=0 note=77 velocity=50 time=96
note_off channel=0 note=85 velocity=0 time=0
note_off channel=0 note=77 velocity=0 time=96
note_on channel=0 note=78 velocity=50 time=96
note_on channel=0 note=64 velocity=50 time=0
note_on channel=0 note=59 velocity=50 time=0
note_off channel=0 note=64 velocity=0 time=96
note_off channel=0 note=59 velocity=0 time=0
note_on channel=0 note=77 velocity=50 time=0
note_off channel=0 note=78 velocity=0 time=0
note_on channel=0 note=78 velocity=50 time=96
note_off channel=0 note=77 velocity=0 time=0
note_off channel=0 note=78 velocity=0 time=96
note_on channel=0 note=79 velocity=50 time=96
note_on channel=0 note=63 velocity=50 time=0
note_on channel=0 note=80 velocity=50 time=96
note_off channel=0 note=79 velocity=0 time=0
note_off channel=0 note=63 velocity=0 time=0
note_off channel=0 note=80 velocity=0 time=96
note_on channel=0 note=82 velocity=50 time=0
note_off channel=0 note=82 velocity=0 time=96
note_on channel=0 note=59 velocity=50 time=96
note_on channel=0 note=83 velocity=50 time=0
note_off channel=0 note=83 velocity=0 time=96
note_off channel=0 note=59 velocity=0 time=0
note_on channel=0 note=61 velocity=50 time=480
note_off channel=0 note=61 velocity=0 time=96
note_on channel=0 note=62 velocity=50 time=96
note_off channel=0 note=62 velocity=0 time=96
note_on channel=0 note=74 velocity=50 time=96
note_on channel=0 note=54 velocity=50 time=0
note_off channel=0 note=74 velocity=0 time=96
note_off channel=0 note=54 velocity=0 time=0
note_on channel=0 note=56 velocity=50 time=96
note_on channel=0 note=76 velocity=50 time=0
note_off channel=0 note=56 velocity=0 time=96
note_off channel=0 note=76 velocity=0 time=0
note_on channel=0 note=78 velocity=50 time=96
note_on channel=0 note=57 velocity=50 time=0
note_off channel=0 note=78 velocity=0 time=96
note_off channel=0 note=57 velocity=0 time=0
note_on channel=0 note=64 velocity=50 time=96
note_on channel=0 note=56 velocity=50 time=0
note_on channel=0 note=76 velocity=50 time=0
note_off channel=0 note=64 velocity=0 time=96
note_off channel=0 note=56 velocity=0 time=0
note_on channel=0 note=80 velocity=50 time=0
note_off channel=0 note=76 velocity=0 time=0
note_on channel=0 note=81 velocity=50 time=96
note_off channel=0 note=80 velocity=0 time=0
note_off channel=0 note=81 velocity=0 time=96
note_on channel=0 note=83 velocity=50 time=96
note_on channel=0 note=80 velocity=50 time=96
note_off channel=0 note=83 velocity=0 time=0
note_on channel=0 note=74 velocity=50 time=96
note_off channel=0 note=80 velocity=0 time=0
note_off channel=0 note=74 velocity=0 time=96
note_on channel=0 note=57 velocity=50 time=96
note_on channel=0 note=73 velocity=50 time=0
note_off channel=0 note=73 velocity=0 time=96
note_on channel=0 note=71 velocity=50 time=0
note_off channel=0 note=57 velocity=0 time=0
note_off channel=0 note=71 velocity=0 time=96
note_on channel=0 note=73 velocity=50 time=0
note_off channel=0 note=73 velocity=0 time=96
note_on channel=0 note=74 velocity=50 time=96
note_on channel=0 note=73 velocity=50 time=96
note_off channel=0 note=74 velocity=0 time=0
note_on channel=0 note=74 velocity=50 time=96
note_on channel=0 note=59 velocity=50 time=0
note_off channel=0 note=73 velocity=0 time=0
note_off channel=0 note=74 velocity=0 time=96
note_off channel=0 note=59 velocity=0 time=0
note_on channel=0 note=61 velocity=50 time=96
note_on channel=0 note=76 velocity=50 time=0
note_on channel=0 note=78 velocity=50 time=96
note_off channel=0 note=61 velocity=0 time=0
note_off channel=0 note=76 velocity=0 time=0
note_off channel=0 note=78 velocity=0 time=96
note_on channel=0 note=80 velocity=50 time=0
note_off channel=0 note=80 velocity=0 time=96
note_on channel=0 note=81 velocity=50 time=96
note_off channel=0 note=81 velocity=0 time=96
note_on channel=0 note=76 velocity=50 time=0
note_on channel=0 note=73 velocity=50 time=96
note_off channel=0 note=76 velocity=0 time=0
note_off channel=0 note=73 velocity=0 time=96
note_on channel=0 note=78 velocity=50 time=96
note_on channel=0 note=59 velocity=50 time=0
note_on channel=0 note=50 velocity=50 time=0
note_on channel=0 note=71 velocity=50 time=96
note_off channel=0 note=50 velocity=0 time=0
note_off channel=0 note=78 velocity=0 time=0
note_off channel=0 note=59 velocity=0 time=0
note_on channel=0 note=78 velocity=50 time=96
note_off channel=0 note=71 velocity=0 time=0
note_off channel=0 note=78 velocity=0 time=96
note_on channel=0 note=81 velocity=50 time=96
note_on channel=0 note=59 velocity=50 time=0
note_off channel=0 note=59 velocity=0 time=96
note_off channel=0 note=81 velocity=0 time=0
note_on channel=0 note=71 velocity=50 time=0
note_on channel=0 note=81 velocity=50 time=96
note_off channel=0 note=71 velocity=0 time=0
note_off channel=0 note=81 velocity=0 time=96
note_on channel=0 note=59 velocity=50 time=96
note_on channel=0 note=52 velocity=50 time=0
note_on channel=0 note=80 velocity=50 time=0
note_off channel=0 note=59 velocity=0 time=96
note_off channel=0 note=52 velocity=0 time=0
note_off channel=0 note=80 velocity=0 time=0
note_on channel=0 note=71 velocity=50 time=0
note_on channel=0 note=80 velocity=50 time=96
note_off channel=0 note=71 velocity=0 time=0
note_off channel=0 note=80 velocity=0 time=96
note_on channel=0 note=83 velocity=50 time=96
note_on channel=0 note=62 velocity=50 time=0
note_on channel=0 note=80 velocity=50 time=96
note_off channel=0 note=83 velocity=0 time=0
note_off channel=0 note=62 velocity=0 time=0
note_on channel=0 note=83 velocity=50 time=96
note_off channel=0 note=80 velocity=0 time=0
note_on channel=0 note=61 velocity=50 time=0
note_off channel=0 note=61 velocity=0 time=96
note_off channel=0 note=83 velocity=0 time=0
note_on channel=0 note=61 velocity=50 time=96
note_on channel=0 note=57 velocity=50 time=0
note_on channel=0 note=81 velocity=50 time=0
note_off channel=0 note=61 velocity=0 time=96
note_off channel=0 note=57 velocity=0 time=0
note_off channel=0 note=81 velocity=0 time=0
note_on channel=0 note=83 velocity=50 time=0
note_on channel=0 note=80 velocity=50 time=96
note_off channel=0 note=83 velocity=0 time=0
note_off channel=0 note=80 velocity=0 time=96
note_on channel=0 note=81 velocity=50 time=96
note_on channel=0 note=83 velocity=50 time=96
note_off channel=0 note=81 velocity=0 time=0
note_on channel=0 note=84 velocity=50 time=96
note_off channel=0 note=83 velocity=0 time=0
note_off channel=0 note=84 velocity=0 time=96
note_on channel=0 note=85 velocity=50 time=96
note_on channel=0 note=64 velocity=50 time=0
note_on channel=0 note=86 velocity=50 time=96
note_off channel=0 note=64 velocity=0 time=0
note_off channel=0 note=85 velocity=0 time=0
note_on channel=0 note=88 velocity=50 time=96
note_off channel=0 note=86 velocity=0 time=0
note_off channel=0 note=88 velocity=0 time=96
note_on channel=0 note=90 velocity=50 time=96
note_off channel=0 note=90 velocity=0 time=96
note_on channel=0 note=92 velocity=50 time=0
note_on channel=0 note=62 velocity=50 time=0
note_on channel=0 note=93 velocity=50 time=96
note_on channel=0 note=61 velocity=50 time=0
note_off channel=0 note=62 velocity=0 time=0
note_off channel=0 note=92 velocity=0 time=0
note_off channel=0 note=93 velocity=0 time=96
note_off channel=0 note=61 velocity=0 time=0
note_on channel=0 note=59 velocity=50 time=96
note_on channel=0 note=50 velocity=50 time=0
note_on channel=0 note=78 velocity=50 time=0
note_off channel=0 note=78 velocity=0 time=96
note_on channel=0 note=71 velocity=50 time=0
note_off channel=0 note=59 velocity=0 time=0
note_off channel=0 note=50 velocity=0 time=0
note_on channel=0 note=78 velocity=50 time=96
note_off channel=0 note=71 velocity=0 time=0
note_off channel=0 note=78 velocity=0 time=96
note_on channel=0 note=51 velocity=50 time=96
note_on channel=0 note=81 velocity=50 time=0
note_on channel=0 note=59 velocity=50 time=0
note_on channel=0 note=71 velocity=50 time=96
note_off channel=0 note=81 velocity=0 time=0
note_off channel=0 note=59 velocity=0 time=0
note_off channel=0 note=51 velocity=0 time=0
note_on channel=0 note=81 velocity=50 time=96
note_off channel=0 note=71 velocity=0 time=0
note_off channel=0 note=81 velocity=0 time=96
note_on channel=0 note=52 velocity=50 time=96
note_on channel=0 note=59 velocity=50 time=0
note_on channel=0 note=80 velocity=50 time=0
note_on channel=0 note=71 velocity=50 time=96
note_off channel=0 note=52 velocity=0 time=0
note_off channel=0 note=80 velocity=0 time=0
note_off channel=0 note=59 velocity=0 time=0
note_on channel=0 note=80 velocity=50 time=96
note_off channel=0 note=71 velocity=0 time=0
note_off channel=0 note=80 velocity=0 time=96
note_on channel=0 note=83 velocity=50 time=96
note_on channel=0 note=62 velocity=50 time=0
note_on channel=0 note=80 velocity=50 time=96
note_off channel=0 note=83 velocity=0 time=0
note_off channel=0 note=62 velocity=0 time=0
note_on channel=0 note=88 velocity=50 time=96
note_on channel=0 note=61 velocity=50 time=0
note_off channel=0 note=80 velocity=0 time=0
note_off channel=0 note=88 velocity=0 time=96
note_off channel=0 note=61 velocity=0 time=0
note_on channel=0 note=61 velocity=50 time=96
note_on channel=0 note=53 velocity=50 time=0
note_on channel=0 note=85 velocity=50 time=0
note_off channel=0 note=61 velocity=0 time=96
note_off channel=0 note=85 velocity=0 time=0
note_on channel=0 note=80 velocity=50 time=0
note_off channel=0 note=53 velocity=0 time=0
note_on channel=0 note=92 velocity=50 time=96
note_off channel=0 note=80 velocity=0 time=0
note_off channel=0 note=92 velocity=0 time=96
note_on channel=0 note=89 velocity=50 time=96
note_on channel=0 note=85 velocity=50 time=96
note_off channel=0 note=89 velocity=0 time=0
note_on channel=0 note=85 velocity=50 time=96
note_off channel=0 note=85 velocity=0 time=0
note_off channel=0 note=85 velocity=0 time=96
note_on channel=0 note=92 velocity=50 time=96
note_on channel=0 note=89 velocity=50 time=96
note_off channel=0 note=92 velocity=0 time=0
note_on channel=0 note=85 velocity=50 time=96
note_off channel=0 note=89 velocity=0 time=0
note_off channel=0 note=85 velocity=0 time=96
note_on channel=0 note=59 velocity=50 time=96
note_on channel=0 note=73 velocity=50 time=0
note_off channel=0 note=73 velocity=0 time=96
note_off channel=0 note=59 velocity=0 time=0
note_on channel=0 note=85 velocity=50 time=0
note_on channel=0 note=61 velocity=50 time=96
note_on channel=0 note=73 velocity=50 time=0
note_off channel=0 note=85 velocity=0 time=0
note_off channel=0 note=61 velocity=0 time=96
note_off channel=0 note=73 velocity=0 time=0
note_on channel=0 note=62 velocity=50 time=96
note_on channel=0 note=54 velocity=50 time=0
note_on channel=0 note=81 velocity=50 time=0
note_off channel=0 note=62 velocity=0 time=96
note_off channel=0 note=81 velocity=0 time=0
note_on channel=0 note=78 velocity=50 time=0
note_off channel=0 note=54 velocity=0 time=0
note_on channel=0 note=86 velocity=50 time=96
note_off channel=0 note=78 velocity=0 time=0
note_off channel=0 note=86 velocity=0 time=96
note_on channel=0 note=81 velocity=50 time=96
note_on channel=0 note=62 velocity=50 time=0
note_on channel=0 note=78 velocity=50 time=96
note_off channel=0 note=62 velocity=0 time=0
note_off channel=0 note=81 velocity=0 time=0
note_on channel=0 note=90 velocity=50 time=96
note_off channel=0 note=78 velocity=0 time=0
note_off channel=0 note=90 velocity=0 time=96
note_on channel=0 note=86 velocity=50 time=96
note_on channel=0 note=62 velocity=50 time=0
note_on channel=0 note=54 velocity=50 time=0
note_on channel=0 note=81 velocity=50 time=96
note_off channel=0 note=86 velocity=0 time=0
note_off channel=0 note=62 velocity=0 time=0
note_off channel=0 note=54 velocity=0 time=0
note_off channel=0 note=81 velocity=0 time=96
note_on channel=0 note=93 velocity=50 time=0
note_off channel=0 note=93 velocity=0 time=96
note_on channel=0 note=78 velocity=50 time=96
note_on channel=0 note=66 velocity=50 time=0
note_on channel=0 note=80 velocity=50 time=96
note_off channel=0 note=78 velocity=0 time=0
note_off channel=0 note=66 velocity=0 time=0
note_on channel=0 note=81 velocity=50 time=96
note_off channel=0 note=80 velocity=0 time=0
note_off channel=0 note=81 velocity=0 time=96
note_on channel=0 note=64 velocity=50 time=0
note_on channel=0 note=56 velocity=50 time=96
note_on channel=0 note=64 velocity=50 time=0
note_on channel=0 note=83 velocity=50 time=0
note_off channel=0 note=64 velocity=0 time=0
note_on channel=0 note=76 velocity=50 time=96
note_off channel=0 note=56 velocity=0 time=0
note_off channel=0 note=64 velocity=0 time=0
note_off channel=0 note=83 velocity=0 time=0
note_off channel=0 note=76 velocity=0 time=96
note_on channel=0 note=88 velocity=50 time=0
note_off channel=0 note=88 velocity=0 time=96
note_on channel=0 note=83 velocity=50 time=96
note_on channel=0 note=80 velocity=50 time=96
note_off channel=0 note=83 velocity=0 time=0
note_on channel=0 note=92 velocity=50 time=96
note_off channel=0 note=80 velocity=0 time=0
note_off channel=0 note=92 velocity=0 time=96
note_on channel=0 note=88 velocity=50 time=96
note_on channel=0 note=83 velocity=50 time=96
note_off channel=0 note=88 velocity=0 time=0
note_on channel=0 note=95 velocity=50 time=96
note_off channel=0 note=83 velocity=0 time=0
note_off channel=0 note=95 velocity=0 time=96
note_on channel=0 note=92 velocity=50 time=96
note_on channel=0 note=88 velocity=50 time=96
note_off channel=0 note=92 velocity=0 time=0
note_on channel=0 note=88 velocity=50 time=96
note_off channel=0 note=88 velocity=0 time=0
note_off channel=0 note=88 velocity=0 time=96
note_on channel=0 note=50 velocity=50 time=96
note_on channel=0 note=76 velocity=50 time=0
note_on channel=0 note=59 velocity=50 time=0
note_on channel=0 note=56 velocity=50 time=0
note_on channel=0 note=52 velocity=50 time=0
note_off channel=0 note=76 velocity=0 time=96
note_off channel=0 note=59 velocity=0 time=0
note_off channel=0 note=56 velocity=0 time=0
note_off channel=0 note=52 velocity=0 time=0
note_off channel=0 note=50 velocity=0 time=0
note_on channel=0 note=64 velocity=50 time=0
note_on channel=0 note=76 velocity=50 time=96
note_off channel=0 note=64 velocity=0 time=0
note_off channel=0 note=76 velocity=0 time=96
note_on channel=0 note=52 velocity=50 time=96
note_on channel=0 note=59 velocity=50 time=0
note_on channel=0 note=56 velocity=50 time=0
note_on channel=0 note=50 velocity=50 time=0
note_on channel=0 note=80 velocity=50 time=0
note_on channel=0 note=68 velocity=50 time=96
note_off channel=0 note=50 velocity=0 time=0
note_off channel=0 note=56 velocity=0 time=0
note_off channel=0 note=52 velocity=0 time=0
note_off channel=0 note=80 velocity=0 time=0
note_off channel=0 note=59 velocity=0 time=0
note_on channel=0 note=80 velocity=50 time=96
note_off channel=0 note=68 velocity=0 time=0
note_off channel=0 note=80 velocity=0 time=96
note_on channel=0 note=50 velocity=50 time=96
note_on channel=0 note=59 velocity=50 time=0
note_on channel=0 note=83 velocity=50 time=0
note_on channel=0 note=52 velocity=50 time=0
note_on channel=0 note=56 velocity=50 time=0
note_off channel=0 note=83 velocity=0 time=96
note_off channel=0 note=59 velocity=0 time=0
note_off channel=0 note=52 velocity=0 time=0
note_off channel=0 note=56 velocity=0 time=0
note_on channel=0 note=71 velocity=50 time=0
note_off channel=0 note=50 velocity=0 time=0
note_on channel=0 note=83 velocity=50 time=96
note_off channel=0 note=71 velocity=0 time=0
note_off channel=0 note=83 velocity=0 time=96
note_on channel=0 note=56 velocity=50 time=96
note_on channel=0 note=88 velocity=50 time=0
note_on channel=0 note=50 velocity=50 time=0
note_on channel=0 note=52 velocity=50 time=0
note_on channel=0 note=59 velocity=50 time=0
note_off channel=0 note=56 velocity=0 time=96
note_off channel=0 note=88 velocity=0 time=0
note_off channel=0 note=50 velocity=0 time=0
note_off channel=0 note=52 velocity=0 time=0
note_off channel=0 note=59 velocity=0 time=0
note_on channel=0 note=76 velocity=50 time=0
note_on channel=0 note=88 velocity=50 time=96
note_off channel=0 note=76 velocity=0 time=0
note_off channel=0 note=88 velocity=0 time=96
note_on channel=0 note=52 velocity=50 time=96
note_on channel=0 note=61 velocity=50 time=0
note_on channel=0 note=57 velocity=50 time=0
note_on channel=0 note=49 velocity=50 time=0
note_on channel=0 note=76 velocity=50 time=0
note_off channel=0 note=52 velocity=0 time=96
note_off channel=0 note=61 velocity=0 time=0
note_off channel=0 note=57 velocity=0 time=0
note_off channel=0 note=49 velocity=0 time=0
note_on channel=0 note=88 velocity=50 time=0
note_off channel=0 note=76 velocity=0 time=0
note_on channel=0 note=85 velocity=50 time=96
note_off channel=0 note=88 velocity=0 time=0
note_off channel=0 note=85 velocity=0 time=96
note_on channel=0 note=81 velocity=50 time=96
note_on channel=0 note=76 velocity=50 time=96
note_off channel=0 note=81 velocity=0 time=0
note_on channel=0 note=72 velocity=50 time=96
note_off channel=0 note=76 velocity=0 time=0
note_off channel=0 note=72 velocity=0 time=96
note_on channel=0 note=73 velocity=50 time=96
note_on channel=0 note=69 velocity=50 time=0
note_on channel=0 note=61 velocity=50 time=0
note_on channel=0 note=75 velocity=50 time=96
note_off channel=0 note=69 velocity=0 time=0
note_off channel=0 note=61 velocity=0 time=0
note_off channel=0 note=73 velocity=0 time=0
note_on channel=0 note=76 velocity=50 time=96
note_off channel=0 note=75 velocity=0 time=0
note_off channel=0 note=76 velocity=0 time=96
note_on channel=0 note=57 velocity=50 time=96
note_on channel=0 note=66 velocity=50 time=0
note_on channel=0 note=78 velocity=50 time=0
note_on channel=0 note=80 velocity=50 time=96
note_off channel=0 note=66 velocity=0 time=0
note_off channel=0 note=78 velocity=0 time=0
note_off channel=0 note=57 velocity=0 time=0
note_on channel=0 note=81 velocity=50 time=96
note_off channel=0 note=80 velocity=0 time=0
note_off channel=0 note=81 velocity=0 time=96
note_on channel=0 note=56 velocity=50 time=96
note_on channel=0 note=47 velocity=50 time=0
note_on channel=0 note=64 velocity=50 time=0
note_on channel=0 note=83 velocity=50 time=0
note_off channel=0 note=47 velocity=0 time=96
note_off channel=0 note=56 velocity=0 time=0
note_off channel=0 note=64 velocity=0 time=0
note_off channel=0 note=83 velocity=0 time=0
note_on channel=0 note=80 velocity=50 time=0
note_on channel=0 note=76 velocity=50 time=96
note_off channel=0 note=80 velocity=0 time=0
note_off channel=0 note=76 velocity=0 time=96
note_on channel=0 note=71 velocity=50 time=96
note_on channel=0 note=68 velocity=50 time=96
note_off channel=0 note=71 velocity=0 time=0
note_on channel=0 note=71 velocity=50 time=96
note_off channel=0 note=68 velocity=0 time=0
note_on channel=0 note=64 velocity=50 time=0
note_on channel=0 note=56 velocity=50 time=0
note_off channel=0 note=56 velocity=0 time=96
note_off channel=0 note=71 velocity=0 time=0
note_off channel=0 note=64 velocity=0 time=0
note_on channel=0 note=80 velocity=50 time=96
note_on channel=0 note=68 velocity=50 time=0
note_on channel=0 note=64 velocity=50 time=0
note_on channel=0 note=59 velocity=50 time=0
note_off channel=0 note=64 velocity=0 time=96
note_on channel=0 note=71 velocity=50 time=0
note_off channel=0 note=68 velocity=0 time=0
note_off channel=0 note=59 velocity=0 time=0
note_off channel=0 note=80 velocity=0 time=0
note_on channel=0 note=76 velocity=50 time=96
note_off channel=0 note=71 velocity=0 time=0
note_off channel=0 note=76 velocity=0 time=96
note_on channel=0 note=63 velocity=50 time=96
note_on channel=0 note=66 velocity=50 time=0
note_on channel=0 note=78 velocity=50 time=0
note_on channel=0 note=71 velocity=50 time=96
note_off channel=0 note=63 velocity=0 time=0
note_off channel=0 note=78 velocity=0 time=0
note_off channel=0 note=66 velocity=0 time=0
note_on channel=0 note=75 velocity=50 time=96
note_off channel=0 note=71 velocity=0 time=0
note_off channel=0 note=75 velocity=0 time=96
note_on channel=0 note=56 velocity=50 time=96
note_on channel=0 note=50 velocity=50 time=0
note_on channel=0 note=52 velocity=50 time=0
note_on channel=0 note=64 velocity=50 time=0
note_on channel=0 note=59 velocity=50 time=0
note_on channel=0 note=78 velocity=50 time=96
note_off channel=0 note=64 velocity=0 time=0
note_off channel=0 note=59 velocity=0 time=0
note_off channel=0 note=52 velocity=0 time=0
note_off channel=0 note=56 velocity=0 time=0
note_off channel=0 note=50 velocity=0 time=0
note_on channel=0 note=76 velocity=50 time=96
note_off channel=0 note=78 velocity=0 time=0
note_off channel=0 note=76 velocity=0 time=96
note_on channel=0 note=50 velocity=50 time=96
note_on channel=0 note=52 velocity=50 time=0
note_on channel=0 note=59 velocity=50 time=0
note_on channel=0 note=68 velocity=50 time=0
note_on channel=0 note=56 velocity=50 time=0
note_off channel=0 note=68 velocity=0 time=96
note_off channel=0 note=59 velocity=0 time=0
note_off channel=0 note=56 velocity=0 time=0
note_on channel=0 note=81 velocity=50 time=0
note_off channel=0 note=52 velocity=0 time=0
note_off channel=0 note=50 velocity=0 time=0
note_on channel=0 note=80 velocity=50 time=96
note_off channel=0 note=81 velocity=0 time=0
note_off channel=0 note=80 velocity=0 time=96
note_on channel=0 note=52 velocity=50 time=96
note_on channel=0 note=71 velocity=50 time=0
note_on channel=0 note=59 velocity=50 time=0
note_on channel=0 note=50 velocity=50 time=0
note_on channel=0 note=56 velocity=50 time=0
note_off channel=0 note=71 velocity=0 time=96
note_off channel=0 note=59 velocity=0 time=0
note_off channel=0 note=50 velocity=0 time=0
note_off channel=0 note=56 velocity=0 time=0
note_on channel=0 note=85 velocity=50 time=0
note_off channel=0 note=52 velocity=0 time=0
note_on channel=0 note=83 velocity=50 time=96
note_off channel=0 note=85 velocity=0 time=0
note_off channel=0 note=83 velocity=0 time=96
note_on channel=0 note=76 velocity=50 time=96
note_on channel=0 note=50 velocity=50 time=0
note_on channel=0 note=56 velocity=50 time=0
note_on channel=0 note=59 velocity=50 time=0
note_on channel=0 note=52 velocity=50 time=0
note_on channel=0 note=90 velocity=50 time=96
note_off channel=0 note=59 velocity=0 time=0
note_off channel=0 note=56 velocity=0 time=0
note_off channel=0 note=76 velocity=0 time=0
note_off channel=0 note=52 velocity=0 time=0
note_off channel=0 note=50 velocity=0 time=0
note_on channel=0 note=88 velocity=50 time=96
note_off channel=0 note=90 velocity=0 time=0
note_off channel=0 note=88 velocity=0 time=96
note_on channel=0 note=76 velocity=50 time=96
note_on channel=0 note=49 velocity=50 time=0
note_on channel=0 note=61 velocity=50 time=0
note_on channel=0 note=57 velocity=50 time=0
note_on channel=0 note=52 velocity=50 time=0
note_off channel=0 note=57 velocity=0 time=96
note_off channel=0 note=61 velocity=0 time=0
note_off channel=0 note=49 velocity=0 time=0
note_off channel=0 note=52 velocity=0 time=0
note_on channel=0 note=88 velocity=50 time=0
note_off channel=0 note=76 velocity=0 time=0
note_on channel=0 note=85 velocity=50 time=96
note_off channel=0 note=88 velocity=0 time=0
note_off channel=0 note=85 velocity=0 time=96
note_on channel=0 note=81 velocity=50 time=96
note_on channel=0 note=76 velocity=50 time=96
note_off channel=0 note=81 velocity=0 time=0
note_on channel=0 note=72 velocity=50 time=96
note_off channel=0 note=76 velocity=0 time=0
note_off channel=0 note=72 velocity=0 time=96
note_on channel=0 note=57 velocity=50 time=96
note_on channel=0 note=49 velocity=50 time=0
note_on channel=0 note=73 velocity=50 time=0
note_on channel=0 note=54 velocity=50 time=0
note_on channel=0 note=45 velocity=50 time=0
note_off channel=0 note=57 velocity=0 time=96
note_off channel=0 note=73 velocity=0 time=0
note_off channel=0 note=54 velocity=0 time=0
note_off channel=0 note=45 velocity=0 time=0
note_on channel=0 note=75 velocity=50 time=0
note_off channel=0 note=49 velocity=0 time=0
note_on channel=0 note=76 velocity=50 time=96
note_off channel=0 note=75 velocity=0 time=0
note_off channel=0 note=76 velocity=0 time=96
note_on channel=0 note=78 velocity=50 time=96
note_on channel=0 note=80 velocity=50 time=96
note_off channel=0 note=78 velocity=0 time=0
note_on channel=0 note=81 velocity=50 time=96
note_off channel=0 note=80 velocity=0 time=0
note_off channel=0 note=81 velocity=0 time=96
note_on channel=0 note=56 velocity=50 time=96
note_on channel=0 note=44 velocity=50 time=0
note_on channel=0 note=47 velocity=50 time=0
note_on channel=0 note=52 velocity=50 time=0
note_on channel=0 note=71 velocity=50 time=0
note_off channel=0 note=44 velocity=0 time=96
note_off channel=0 note=71 velocity=0 time=0
note_off channel=0 note=52 velocity=0 time=0
note_off channel=0 note=47 velocity=0 time=0
note_on channel=0 note=83 velocity=50 time=0
note_off channel=0 note=56 velocity=0 time=0
note_on channel=0 note=80 velocity=50 time=96
note_off channel=0 note=83 velocity=0 time=0
note_off channel=0 note=80 velocity=0 time=96
note_on channel=0 note=76 velocity=50 time=96
note_on channel=0 note=71 velocity=50 time=96
note_off channel=0 note=76 velocity=0 time=0
note_on channel=0 note=68 velocity=50 time=96
note_off channel=0 note=71 velocity=0 time=0
note_off channel=0 note=68 velocity=0 time=96
note_on channel=0 note=49 velocity=50 time=96
note_on channel=0 note=52 velocity=50 time=0
note_on channel=0 note=58 velocity=50 time=0
note_on channel=0 note=70 velocity=50 time=0
note_on channel=0 note=54 velocity=50 time=0
note_on channel=0 note=61 velocity=50 time=0
note_on channel=0 note=88 velocity=50 time=96
note_off channel=0 note=70 velocity=0 time=0
note_off channel=0 note=61 velocity=0 time=0
note_off channel=0 note=58 velocity=0 time=0
note_off channel=0 note=49 velocity=0 time=0
note_off channel=0 note=54 velocity=0 time=0
note_off channel=0 note=52 velocity=0 time=0
note_on channel=0 note=85 velocity=50 time=96
note_off channel=0 note=88 velocity=0 time=0
note_off channel=0 note=85 velocity=0 time=96
note_on channel=0 note=82 velocity=50 time=96
note_on channel=0 note=78 velocity=50 time=96
note_off channel=0 note=82 velocity=0 time=0
note_on channel=0 note=82 velocity=50 time=96
note_off channel=0 note=78 velocity=0 time=0
note_off channel=0 note=82 velocity=0 time=96
note_on channel=0 note=47 velocity=50 time=96
note_on channel=0 note=83 velocity=50 time=0
note_on channel=0 note=59 velocity=50 time=0
note_on channel=0 note=51 velocity=50 time=0
note_on channel=0 note=54 velocity=50 time=0
note_off channel=0 note=83 velocity=0 time=96
note_off channel=0 note=51 velocity=0 time=0
note_off channel=0 note=54 velocity=0 time=0
note_off channel=0 note=59 velocity=0 time=0
note_off channel=0 note=47 velocity=0 time=0
note_on channel=0 note=76 velocity=50 time=288
note_on channel=0 note=82 velocity=50 time=0
note_on channel=0 note=78 velocity=50 time=0
note_on channel=0 note=61 velocity=50 time=0
note_off channel=0 note=78 velocity=0 time=96
note_on channel=0 note=54 velocity=50 time=0
note_off channel=0 note=82 velocity=0 time=0
note_off channel=0 note=76 velocity=0 time=0
note_off channel=0 note=61 velocity=0 time=0
note_on channel=0 note=47 velocity=50 time=96
note_off channel=0 note=54 velocity=0 time=0
note_off channel=0 note=47 velocity=0 time=96
note_on channel=0 note=76 velocity=50 time=96
note_on channel=0 note=83 velocity=50 time=0
note_on channel=0 note=59 velocity=50 time=0
note_on channel=0 note=78 velocity=50 time=0
note_on channel=0 note=54 velocity=50 time=96
note_off channel=0 note=59 velocity=0 time=0
note_off channel=0 note=76 velocity=0 time=0
note_off channel=0 note=78 velocity=0 time=0
note_off channel=0 note=83 velocity=0 time=0
note_on channel=0 note=47 velocity=50 time=96
note_off channel=0 note=54 velocity=0 time=0
note_off channel=0 note=47 velocity=0 time=96
note_on channel=0 note=58 velocity=50 time=96
note_on channel=0 note=85 velocity=50 time=0
note_on channel=0 note=76 velocity=50 time=0
note_on channel=0 note=78 velocity=50 time=0
note_off channel=0 note=85 velocity=0 time=96
note_on channel=0 note=54 velocity=50 time=0
note_off channel=0 note=76 velocity=0 time=0
note_off channel=0 note=78 velocity=0 time=0
note_off channel=0 note=58 velocity=0 time=0
note_on channel=0 note=47 velocity=50 time=96
note_off channel=0 note=54 velocity=0 time=0
note_off channel=0 note=47 velocity=0 time=96
note_on channel=0 note=83 velocity=50 time=96
note_on channel=0 note=78 velocity=50 time=0
note_on channel=0 note=75 velocity=50 time=0
note_on channel=0 note=59 velocity=50 time=0
note_off channel=0 note=83 velocity=0 time=96
note_off channel=0 note=78 velocity=0 time=0
note_on channel=0 note=54 velocity=50 time=0
note_off channel=0 note=59 velocity=0 time=0
note_off channel=0 note=75 velocity=0 time=0
note_on channel=0 note=47 velocity=50 time=96
note_off channel=0 note=54 velocity=0 time=0
note_off channel=0 note=47 velocity=0 time=96
note_on channel=0 note=73 velocity=50 time=96
note_on channel=0 note=54 velocity=50 time=0
note_on channel=0 note=52 velocity=50 time=0
note_on channel=0 note=46 velocity=50 time=0
note_off channel=0 note=73 velocity=0 time=96
note_off channel=0 note=54 velocity=0 time=0
note_off channel=0 note=52 velocity=0 time=0
note_off channel=0 note=46 velocity=0 time=0
note_on channel=0 note=66 velocity=50 time=0
note_on channel=0 note=64 velocity=50 time=96
note_off channel=0 note=66 velocity=0 time=0
note_off channel=0 note=64 velocity=0 time=96
note_on channel=0 note=52 velocity=50 time=96
note_on channel=0 note=71 velocity=50 time=0
note_on channel=0 note=54 velocity=50 time=0
note_on channel=0 note=47 velocity=50 time=0
note_off channel=0 note=52 velocity=0 time=96
note_on channel=0 note=66 velocity=50 time=0
note_off channel=0 note=54 velocity=0 time=0
note_off channel=0 note=47 velocity=0 time=0
note_off channel=0 note=71 velocity=0 time=0
note_on channel=0 note=64 velocity=50 time=96
note_off channel=0 note=66 velocity=0 time=0
note_off channel=0 note=64 velocity=0 time=96
note_on channel=0 note=52 velocity=50 time=96
note_on channel=0 note=54 velocity=50 time=0
note_on channel=0 note=49 velocity=50 time=0
note_on channel=0 note=70 velocity=50 time=0
note_on channel=0 note=66 velocity=50 time=96
note_off channel=0 note=52 velocity=0 time=0
note_off channel=0 note=54 velocity=0 time=0
note_off channel=0 note=49 velocity=0 time=0
note_off channel=0 note=70 velocity=0 time=0
note_on channel=0 note=64 velocity=50 time=96
note_off channel=0 note=66 velocity=0 time=0
note_off channel=0 note=64 velocity=0 time=96
note_on channel=0 note=47 velocity=50 time=96
note_on channel=0 note=51 velocity=50 time=0
note_on channel=0 note=54 velocity=50 time=0
note_on channel=0 note=71 velocity=50 time=0
note_on channel=0 note=66 velocity=50 time=96
note_off channel=0 note=54 velocity=0 time=0
note_off channel=0 note=71 velocity=0 time=0
note_off channel=0 note=51 velocity=0 time=0
note_off channel=0 note=47 velocity=0 time=0
note_on channel=0 note=63 velocity=50 time=96
note_off channel=0 note=66 velocity=0 time=0
note_off channel=0 note=63 velocity=0 time=96
note_on channel=0 note=78 velocity=50 time=96
note_on channel=0 note=85 velocity=50 time=0
note_on channel=0 note=76 velocity=50 time=0
note_on channel=0 note=58 velocity=50 time=0
note_off channel=0 note=85 velocity=0 time=96
note_off channel=0 note=78 velocity=0 time=0
note_off channel=0 note=76 velocity=0 time=0
note_on channel=0 note=54 velocity=50 time=0
note_off channel=0 note=58 velocity=0 time=0
note_on channel=0 note=47 velocity=50 time=96
note_off channel=0 note=54 velocity=0 time=0
note_off channel=0 note=47 velocity=0 time=96
note_on channel=0 note=83 velocity=50 time=96
note_on channel=0 note=59 velocity=50 time=0
note_on channel=0 note=76 velocity=50 time=0
note_on channel=0 note=78 velocity=50 time=0
note_on channel=0 note=54 velocity=50 time=96
note_off channel=0 note=59 velocity=0 time=0
note_off channel=0 note=76 velocity=0 time=0
note_off channel=0 note=78 velocity=0 time=0
note_off channel=0 note=83 velocity=0 time=0
note_on channel=0 note=47 velocity=50 time=96
note_off channel=0 note=54 velocity=0 time=0
note_off channel=0 note=47 velocity=0 time=96
note_on channel=0 note=82 velocity=50 time=96
note_on channel=0 note=76 velocity=50 time=0
note_on channel=0 note=61 velocity=50 time=0
note_on channel=0 note=78 velocity=50 time=0
note_on channel=0 note=54 velocity=50 time=96
note_off channel=0 note=76 velocity=0 time=0
note_off channel=0 note=61 velocity=0 time=0
note_off channel=0 note=78 velocity=0 time=0
note_off channel=0 note=82 velocity=0 time=0
note_on channel=0 note=47 velocity=50 time=96
note_off channel=0 note=54 velocity=0 time=0
note_off channel=0 note=47 velocity=0 time=96
note_on channel=0 note=75 velocity=50 time=96
note_on channel=0 note=78 velocity=50 time=0
note_on channel=0 note=59 velocity=50 time=0
note_on channel=0 note=83 velocity=50 time=0
note_on channel=0 note=54 velocity=50 time=96
note_off channel=0 note=78 velocity=0 time=0
note_off channel=0 note=75 velocity=0 time=0
note_off channel=0 note=59 velocity=0 time=0
note_off channel=0 note=83 velocity=0 time=0
note_on channel=0 note=47 velocity=50 time=96
note_off channel=0 note=54 velocity=0 time=0
note_off channel=0 note=47 velocity=0 time=96
note_on channel=0 note=70 velocity=50 time=96
note_on channel=0 note=52 velocity=50 time=0
note_on channel=0 note=54 velocity=50 time=0
note_on channel=0 note=49 velocity=50 time=0
note_on channel=0 note=66 velocity=50 time=96
note_off channel=0 note=52 velocity=0 time=0
note_off channel=0 note=70 velocity=0 time=0
note_off channel=0 note=54 velocity=0 time=0
note_off channel=0 note=49 velocity=0 time=0
note_off channel=0 note=66 velocity=0 time=96
note_on channel=0 note=64 velocity=50 time=0
note_off channel=0 note=64 velocity=0 time=96
note_on channel=0 note=54 velocity=50 time=96
note_on channel=0 note=47 velocity=50 time=0
note_on channel=0 note=52 velocity=50 time=0
note_on channel=0 note=71 velocity=50 time=0
note_on channel=0 note=66 velocity=50 time=96
note_off channel=0 note=47 velocity=0 time=0
note_off channel=0 note=52 velocity=0 time=0
note_off channel=0 note=71 velocity=0 time=0
note_off channel=0 note=54 velocity=0 time=0
note_on channel=0 note=64 velocity=50 time=96
note_off channel=0 note=66 velocity=0 time=0
note_off channel=0 note=64 velocity=0 time=96
note_on channel=0 note=52 velocity=50 time=96
note_on channel=0 note=54 velocity=50 time=0
note_on channel=0 note=46 velocity=50 time=0
note_on channel=0 note=73 velocity=50 time=0
note_off channel=0 note=52 velocity=0 time=96
note_off channel=0 note=54 velocity=0 time=0
note_off channel=0 note=46 velocity=0 time=0
note_on channel=0 note=66 velocity=50 time=0
note_off channel=0 note=73 velocity=0 time=0
note_on channel=0 note=64 velocity=50 time=96
note_off channel=0 note=66 velocity=0 time=0
note_off channel=0 note=64 velocity=0 time=96
note_on channel=0 note=47 velocity=50 time=96
note_on channel=0 note=54 velocity=50 time=0
note_on channel=0 note=71 velocity=50 time=0
note_on channel=0 note=51 velocity=50 time=0
note_on channel=0 note=66 velocity=50 time=96
note_off channel=0 note=71 velocity=0 time=0
note_off channel=0 note=47 velocity=0 time=0
note_off channel=0 note=51 velocity=0 time=0
note_off channel=0 note=54 velocity=0 time=0
note_on channel=0 note=63 velocity=50 time=96
note_off channel=0 note=66 velocity=0 time=0
note_off channel=0 note=63 velocity=0 time=96
note_on channel=0 note=59 velocity=50 time=96
note_on channel=0 note=54 velocity=50 time=96
note_off channel=0 note=59 velocity=0 time=0
note_off channel=0 note=54 velocity=0 time=96
note_on channel=0 note=51 velocity=50 time=0
note_off channel=0 note=51 velocity=0 time=96
note_on channel=0 note=47 velocity=50 time=96
note_on channel=0 note=45 velocity=50 time=96
note_off channel=0 note=47 velocity=0 time=0
note_on channel=0 note=44 velocity=50 time=96
note_off channel=0 note=45 velocity=0 time=0
note_off channel=0 note=44 velocity=0 time=96
note_on channel=0 note=45 velocity=50 time=96
note_off channel=0 note=45 velocity=0 time=96
note_on channel=0 note=44 velocity=50 time=0
note_on channel=0 note=42 velocity=50 time=96
note_off channel=0 note=44 velocity=0 time=0
note_off channel=0 note=42 velocity=0 time=96
note_on channel=0 note=40 velocity=50 time=96
note_on channel=0 note=44 velocity=50 time=96
note_off channel=0 note=40 velocity=0 time=0
note_on channel=0 note=47 velocity=50 time=96
note_off channel=0 note=44 velocity=0 time=0
note_off channel=0 note=47 velocity=0 time=96
note_on channel=0 note=52 velocity=50 time=96
note_off channel=0 note=52 velocity=0 time=96
note_on channel=0 note=56 velocity=50 time=0
note_on channel=0 note=59 velocity=50 time=96
note_off channel=0 note=56 velocity=0 time=0
note_off channel=0 note=59 velocity=0 time=96
note_on channel=0 note=71 velocity=50 time=96
note_on channel=0 note=52 velocity=50 time=0
note_off channel=0 note=52 velocity=0 time=96
note_on channel=0 note=56 velocity=50 time=0
note_off channel=0 note=71 velocity=0 time=0
note_on channel=0 note=59 velocity=50 time=96
note_off channel=0 note=56 velocity=0 time=0
note_off channel=0 note=59 velocity=0 time=96
note_on channel=0 note=71 velocity=50 time=96
note_on channel=0 note=52 velocity=50 time=0
note_off channel=0 note=71 velocity=0 time=96
note_off channel=0 note=52 velocity=0 time=0
note_on channel=0 note=56 velocity=50 time=0
note_on channel=0 note=59 velocity=50 time=96
note_off channel=0 note=56 velocity=0 time=0
note_off channel=0 note=59 velocity=0 time=96
note_on channel=0 note=51 velocity=50 time=96
note_on channel=0 note=71 velocity=50 time=0
note_on channel=0 note=54 velocity=50 time=96
note_off channel=0 note=51 velocity=0 time=0
note_off channel=0 note=71 velocity=0 time=0
note_off channel=0 note=54 velocity=0 time=96
note_on channel=0 note=59 velocity=50 time=0
note_off channel=0 note=59 velocity=0 time=96
note_on channel=0 note=51 velocity=50 time=96
note_on channel=0 note=54 velocity=50 time=96
note_off channel=0 note=51 velocity=0 time=0
note_on channel=0 note=59 velocity=50 time=96
note_off channel=0 note=54 velocity=0 time=0
note_off channel=0 note=59 velocity=0 time=96
note_on channel=0 note=71 velocity=50 time=96
note_on channel=0 note=54 velocity=50 time=0
note_off channel=0 note=54 velocity=0 time=96
note_on channel=0 note=57 velocity=50 time=0
note_off channel=0 note=71 velocity=0 time=0
note_on channel=0 note=59 velocity=50 time=96
note_on channel=0 note=71 velocity=50 time=0
note_off channel=0 note=57 velocity=0 time=0
note_off channel=0 note=59 velocity=0 time=96
note_off channel=0 note=71 velocity=0 time=0
note_on channel=0 note=73 velocity=50 time=96
note_on channel=0 note=54 velocity=50 time=0
note_off channel=0 note=73 velocity=0 time=96
note_on channel=0 note=57 velocity=50 time=0
note_off channel=0 note=54 velocity=0 time=0
note_on channel=0 note=59 velocity=50 time=96
note_on channel=0 note=75 velocity=50 time=0
note_off channel=0 note=57 velocity=0 time=0
note_off channel=0 note=59 velocity=0 time=96
note_off channel=0 note=75 velocity=0 time=0
note_on channel=0 note=52 velocity=50 time=96
note_on channel=0 note=76 velocity=50 time=0
note_on channel=0 note=56 velocity=50 time=96
note_off channel=0 note=76 velocity=0 time=0
note_off channel=0 note=52 velocity=0 time=0
note_on channel=0 note=59 velocity=50 time=96
note_off channel=0 note=56 velocity=0 time=0
note_off channel=0 note=59 velocity=0 time=96
note_on channel=0 note=52 velocity=50 time=96
note_on channel=0 note=56 velocity=50 time=96
note_off channel=0 note=52 velocity=0 time=0
note_off channel=0 note=56 velocity=0 time=96
note_on channel=0 note=59 velocity=50 time=0
note_off channel=0 note=59 velocity=0 time=96
note_on channel=0 note=64 velocity=50 time=96
note_on channel=0 note=50 velocity=50 time=0
note_on channel=0 note=76 velocity=50 time=0
note_on channel=0 note=52 velocity=50 time=96
note_off channel=0 note=64 velocity=0 time=0
note_off channel=0 note=50 velocity=0 time=0
note_off channel=0 note=76 velocity=0 time=0
note_on channel=0 note=59 velocity=50 time=96
note_off channel=0 note=52 velocity=0 time=0
note_on channel=0 note=76 velocity=50 time=0
note_on channel=0 note=64 velocity=50 time=0
note_off channel=0 note=64 velocity=0 time=96
note_off channel=0 note=76 velocity=0 time=0
note_off channel=0 note=59 velocity=0 time=0
note_on channel=0 note=50 velocity=50 time=96
note_on channel=0 note=78 velocity=50 time=0
note_on channel=0 note=66 velocity=50 time=0
note_on channel=0 note=52 velocity=50 time=96
note_off channel=0 note=50 velocity=0 time=0
note_off channel=0 note=78 velocity=0 time=0
note_off channel=0 note=66 velocity=0 time=0
note_off channel=0 note=52 velocity=0 time=96
note_on channel=0 note=68 velocity=50 time=0
note_on channel=0 note=59 velocity=50 time=0
note_on channel=0 note=80 velocity=50 time=0
note_off channel=0 note=59 velocity=0 time=96
note_off channel=0 note=80 velocity=0 time=0
note_off channel=0 note=68 velocity=0 time=0
note_on channel=0 note=81 velocity=50 time=96
note_on channel=0 note=49 velocity=50 time=0
note_on channel=0 note=69 velocity=50 time=0
note_off channel=0 note=81 velocity=0 time=96
note_on channel=0 note=52 velocity=50 time=0
note_off channel=0 note=69 velocity=0 time=0
note_off channel=0 note=49 velocity=0 time=0
note_on channel=0 note=57 velocity=50 time=96
note_off channel=0 note=52 velocity=0 time=0
note_off channel=0 note=57 velocity=0 time=96
note_on channel=0 note=49 velocity=50 time=96
note_on channel=0 note=52 velocity=50 time=96
note_off channel=0 note=49 velocity=0 time=0
note_on channel=0 note=57 velocity=50 time=96
note_off channel=0 note=52 velocity=0 time=0
note_off channel=0 note=57 velocity=0 time=96
note_on channel=0 note=45 velocity=50 time=96
note_on channel=0 note=85 velocity=50 time=0
note_on channel=0 note=73 velocity=50 time=0
note_on channel=0 note=49 velocity=50 time=96
note_off channel=0 note=45 velocity=0 time=0
note_off channel=0 note=85 velocity=0 time=0
note_off channel=0 note=73 velocity=0 time=0
note_off channel=0 note=49 velocity=0 time=96
note_on channel=0 note=52 velocity=50 time=0
note_off channel=0 note=52 velocity=0 time=96
note_on channel=0 note=45 velocity=50 time=96
note_on channel=0 note=85 velocity=50 time=0
note_on channel=0 note=73 velocity=50 time=0
note_on channel=0 note=49 velocity=50 time=96
note_off channel=0 note=45 velocity=0 time=0
note_off channel=0 note=85 velocity=0 time=0
note_off channel=0 note=73 velocity=0 time=0
note_on channel=0 note=52 velocity=50 time=96
note_off channel=0 note=49 velocity=0 time=0
note_off channel=0 note=52 velocity=0 time=96
note_on channel=0 note=44 velocity=50 time=96
note_on channel=0 note=83 velocity=50 time=0
note_on channel=0 note=71 velocity=50 time=0
note_on channel=0 note=47 velocity=50 time=96
note_off channel=0 note=83 velocity=0 time=0
note_off channel=0 note=71 velocity=0 time=0
note_off channel=0 note=44 velocity=0 time=0
note_on channel=0 note=52 velocity=50 time=96
note_off channel=0 note=47 velocity=0 time=0
note_off channel=0 note=52 velocity=0 time=96
note_on channel=0 note=85 velocity=50 time=96
note_on channel=0 note=42 velocity=50 time=0
note_on channel=0 note=73 velocity=50 time=0
note_off channel=0 note=42 velocity=0 time=96
note_off channel=0 note=85 velocity=0 time=0
note_on channel=0 note=45 velocity=50 time=0
note_off channel=0 note=73 velocity=0 time=0
note_on channel=0 note=52 velocity=50 time=96
note_off channel=0 note=45 velocity=0 time=0
note_off channel=0 note=52 velocity=0 time=96
note_on channel=0 note=83 velocity=50 time=96
note_on channel=0 note=71 velocity=50 time=0
note_on channel=0 note=44 velocity=50 time=0
note_off channel=0 note=44 velocity=0 time=96
note_off channel=0 note=71 velocity=0 time=0
note_on channel=0 note=47 velocity=50 time=0
note_off channel=0 note=83 velocity=0 time=0
note_on channel=0 note=52 velocity=50 time=96
note_off channel=0 note=47 velocity=0 time=0
note_off channel=0 note=52 velocity=0 time=96
note_on channel=0 note=68 velocity=50 time=96
note_on channel=0 note=40 velocity=50 time=0
note_on channel=0 note=80 velocity=50 time=0
note_off channel=0 note=68 velocity=0 time=96
note_off channel=0 note=40 velocity=0 time=0
note_on channel=0 note=47 velocity=50 time=0
note_off channel=0 note=80 velocity=0 time=0
note_on channel=0 note=52 velocity=50 time=96
note_off channel=0 note=47 velocity=0 time=0
note_off channel=0 note=52 velocity=0 time=96
note_on channel=0 note=78 velocity=50 time=96
note_on channel=0 note=47 velocity=50 time=0
note_on channel=0 note=66 velocity=50 time=0
note_off channel=0 note=78 velocity=0 time=96
note_off channel=0 note=47 velocity=0 time=0
note_off channel=0 note=66 velocity=0 time=0
note_on channel=0 note=51 velocity=50 time=0
note_on channel=0 note=54 velocity=50 time=96
note_off channel=0 note=51 velocity=0 time=0
note_off channel=0 note=54 velocity=0 time=96
note_on channel=0 note=59 velocity=50 time=96
note_on channel=0 note=58 velocity=50 time=96
note_off channel=0 note=59 velocity=0 time=0
note_on channel=0 note=57 velocity=50 time=96
note_off channel=0 note=58 velocity=0 time=0
note_off channel=0 note=57 velocity=0 time=96
note_on channel=0 note=71 velocity=50 time=96
note_on channel=0 note=56 velocity=50 time=0
note_on channel=0 note=59 velocity=50 time=96
note_off channel=0 note=71 velocity=0 time=0
note_off channel=0 note=56 velocity=0 time=0
note_on channel=0 note=64 velocity=50 time=96
note_off channel=0 note=59 velocity=0 time=0
note_off channel=0 note=64 velocity=0 time=96
note_on channel=0 note=71 velocity=50 time=96
note_on channel=0 note=56 velocity=50 time=0
note_on channel=0 note=59 velocity=50 time=96
note_off channel=0 note=56 velocity=0 time=0
note_off channel=0 note=71 velocity=0 time=0
note_on channel=0 note=64 velocity=50 time=96
note_off channel=0 note=59 velocity=0 time=0
note_off channel=0 note=64 velocity=0 time=96
note_on channel=0 note=54 velocity=50 time=96
note_on channel=0 note=71 velocity=50 time=0
note_on channel=0 note=57 velocity=50 time=96
note_off channel=0 note=71 velocity=0 time=0
note_off channel=0 note=54 velocity=0 time=0
note_on channel=0 note=63 velocity=50 time=96
note_off channel=0 note=57 velocity=0 time=0
note_off channel=0 note=63 velocity=0 time=96
note_on channel=0 note=54 velocity=50 time=96
note_on channel=0 note=57 velocity=50 time=96
note_off channel=0 note=54 velocity=0 time=0
note_on channel=0 note=63 velocity=50 time=96
note_off channel=0 note=57 velocity=0 time=0
note_off channel=0 note=63 velocity=0 time=96
note_on channel=0 note=54 velocity=50 time=96
note_on channel=0 note=71 velocity=50 time=0
note_off channel=0 note=54 velocity=0 time=96
note_on channel=0 note=57 velocity=50 time=0
note_off channel=0 note=71 velocity=0 time=0
note_on channel=0 note=71 velocity=50 time=96
note_on channel=0 note=62 velocity=50 time=0
note_off channel=0 note=57 velocity=0 time=0
note_off channel=0 note=71 velocity=0 time=96
note_off channel=0 note=62 velocity=0 time=0
note_on channel=0 note=54 velocity=50 time=96
note_on channel=0 note=73 velocity=50 time=0
note_off channel=0 note=54 velocity=0 time=96
note_on channel=0 note=57 velocity=50 time=0
note_off channel=0 note=73 velocity=0 time=0
note_on channel=0 note=62 velocity=50 time=96
note_on channel=0 note=74 velocity=50 time=0
note_off channel=0 note=57 velocity=0 time=0
note_off channel=0 note=62 velocity=0 time=96
note_off channel=0 note=74 velocity=0 time=0
note_on channel=0 note=73 velocity=50 time=96
note_on channel=0 note=53 velocity=50 time=0
note_off channel=0 note=53 velocity=0 time=96
note_on channel=0 note=56 velocity=50 time=0
note_off channel=0 note=73 velocity=0 time=0
note_on channel=0 note=61 velocity=50 time=96
note_off channel=0 note=56 velocity=0 time=0
note_off channel=0 note=61 velocity=0 time=96
note_on channel=0 note=53 velocity=50 time=96
note_on channel=0 note=56 velocity=50 time=96
note_off channel=0 note=53 velocity=0 time=0
note_off channel=0 note=56 velocity=0 time=96
note_on channel=0 note=61 velocity=50 time=0
note_off channel=0 note=61 velocity=0 time=96
note_on channel=0 note=61 velocity=50 time=96
note_on channel=0 note=47 velocity=50 time=0
note_on channel=0 note=73 velocity=50 time=0
note_on channel=0 note=49 velocity=50 time=96
note_off channel=0 note=47 velocity=0 time=0
note_off channel=0 note=73 velocity=0 time=0
note_off channel=0 note=61 velocity=0 time=0
note_on channel=0 note=73 velocity=50 time=96
note_off channel=0 note=49 velocity=0 time=0
note_on channel=0 note=61 velocity=50 time=0
note_on channel=0 note=56 velocity=50 time=0
note_off channel=0 note=73 velocity=0 time=96
note_off channel=0 note=56 velocity=0 time=0
note_off channel=0 note=61 velocity=0 time=0
note_on channel=0 note=63 velocity=50 time=96
note_on channel=0 note=75 velocity=50 time=0
note_on channel=0 note=47 velocity=50 time=0
note_off channel=0 note=75 velocity=0 time=96
note_off channel=0 note=47 velocity=0 time=0
note_on channel=0 note=49 velocity=50 time=0
note_off channel=0 note=63 velocity=0 time=0
note_on channel=0 note=65 velocity=50 time=96
note_on channel=0 note=56 velocity=50 time=0
note_on channel=0 note=77 velocity=50 time=0
note_off channel=0 note=49 velocity=0 time=0
note_off channel=0 note=65 velocity=0 time=96
note_off channel=0 note=56 velocity=0 time=0
note_off channel=0 note=77 velocity=0 time=0
note_on channel=0 note=78 velocity=50 time=96
note_on channel=0 note=45 velocity=50 time=0
note_on channel=0 note=66 velocity=50 time=0
note_on channel=0 note=49 velocity=50 time=96
note_off channel=0 note=66 velocity=0 time=0
note_off channel=0 note=45 velocity=0 time=0
note_off channel=0 note=78 velocity=0 time=0
note_on channel=0 note=54 velocity=50 time=96
note_off channel=0 note=49 velocity=0 time=0
note_off channel=0 note=54 velocity=0 time=96
note_on channel=0 note=45 velocity=50 time=96
note_off channel=0 note=45 velocity=0 time=96
note_on channel=0 note=49 velocity=50 time=0
note_on channel=0 note=54 velocity=50 time=96
note_off channel=0 note=49 velocity=0 time=0
note_off channel=0 note=54 velocity=0 time=96
note_on channel=0 note=47 velocity=50 time=96
note_on channel=0 note=68 velocity=50 time=0
note_on channel=0 note=80 velocity=50 time=0
note_on channel=0 note=56 velocity=50 time=96
note_off channel=0 note=47 velocity=0 time=0
note_off channel=0 note=68 velocity=0 time=0
note_off channel=0 note=80 velocity=0 time=0
note_off channel=0 note=56 velocity=0 time=96
note_on channel=0 note=59 velocity=50 time=0
note_off channel=0 note=59 velocity=0 time=96
note_on channel=0 note=80 velocity=50 time=96
note_on channel=0 note=47 velocity=50 time=0
note_on channel=0 note=68 velocity=50 time=0
note_on channel=0 note=56 velocity=50 time=96
note_off channel=0 note=80 velocity=0 time=0
note_off channel=0 note=47 velocity=0 time=0
note_off channel=0 note=68 velocity=0 time=0
note_on channel=0 note=59 velocity=50 time=96
note_off channel=0 note=56 velocity=0 time=0
note_off channel=0 note=59 velocity=0 time=96
note_on channel=0 note=81 velocity=50 time=96
note_on channel=0 note=49 velocity=50 time=0
note_on channel=0 note=69 velocity=50 time=0
note_on channel=0 note=57 velocity=50 time=96
note_off channel=0 note=81 velocity=0 time=0
note_off channel=0 note=49 velocity=0 time=0
note_off channel=0 note=69 velocity=0 time=0
note_off channel=0 note=57 velocity=0 time=96
note_on channel=0 note=61 velocity=50 time=0
note_off channel=0 note=61 velocity=0 time=96
note_on channel=0 note=49 velocity=50 time=96
note_on channel=0 note=80 velocity=50 time=0
note_on channel=0 note=68 velocity=50 time=0
note_on channel=0 note=59 velocity=50 time=96
note_off channel=0 note=49 velocity=0 time=0
note_off channel=0 note=80 velocity=0 time=0
note_off channel=0 note=68 velocity=0 time=0
note_off channel=0 note=59 velocity=0 time=96
note_on channel=0 note=62 velocity=50 time=0
note_off channel=0 note=62 velocity=0 time=96
note_on channel=0 note=49 velocity=50 time=96
note_on channel=0 note=66 velocity=50 time=0
note_on channel=0 note=78 velocity=50 time=0
note_on channel=0 note=57 velocity=50 time=96
note_off channel=0 note=49 velocity=0 time=0
note_off channel=0 note=66 velocity=0 time=0
note_off channel=0 note=78 velocity=0 time=0
note_on channel=0 note=61 velocity=50 time=96
note_off channel=0 note=57 velocity=0 time=0
note_off channel=0 note=61 velocity=0 time=96
note_on channel=0 note=65 velocity=50 time=96
note_on channel=0 note=77 velocity=50 time=0
note_on channel=0 note=49 velocity=50 time=0
note_on channel=0 note=56 velocity=50 time=96
note_off channel=0 note=65 velocity=0 time=0
note_off channel=0 note=77 velocity=0 time=0
note_off channel=0 note=49 velocity=0 time=0
note_on channel=0 note=59 velocity=50 time=96
note_off channel=0 note=56 velocity=0 time=0
note_off channel=0 note=59 velocity=0 time=96
note_on channel=0 note=54 velocity=50 time=96
note_on channel=0 note=78 velocity=50 time=0
note_on channel=0 note=66 velocity=50 time=0
note_on channel=0 note=57 velocity=50 time=96
note_off channel=0 note=54 velocity=0 time=0
note_off channel=0 note=78 velocity=0 time=0
note_off channel=0 note=66 velocity=0 time=0
note_on channel=0 note=61 velocity=50 time=96
note_off channel=0 note=57 velocity=0 time=0
note_off channel=0 note=61 velocity=0 time=96
note_on channel=0 note=66 velocity=50 time=96
note_on channel=0 note=69 velocity=50 time=96
note_off channel=0 note=66 velocity=0 time=0
note_on channel=0 note=73 velocity=50 time=96
note_off channel=0 note=69 velocity=0 time=0
note_off channel=0 note=73 velocity=0 time=96
note_on channel=0 note=61 velocity=50 time=96
note_on channel=0 note=66 velocity=50 time=0
note_on channel=0 note=69 velocity=50 time=96
note_off channel=0 note=66 velocity=0 time=0
note_off channel=0 note=61 velocity=0 time=0
note_on channel=0 note=73 velocity=50 time=96
note_off channel=0 note=69 velocity=0 time=0
note_off channel=0 note=73 velocity=0 time=96
note_on channel=0 note=61 velocity=50 time=96
note_on channel=0 note=66 velocity=50 time=0
note_on channel=0 note=69 velocity=50 time=96
note_off channel=0 note=61 velocity=0 time=0
note_off channel=0 note=66 velocity=0 time=0
note_on channel=0 note=73 velocity=50 time=96
note_off channel=0 note=69 velocity=0 time=0
note_off channel=0 note=73 velocity=0 time=96
note_on channel=0 note=65 velocity=50 time=96
note_on channel=0 note=61 velocity=50 time=0
note_on channel=0 note=68 velocity=50 time=96
note_off channel=0 note=61 velocity=0 time=0
note_off channel=0 note=65 velocity=0 time=0
note_on channel=0 note=73 velocity=50 time=96
note_off channel=0 note=68 velocity=0 time=0
note_off channel=0 note=73 velocity=0 time=96
note_on channel=0 note=65 velocity=50 time=96
note_on channel=0 note=68 velocity=50 time=96
note_off channel=0 note=65 velocity=0 time=0
note_on channel=0 note=73 velocity=50 time=96
note_off channel=0 note=68 velocity=0 time=0
note_off channel=0 note=73 velocity=0 time=96
note_on channel=0 note=61 velocity=50 time=96
note_on channel=0 note=68 velocity=50 time=0
note_on channel=0 note=71 velocity=50 time=96
note_off channel=0 note=61 velocity=0 time=0
note_off channel=0 note=68 velocity=0 time=0
note_off channel=0 note=71 velocity=0 time=96
note_on channel=0 note=73 velocity=50 time=0
note_on channel=0 note=61 velocity=50 time=0
note_off channel=0 note=61 velocity=0 time=96
note_off channel=0 note=73 velocity=0 time=0
note_on channel=0 note=68 velocity=50 time=96
note_on channel=0 note=63 velocity=50 time=0
note_on channel=0 note=71 velocity=50 time=96
note_off channel=0 note=68 velocity=0 time=0
note_off channel=0 note=63 velocity=0 time=0
note_off channel=0 note=71 velocity=0 time=96
note_on channel=0 note=65 velocity=50 time=0
note_on channel=0 note=73 velocity=50 time=0
note_off channel=0 note=73 velocity=0 time=96
note_off channel=0 note=65 velocity=0 time=0
note_on channel=0 note=66 velocity=50 time=96
note_on channel=0 note=69 velocity=50 time=0
note_on channel=0 note=73 velocity=50 time=96
note_off channel=0 note=66 velocity=0 time=0
note_off channel=0 note=69 velocity=0 time=0
note_on channel=0 note=69 velocity=50 time=96
note_off channel=0 note=73 velocity=0 time=0
note_off channel=0 note=69 velocity=0 time=96
note_on channel=0 note=66 velocity=50 time=96
note_off channel=0 note=66 velocity=0 time=96
note_on channel=0 note=69 velocity=50 time=0
note_on channel=0 note=73 velocity=50 time=96
note_off channel=0 note=69 velocity=0 time=0
note_off channel=0 note=73 velocity=0 time=96
note_on channel=0 note=54 velocity=50 time=96
note_on channel=0 note=73 velocity=50 time=0
note_off channel=0 note=73 velocity=0 time=96
note_on channel=0 note=76 velocity=50 time=0
note_off channel=0 note=54 velocity=0 time=0
note_on channel=0 note=78 velocity=50 time=96
note_on channel=0 note=54 velocity=50 time=0
note_off channel=0 note=76 velocity=0 time=0
note_off channel=0 note=78 velocity=0 time=96
note_off channel=0 note=54 velocity=0 time=0
note_on channel=0 note=56 velocity=50 time=96
note_on channel=0 note=73 velocity=50 time=0
note_off channel=0 note=56 velocity=0 time=96
note_off channel=0 note=73 velocity=0 time=0
note_on channel=0 note=76 velocity=50 time=0
note_on channel=0 note=58 velocity=50 time=96
note_on channel=0 note=78 velocity=50 time=0
note_off channel=0 note=76 velocity=0 time=0
note_off channel=0 note=58 velocity=0 time=96
note_off channel=0 note=78 velocity=0 time=0
note_on channel=0 note=59 velocity=50 time=96
note_on channel=0 note=71 velocity=50 time=0
note_off channel=0 note=59 velocity=0 time=96
note_off channel=0 note=71 velocity=0 time=0
note_on channel=0 note=74 velocity=50 time=0
note_on channel=0 note=78 velocity=50 time=96
note_off channel=0 note=74 velocity=0 time=0
note_off channel=0 note=78 velocity=0 time=96
note_on channel=0 note=71 velocity=50 time=96
note_on channel=0 note=74 velocity=50 time=96
note_off channel=0 note=71 velocity=0 time=0
note_on channel=0 note=78 velocity=50 time=96
note_off channel=0 note=74 velocity=0 time=0
note_off channel=0 note=78 velocity=0 time=96
note_on channel=0 note=78 velocity=50 time=96
note_on channel=0 note=47 velocity=50 time=0
note_off channel=0 note=78 velocity=0 time=96
note_on channel=0 note=83 velocity=50 time=0
note_off channel=0 note=47 velocity=0 time=0
note_on channel=0 note=86 velocity=50 time=96
note_on channel=0 note=47 velocity=50 time=0
note_off channel=0 note=83 velocity=0 time=0
note_off channel=0 note=86 velocity=0 time=96
note_off channel=0 note=47 velocity=0 time=0
note_on channel=0 note=78 velocity=50 time=96
note_on channel=0 note=49 velocity=50 time=0
note_off channel=0 note=78 velocity=0 time=96
note_on channel=0 note=83 velocity=50 time=0
note_off channel=0 note=49 velocity=0 time=0
note_on channel=0 note=50 velocity=50 time=96
note_on channel=0 note=86 velocity=50 time=0
note_off channel=0 note=83 velocity=0 time=0
note_off channel=0 note=50 velocity=0 time=96
note_off channel=0 note=86 velocity=0 time=0
note_on channel=0 note=49 velocity=50 time=96
note_on channel=0 note=76 velocity=50 time=0
note_off channel=0 note=76 velocity=0 time=96
note_on channel=0 note=81 velocity=50 time=0
note_off channel=0 note=49 velocity=0 time=0
note_on channel=0 note=88 velocity=50 time=96
note_off channel=0 note=81 velocity=0 time=0
note_off channel=0 note=88 velocity=0 time=96
note_on channel=0 note=50 velocity=50 time=96
note_on channel=0 note=78 velocity=50 time=0
note_off channel=0 note=50 velocity=0 time=96
note_off channel=0 note=78 velocity=0 time=0
note_on channel=0 note=81 velocity=50 time=0
note_on channel=0 note=86 velocity=50 time=96
note_off channel=0 note=81 velocity=0 time=0
note_off channel=0 note=86 velocity=0 time=96
note_on channel=0 note=76 velocity=50 time=96
note_on channel=0 note=52 velocity=50 time=0
note_on channel=0 note=81 velocity=50 time=96
note_off channel=0 note=76 velocity=0 time=0
note_off channel=0 note=52 velocity=0 time=0
note_on channel=0 note=85 velocity=50 time=96
note_off channel=0 note=81 velocity=0 time=0
note_off channel=0 note=85 velocity=0 time=96
note_on channel=0 note=76 velocity=50 time=96
note_on channel=0 note=52 velocity=50 time=0
note_on channel=0 note=80 velocity=50 time=96
note_off channel=0 note=52 velocity=0 time=0
note_off channel=0 note=76 velocity=0 time=0
note_on channel=0 note=83 velocity=50 time=96
note_off channel=0 note=80 velocity=0 time=0
note_off channel=0 note=83 velocity=0 time=96
note_on channel=0 note=81 velocity=50 time=96
note_on channel=0 note=45 velocity=50 time=0
note_off channel=0 note=81 velocity=0 time=96
note_on channel=0 note=85 velocity=50 time=0
note_off channel=0 note=45 velocity=0 time=0
note_on channel=0 note=81 velocity=50 time=96
note_off channel=0 note=85 velocity=0 time=0
note_off channel=0 note=81 velocity=0 time=96
note_on channel=0 note=76 velocity=50 time=96
note_on channel=0 note=73 velocity=50 time=96
note_off channel=0 note=76 velocity=0 time=0
note_on channel=0 note=69 velocity=50 time=96
note_off channel=0 note=73 velocity=0 time=0
note_off channel=0 note=69 velocity=0 time=96
note_on channel=0 note=57 velocity=50 time=96
note_on channel=0 note=76 velocity=50 time=0
note_on channel=0 note=61 velocity=50 time=0
note_on channel=0 note=64 velocity=50 time=0
note_off channel=0 note=76 velocity=0 time=96
note_off channel=0 note=57 velocity=0 time=0
note_off channel=0 note=61 velocity=0 time=0
note_on channel=0 note=73 velocity=50 time=0
note_off channel=0 note=64 velocity=0 time=0
note_on channel=0 note=69 velocity=50 time=96
note_off channel=0 note=73 velocity=0 time=0
note_off channel=0 note=69 velocity=0 time=96
note_on channel=0 note=76 velocity=50 time=96
note_on channel=0 note=57 velocity=50 time=0
note_on channel=0 note=61 velocity=50 time=0
note_on channel=0 note=64 velocity=50 time=0
note_on channel=0 note=73 velocity=50 time=96
note_off channel=0 note=57 velocity=0 time=0
note_off channel=0 note=61 velocity=0 time=0
note_off channel=0 note=64 velocity=0 time=0
note_off channel=0 note=76 velocity=0 time=0
note_off channel=0 note=73 velocity=0 time=96
note_on channel=0 note=69 velocity=50 time=0
note_off channel=0 note=69 velocity=0 time=96
note_on channel=0 note=57 velocity=50 time=96
note_on channel=0 note=62 velocity=50 time=0
note_on channel=0 note=64 velocity=50 time=0
note_on channel=0 note=68 velocity=50 time=0
note_off channel=0 note=62 velocity=0 time=96
note_off channel=0 note=64 velocity=0 time=0
note_off channel=0 note=68 velocity=0 time=0
note_on channel=0 note=71 velocity=50 time=0
note_off channel=0 note=57 velocity=0 time=0
note_on channel=0 note=76 velocity=50 time=96
note_off channel=0 note=71 velocity=0 time=0
note_off channel=0 note=76 velocity=0 time=96
note_on channel=0 note=68 velocity=50 time=96
note_on channel=0 note=71 velocity=50 time=96
note_off channel=0 note=68 velocity=0 time=0
note_on channel=0 note=76 velocity=50 time=96
note_off channel=0 note=71 velocity=0 time=0
note_off channel=0 note=76 velocity=0 time=96
note_on channel=0 note=57 velocity=50 time=96
note_on channel=0 note=62 velocity=50 time=0
note_on channel=0 note=64 velocity=50 time=0
note_on channel=0 note=76 velocity=50 time=0
note_on channel=0 note=80 velocity=50 time=96
note_off channel=0 note=62 velocity=0 time=0
note_off channel=0 note=64 velocity=0 time=0
note_off channel=0 note=76 velocity=0 time=0
note_off channel=0 note=57 velocity=0 time=0
note_off channel=0 note=80 velocity=0 time=96
note_on channel=0 note=83 velocity=50 time=0
note_off channel=0 note=83 velocity=0 time=96
note_on channel=0 note=88 velocity=50 time=96
note_on channel=0 note=64 velocity=50 time=0
note_on channel=0 note=57 velocity=50 time=0
note_on channel=0 note=62 velocity=50 time=0
note_on channel=0 note=92 velocity=50 time=96
note_off channel=0 note=64 velocity=0 time=0
note_off channel=0 note=57 velocity=0 time=0
note_off channel=0 note=62 velocity=0 time=0
note_off channel=0 note=88 velocity=0 time=0
note_off channel=0 note=92 velocity=0 time=96
note_on channel=0 note=95 velocity=50 time=0
note_off channel=0 note=95 velocity=0 time=96
note_on channel=0 note=64 velocity=50 time=96
note_on channel=0 note=61 velocity=50 time=0
note_on channel=0 note=57 velocity=50 time=0
note_on channel=0 note=93 velocity=50 time=0
note_off channel=0 note=61 velocity=0 time=96
note_off channel=0 note=57 velocity=0 time=0
note_off channel=0 note=93 velocity=0 time=0
note_on channel=0 note=88 velocity=50 time=0
note_off channel=0 note=64 velocity=0 time=0
note_on channel=0 note=85 velocity=50 time=96
note_off channel=0 note=88 velocity=0 time=0
note_off channel=0 note=85 velocity=0 time=96
note_on channel=0 note=81 velocity=50 time=96
note_on channel=0 note=76 velocity=50 time=96
note_off channel=0 note=81 velocity=0 time=0
note_on channel=0 note=73 velocity=50 time=96
note_off channel=0 note=76 velocity=0 time=0
note_off channel=0 note=73 velocity=0 time=96
note_on channel=0 note=61 velocity=50 time=96
note_on channel=0 note=76 velocity=50 time=0
note_on channel=0 note=57 velocity=50 time=0
note_on channel=0 note=64 velocity=50 time=0
note_on channel=0 note=73 velocity=50 time=96
note_off channel=0 note=76 velocity=0 time=0
note_off channel=0 note=57 velocity=0 time=0
note_off channel=0 note=64 velocity=0 time=0
note_off channel=0 note=61 velocity=0 time=0
note_off channel=0 note=73 velocity=0 time=96
note_on channel=0 note=69 velocity=50 time=0
note_off channel=0 note=69 velocity=0 time=96
note_on channel=0 note=64 velocity=50 time=96
note_on channel=0 note=76 velocity=50 time=0
note_on channel=0 note=57 velocity=50 time=0
note_on channel=0 note=61 velocity=50 time=0
note_on channel=0 note=73 velocity=50 time=96
note_off channel=0 note=76 velocity=0 time=0
note_off channel=0 note=57 velocity=0 time=0
note_off channel=0 note=61 velocity=0 time=0
note_off channel=0 note=64 velocity=0 time=0
note_off channel=0 note=73 velocity=0 time=96
note_on channel=0 note=69 velocity=50 time=0
note_off channel=0 note=69 velocity=0 time=96
note_on channel=0 note=68 velocity=50 time=96
note_on channel=0 note=64 velocity=50 time=0
note_on channel=0 note=62 velocity=50 time=0
note_on channel=0 note=57 velocity=50 time=0
note_off channel=0 note=64 velocity=0 time=96
note_off channel=0 note=62 velocity=0 time=0
note_off channel=0 note=57 velocity=0 time=0
note_on channel=0 note=71 velocity=50 time=0
note_off channel=0 note=68 velocity=0 time=0
note_on channel=0 note=76 velocity=50 time=96
note_off channel=0 note=71 velocity=0 time=0
note_off channel=0 note=76 velocity=0 time=96
note_on channel=0 note=68 velocity=50 time=96
note_on channel=0 note=71 velocity=50 time=96
note_off channel=0 note=68 velocity=0 time=0
note_on channel=0 note=76 velocity=50 time=96
note_off channel=0 note=71 velocity=0 time=0
note_off channel=0 note=76 velocity=0 time=96
note_on channel=0 note=76 velocity=50 time=96
note_on channel=0 note=62 velocity=50 time=0
note_on channel=0 note=64 velocity=50 time=0
note_on channel=0 note=57 velocity=50 time=0
note_on channel=0 note=80 velocity=50 time=96
note_off channel=0 note=62 velocity=0 time=0
note_off channel=0 note=64 velocity=0 time=0
note_off channel=0 note=57 velocity=0 time=0
note_off channel=0 note=76 velocity=0 time=0
note_off channel=0 note=80 velocity=0 time=96
note_on channel=0 note=83 velocity=50 time=0
note_off channel=0 note=83 velocity=0 time=96
note_on channel=0 note=57 velocity=50 time=96
note_on channel=0 note=88 velocity=50 time=0
note_on channel=0 note=64 velocity=50 time=0
note_on channel=0 note=62 velocity=50 time=0
note_on channel=0 note=92 velocity=50 time=96
note_off channel=0 note=88 velocity=0 time=0
note_off channel=0 note=64 velocity=0 time=0
note_off channel=0 note=62 velocity=0 time=0
note_off channel=0 note=57 velocity=0 time=0
note_off channel=0 note=92 velocity=0 time=96
note_on channel=0 note=95 velocity=50 time=0
note_off channel=0 note=95 velocity=0 time=96
note_on channel=0 note=93 velocity=50 time=96
note_on channel=0 note=57 velocity=50 time=0
note_on channel=0 note=61 velocity=50 time=0
note_on channel=0 note=64 velocity=50 time=0
note_off channel=0 note=57 velocity=0 time=96
note_off channel=0 note=61 velocity=0 time=0
note_off channel=0 note=64 velocity=0 time=0
note_on channel=0 note=88 velocity=50 time=0
note_off channel=0 note=93 velocity=0 time=0
note_on channel=0 note=85 velocity=50 time=96
note_off channel=0 note=88 velocity=0 time=0
note_off channel=0 note=85 velocity=0 time=96
note_on channel=0 note=81 velocity=50 time=96
note_on channel=0 note=76 velocity=50 time=96
note_off channel=0 note=81 velocity=0 time=0
note_on channel=0 note=73 velocity=50 time=96
note_off channel=0 note=76 velocity=0 time=0
note_off channel=0 note=73 velocity=0 time=96
note_on channel=0 note=57 velocity=50 time=96
note_on channel=0 note=76 velocity=50 time=0
note_on channel=0 note=62 velocity=50 time=0
note_on channel=0 note=64 velocity=50 time=0
note_on channel=0 note=80 velocity=50 time=96
note_off channel=0 note=76 velocity=0 time=0
note_off channel=0 note=62 velocity=0 time=0
note_off channel=0 note=64 velocity=0 time=0
note_off channel=0 note=57 velocity=0 time=0
note_off channel=0 note=80 velocity=0 time=96
note_on channel=0 note=83 velocity=50 time=0
note_off channel=0 note=83 velocity=0 time=96
note_on channel=0 note=88 velocity=50 time=96
note_on channel=0 note=62 velocity=50 time=0
note_on channel=0 note=57 velocity=50 time=0
note_on channel=0 note=64 velocity=50 time=0
note_on channel=0 note=92 velocity=50 time=96
note_off channel=0 note=62 velocity=0 time=0
note_off channel=0 note=57 velocity=0 time=0
note_off channel=0 note=64 velocity=0 time=0
note_off channel=0 note=88 velocity=0 time=0
note_off channel=0 note=92 velocity=0 time=96
note_on channel=0 note=95 velocity=50 time=0
note_off channel=0 note=95 velocity=0 time=96
note_on channel=0 note=93 velocity=50 time=96
note_on channel=0 note=64 velocity=50 time=0
note_on channel=0 note=57 velocity=50 time=0
note_on channel=0 note=61 velocity=50 time=0
note_off channel=0 note=64 velocity=0 time=96
note_off channel=0 note=57 velocity=0 time=0
note_off channel=0 note=61 velocity=0 time=0
note_on channel=0 note=88 velocity=50 time=0
note_off channel=0 note=93 velocity=0 time=0
note_on channel=0 note=85 velocity=50 time=96
note_off channel=0 note=88 velocity=0 time=0
note_off channel=0 note=85 velocity=0 time=96
note_on channel=0 note=81 velocity=50 time=96
note_on channel=0 note=76 velocity=50 time=96
note_off channel=0 note=81 velocity=0 time=0
note_on channel=0 note=73 velocity=50 time=96
note_off channel=0 note=76 velocity=0 time=0
note_off channel=0 note=73 velocity=0 time=96
note_on channel=0 note=57 velocity=50 time=96
note_on channel=0 note=64 velocity=50 time=0
note_on channel=0 note=76 velocity=50 time=0
note_on channel=0 note=62 velocity=50 time=0
note_on channel=0 note=80 velocity=50 time=96
note_off channel=0 note=64 velocity=0 time=0
note_off channel=0 note=76 velocity=0 time=0
note_off channel=0 note=62 velocity=0 time=0
note_off channel=0 note=57 velocity=0 time=0
note_off channel=0 note=80 velocity=0 time=96
note_on channel=0 note=83 velocity=50 time=0
note_off channel=0 note=83 velocity=0 time=96
note_on channel=0 note=62 velocity=50 time=96
note_on channel=0 note=88 velocity=50 time=0
note_on channel=0 note=64 velocity=50 time=0
note_on channel=0 note=57 velocity=50 time=0
note_on channel=0 note=92 velocity=50 time=96
note_off channel=0 note=88 velocity=0 time=0
note_off channel=0 note=64 velocity=0 time=0
note_off channel=0 note=57 velocity=0 time=0
note_off channel=0 note=62 velocity=0 time=0
note_off channel=0 note=92 velocity=0 time=96
note_on channel=0 note=95 velocity=50 time=0
note_off channel=0 note=95 velocity=0 time=96
note_on channel=0 note=61 velocity=50 time=96
note_on channel=0 note=57 velocity=50 time=0
note_on channel=0 note=93 velocity=50 time=0
note_on channel=0 note=64 velocity=50 time=0
note_off channel=0 note=57 velocity=0 time=96
note_off channel=0 note=93 velocity=0 time=0
note_off channel=0 note=64 velocity=0 time=0
note_on channel=0 note=88 velocity=50 time=0
note_off channel=0 note=61 velocity=0 time=0
note_on channel=0 note=85 velocity=50 time=96
note_off channel=0 note=88 velocity=0 time=0
note_off channel=0 note=85 velocity=0 time=96
note_on channel=0 note=81 velocity=50 time=96
note_on channel=0 note=76 velocity=50 time=96
note_off channel=0 note=81 velocity=0 time=0
note_on channel=0 note=73 velocity=50 time=96
note_off channel=0 note=76 velocity=0 time=0
note_off channel=0 note=73 velocity=0 time=96
note_on channel=0 note=76 velocity=50 time=96
note_on channel=0 note=61 velocity=50 time=0
note_on channel=0 note=64 velocity=50 time=96
note_off channel=0 note=61 velocity=0 time=0
note_off channel=0 note=76 velocity=0 time=0
note_on channel=0 note=69 velocity=50 time=96
note_off channel=0 note=64 velocity=0 time=0
note_off channel=0 note=69 velocity=0 time=96
note_on channel=0 note=76 velocity=50 time=96
note_on channel=0 note=61 velocity=50 time=0
note_on channel=0 note=64 velocity=50 time=96
note_off channel=0 note=61 velocity=0 time=0
note_off channel=0 note=76 velocity=0 time=0
note_on channel=0 note=69 velocity=50 time=96
note_off channel=0 note=64 velocity=0 time=0
note_off channel=0 note=69 velocity=0 time=96
note_on channel=0 note=59 velocity=50 time=96
note_on channel=0 note=76 velocity=50 time=0
note_on channel=0 note=62 velocity=50 time=96
note_off channel=0 note=59 velocity=0 time=0
note_off channel=0 note=76 velocity=0 time=0
note_off channel=0 note=62 velocity=0 time=96
note_on channel=0 note=68 velocity=50 time=0
note_off channel=0 note=68 velocity=0 time=96
note_on channel=0 note=59 velocity=50 time=96
note_on channel=0 note=62 velocity=50 time=96
note_off channel=0 note=59 velocity=0 time=0
note_on channel=0 note=68 velocity=50 time=96
note_off channel=0 note=62 velocity=0 time=0
note_off channel=0 note=68 velocity=0 time=96
note_on channel=0 note=58 velocity=50 time=96
note_on channel=0 note=76 velocity=50 time=0
note_on channel=0 note=62 velocity=50 time=96
note_off channel=0 note=76 velocity=0 time=0
note_off channel=0 note=58 velocity=0 time=0
note_on channel=0 note=67 velocity=50 time=96
note_off channel=0 note=62 velocity=0 time=0
note_off channel=0 note=67 velocity=0 time=96
note_on channel=0 note=58 velocity=50 time=96
note_on channel=0 note=76 velocity=50 time=0
note_off channel=0 note=58 velocity=0 time=96
note_off channel=0 note=76 velocity=0 time=0
note_on channel=0 note=62 velocity=50 time=0
note_on channel=0 note=67 velocity=50 time=96
note_off channel=0 note=62 velocity=0 time=0
note_off channel=0 note=67 velocity=0 time=96
note_on channel=0 note=57 velocity=50 time=96
note_on channel=0 note=76 velocity=50 time=0
note_on channel=0 note=61 velocity=50 time=96
note_off channel=0 note=57 velocity=0 time=0
note_off channel=0 note=76 velocity=0 time=0
note_on channel=0 note=67 velocity=50 time=96
note_off channel=0 note=61 velocity=0 time=0
note_off channel=0 note=67 velocity=0 time=96
note_on channel=0 note=57 velocity=50 time=96
note_on channel=0 note=61 velocity=50 time=96
note_off channel=0 note=57 velocity=0 time=0
note_on channel=0 note=67 velocity=50 time=96
note_off channel=0 note=61 velocity=0 time=0
note_off channel=0 note=67 velocity=0 time=96
note_on channel=0 note=76 velocity=50 time=96
note_on channel=0 note=55 velocity=50 time=0
note_off channel=0 note=55 velocity=0 time=96
note_off channel=0 note=76 velocity=0 time=0
note_on channel=0 note=57 velocity=50 time=0
note_on channel=0 note=61 velocity=50 time=96
note_on channel=0 note=76 velocity=50 time=0
note_off channel=0 note=57 velocity=0 time=0
note_off channel=0 note=61 velocity=0 time=96
note_off channel=0 note=76 velocity=0 time=0
note_on channel=0 note=55 velocity=50 time=96
note_on channel=0 note=78 velocity=50 time=0
note_off channel=0 note=78 velocity=0 time=96
note_on channel=0 note=57 velocity=50 time=0
note_off channel=0 note=55 velocity=0 time=0
note_on channel=0 note=61 velocity=50 time=96
note_on channel=0 note=79 velocity=50 time=0
note_off channel=0 note=57 velocity=0 time=0
note_off channel=0 note=61 velocity=0 time=96
note_off channel=0 note=79 velocity=0 time=0
note_on channel=0 note=54 velocity=50 time=96
note_on channel=0 note=81 velocity=50 time=0
note_off channel=0 note=54 velocity=0 time=96
note_off channel=0 note=81 velocity=0 time=0
note_on channel=0 note=57 velocity=50 time=0
note_on channel=0 note=62 velocity=50 time=96
note_off channel=0 note=57 velocity=0 time=0
note_off channel=0 note=62 velocity=0 time=96
note_on channel=0 note=79 velocity=50 time=96
note_on channel=0 note=55 velocity=50 time=0
note_on channel=0 note=59 velocity=50 time=96
note_off channel=0 note=79 velocity=0 time=0
note_off channel=0 note=55 velocity=0 time=0
note_off channel=0 note=59 velocity=0 time=96
note_on channel=0 note=62 velocity=50 time=0
note_off channel=0 note=62 velocity=0 time=96
note_on channel=0 note=57 velocity=50 time=96
note_on channel=0 note=78 velocity=50 time=0
note_off channel=0 note=57 velocity=0 time=96
note_on channel=0 note=62 velocity=50 time=0
note_off channel=0 note=78 velocity=0 time=0
note_on channel=0 note=66 velocity=50 time=96
note_off channel=0 note=62 velocity=0 time=0
note_off channel=0 note=66 velocity=0 time=96
note_on channel=0 note=57 velocity=50 time=96
note_on channel=0 note=76 velocity=50 time=0
note_on channel=0 note=64 velocity=50 time=96
note_off channel=0 note=57 velocity=0 time=0
note_off channel=0 note=76 velocity=0 time=0
note_on channel=0 note=67 velocity=50 time=96
note_off channel=0 note=64 velocity=0 time=0
note_off channel=0 note=67 velocity=0 time=96
note_on channel=0 note=62 velocity=50 time=96
note_on channel=0 note=78 velocity=50 time=0
note_off channel=0 note=78 velocity=0 time=96
note_on channel=0 note=66 velocity=50 time=0
note_off channel=0 note=62 velocity=0 time=0
note_on channel=0 note=69 velocity=50 time=96
note_off channel=0 note=66 velocity=0 time=0
note_off channel=0 note=69 velocity=0 time=96
note_on channel=0 note=62 velocity=50 time=96
note_on channel=0 note=66 velocity=50 time=96
note_off channel=0 note=62 velocity=0 time=0
note_on channel=0 note=69 velocity=50 time=96
note_off channel=0 note=66 velocity=0 time=0
note_off channel=0 note=69 velocity=0 time=96
note_on channel=0 note=66 velocity=50 time=96
note_on channel=0 note=81 velocity=50 time=0
note_on channel=0 note=69 velocity=50 time=96
note_off channel=0 note=81 velocity=0 time=0
note_off channel=0 note=66 velocity=0 time=0
note_on channel=0 note=74 velocity=50 time=96
note_off channel=0 note=69 velocity=0 time=0
note_off channel=0 note=74 velocity=0 time=96
note_on channel=0 note=81 velocity=50 time=96
note_on channel=0 note=66 velocity=50 time=0
note_on channel=0 note=69 velocity=50 time=96
note_off channel=0 note=81 velocity=0 time=0
note_off channel=0 note=66 velocity=0 time=0
note_on channel=0 note=74 velocity=50 time=96
note_off channel=0 note=69 velocity=0 time=0
note_off channel=0 note=74 velocity=0 time=96
note_on channel=0 note=64 velocity=50 time=96
note_on channel=0 note=81 velocity=50 time=0
note_on channel=0 note=67 velocity=50 time=96
note_off channel=0 note=64 velocity=0 time=0
note_off channel=0 note=81 velocity=0 time=0
note_off channel=0 note=67 velocity=0 time=96
note_on channel=0 note=73 velocity=50 time=0
note_off channel=0 note=73 velocity=0 time=96
note_on channel=0 note=64 velocity=50 time=96
note_on channel=0 note=67 velocity=50 time=96
note_off channel=0 note=64 velocity=0 time=0
note_on channel=0 note=73 velocity=50 time=96
note_off channel=0 note=67 velocity=0 time=0
note_off channel=0 note=73 velocity=0 time=96
note_on channel=0 note=81 velocity=50 time=96
note_on channel=0 note=63 velocity=50 time=0
note_off channel=0 note=81 velocity=0 time=96
note_on channel=0 note=67 velocity=50 time=0
note_off channel=0 note=63 velocity=0 time=0
note_off channel=0 note=67 velocity=0 time=96
note_on channel=0 note=72 velocity=50 time=0
note_off channel=0 note=72 velocity=0 time=96
note_on channel=0 note=63 velocity=50 time=96
note_on channel=0 note=81 velocity=50 time=0
note_on channel=0 note=67 velocity=50 time=96
note_off channel=0 note=63 velocity=0 time=0
note_off channel=0 note=81 velocity=0 time=0
note_on channel=0 note=72 velocity=50 time=96
note_off channel=0 note=67 velocity=0 time=0
note_off channel=0 note=72 velocity=0 time=96
note_on channel=0 note=81 velocity=50 time=96
note_on channel=0 note=62 velocity=50 time=0
note_on channel=0 note=66 velocity=50 time=96
note_off channel=0 note=81 velocity=0 time=0
note_off channel=0 note=62 velocity=0 time=0
note_on channel=0 note=72 velocity=50 time=96
note_off channel=0 note=66 velocity=0 time=0
note_off channel=0 note=72 velocity=0 time=96
note_on channel=0 note=62 velocity=50 time=96
note_on channel=0 note=66 velocity=50 time=96
note_off channel=0 note=62 velocity=0 time=0
note_on channel=0 note=72 velocity=50 time=96
note_off channel=0 note=66 velocity=0 time=0
note_off channel=0 note=72 velocity=0 time=96
note_on channel=0 note=81 velocity=50 time=96
note_on channel=0 note=60 velocity=50 time=0
note_off channel=0 note=60 velocity=0 time=96
note_off channel=0 note=81 velocity=0 time=0
note_on channel=0 note=62 velocity=50 time=0
note_on channel=0 note=81 velocity=50 time=96
note_on channel=0 note=66 velocity=50 time=0
note_off channel=0 note=62 velocity=0 time=0
note_off channel=0 note=81 velocity=0 time=96
note_off channel=0 note=66 velocity=0 time=0
note_on channel=0 note=60 velocity=50 time=96
note_on channel=0 note=83 velocity=50 time=0
note_off channel=0 note=83 velocity=0 time=96
note_on channel=0 note=62 velocity=50 time=0
note_off channel=0 note=60 velocity=0 time=0
note_on channel=0 note=84 velocity=50 time=96
note_on channel=0 note=66 velocity=50 time=0
note_off channel=0 note=62 velocity=0 time=0
note_off channel=0 note=84 velocity=0 time=96
note_off channel=0 note=66 velocity=0 time=0
note_on channel=0 note=59 velocity=50 time=96
note_on channel=0 note=86 velocity=50 time=0
note_off channel=0 note=59 velocity=0 time=96
note_off channel=0 note=86 velocity=0 time=0
note_on channel=0 note=62 velocity=50 time=0
note_on channel=0 note=67 velocity=50 time=96
note_off channel=0 note=62 velocity=0 time=0
note_off channel=0 note=67 velocity=0 time=96
note_on channel=0 note=84 velocity=50 time=96
note_on channel=0 note=60 velocity=50 time=0
note_on channel=0 note=64 velocity=50 time=96
note_off channel=0 note=84 velocity=0 time=0
note_off channel=0 note=60 velocity=0 time=0
note_off channel=0 note=64 velocity=0 time=96
note_on channel=0 note=67 velocity=50 time=0
note_off channel=0 note=67 velocity=0 time=96
note_on channel=0 note=83 velocity=50 time=96
note_on channel=0 note=62 velocity=50 time=0
note_on channel=0 note=67 velocity=50 time=96
note_off channel=0 note=62 velocity=0 time=0
note_off channel=0 note=83 velocity=0 time=0
note_on channel=0 note=71 velocity=50 time=96
note_off channel=0 note=67 velocity=0 time=0
note_off channel=0 note=71 velocity=0 time=96
note_on channel=0 note=62 velocity=50 time=96
note_on channel=0 note=81 velocity=50 time=0
note_off channel=0 note=62 velocity=0 time=96
note_on channel=0 note=69 velocity=50 time=0
note_off channel=0 note=81 velocity=0 time=0
note_on channel=0 note=72 velocity=50 time=96
note_off channel=0 note=69 velocity=0 time=0
note_off channel=0 note=72 velocity=0 time=96
note_on channel=0 note=83 velocity=50 time=96
note_on channel=0 note=63 velocity=50 time=0
note_off channel=0 note=63 velocity=0 time=96
note_on channel=0 note=66 velocity=50 time=0
note_off channel=0 note=83 velocity=0 time=0
note_on channel=0 note=71 velocity=50 time=96
note_off channel=0 note=66 velocity=0 time=0
note_off channel=0 note=71 velocity=0 time=96
note_on channel=0 note=63 velocity=50 time=96
note_on channel=0 note=66 velocity=50 time=96
note_off channel=0 note=63 velocity=0 time=0
note_on channel=0 note=71 velocity=50 time=96
note_off channel=0 note=66 velocity=0 time=0
note_off channel=0 note=71 velocity=0 time=96
note_on channel=0 note=83 velocity=50 time=96
note_on channel=0 note=59 velocity=50 time=0
note_on channel=0 note=71 velocity=50 time=0
note_on channel=0 note=63 velocity=50 time=96
note_off channel=0 note=59 velocity=0 time=0
note_off channel=0 note=71 velocity=0 time=0
note_off channel=0 note=83 velocity=0 time=0
note_on channel=0 note=71 velocity=50 time=96
note_off channel=0 note=63 velocity=0 time=0
note_on channel=0 note=83 velocity=50 time=0
note_on channel=0 note=66 velocity=50 time=0
note_off channel=0 note=66 velocity=0 time=96
note_off channel=0 note=83 velocity=0 time=0
note_off channel=0 note=71 velocity=0 time=0
note_on channel=0 note=57 velocity=50 time=96
note_on channel=0 note=85 velocity=50 time=0
note_on channel=0 note=73 velocity=50 time=0
note_on channel=0 note=59 velocity=50 time=96
note_off channel=0 note=57 velocity=0 time=0
note_off channel=0 note=85 velocity=0 time=0
note_off channel=0 note=73 velocity=0 time=0
note_off channel=0 note=59 velocity=0 time=96
note_on channel=0 note=87 velocity=50 time=0
note_on channel=0 note=75 velocity=50 time=0
note_on channel=0 note=66 velocity=50 time=0
note_off channel=0 note=75 velocity=0 time=96
note_off channel=0 note=66 velocity=0 time=0
note_off channel=0 note=87 velocity=0 time=0
note_on channel=0 note=76 velocity=50 time=96
note_on channel=0 note=88 velocity=50 time=0
note_on channel=0 note=56 velocity=50 time=0
note_off channel=0 note=76 velocity=0 time=96
note_on channel=0 note=59 velocity=50 time=0
note_off channel=0 note=56 velocity=0 time=0
note_off channel=0 note=88 velocity=0 time=0
note_on channel=0 note=64 velocity=50 time=96
note_off channel=0 note=59 velocity=0 time=0
note_off channel=0 note=64 velocity=0 time=96
note_on channel=0 note=56 velocity=50 time=96
note_on channel=0 note=59 velocity=50 time=96
note_off channel=0 note=56 velocity=0 time=0
note_on channel=0 note=64 velocity=50 time=96
note_off channel=0 note=59 velocity=0 time=0
note_off channel=0 note=64 velocity=0 time=96
note_on channel=0 note=76 velocity=50 time=96
note_on channel=0 note=88 velocity=50 time=0
note_on channel=0 note=52 velocity=50 time=0
note_on channel=0 note=56 velocity=50 time=96
note_off channel=0 note=76 velocity=0 time=0
note_off channel=0 note=88 velocity=0 time=0
note_off channel=0 note=52 velocity=0 time=0
note_off channel=0 note=56 velocity=0 time=96
note_on channel=0 note=88 velocity=50 time=0
note_on channel=0 note=76 velocity=50 time=0
note_on channel=0 note=59 velocity=50 time=0
note_off channel=0 note=76 velocity=0 time=96
note_off channel=0 note=59 velocity=0 time=0
note_off channel=0 note=88 velocity=0 time=0
note_on channel=0 note=50 velocity=50 time=96
note_on channel=0 note=78 velocity=50 time=0
note_on channel=0 note=90 velocity=50 time=0
note_on channel=0 note=52 velocity=50 time=96
note_off channel=0 note=50 velocity=0 time=0
note_off channel=0 note=78 velocity=0 time=0
note_off channel=0 note=90 velocity=0 time=0
note_on channel=0 note=92 velocity=50 time=96
note_off channel=0 note=52 velocity=0 time=0
note_on channel=0 note=59 velocity=50 time=0
note_on channel=0 note=80 velocity=50 time=0
note_off channel=0 note=59 velocity=0 time=96
note_off channel=0 note=80 velocity=0 time=0
note_off channel=0 note=92 velocity=0 time=0
note_on channel=0 note=49 velocity=50 time=96
note_on channel=0 note=81 velocity=50 time=0
note_on channel=0 note=93 velocity=50 time=0
note_off channel=0 note=49 velocity=0 time=96
note_off channel=0 note=81 velocity=0 time=0
note_on channel=0 note=52 velocity=50 time=0
note_off channel=0 note=93 velocity=0 time=0
note_on channel=0 note=57 velocity=50 time=96
note_off channel=0 note=52 velocity=0 time=0
note_off channel=0 note=57 velocity=0 time=96
note_on channel=0 note=49 velocity=50 time=96
note_on channel=0 note=52 velocity=50 time=96
note_off channel=0 note=49 velocity=0 time=0
note_on channel=0 note=57 velocity=50 time=96
note_off channel=0 note=52 velocity=0 time=0
note_off channel=0 note=57 velocity=0 time=96
note_on channel=0 note=85 velocity=50 time=96
note_on channel=0 note=73 velocity=50 time=0
note_on channel=0 note=45 velocity=50 time=0
note_off channel=0 note=85 velocity=0 time=96
note_off channel=0 note=73 velocity=0 time=0
note_off channel=0 note=45 velocity=0 time=0
note_on channel=0 note=49 velocity=50 time=0
note_on channel=0 note=52 velocity=50 time=96
note_off channel=0 note=49 velocity=0 time=0
note_off channel=0 note=52 velocity=0 time=96
note_on channel=0 note=73 velocity=50 time=96
note_on channel=0 note=85 velocity=50 time=0
note_on channel=0 note=45 velocity=50 time=0
note_on channel=0 note=49 velocity=50 time=96
note_off channel=0 note=73 velocity=0 time=0
note_off channel=0 note=85 velocity=0 time=0
note_off channel=0 note=45 velocity=0 time=0
note_off channel=0 note=49 velocity=0 time=96
note_on channel=0 note=52 velocity=50 time=0
note_off channel=0 note=52 velocity=0 time=96
note_on channel=0 note=44 velocity=50 time=96
note_on channel=0 note=83 velocity=50 time=0
note_on channel=0 note=71 velocity=50 time=0
note_on channel=0 note=47 velocity=50 time=96
note_off channel=0 note=44 velocity=0 time=0
note_off channel=0 note=83 velocity=0 time=0
note_off channel=0 note=71 velocity=0 time=0
note_on channel=0 note=52 velocity=50 time=96
note_off channel=0 note=47 velocity=0 time=0
note_off channel=0 note=52 velocity=0 time=96
note_on channel=0 note=45 velocity=50 time=96
note_on channel=0 note=69 velocity=50 time=0
note_on channel=0 note=81 velocity=50 time=0
note_on channel=0 note=49 velocity=50 time=96
note_off channel=0 note=45 velocity=0 time=0
note_off channel=0 note=69 velocity=0 time=0
note_off channel=0 note=81 velocity=0 time=0
note_off channel=0 note=49 velocity=0 time=96
note_on channel=0 note=52 velocity=50 time=0
note_off channel=0 note=52 velocity=0 time=96
note_on channel=0 note=47 velocity=50 time=96
note_on channel=0 note=68 velocity=50 time=0
note_on channel=0 note=80 velocity=50 time=0
note_on channel=0 note=52 velocity=50 time=96
note_off channel=0 note=47 velocity=0 time=0
note_off channel=0 note=68 velocity=0 time=0
note_off channel=0 note=80 velocity=0 time=0
note_off channel=0 note=52 velocity=0 time=96
note_on channel=0 note=56 velocity=50 time=0
note_off channel=0 note=56 velocity=0 time=96
note_on channel=0 note=47 velocity=50 time=96
note_on channel=0 note=66 velocity=50 time=0
note_on channel=0 note=78 velocity=50 time=0
note_on channel=0 note=51 velocity=50 time=96
note_off channel=0 note=47 velocity=0 time=0
note_off channel=0 note=66 velocity=0 time=0
note_off channel=0 note=78 velocity=0 time=0
note_on channel=0 note=57 velocity=50 time=96
note_off channel=0 note=51 velocity=0 time=0
note_off channel=0 note=57 velocity=0 time=96
note_on channel=0 note=64 velocity=50 time=96
note_on channel=0 note=52 velocity=50 time=0
note_on channel=0 note=76 velocity=50 time=0
note_on channel=0 note=56 velocity=50 time=96
note_off channel=0 note=64 velocity=0 time=0
note_off channel=0 note=52 velocity=0 time=0
note_off channel=0 note=76 velocity=0 time=0
note_on channel=0 note=59 velocity=50 time=96
note_off channel=0 note=56 velocity=0 time=0
note_off channel=0 note=59 velocity=0 time=96
note_on channel=0 note=64 velocity=50 time=96
note_on channel=0 note=68 velocity=50 time=96
note_off channel=0 note=64 velocity=0 time=0
note_on channel=0 note=71 velocity=50 time=96
note_off channel=0 note=68 velocity=0 time=0
note_off channel=0 note=71 velocity=0 time=96
note_on channel=0 note=59 velocity=50 time=96
note_on channel=0 note=64 velocity=50 time=0
note_off channel=0 note=59 velocity=0 time=96
note_off channel=0 note=64 velocity=0 time=0
note_on channel=0 note=67 velocity=50 time=0
note_on channel=0 note=71 velocity=50 time=96
note_off channel=0 note=67 velocity=0 time=0
note_off channel=0 note=71 velocity=0 time=96
note_on channel=0 note=59 velocity=50 time=96
note_on channel=0 note=64 velocity=50 time=0
note_on channel=0 note=67 velocity=50 time=96
note_off channel=0 note=59 velocity=0 time=0
note_off channel=0 note=64 velocity=0 time=0
note_on channel=0 note=71 velocity=50 time=96
note_off channel=0 note=67 velocity=0 time=0
note_off channel=0 note=71 velocity=0 time=96
note_on channel=0 note=63 velocity=50 time=96
note_on channel=0 note=59 velocity=50 time=0
note_on channel=0 note=66 velocity=50 time=96
note_off channel=0 note=59 velocity=0 time=0
note_off channel=0 note=63 velocity=0 time=0
note_on channel=0 note=71 velocity=50 time=96
note_off channel=0 note=66 velocity=0 time=0
note_off channel=0 note=71 velocity=0 time=96
note_on channel=0 note=63 velocity=50 time=96
note_on channel=0 note=66 velocity=50 time=96
note_off channel=0 note=63 velocity=0 time=0
note_off channel=0 note=66 velocity=0 time=96
note_on channel=0 note=71 velocity=50 time=0
note_off channel=0 note=71 velocity=0 time=96
note_on channel=0 note=66 velocity=50 time=96
note_on channel=0 note=59 velocity=50 time=0
note_on channel=0 note=69 velocity=50 time=96
note_off channel=0 note=66 velocity=0 time=0
note_off channel=0 note=59 velocity=0 time=0
note_on channel=0 note=59 velocity=50 time=96
note_on channel=0 note=71 velocity=50 time=0
note_off channel=0 note=69 velocity=0 time=0
note_off channel=0 note=59 velocity=0 time=96
note_off channel=0 note=71 velocity=0 time=0
note_on channel=0 note=66 velocity=50 time=96
note_on channel=0 note=61 velocity=50 time=0
note_on channel=0 note=69 velocity=50 time=96
note_off channel=0 note=66 velocity=0 time=0
note_off channel=0 note=61 velocity=0 time=0
note_on channel=0 note=71 velocity=50 time=96
note_off channel=0 note=69 velocity=0 time=0
note_on channel=0 note=63 velocity=50 time=0
note_off channel=0 note=63 velocity=0 time=96
note_off channel=0 note=71 velocity=0 time=0
note_on channel=0 note=64 velocity=50 time=96
note_on channel=0 note=67 velocity=50 time=0
note_on channel=0 note=71 velocity=50 time=96
note_off channel=0 note=64 velocity=0 time=0
note_off channel=0 note=67 velocity=0 time=0
note_on channel=0 note=67 velocity=50 time=96
note_off channel=0 note=71 velocity=0 time=0
note_off channel=0 note=67 velocity=0 time=96
note_on channel=0 note=64 velocity=50 time=96
note_on channel=0 note=67 velocity=50 time=96
note_off channel=0 note=64 velocity=0 time=0
note_on channel=0 note=71 velocity=50 time=96
note_off channel=0 note=67 velocity=0 time=0
note_off channel=0 note=71 velocity=0 time=96
note_on channel=0 note=71 velocity=50 time=96
note_on channel=0 note=52 velocity=50 time=0
note_off channel=0 note=71 velocity=0 time=96
note_off channel=0 note=52 velocity=0 time=0
note_on channel=0 note=74 velocity=50 time=0
note_on channel=0 note=76 velocity=50 time=96
note_off channel=0 note=74 velocity=0 time=0
note_on channel=0 note=52 velocity=50 time=0
note_off channel=0 note=76 velocity=0 time=96
note_off channel=0 note=52 velocity=0 time=0
note_on channel=0 note=54 velocity=50 time=96
note_on channel=0 note=71 velocity=50 time=0
note_off channel=0 note=71 velocity=0 time=96
note_on channel=0 note=74 velocity=50 time=0
note_off channel=0 note=54 velocity=0 time=0
note_on channel=0 note=56 velocity=50 time=96
note_on channel=0 note=76 velocity=50 time=0
note_off channel=0 note=74 velocity=0 time=0
note_off channel=0 note=56 velocity=0 time=96
note_off channel=0 note=76 velocity=0 time=0
note_on channel=0 note=57 velocity=50 time=96
note_on channel=0 note=69 velocity=50 time=0
note_off channel=0 note=57 velocity=0 time=96
note_off channel=0 note=69 velocity=0 time=0
note_on channel=0 note=72 velocity=50 time=0
note_on channel=0 note=76 velocity=50 time=96
note_off channel=0 note=72 velocity=0 time=0
note_off channel=0 note=76 velocity=0 time=96
note_on channel=0 note=69 velocity=50 time=96
note_on channel=0 note=72 velocity=50 time=96
note_off channel=0 note=69 velocity=0 time=0
note_on channel=0 note=76 velocity=50 time=96
note_off channel=0 note=72 velocity=0 time=0
note_off channel=0 note=76 velocity=0 time=96
note_on channel=0 note=45 velocity=50 time=96
note_on channel=0 note=76 velocity=50 time=0
note_off channel=0 note=45 velocity=0 time=96
note_on channel=0 note=81 velocity=50 time=0
note_off channel=0 note=76 velocity=0 time=0
note_on channel=0 note=45 velocity=50 time=96
note_off channel=0 note=81 velocity=0 time=0
note_on channel=0 note=84 velocity=50 time=0
note_off channel=0 note=84 velocity=0 time=96
note_off channel=0 note=45 velocity=0 time=0
note_on channel=0 note=47 velocity=50 time=96
note_on channel=0 note=76 velocity=50 time=0
note_off channel=0 note=47 velocity=0 time=96
note_on channel=0 note=81 velocity=50 time=0
note_off channel=0 note=76 velocity=0 time=0
note_on channel=0 note=84 velocity=50 time=96
note_on channel=0 note=48 velocity=50 time=0
note_off channel=0 note=81 velocity=0 time=0
note_off channel=0 note=84 velocity=0 time=96
note_off channel=0 note=48 velocity=0 time=0
note_on channel=0 note=47 velocity=50 time=96
note_on channel=0 note=74 velocity=50 time=0
note_off channel=0 note=47 velocity=0 time=96
note_on channel=0 note=79 velocity=50 time=0
note_off channel=0 note=74 velocity=0 time=0
note_on channel=0 note=86 velocity=50 time=96
note_off channel=0 note=79 velocity=0 time=0
note_off channel=0 note=86 velocity=0 time=96
note_on channel=0 note=48 velocity=50 time=96
note_on channel=0 note=76 velocity=50 time=0
note_off channel=0 note=48 velocity=0 time=96
note_off channel=0 note=76 velocity=0 time=0
note_on channel=0 note=79 velocity=50 time=0
note_on channel=0 note=84 velocity=50 time=96
note_off channel=0 note=79 velocity=0 time=0
note_off channel=0 note=84 velocity=0 time=96
note_on channel=0 note=74 velocity=50 time=96
note_on channel=0 note=50 velocity=50 time=0
note_on channel=0 note=79 velocity=50 time=96
note_off channel=0 note=74 velocity=0 time=0
note_off channel=0 note=50 velocity=0 time=0
note_on channel=0 note=83 velocity=50 time=96
note_off channel=0 note=79 velocity=0 time=0
note_off channel=0 note=83 velocity=0 time=96
note_on channel=0 note=74 velocity=50 time=96
note_on channel=0 note=50 velocity=50 time=0
note_on channel=0 note=78 velocity=50 time=96
note_off channel=0 note=74 velocity=0 time=0
note_off channel=0 note=50 velocity=0 time=0
note_on channel=0 note=81 velocity=50 time=96
note_off channel=0 note=78 velocity=0 time=0
note_off channel=0 note=81 velocity=0 time=96
note_on channel=0 note=51 velocity=50 time=96
note_on channel=0 note=83 velocity=50 time=0
note_on channel=0 note=39 velocity=50 time=0
note_on channel=0 note=47 velocity=50 time=0
note_on channel=0 note=81 velocity=50 time=96
note_off channel=0 note=83 velocity=0 time=0
note_off channel=0 note=39 velocity=0 time=0
note_off channel=0 note=47 velocity=0 time=0
note_off channel=0 note=51 velocity=0 time=0
note_off channel=0 note=81 velocity=0 time=96
note_on channel=0 note=78 velocity=50 time=0
note_off channel=0 note=78 velocity=0 time=96
note_on channel=0 note=71 velocity=50 time=96
note_on channel=0 note=69 velocity=50 time=96
note_off channel=0 note=71 velocity=0 time=0
note_on channel=0 note=66 velocity=50 time=96
note_off channel=0 note=69 velocity=0 time=0
note_off channel=0 note=66 velocity=0 time=96
note_on channel=0 note=59 velocity=50 time=96
note_on channel=0 note=47 velocity=50 time=0
note_on channel=0 note=39 velocity=50 time=0
note_on channel=0 note=71 velocity=50 time=96
note_off channel=0 note=39 velocity=0 time=0
note_off channel=0 note=47 velocity=0 time=0
note_off channel=0 note=59 velocity=0 time=0
note_on channel=0 note=59 velocity=50 time=96
note_off channel=0 note=71 velocity=0 time=0
note_off channel=0 note=59 velocity=0 time=96
note_on channel=0 note=47 velocity=50 time=96
note_on channel=0 note=39 velocity=50 time=0
note_on channel=0 note=71 velocity=50 time=0
note_on channel=0 note=59 velocity=50 time=96
note_off channel=0 note=39 velocity=0 time=0
note_off channel=0 note=71 velocity=0 time=0
note_off channel=0 note=47 velocity=0 time=0
note_on channel=0 note=71 velocity=50 time=96
note_off channel=0 note=59 velocity=0 time=0
note_off channel=0 note=71 velocity=0 time=96
note_on channel=0 note=40 velocity=50 time=96
note_on channel=0 note=66 velocity=50 time=0
note_on channel=0 note=48 velocity=50 time=0
note_off channel=0 note=40 velocity=0 time=96
note_off channel=0 note=48 velocity=0 time=0
note_on channel=0 note=69 velocity=50 time=0
note_off channel=0 note=66 velocity=0 time=0
note_on channel=0 note=72 velocity=50 time=96
note_off channel=0 note=69 velocity=0 time=0
note_off channel=0 note=72 velocity=0 time=96
note_on channel=0 note=78 velocity=50 time=96
note_on channel=0 note=81 velocity=50 time=96
note_off channel=0 note=78 velocity=0 time=0
note_off channel=0 note=81 velocity=0 time=96
note_on channel=0 note=84 velocity=50 time=0
note_off channel=0 note=84 velocity=0 time=96
note_on channel=0 note=90 velocity=50 time=96
note_on channel=0 note=48 velocity=50 time=0
note_on channel=0 note=40 velocity=50 time=0
note_on channel=0 note=78 velocity=50 time=96
note_off channel=0 note=90 velocity=0 time=0
note_off channel=0 note=48 velocity=0 time=0
note_off channel=0 note=40 velocity=0 time=0
note_on channel=0 note=90 velocity=50 time=96
note_off channel=0 note=78 velocity=0 time=0
note_off channel=0 note=90 velocity=0 time=96
note_on channel=0 note=48 velocity=50 time=96
note_on channel=0 note=40 velocity=50 time=0
note_on channel=0 note=78 velocity=50 time=0
note_on channel=0 note=90 velocity=50 time=96
note_off channel=0 note=48 velocity=0 time=0
note_off channel=0 note=40 velocity=0 time=0
note_off channel=0 note=78 velocity=0 time=0
note_on channel=0 note=78 velocity=50 time=96
note_off channel=0 note=90 velocity=0 time=0
note_off channel=0 note=78 velocity=0 time=96
note_on channel=0 note=51 velocity=50 time=96
note_on channel=0 note=47 velocity=50 time=0
note_on channel=0 note=39 velocity=50 time=0
note_on channel=0 note=83 velocity=50 time=0
note_off channel=0 note=47 velocity=0 time=96
note_off channel=0 note=39 velocity=0 time=0
note_off channel=0 note=83 velocity=0 time=0
note_on channel=0 note=81 velocity=50 time=0
note_off channel=0 note=51 velocity=0 time=0
note_off channel=0 note=81 velocity=0 time=96
note_on channel=0 note=78 velocity=50 time=0
note_off channel=0 note=78 velocity=0 time=96
note_on channel=0 note=71 velocity=50 time=96
note_on channel=0 note=69 velocity=50 time=96
note_off channel=0 note=71 velocity=0 time=0
note_on channel=0 note=66 velocity=50 time=96
note_off channel=0 note=69 velocity=0 time=0
note_off channel=0 note=66 velocity=0 time=96
note_on channel=0 note=47 velocity=50 time=96
note_on channel=0 note=59 velocity=50 time=0
note_on channel=0 note=39 velocity=50 time=0
note_on channel=0 note=71 velocity=50 time=96
note_off channel=0 note=47 velocity=0 time=0
note_off channel=0 note=39 velocity=0 time=0
note_off channel=0 note=59 velocity=0 time=0
note_on channel=0 note=59 velocity=50 time=96
note_off channel=0 note=71 velocity=0 time=0
note_off channel=0 note=59 velocity=0 time=96
note_on channel=0 note=71 velocity=50 time=96
note_on channel=0 note=47 velocity=50 time=0
note_on channel=0 note=39 velocity=50 time=0
note_on channel=0 note=59 velocity=50 time=96
note_off channel=0 note=39 velocity=0 time=0
note_off channel=0 note=71 velocity=0 time=0
note_off channel=0 note=47 velocity=0 time=0
note_on channel=0 note=71 velocity=50 time=96
note_off channel=0 note=59 velocity=0 time=0
note_off channel=0 note=71 velocity=0 time=96
note_on channel=0 note=40 velocity=50 time=96
note_on channel=0 note=48 velocity=50 time=0
note_on channel=0 note=66 velocity=50 time=0
note_off channel=0 note=40 velocity=0 time=96
note_on channel=0 note=69 velocity=50 time=0
note_off channel=0 note=66 velocity=0 time=0
note_off channel=0 note=48 velocity=0 time=0
note_on channel=0 note=72 velocity=50 time=96
note_off channel=0 note=69 velocity=0 time=0
note_off channel=0 note=72 velocity=0 time=96
note_on channel=0 note=78 velocity=50 time=96
note_on channel=0 note=81 velocity=50 time=96
note_off channel=0 note=78 velocity=0 time=0
note_on channel=0 note=84 velocity=50 time=96
note_off channel=0 note=81 velocity=0 time=0
note_off channel=0 note=84 velocity=0 time=96
note_on channel=0 note=40 velocity=50 time=96
note_on channel=0 note=48 velocity=50 time=0
note_on channel=0 note=90 velocity=50 time=0
note_on channel=0 note=78 velocity=50 time=96
note_off channel=0 note=90 velocity=0 time=0
note_off channel=0 note=48 velocity=0 time=0
note_off channel=0 note=40 velocity=0 time=0
note_on channel=0 note=90 velocity=50 time=96
note_off channel=0 note=78 velocity=0 time=0
note_off channel=0 note=90 velocity=0 time=96
note_on channel=0 note=48 velocity=50 time=96
note_on channel=0 note=78 velocity=50 time=0
note_on channel=0 note=40 velocity=50 time=0
note_on channel=0 note=90 velocity=50 time=96
note_off channel=0 note=40 velocity=0 time=0
note_off channel=0 note=78 velocity=0 time=0
note_off channel=0 note=48 velocity=0 time=0
note_on channel=0 note=78 velocity=50 time=96
note_off channel=0 note=90 velocity=0 time=0
note_off channel=0 note=78 velocity=0 time=96
note_on channel=0 note=93 velocity=50 time=96
note_on channel=0 note=47 velocity=50 time=0
note_on channel=0 note=39 velocity=50 time=0
note_on channel=0 note=92 velocity=50 time=96
note_off channel=0 note=39 velocity=0 time=0
note_off channel=0 note=47 velocity=0 time=0
note_off channel=0 note=93 velocity=0 time=0
note_on channel=0 note=90 velocity=50 time=96
note_off channel=0 note=92 velocity=0 time=0
note_off channel=0 note=90 velocity=0 time=96
note_on channel=0 note=88 velocity=50 time=96
note_on channel=0 note=87 velocity=50 time=96
note_off channel=0 note=88 velocity=0 time=0
note_on channel=0 note=85 velocity=50 time=96
note_off channel=0 note=87 velocity=0 time=0
note_off channel=0 note=85 velocity=0 time=96
note_on channel=0 note=83 velocity=50 time=96
note_on channel=0 note=81 velocity=50 time=96
note_off channel=0 note=83 velocity=0 time=0
note_on channel=0 note=80 velocity=50 time=96
note_off channel=0 note=81 velocity=0 time=0
note_off channel=0 note=80 velocity=0 time=96
note_on channel=0 note=78 velocity=50 time=96
note_on channel=0 note=76 velocity=50 time=96
note_off channel=0 note=78 velocity=0 time=0
note_on channel=0 note=75 velocity=50 time=96
note_off channel=0 note=76 velocity=0 time=0
note_off channel=0 note=75 velocity=0 time=96
note_on channel=0 note=73 velocity=50 time=96
note_on channel=0 note=71 velocity=50 time=96
note_off channel=0 note=73 velocity=0 time=0
note_off channel=0 note=71 velocity=0 time=96
note_on channel=0 note=69 velocity=50 time=0
note_off channel=0 note=69 velocity=0 time=96
note_on channel=0 note=68 velocity=50 time=96
note_on channel=0 note=66 velocity=50 time=96
note_off channel=0 note=68 velocity=0 time=0
note_on channel=0 note=64 velocity=50 time=96
note_off channel=0 note=66 velocity=0 time=0
note_off channel=0 note=64 velocity=0 time=96
note_on channel=0 note=63 velocity=50 time=96
note_off channel=0 note=63 velocity=0 time=96
note_on channel=0 note=61 velocity=50 time=0
note_on channel=0 note=59 velocity=50 time=96
note_off channel=0 note=61 velocity=0 time=0
note_off channel=0 note=59 velocity=0 time=96
note_on channel=0 note=58 velocity=50 time=96
note_on channel=0 note=59 velocity=50 time=96
note_off channel=0 note=58 velocity=0 time=0
note_on channel=0 note=61 velocity=50 time=96
note_off channel=0 note=59 velocity=0 time=0
note_off channel=0 note=61 velocity=0 time=96
note_on channel=0 note=63 velocity=50 time=96
note_on channel=0 note=64 velocity=50 time=96
note_off channel=0 note=63 velocity=0 time=0
note_on channel=0 note=66 velocity=50 time=96
note_off channel=0 note=64 velocity=0 time=0
note_off channel=0 note=66 velocity=0 time=96
note_on channel=0 note=68 velocity=50 time=96
note_on channel=0 note=69 velocity=50 time=96
note_off channel=0 note=68 velocity=0 time=0
note_on channel=0 note=70 velocity=50 time=96
note_off channel=0 note=69 velocity=0 time=0
note_off channel=0 note=70 velocity=0 time=96
note_on channel=0 note=71 velocity=50 time=96
note_on channel=0 note=52 velocity=50 time=0
note_on channel=0 note=55 velocity=50 time=96
note_off channel=0 note=52 velocity=0 time=0
note_off channel=0 note=71 velocity=0 time=0
note_on channel=0 note=59 velocity=50 time=96
note_off channel=0 note=55 velocity=0 time=0
note_off channel=0 note=59 velocity=0 time=96
note_on channel=0 note=71 velocity=50 time=96
note_on channel=0 note=52 velocity=50 time=0
note_off channel=0 note=71 velocity=0 time=96
note_on channel=0 note=55 velocity=50 time=0
note_off channel=0 note=52 velocity=0 time=0
note_off channel=0 note=55 velocity=0 time=96
note_on channel=0 note=59 velocity=50 time=0
note_off channel=0 note=59 velocity=0 time=96
note_on channel=0 note=51 velocity=50 time=96
note_on channel=0 note=71 velocity=50 time=0
note_on channel=0 note=54 velocity=50 time=96
note_off channel=0 note=51 velocity=0 time=0
note_off channel=0 note=71 velocity=0 time=0
note_on channel=0 note=59 velocity=50 time=96
note_off channel=0 note=54 velocity=0 time=0
note_off channel=0 note=59 velocity=0 time=96
note_on channel=0 note=51 velocity=50 time=96
note_on channel=0 note=54 velocity=50 time=96
note_off channel=0 note=51 velocity=0 time=0
note_on channel=0 note=59 velocity=50 time=96
note_off channel=0 note=54 velocity=0 time=0
note_off channel=0 note=59 velocity=0 time=96
note_on channel=0 note=47 velocity=50 time=96
note_on channel=0 note=71 velocity=50 time=0
note_on channel=0 note=54 velocity=50 time=96
note_off channel=0 note=71 velocity=0 time=0
note_off channel=0 note=47 velocity=0 time=0
note_on channel=0 note=57 velocity=50 time=96
note_on channel=0 note=71 velocity=50 time=0
note_off channel=0 note=54 velocity=0 time=0
note_off channel=0 note=57 velocity=0 time=96
note_off channel=0 note=71 velocity=0 time=0
note_on channel=0 note=47 velocity=50 time=96
note_on channel=0 note=73 velocity=50 time=0
note_off channel=0 note=47 velocity=0 time=96
note_on channel=0 note=54 velocity=50 time=0
note_off channel=0 note=73 velocity=0 time=0
note_on channel=0 note=57 velocity=50 time=96
note_on channel=0 note=75 velocity=50 time=0
note_off channel=0 note=54 velocity=0 time=0
note_off channel=0 note=57 velocity=0 time=96
note_off channel=0 note=75 velocity=0 time=0
note_on channel=0 note=48 velocity=50 time=96
note_on channel=0 note=76 velocity=50 time=0
note_off channel=0 note=48 velocity=0 time=96
note_on channel=0 note=52 velocity=50 time=0
note_off channel=0 note=76 velocity=0 time=0
note_on channel=0 note=55 velocity=50 time=96
note_off channel=0 note=52 velocity=0 time=0
note_off channel=0 note=55 velocity=0 time=96
note_on channel=0 note=48 velocity=50 time=96
note_on channel=0 note=52 velocity=50 time=96
note_off channel=0 note=48 velocity=0 time=0
note_on channel=0 note=55 velocity=50 time=96
note_off channel=0 note=52 velocity=0 time=0
note_off channel=0 note=55 velocity=0 time=96
note_on channel=0 note=67 velocity=50 time=96
note_on channel=0 note=48 velocity=50 time=0
note_on channel=0 note=52 velocity=50 time=96
note_off channel=0 note=67 velocity=0 time=0
note_off channel=0 note=48 velocity=0 time=0
note_on channel=0 note=55 velocity=50 time=96
note_off channel=0 note=52 velocity=0 time=0
note_off channel=0 note=55 velocity=0 time=96
note_on channel=0 note=48 velocity=50 time=96
note_on channel=0 note=67 velocity=50 time=0
note_on channel=0 note=52 velocity=50 time=96
note_off channel=0 note=67 velocity=0 time=0
note_off channel=0 note=48 velocity=0 time=0
note_on channel=0 note=55 velocity=50 time=96
note_off channel=0 note=52 velocity=0 time=0
note_off channel=0 note=55 velocity=0 time=96
note_on channel=0 note=67 velocity=50 time=96
note_on channel=0 note=48 velocity=50 time=0
note_off channel=0 note=48 velocity=0 time=96
note_on channel=0 note=52 velocity=50 time=0
note_off channel=0 note=67 velocity=0 time=0
note_on channel=0 note=55 velocity=50 time=96
note_off channel=0 note=52 velocity=0 time=0
note_off channel=0 note=55 velocity=0 time=96
note_on channel=0 note=48 velocity=50 time=96
note_on channel=0 note=52 velocity=50 time=96
note_off channel=0 note=48 velocity=0 time=0
note_on channel=0 note=55 velocity=50 time=96
note_off channel=0 note=52 velocity=0 time=0
note_off channel=0 note=55 velocity=0 time=96
note_on channel=0 note=48 velocity=50 time=96
note_on channel=0 note=76 velocity=50 time=0
note_on channel=0 note=64 velocity=50 time=0
note_on channel=0 note=52 velocity=50 time=96
note_off channel=0 note=48 velocity=0 time=0
note_off channel=0 note=76 velocity=0 time=0
note_off channel=0 note=64 velocity=0 time=0
note_on channel=0 note=55 velocity=50 time=96
note_off channel=0 note=52 velocity=0 time=0
note_off channel=0 note=55 velocity=0 time=96
note_on channel=0 note=76 velocity=50 time=96
note_on channel=0 note=64 velocity=50 time=0
note_on channel=0 note=48 velocity=50 time=0
note_on channel=0 note=52 velocity=50 time=96
note_off channel=0 note=64 velocity=0 time=0
note_off channel=0 note=48 velocity=0 time=0
note_off channel=0 note=76 velocity=0 time=0
note_on channel=0 note=55 velocity=50 time=96
note_off channel=0 note=52 velocity=0 time=0
note_off channel=0 note=55 velocity=0 time=96
note_on channel=0 note=77 velocity=50 time=96
note_on channel=0 note=47 velocity=50 time=0
note_on channel=0 note=65 velocity=50 time=0
note_off channel=0 note=47 velocity=0 time=96
note_off channel=0 note=65 velocity=0 time=0
note_on channel=0 note=50 velocity=50 time=0
note_off channel=0 note=77 velocity=0 time=0
note_on channel=0 note=55 velocity=50 time=96
note_off channel=0 note=50 velocity=0 time=0
note_off channel=0 note=55 velocity=0 time=96
note_on channel=0 note=47 velocity=50 time=96
note_off channel=0 note=47 velocity=0 time=96
note_on channel=0 note=50 velocity=50 time=0
note_on channel=0 note=55 velocity=50 time=96
note_off channel=0 note=50 velocity=0 time=0
note_off channel=0 note=55 velocity=0 time=96
note_on channel=0 note=67 velocity=50 time=96
note_on channel=0 note=47 velocity=50 time=0
note_on channel=0 note=50 velocity=50 time=96
note_off channel=0 note=67 velocity=0 time=0
note_off channel=0 note=47 velocity=0 time=0
note_on channel=0 note=55 velocity=50 time=96
note_off channel=0 note=50 velocity=0 time=0
note_off channel=0 note=55 velocity=0 time=96
note_on channel=0 note=47 velocity=50 time=96
note_on channel=0 note=67 velocity=50 time=0
note_on channel=0 note=50 velocity=50 time=96
note_off channel=0 note=47 velocity=0 time=0
note_off channel=0 note=67 velocity=0 time=0
note_on channel=0 note=55 velocity=50 time=96
note_off channel=0 note=50 velocity=0 time=0
note_off channel=0 note=55 velocity=0 time=96
note_on channel=0 note=67 velocity=50 time=96
note_on channel=0 note=47 velocity=50 time=0
note_on channel=0 note=50 velocity=50 time=96
note_off channel=0 note=47 velocity=0 time=0
note_off channel=0 note=67 velocity=0 time=0
note_on channel=0 note=55 velocity=50 time=96
note_off channel=0 note=50 velocity=0 time=0
note_off channel=0 note=55 velocity=0 time=96
note_on channel=0 note=47 velocity=50 time=96
note_off channel=0 note=47 velocity=0 time=96
note_on channel=0 note=50 velocity=50 time=0
note_on channel=0 note=55 velocity=50 time=96
note_off channel=0 note=50 velocity=0 time=0
note_off channel=0 note=55 velocity=0 time=96
note_on channel=0 note=47 velocity=50 time=96
note_on channel=0 note=89 velocity=50 time=0
note_on channel=0 note=50 velocity=50 time=96
note_on channel=0 note=86 velocity=50 time=0
note_off channel=0 note=47 velocity=0 time=0
note_off channel=0 note=89 velocity=0 time=0
note_off channel=0 note=86 velocity=0 time=96
note_off channel=0 note=50 velocity=0 time=0
note_on channel=0 note=83 velocity=50 time=0
note_on channel=0 note=55 velocity=50 time=0
note_on channel=0 note=77 velocity=50 time=96
note_off channel=0 note=55 velocity=0 time=0
note_off channel=0 note=83 velocity=0 time=0
note_on channel=0 note=74 velocity=50 time=96
note_on channel=0 note=47 velocity=50 time=0
note_off channel=0 note=77 velocity=0 time=0
note_off channel=0 note=47 velocity=0 time=96
note_on channel=0 note=71 velocity=50 time=0
note_off channel=0 note=74 velocity=0 time=0
note_on channel=0 note=50 velocity=50 time=0
note_on channel=0 note=65 velocity=50 time=96
note_on channel=0 note=55 velocity=50 time=0
note_off channel=0 note=50 velocity=0 time=0
note_off channel=0 note=71 velocity=0 time=0
note_off channel=0 note=65 velocity=0 time=96
note_off channel=0 note=55 velocity=0 time=0
note_on channel=0 note=64 velocity=50 time=96
note_on channel=0 note=48 velocity=50 time=0
note_on channel=0 note=52 velocity=50 time=96
note_off channel=0 note=48 velocity=0 time=0
note_off channel=0 note=64 velocity=0 time=0
note_on channel=0 note=55 velocity=50 time=96
note_off channel=0 note=52 velocity=0 time=0
note_off channel=0 note=55 velocity=0 time=96
note_on channel=0 note=48 velocity=50 time=96
note_on channel=0 note=52 velocity=50 time=96
note_off channel=0 note=48 velocity=0 time=0
note_off channel=0 note=52 velocity=0 time=96
note_on channel=0 note=55 velocity=50 time=0
note_off channel=0 note=55 velocity=0 time=96
note_on channel=0 note=67 velocity=50 time=96
note_on channel=0 note=48 velocity=50 time=0
note_on channel=0 note=52 velocity=50 time=96
note_off channel=0 note=48 velocity=0 time=0
note_off channel=0 note=67 velocity=0 time=0
note_on channel=0 note=55 velocity=50 time=96
note_off channel=0 note=52 velocity=0 time=0
note_off channel=0 note=55 velocity=0 time=96
note_on channel=0 note=67 velocity=50 time=96
note_on channel=0 note=48 velocity=50 time=0
note_off channel=0 note=67 velocity=0 time=96
note_on channel=0 note=52 velocity=50 time=0
note_off channel=0 note=48 velocity=0 time=0
note_on channel=0 note=55 velocity=50 time=96
note_off channel=0 note=52 velocity=0 time=0
note_off channel=0 note=55 velocity=0 time=96
note_on channel=0 note=67 velocity=50 time=96
note_on channel=0 note=48 velocity=50 time=0
note_off channel=0 note=48 velocity=0 time=96
note_on channel=0 note=52 velocity=50 time=0
note_off channel=0 note=67 velocity=0 time=0
note_on channel=0 note=55 velocity=50 time=96
note_off channel=0 note=52 velocity=0 time=0
note_off channel=0 note=55 velocity=0 time=96
note_on channel=0 note=48 velocity=50 time=96
note_on channel=0 note=52 velocity=50 time=96
note_off channel=0 note=48 velocity=0 time=0
note_on channel=0 note=55 velocity=50 time=96
note_off channel=0 note=52 velocity=0 time=0
note_off channel=0 note=55 velocity=0 time=96
note_on channel=0 note=48 velocity=50 time=96
note_on channel=0 note=76 velocity=50 time=0
note_on channel=0 note=64 velocity=50 time=0
note_on channel=0 note=52 velocity=50 time=96
note_off channel=0 note=76 velocity=0 time=0
note_off channel=0 note=64 velocity=0 time=0
note_off channel=0 note=48 velocity=0 time=0
note_on channel=0 note=76 velocity=50 time=96
note_off channel=0 note=52 velocity=0 time=0
note_on channel=0 note=64 velocity=50 time=0
note_on channel=0 note=55 velocity=50 time=0
note_off channel=0 note=55 velocity=0 time=96
note_off channel=0 note=64 velocity=0 time=0
note_off channel=0 note=76 velocity=0 time=0
note_on channel=0 note=48 velocity=50 time=96
note_on channel=0 note=64 velocity=50 time=0
note_on channel=0 note=76 velocity=50 time=0
note_on channel=0 note=52 velocity=50 time=96
note_off channel=0 note=48 velocity=0 time=0
note_off channel=0 note=64 velocity=0 time=0
note_off channel=0 note=76 velocity=0 time=0
note_off channel=0 note=52 velocity=0 time=96
note_on channel=0 note=55 velocity=50 time=0
note_on channel=0 note=64 velocity=50 time=0
note_on channel=0 note=76 velocity=50 time=0
note_off channel=0 note=64 velocity=0 time=96
note_off channel=0 note=76 velocity=0 time=0
note_off channel=0 note=55 velocity=0 time=0
note_on channel=0 note=47 velocity=50 time=96
note_on channel=0 note=65 velocity=50 time=0
note_on channel=0 note=77 velocity=50 time=0
note_off channel=0 note=47 velocity=0 time=96
note_on channel=0 note=50 velocity=50 time=0
note_off channel=0 note=77 velocity=0 time=0
note_off channel=0 note=65 velocity=0 time=0
note_off channel=0 note=50 velocity=0 time=96
note_on channel=0 note=55 velocity=50 time=0
note_off channel=0 note=55 velocity=0 time=96
note_on channel=0 note=47 velocity=50 time=96
note_on channel=0 note=50 velocity=50 time=96
note_off channel=0 note=47 velocity=0 time=0
note_on channel=0 note=55 velocity=50 time=96
note_off channel=0 note=50 velocity=0 time=0
note_on channel=0 note=69 velocity=50 time=96
note_off channel=0 note=55 velocity=0 time=0
note_on channel=0 note=67 velocity=50 time=96
note_on channel=0 note=47 velocity=50 time=0
note_off channel=0 note=69 velocity=0 time=0
note_on channel=0 note=50 velocity=50 time=96
note_off channel=0 note=67 velocity=0 time=0
note_off channel=0 note=47 velocity=0 time=0
note_off channel=0 note=50 velocity=0 time=96
note_on channel=0 note=66 velocity=50 time=0
note_on channel=0 note=55 velocity=50 time=0
note_off channel=0 note=55 velocity=0 time=96
note_off channel=0 note=66 velocity=0 time=0
note_on channel=0 note=67 velocity=50 time=96
note_on channel=0 note=47 velocity=50 time=0
note_on channel=0 note=50 velocity=50 time=96
note_off channel=0 note=67 velocity=0 time=0
note_off channel=0 note=47 velocity=0 time=0
note_on channel=0 note=69 velocity=50 time=96
note_on channel=0 note=55 velocity=50 time=0
note_off channel=0 note=50 velocity=0 time=0
note_off channel=0 note=69 velocity=0 time=96
note_off channel=0 note=55 velocity=0 time=0
note_on channel=0 note=47 velocity=50 time=96
note_on channel=0 note=69 velocity=50 time=0
note_on channel=0 note=50 velocity=50 time=96
note_off channel=0 note=47 velocity=0 time=0
note_off channel=0 note=69 velocity=0 time=0
note_on channel=0 note=55 velocity=50 time=96
note_off channel=0 note=50 velocity=0 time=0
note_off channel=0 note=55 velocity=0 time=96
note_on channel=0 note=67 velocity=50 time=96
note_on channel=0 note=47 velocity=50 time=0
note_on channel=0 note=50 velocity=50 time=96
note_off channel=0 note=67 velocity=0 time=0
note_off channel=0 note=47 velocity=0 time=0
note_on channel=0 note=55 velocity=50 time=96
note_off channel=0 note=50 velocity=0 time=0
note_off channel=0 note=55 velocity=0 time=96
note_on channel=0 note=89 velocity=50 time=96
note_on channel=0 note=47 velocity=50 time=0
note_on channel=0 note=50 velocity=50 time=96
note_on channel=0 note=86 velocity=50 time=0
note_off channel=0 note=47 velocity=0 time=0
note_off channel=0 note=89 velocity=0 time=0
note_on channel=0 note=55 velocity=50 time=96
note_on channel=0 note=83 velocity=50 time=0
note_off channel=0 note=50 velocity=0 time=0
note_off channel=0 note=86 velocity=0 time=0
note_off channel=0 note=55 velocity=0 time=96
note_off channel=0 note=83 velocity=0 time=0
note_on channel=0 note=77 velocity=50 time=0
note_on channel=0 note=47 velocity=50 time=96
note_off channel=0 note=77 velocity=0 time=0
note_on channel=0 note=74 velocity=50 time=0
note_off channel=0 note=74 velocity=0 time=96
note_on channel=0 note=50 velocity=50 time=0
note_off channel=0 note=47 velocity=0 time=0
note_on channel=0 note=71 velocity=50 time=0
note_on channel=0 note=65 velocity=50 time=96
note_on channel=0 note=55 velocity=50 time=0
note_off channel=0 note=71 velocity=0 time=0
note_off channel=0 note=50 velocity=0 time=0
note_off channel=0 note=55 velocity=0 time=96
note_off channel=0 note=65 velocity=0 time=0
note_on channel=0 note=64 velocity=50 time=96
note_on channel=0 note=48 velocity=50 time=0
note_off channel=0 note=48 velocity=0 time=96
note_on channel=0 note=52 velocity=50 time=0
note_off channel=0 note=64 velocity=0 time=0
note_on channel=0 note=55 velocity=50 time=96
note_off channel=0 note=52 velocity=0 time=0
note_off channel=0 note=55 velocity=0 time=96
note_on channel=0 note=48 velocity=50 time=96
note_on channel=0 note=52 velocity=50 time=96
note_off channel=0 note=48 velocity=0 time=0
note_on channel=0 note=88 velocity=50 time=96
note_on channel=0 note=55 velocity=50 time=0
note_off channel=0 note=52 velocity=0 time=0
note_off channel=0 note=88 velocity=0 time=96
note_off channel=0 note=55 velocity=0 time=0
note_on channel=0 note=89 velocity=50 time=96
note_on channel=0 note=47 velocity=50 time=0
note_off channel=0 note=89 velocity=0 time=96
note_off channel=0 note=47 velocity=0 time=0
note_on channel=0 note=50 velocity=50 time=0
note_on channel=0 note=86 velocity=50 time=0
note_on channel=0 note=83 velocity=50 time=96
note_on channel=0 note=55 velocity=50 time=0
note_off channel=0 note=86 velocity=0 time=0
note_off channel=0 note=50 velocity=0 time=0
note_on channel=0 note=77 velocity=50 time=96
note_off channel=0 note=83 velocity=0 time=0
note_off channel=0 note=55 velocity=0 time=0
note_off channel=0 note=77 velocity=0 time=96
note_on channel=0 note=47 velocity=50 time=0
note_on channel=0 note=74 velocity=50 time=0
note_off channel=0 note=74 velocity=0 time=96
note_on channel=0 note=50 velocity=50 time=0
note_off channel=0 note=47 velocity=0 time=0
note_on channel=0 note=71 velocity=50 time=0
note_on channel=0 note=55 velocity=50 time=96
note_on channel=0 note=65 velocity=50 time=0
note_off channel=0 note=71 velocity=0 time=0
note_off channel=0 note=50 velocity=0 time=0
note_off channel=0 note=65 velocity=0 time=96
note_off channel=0 note=55 velocity=0 time=0
note_on channel=0 note=64 velocity=50 time=96
note_on channel=0 note=48 velocity=50 time=0
note_off channel=0 note=48 velocity=0 time=96
note_on channel=0 note=52 velocity=50 time=0
note_off channel=0 note=64 velocity=0 time=0
note_on channel=0 note=55 velocity=50 time=96
note_off channel=0 note=52 velocity=0 time=0
note_off channel=0 note=55 velocity=0 time=96
note_on channel=0 note=48 velocity=50 time=96
note_on channel=0 note=52 velocity=50 time=96
note_off channel=0 note=48 velocity=0 time=0
note_on channel=0 note=55 velocity=50 time=96
note_on channel=0 note=88 velocity=50 time=0
note_off channel=0 note=52 velocity=0 time=0
note_off channel=0 note=55 velocity=0 time=96
note_off channel=0 note=88 velocity=0 time=0
note_on channel=0 note=89 velocity=50 time=96
note_on channel=0 note=47 velocity=50 time=0
note_off channel=0 note=89 velocity=0 time=96
note_off channel=0 note=47 velocity=0 time=0
note_on channel=0 note=50 velocity=50 time=0
note_on channel=0 note=86 velocity=50 time=0
note_on channel=0 note=55 velocity=50 time=96
note_on channel=0 note=83 velocity=50 time=0
note_off channel=0 note=86 velocity=0 time=0
note_off channel=0 note=50 velocity=0 time=0
note_on channel=0 note=77 velocity=50 time=96
note_off channel=0 note=55 velocity=0 time=0
note_off channel=0 note=83 velocity=0 time=0
note_off channel=0 note=77 velocity=0 time=96
note_on channel=0 note=74 velocity=50 time=0
note_on channel=0 note=47 velocity=50 time=0
note_on channel=0 note=50 velocity=50 time=96
note_on channel=0 note=71 velocity=50 time=0
note_off channel=0 note=47 velocity=0 time=0
note_off channel=0 note=74 velocity=0 time=0
note_on channel=0 note=55 velocity=50 time=96
note_on channel=0 note=65 velocity=50 time=0
note_off channel=0 note=50 velocity=0 time=0
note_off channel=0 note=71 velocity=0 time=0
note_off channel=0 note=55 velocity=0 time=96
note_off channel=0 note=65 velocity=0 time=0
note_on channel=0 note=48 velocity=50 time=96
note_on channel=0 note=64 velocity=50 time=0
note_on channel=0 note=52 velocity=50 time=96
note_off channel=0 note=64 velocity=0 time=0
note_off channel=0 note=48 velocity=0 time=0
note_on channel=0 note=55 velocity=50 time=96
note_off channel=0 note=52 velocity=0 time=0
note_off channel=0 note=55 velocity=0 time=96
note_on channel=0 note=48 velocity=50 time=96
note_on channel=0 note=88 velocity=50 time=0
note_off channel=0 note=48 velocity=0 time=96
note_on channel=0 note=76 velocity=50 time=0
note_off channel=0 note=88 velocity=0 time=0
note_on channel=0 note=52 velocity=50 time=0
note_on channel=0 note=88 velocity=50 time=96
note_on channel=0 note=55 velocity=50 time=0
note_off channel=0 note=52 velocity=0 time=0
note_off channel=0 note=76 velocity=0 time=0
note_off channel=0 note=88 velocity=0 time=96
note_off channel=0 note=55 velocity=0 time=0
note_on channel=0 note=47 velocity=50 time=96
note_on channel=0 note=89 velocity=50 time=0
note_on channel=0 note=50 velocity=50 time=96
note_on channel=0 note=77 velocity=50 time=0
note_off channel=0 note=47 velocity=0 time=0
note_off channel=0 note=89 velocity=0 time=0
note_on channel=0 note=55 velocity=50 time=96
note_off channel=0 note=50 velocity=0 time=0
note_off channel=0 note=77 velocity=0 time=0
note_on channel=0 note=89 velocity=50 time=0
note_off channel=0 note=89 velocity=0 time=96
note_off channel=0 note=55 velocity=0 time=0
note_on channel=0 note=47 velocity=50 time=96
note_on channel=0 note=90 velocity=50 time=0
note_on channel=0 note=78 velocity=50 time=96
note_on channel=0 note=50 velocity=50 time=0
note_off channel=0 note=47 velocity=0 time=0
note_off channel=0 note=90 velocity=0 time=0
note_on channel=0 note=54 velocity=50 time=96
note_off channel=0 note=78 velocity=0 time=0
note_off channel=0 note=50 velocity=0 time=0
note_on channel=0 note=90 velocity=50 time=0
note_off channel=0 note=54 velocity=0 time=96
note_off channel=0 note=90 velocity=0 time=0
note_on channel=0 note=47 velocity=50 time=96
note_on channel=0 note=91 velocity=50 time=0
note_on channel=0 note=50 velocity=50 time=96
note_on channel=0 note=79 velocity=50 time=0
note_off channel=0 note=47 velocity=0 time=0
note_off channel=0 note=91 velocity=0 time=0
note_off channel=0 note=79 velocity=0 time=96
note_on channel=0 note=91 velocity=50 time=0
note_off channel=0 note=50 velocity=0 time=0
note_on channel=0 note=53 velocity=50 time=0
note_off channel=0 note=53 velocity=0 time=96
note_off channel=0 note=91 velocity=0 time=0
note_on channel=0 note=47 velocity=50 time=96
note_on channel=0 note=92 velocity=50 time=0
note_on channel=0 note=50 velocity=50 time=96
note_off channel=0 note=47 velocity=0 time=0
note_off channel=0 note=92 velocity=0 time=0
note_on channel=0 note=80 velocity=50 time=0
note_on channel=0 note=92 velocity=50 time=96
note_on channel=0 note=52 velocity=50 time=0
note_off channel=0 note=80 velocity=0 time=0
note_off channel=0 note=50 velocity=0 time=0
note_off channel=0 note=92 velocity=0 time=96
note_off channel=0 note=52 velocity=0 time=0
note_on channel=0 note=93 velocity=50 time=96
note_on channel=0 note=48 velocity=50 time=0
note_off channel=0 note=93 velocity=0 time=96
note_off channel=0 note=48 velocity=0 time=0
note_on channel=0 note=52 velocity=50 time=0
note_on channel=0 note=81 velocity=50 time=0
note_off channel=0 note=81 velocity=0 time=96
note_on channel=0 note=57 velocity=50 time=0
note_off channel=0 note=52 velocity=0 time=0
note_on channel=0 note=93 velocity=50 time=0
note_off channel=0 note=93 velocity=0 time=96
note_off channel=0 note=57 velocity=0 time=0
note_on channel=0 note=49 velocity=50 time=96
note_on channel=0 note=94 velocity=50 time=0
note_on channel=0 note=82 velocity=50 time=96
note_on channel=0 note=52 velocity=50 time=0
note_off channel=0 note=49 velocity=0 time=0
note_off channel=0 note=94 velocity=0 time=0
note_on channel=0 note=55 velocity=50 time=96
note_on channel=0 note=94 velocity=50 time=0
note_off channel=0 note=82 velocity=0 time=0
note_off channel=0 note=52 velocity=0 time=0
note_off channel=0 note=55 velocity=0 time=96
note_off channel=0 note=94 velocity=0 time=0
note_on channel=0 note=52 velocity=50 time=96
note_on channel=0 note=56 velocity=50 time=0
note_on channel=0 note=95 velocity=50 time=0
note_on channel=0 note=47 velocity=50 time=0
note_on channel=0 note=92 velocity=50 time=96
note_off channel=0 note=95 velocity=0 time=0
note_off channel=0 note=47 velocity=0 time=0
note_off channel=0 note=56 velocity=0 time=0
note_off channel=0 note=52 velocity=0 time=0
note_off channel=0 note=92 velocity=0 time=96
note_on channel=0 note=88 velocity=50 time=0
note_off channel=0 note=88 velocity=0 time=96
note_on channel=0 note=83 velocity=50 time=96
note_on channel=0 note=80 velocity=50 time=96
note_off channel=0 note=83 velocity=0 time=0
note_on channel=0 note=76 velocity=50 time=96
note_off channel=0 note=80 velocity=0 time=0
note_off channel=0 note=76 velocity=0 time=96
note_on channel=0 note=59 velocity=50 time=96
note_on channel=0 note=83 velocity=50 time=0
note_on channel=0 note=80 velocity=50 time=96
note_off channel=0 note=59 velocity=0 time=0
note_off channel=0 note=83 velocity=0 time=0
note_on channel=0 note=56 velocity=50 time=0
note_on channel=0 note=76 velocity=50 time=96
note_on channel=0 note=52 velocity=50 time=0
note_off channel=0 note=80 velocity=0 time=0
note_off channel=0 note=56 velocity=0 time=0
note_off channel=0 note=52 velocity=0 time=96
note_off channel=0 note=76 velocity=0 time=0
note_on channel=0 note=71 velocity=50 time=96
note_on channel=0 note=47 velocity=50 time=0
note_on channel=0 note=44 velocity=50 time=96
note_on channel=0 note=68 velocity=50 time=0
note_off channel=0 note=71 velocity=0 time=0
note_off channel=0 note=47 velocity=0 time=0
note_on channel=0 note=64 velocity=50 time=96
note_off channel=0 note=44 velocity=0 time=0
note_off channel=0 note=68 velocity=0 time=0
note_on channel=0 note=40 velocity=50 time=0
note_off channel=0 note=40 velocity=0 time=96
note_off channel=0 note=64 velocity=0 time=0
note_on channel=0 note=35 velocity=50 time=96
note_on channel=0 note=59 velocity=50 time=0
note_off channel=0 note=35 velocity=0 time=96
note_off channel=0 note=59 velocity=0 time=0
note_on channel=0 note=68 velocity=50 time=288
note_on channel=0 note=64 velocity=50 time=0
note_on channel=0 note=59 velocity=50 time=0
note_on channel=0 note=56 velocity=50 time=0
note_on channel=0 note=47 velocity=50 time=0
note_on channel=0 note=52 velocity=50 time=0
note_off channel=0 note=56 velocity=0 time=96
note_off channel=0 note=47 velocity=0 time=0
note_off channel=0 note=52 velocity=0 time=0
note_off channel=0 note=59 velocity=0 time=0
note_off channel=0 note=68 velocity=0 time=0
note_off channel=0 note=64 velocity=0 time=0
note_on channel=0 note=54 velocity=50 time=672
note_on channel=0 note=47 velocity=50 time=0
note_on channel=0 note=59 velocity=50 time=0
note_on channel=0 note=66 velocity=50 time=0
note_on channel=0 note=63 velocity=50 time=0
note_on channel=0 note=51 velocity=50 time=0
note_off channel=0 note=63 velocity=0 time=96
note_off channel=0 note=59 velocity=0 time=0
note_off channel=0 note=47 velocity=0 time=0
note_off channel=0 note=51 velocity=0 time=0
note_off channel=0 note=66 velocity=0 time=0
note_off channel=0 note=54 velocity=0 time=0
note_on channel=0 note=40 velocity=50 time=288
note_on channel=0 note=64 velocity=50 time=0
note_on channel=0 note=52 velocity=50 time=0
note_on channel=0 note=59 velocity=50 time=96
note_off channel=0 note=40 velocity=0 time=0
note_off channel=0 note=64 velocity=0 time=0
note_off channel=0 note=52 velocity=0 time=0
note_on channel=0 note=56 velocity=50 time=96
note_off channel=0 note=59 velocity=0 time=0
note_off channel=0 note=56 velocity=0 time=96
note_on channel=0 note=59 velocity=50 time=96
note_on channel=0 note=64 velocity=50 time=96
note_off channel=0 note=59 velocity=0 time=0
note_on channel=0 note=68 velocity=50 time=96
note_off channel=0 note=64 velocity=0 time=0
note_off channel=0 note=68 velocity=0 time=96
note_on channel=0 note=59 velocity=50 time=96
note_on channel=0 note=56 velocity=50 time=0
note_on channel=0 note=52 velocity=50 time=0
note_on channel=0 note=71 velocity=50 time=0
note_on channel=0 note=68 velocity=50 time=96
note_off channel=0 note=52 velocity=0 time=0
note_off channel=0 note=59 velocity=0 time=0
note_off channel=0 note=56 velocity=0 time=0
note_off channel=0 note=71 velocity=0 time=0
note_on channel=0 note=64 velocity=50 time=96
note_off channel=0 note=68 velocity=0 time=0
note_off channel=0 note=64 velocity=0 time=96
note_on channel=0 note=71 velocity=50 time=96
note_on channel=0 note=52 velocity=50 time=0
note_on channel=0 note=59 velocity=50 time=0
note_on channel=0 note=56 velocity=50 time=0
note_on channel=0 note=68 velocity=50 time=96
note_off channel=0 note=59 velocity=0 time=0
note_off channel=0 note=71 velocity=0 time=0
note_off channel=0 note=56 velocity=0 time=0
note_off channel=0 note=52 velocity=0 time=0
note_on channel=0 note=64 velocity=50 time=96
note_off channel=0 note=68 velocity=0 time=0
note_off channel=0 note=64 velocity=0 time=96
note_on channel=0 note=57 velocity=50 time=96
note_on channel=0 note=63 velocity=50 time=0
note_on channel=0 note=52 velocity=50 time=0
note_on channel=0 note=59 velocity=50 time=0
note_on channel=0 note=66 velocity=50 time=96
note_off channel=0 note=52 velocity=0 time=0
note_off channel=0 note=59 velocity=0 time=0
note_off channel=0 note=63 velocity=0 time=0
note_off channel=0 note=57 velocity=0 time=0
note_on channel=0 note=71 velocity=50 time=96
note_off channel=0 note=66 velocity=0 time=0
note_off channel=0 note=71 velocity=0 time=96
note_on channel=0 note=63 velocity=50 time=96
note_off channel=0 note=63 velocity=0 time=96
note_on channel=0 note=66 velocity=50 time=0
note_on channel=0 note=71 velocity=50 time=96
note_off channel=0 note=66 velocity=0 time=0
note_off channel=0 note=71 velocity=0 time=96
note_on channel=0 note=52 velocity=50 time=96
note_on channel=0 note=57 velocity=50 time=0
note_on channel=0 note=71 velocity=50 time=0
note_on channel=0 note=59 velocity=50 time=0
note_off channel=0 note=52 velocity=0 time=96
note_off channel=0 note=57 velocity=0 time=0
note_off channel=0 note=71 velocity=0 time=0
note_off channel=0 note=59 velocity=0 time=0
note_on channel=0 note=75 velocity=50 time=0
note_on channel=0 note=78 velocity=50 time=96
note_off channel=0 note=75 velocity=0 time=0
note_off channel=0 note=78 velocity=0 time=96
note_on channel=0 note=83 velocity=50 time=96
note_on channel=0 note=52 velocity=50 time=0
note_on channel=0 note=57 velocity=50 time=0
note_on channel=0 note=59 velocity=50 time=0
note_off channel=0 note=52 velocity=0 time=96
note_off channel=0 note=57 velocity=0 time=0
note_off channel=0 note=59 velocity=0 time=0
note_off channel=0 note=83 velocity=0 time=0
note_on channel=0 note=87 velocity=50 time=0
note_off channel=0 note=87 velocity=0 time=96
note_on channel=0 note=90 velocity=50 time=0
note_off channel=0 note=90 velocity=0 time=96
note_on channel=0 note=88 velocity=50 time=96
note_on channel=0 note=52 velocity=50 time=0
note_on channel=0 note=59 velocity=50 time=0
note_on channel=0 note=56 velocity=50 time=0
note_on channel=0 note=83 velocity=50 time=96
note_off channel=0 note=59 velocity=0 time=0
note_off channel=0 note=88 velocity=0 time=0
note_off channel=0 note=56 velocity=0 time=0
note_off channel=0 note=52 velocity=0 time=0
note_on channel=0 note=80 velocity=50 time=96
note_off channel=0 note=83 velocity=0 time=0
note_off channel=0 note=80 velocity=0 time=96
note_on channel=0 note=76 velocity=50 time=96
note_on channel=0 note=71 velocity=50 time=96
note_off channel=0 note=76 velocity=0 time=0
note_on channel=0 note=68 velocity=50 time=96
note_off channel=0 note=71 velocity=0 time=0
note_off channel=0 note=68 velocity=0 time=96
note_on channel=0 note=56 velocity=50 time=96
note_on channel=0 note=59 velocity=50 time=0
note_on channel=0 note=52 velocity=50 time=0
note_on channel=0 note=71 velocity=50 time=0
note_on channel=0 note=68 velocity=50 time=96
note_off channel=0 note=59 velocity=0 time=0
note_off channel=0 note=56 velocity=0 time=0
note_off channel=0 note=52 velocity=0 time=0
note_off channel=0 note=71 velocity=0 time=0
note_off channel=0 note=68 velocity=0 time=96
note_on channel=0 note=64 velocity=50 time=0
note_off channel=0 note=64 velocity=0 time=96
note_on channel=0 note=52 velocity=50 time=96
note_on channel=0 note=59 velocity=50 time=0
note_on channel=0 note=71 velocity=50 time=0
note_on channel=0 note=56 velocity=50 time=0
note_off channel=0 note=52 velocity=0 time=96
note_off channel=0 note=59 velocity=0 time=0
note_off channel=0 note=71 velocity=0 time=0
note_off channel=0 note=56 velocity=0 time=0
note_on channel=0 note=68 velocity=50 time=0
note_off channel=0 note=68 velocity=0 time=96
note_on channel=0 note=64 velocity=50 time=0
note_off channel=0 note=64 velocity=0 time=96
note_on channel=0 note=59 velocity=50 time=96
note_on channel=0 note=63 velocity=50 time=0
note_on channel=0 note=52 velocity=50 time=0
note_on channel=0 note=57 velocity=50 time=0
note_off channel=0 note=63 velocity=0 time=96
note_off channel=0 note=52 velocity=0 time=0
note_off channel=0 note=57 velocity=0 time=0
note_on channel=0 note=66 velocity=50 time=0
note_off channel=0 note=59 velocity=0 time=0
note_on channel=0 note=71 velocity=50 time=96
note_off channel=0 note=66 velocity=0 time=0
note_off channel=0 note=71 velocity=0 time=96
note_on channel=0 note=63 velocity=50 time=96
note_on channel=0 note=66 velocity=50 time=96
note_off channel=0 note=63 velocity=0 time=0
note_on channel=0 note=71 velocity=50 time=96
note_off channel=0 note=66 velocity=0 time=0
note_off channel=0 note=71 velocity=0 time=96
note_on channel=0 note=71 velocity=50 time=96
note_on channel=0 note=59 velocity=50 time=0
note_on channel=0 note=57 velocity=50 time=0
note_on channel=0 note=52 velocity=50 time=0
note_on channel=0 note=75 velocity=50 time=96
note_off channel=0 note=59 velocity=0 time=0
note_off channel=0 note=71 velocity=0 time=0
note_off channel=0 note=57 velocity=0 time=0
note_off channel=0 note=52 velocity=0 time=0
note_off channel=0 note=75 velocity=0 time=96
note_on channel=0 note=78 velocity=50 time=0
note_off channel=0 note=78 velocity=0 time=96
note_on channel=0 note=52 velocity=50 time=96
note_on channel=0 note=59 velocity=50 time=0
note_on channel=0 note=57 velocity=50 time=0
note_on channel=0 note=83 velocity=50 time=0
note_off channel=0 note=52 velocity=0 time=96
note_off channel=0 note=59 velocity=0 time=0
note_off channel=0 note=57 velocity=0 time=0
note_off channel=0 note=83 velocity=0 time=0
note_on channel=0 note=87 velocity=50 time=0
note_off channel=0 note=87 velocity=0 time=96
note_on channel=0 note=90 velocity=50 time=0
note_off channel=0 note=90 velocity=0 time=96
note_on channel=0 note=59 velocity=50 time=96
note_on channel=0 note=56 velocity=50 time=0
note_on channel=0 note=88 velocity=50 time=0
note_on channel=0 note=52 velocity=50 time=0
note_off channel=0 note=56 velocity=0 time=96
note_off channel=0 note=88 velocity=0 time=0
note_off channel=0 note=52 velocity=0 time=0
note_on channel=0 note=83 velocity=50 time=0
note_off channel=0 note=59 velocity=0 time=0
note_on channel=0 note=80 velocity=50 time=96
note_off channel=0 note=83 velocity=0 time=0
note_off channel=0 note=80 velocity=0 time=96
note_on channel=0 note=76 velocity=50 time=96
note_on channel=0 note=71 velocity=50 time=96
note_off channel=0 note=76 velocity=0 time=0
note_on channel=0 note=68 velocity=50 time=96
note_off channel=0 note=71 velocity=0 time=0
note_off channel=0 note=68 velocity=0 time=96
note_on channel=0 note=57 velocity=50 time=96
note_on channel=0 note=52 velocity=50 time=0
note_on channel=0 note=71 velocity=50 time=0
note_on channel=0 note=59 velocity=50 time=0
note_on channel=0 note=75 velocity=50 time=96
note_off channel=0 note=52 velocity=0 time=0
note_off channel=0 note=57 velocity=0 time=0
note_off channel=0 note=71 velocity=0 time=0
note_off channel=0 note=59 velocity=0 time=0
note_off channel=0 note=75 velocity=0 time=96
note_on channel=0 note=78 velocity=50 time=0
note_off channel=0 note=78 velocity=0 time=96
note_on channel=0 note=83 velocity=50 time=96
note_on channel=0 note=59 velocity=50 time=0
note_on channel=0 note=57 velocity=50 time=0
note_on channel=0 note=52 velocity=50 time=0
note_off channel=0 note=83 velocity=0 time=96
note_off channel=0 note=59 velocity=0 time=0
note_off channel=0 note=57 velocity=0 time=0
note_off channel=0 note=52 velocity=0 time=0
note_on channel=0 note=87 velocity=50 time=0
note_off channel=0 note=87 velocity=0 time=96
note_on channel=0 note=90 velocity=50 time=0
note_off channel=0 note=90 velocity=0 time=96
note_on channel=0 note=88 velocity=50 time=96
note_on channel=0 note=52 velocity=50 time=0
note_on channel=0 note=56 velocity=50 time=0
note_on channel=0 note=59 velocity=50 time=0
note_off channel=0 note=52 velocity=0 time=96
note_off channel=0 note=56 velocity=0 time=0
note_off channel=0 note=59 velocity=0 time=0
note_on channel=0 note=83 velocity=50 time=0
note_off channel=0 note=88 velocity=0 time=0
note_on channel=0 note=80 velocity=50 time=96
note_off channel=0 note=83 velocity=0 time=0
note_off channel=0 note=80 velocity=0 time=96
note_on channel=0 note=76 velocity=50 time=96
note_on channel=0 note=71 velocity=50 time=96
note_off channel=0 note=76 velocity=0 time=0
note_on channel=0 note=68 velocity=50 time=96
note_off channel=0 note=71 velocity=0 time=0
note_off channel=0 note=68 velocity=0 time=96
note_on channel=0 note=52 velocity=50 time=96
note_on channel=0 note=71 velocity=50 time=0
note_on channel=0 note=57 velocity=50 time=0
note_on channel=0 note=59 velocity=50 time=0
note_on channel=0 note=75 velocity=50 time=96
note_off channel=0 note=71 velocity=0 time=0
note_off channel=0 note=52 velocity=0 time=0
note_off channel=0 note=57 velocity=0 time=0
note_off channel=0 note=59 velocity=0 time=0
note_off channel=0 note=75 velocity=0 time=96
note_on channel=0 note=78 velocity=50 time=0
note_off channel=0 note=78 velocity=0 time=96
note_on channel=0 note=59 velocity=50 time=96
note_on channel=0 note=83 velocity=50 time=0
note_on channel=0 note=52 velocity=50 time=0
note_on channel=0 note=57 velocity=50 time=0
note_off channel=0 note=59 velocity=0 time=96
note_off channel=0 note=83 velocity=0 time=0
note_off channel=0 note=52 velocity=0 time=0
note_off channel=0 note=57 velocity=0 time=0
note_on channel=0 note=87 velocity=50 time=0
note_off channel=0 note=87 velocity=0 time=96
note_on channel=0 note=90 velocity=50 time=0
note_off channel=0 note=90 velocity=0 time=96
note_on channel=0 note=56 velocity=50 time=96
note_on channel=0 note=59 velocity=50 time=0
note_on channel=0 note=52 velocity=50 time=0
note_on channel=0 note=88 velocity=50 time=0
note_off channel=0 note=59 velocity=0 time=96
note_off channel=0 note=52 velocity=0 time=0
note_off channel=0 note=88 velocity=0 time=0
note_on channel=0 note=83 velocity=50 time=0
note_off channel=0 note=56 velocity=0 time=0
note_on channel=0 note=80 velocity=50 time=96
note_off channel=0 note=83 velocity=0 time=0
note_off channel=0 note=80 velocity=0 time=96
note_on channel=0 note=76 velocity=50 time=96
note_on channel=0 note=71 velocity=50 time=96
note_off channel=0 note=76 velocity=0 time=0
note_on channel=0 note=68 velocity=50 time=96
note_off channel=0 note=71 velocity=0 time=0
note_off channel=0 note=68 velocity=0 time=96
note_on channel=0 note=83 velocity=50 time=96
note_on channel=0 note=47 velocity=50 time=0
note_on channel=0 note=81 velocity=50 time=0
note_on channel=0 note=75 velocity=50 time=0
note_on channel=0 note=51 velocity=50 time=96
note_off channel=0 note=47 velocity=0 time=0
note_off channel=0 note=83 velocity=0 time=0
note_off channel=0 note=81 velocity=0 time=0
note_off channel=0 note=75 velocity=0 time=0
note_off channel=0 note=51 velocity=0 time=96
note_on channel=0 note=54 velocity=50 time=0
note_off channel=0 note=54 velocity=0 time=96
note_on channel=0 note=83 velocity=50 time=96
note_on channel=0 note=75 velocity=50 time=0
note_on channel=0 note=59 velocity=50 time=0
note_on channel=0 note=81 velocity=50 time=0
note_off channel=0 note=83 velocity=0 time=96
note_off channel=0 note=75 velocity=0 time=0
note_off channel=0 note=59 velocity=0 time=0
note_off channel=0 note=81 velocity=0 time=0
note_on channel=0 note=63 velocity=50 time=0
note_off channel=0 note=63 velocity=0 time=96
note_on channel=0 note=66 velocity=50 time=0
note_off channel=0 note=66 velocity=0 time=96
note_on channel=0 note=80 velocity=50 time=96
note_on channel=0 note=76 velocity=50 time=0
note_on channel=0 note=64 velocity=50 time=0
note_on channel=0 note=83 velocity=50 time=0
note_off channel=0 note=76 velocity=0 time=96
note_off channel=0 note=64 velocity=0 time=0
note_off channel=0 note=83 velocity=0 time=0
note_on channel=0 note=59 velocity=50 time=0
note_off channel=0 note=80 velocity=0 time=0
note_on channel=0 note=56 velocity=50 time=96
note_off channel=0 note=59 velocity=0 time=0
note_off channel=0 note=56 velocity=0 time=96
note_on channel=0 note=59 velocity=50 time=96
note_on channel=0 note=56 velocity=50 time=96
note_off channel=0 note=59 velocity=0 time=0
note_on channel=0 note=52 velocity=50 time=96
note_off channel=0 note=56 velocity=0 time=0
note_off channel=0 note=52 velocity=0 time=96
note_on channel=0 note=81 velocity=50 time=96
note_on channel=0 note=75 velocity=50 time=0
note_on channel=0 note=83 velocity=50 time=0
note_on channel=0 note=47 velocity=50 time=0
note_on channel=0 note=51 velocity=50 time=96
note_off channel=0 note=75 velocity=0 time=0
note_off channel=0 note=81 velocity=0 time=0
note_off channel=0 note=83 velocity=0 time=0
note_off channel=0 note=47 velocity=0 time=0
note_off channel=0 note=51 velocity=0 time=96
note_on channel=0 note=54 velocity=50 time=0
note_off channel=0 note=54 velocity=0 time=96
note_on channel=0 note=59 velocity=50 time=96
note_on channel=0 note=75 velocity=50 time=0
note_on channel=0 note=83 velocity=50 time=0
note_on channel=0 note=81 velocity=50 time=0
note_off channel=0 note=59 velocity=0 time=96
note_off channel=0 note=75 velocity=0 time=0
note_off channel=0 note=83 velocity=0 time=0
note_off channel=0 note=81 velocity=0 time=0
note_on channel=0 note=63 velocity=50 time=0
note_off channel=0 note=63 velocity=0 time=96
note_on channel=0 note=66 velocity=50 time=0
note_off channel=0 note=66 velocity=0 time=96
note_on channel=0 note=64 velocity=50 time=96
note_on channel=0 note=76 velocity=50 time=0
note_on channel=0 note=83 velocity=50 time=0
note_on channel=0 note=80 velocity=50 time=0
note_off channel=0 note=76 velocity=0 time=96
note_off channel=0 note=83 velocity=0 time=0
note_off channel=0 note=80 velocity=0 time=0
note_on channel=0 note=59 velocity=50 time=0
note_off channel=0 note=64 velocity=0 time=0
note_on channel=0 note=56 velocity=50 time=96
note_off channel=0 note=59 velocity=0 time=0
note_off channel=0 note=56 velocity=0 time=96
note_on channel=0 note=59 velocity=50 time=96
note_on channel=0 note=56 velocity=50 time=96
note_off channel=0 note=59 velocity=0 time=0
note_on channel=0 note=52 velocity=50 time=96
note_off channel=0 note=56 velocity=0 time=0
note_off channel=0 note=52 velocity=0 time=96
note_on channel=0 note=81 velocity=50 time=96
note_on channel=0 note=83 velocity=50 time=0
note_on channel=0 note=47 velocity=50 time=0
note_on channel=0 note=75 velocity=50 time=0
note_on channel=0 note=51 velocity=50 time=96
note_off channel=0 note=83 velocity=0 time=0
note_off channel=0 note=81 velocity=0 time=0
note_off channel=0 note=47 velocity=0 time=0
note_off channel=0 note=75 velocity=0 time=0
note_off channel=0 note=51 velocity=0 time=96
note_on channel=0 note=54 velocity=50 time=0
note_off channel=0 note=54 velocity=0 time=96
note_on channel=0 note=83 velocity=50 time=96
note_on channel=0 note=81 velocity=50 time=0
note_on channel=0 note=75 velocity=50 time=0
note_on channel=0 note=59 velocity=50 time=0
note_off channel=0 note=83 velocity=0 time=96
note_off channel=0 note=81 velocity=0 time=0
note_off channel=0 note=75 velocity=0 time=0
note_off channel=0 note=59 velocity=0 time=0
note_on channel=0 note=63 velocity=50 time=0
note_off channel=0 note=63 velocity=0 time=96
note_on channel=0 note=66 velocity=50 time=0
note_off channel=0 note=66 velocity=0 time=96
note_on channel=0 note=83 velocity=50 time=96
note_on channel=0 note=80 velocity=50 time=0
note_on channel=0 note=64 velocity=50 time=0
note_on channel=0 note=76 velocity=50 time=0
note_off channel=0 note=80 velocity=0 time=96
note_off channel=0 note=64 velocity=0 time=0
note_off channel=0 note=76 velocity=0 time=0
note_on channel=0 note=59 velocity=50 time=0
note_off channel=0 note=83 velocity=0 time=0
note_on channel=0 note=56 velocity=50 time=96
note_off channel=0 note=59 velocity=0 time=0
note_off channel=0 note=56 velocity=0 time=96
note_on channel=0 note=59 velocity=50 time=96
note_on channel=0 note=56 velocity=50 time=96
note_off channel=0 note=59 velocity=0 time=0
note_on channel=0 note=52 velocity=50 time=96
note_off channel=0 note=56 velocity=0 time=0
note_off channel=0 note=52 velocity=0 time=96
note_on channel=0 note=56 velocity=50 time=96
note_on channel=0 note=52 velocity=50 time=96
note_off channel=0 note=56 velocity=0 time=0
note_on channel=0 note=47 velocity=50 time=96
note_off channel=0 note=52 velocity=0 time=0
note_off channel=0 note=47 velocity=0 time=96
note_on channel=0 note=52 velocity=50 time=96
note_on channel=0 note=47 velocity=50 time=96
note_off channel=0 note=52 velocity=0 time=0
note_off channel=0 note=47 velocity=0 time=96
note_on channel=0 note=44 velocity=50 time=0
note_off channel=0 note=44 velocity=0 time=96
note_on channel=0 note=40 velocity=50 time=96
note_on channel=0 note=44 velocity=50 time=96
note_off channel=0 note=40 velocity=0 time=0
note_on channel=0 note=47 velocity=50 time=96
note_off channel=0 note=44 velocity=0 time=0
note_off channel=0 note=47 velocity=0 time=96
note_on channel=0 note=44 velocity=50 time=96
note_on channel=0 note=47 velocity=50 time=96
note_off channel=0 note=44 velocity=0 time=0
note_on channel=0 note=52 velocity=50 time=96
note_off channel=0 note=47 velocity=0 time=0
note_off channel=0 note=52 velocity=0 time=96
note_on channel=0 note=40 velocity=50 time=96
note_on channel=0 note=44 velocity=50 time=96
note_off channel=0 note=40 velocity=0 time=0
note_on channel=0 note=47 velocity=50 time=96
note_off channel=0 note=44 velocity=0 time=0
note_off channel=0 note=47 velocity=0 time=96
note_on channel=0 note=44 velocity=50 time=96
note_off channel=0 note=44 velocity=0 time=96
note_on channel=0 note=47 velocity=50 time=0
note_on channel=0 note=52 velocity=50 time=96
note_off channel=0 note=47 velocity=0 time=0
note_off channel=0 note=52 velocity=0 time=96
note_on channel=0 note=64 velocity=50 time=96
note_on channel=0 note=40 velocity=50 time=0
note_on channel=0 note=44 velocity=50 time=96
note_off channel=0 note=64 velocity=0 time=0
note_off channel=0 note=40 velocity=0 time=0
note_on channel=0 note=47 velocity=50 time=96
note_off channel=0 note=44 velocity=0 time=0
note_off channel=0 note=47 velocity=0 time=96
note_on channel=0 note=64 velocity=50 time=96
note_on channel=0 note=44 velocity=50 time=0
note_on channel=0 note=47 velocity=50 time=96
note_off channel=0 note=64 velocity=0 time=0
note_off channel=0 note=44 velocity=0 time=0
note_on channel=0 note=52 velocity=50 time=96
note_off channel=0 note=47 velocity=0 time=0
note_off channel=0 note=52 velocity=0 time=96
note_on channel=0 note=40 velocity=50 time=96
note_on channel=0 note=44 velocity=50 time=96
note_off channel=0 note=40 velocity=0 time=0
note_on channel=0 note=47 velocity=50 time=96
note_off channel=0 note=44 velocity=0 time=0
note_off channel=0 note=47 velocity=0 time=96
note_on channel=0 note=44 velocity=50 time=96
note_on channel=0 note=76 velocity=50 time=0
note_off channel=0 note=44 velocity=0 time=96
note_off channel=0 note=76 velocity=0 time=0
note_on channel=0 note=47 velocity=50 time=0
note_off channel=0 note=47 velocity=0 time=96
note_on channel=0 note=52 velocity=50 time=0
note_off channel=0 note=52 velocity=0 time=96
note_on channel=0 note=40 velocity=50 time=96
note_on channel=0 note=41 velocity=50 time=96
note_off channel=0 note=40 velocity=0 time=0
note_on channel=0 note=47 velocity=50 time=96
note_off channel=0 note=41 velocity=0 time=0
note_off channel=0 note=47 velocity=0 time=96
note_on channel=0 note=41 velocity=50 time=96
note_on channel=0 note=47 velocity=50 time=96
note_off channel=0 note=41 velocity=0 time=0
note_on channel=0 note=52 velocity=50 time=96
note_off channel=0 note=47 velocity=0 time=0
note_off channel=0 note=52 velocity=0 time=96
note_on channel=0 note=40 velocity=50 time=96
note_on channel=0 note=41 velocity=50 time=96
note_off channel=0 note=40 velocity=0 time=0
note_on channel=0 note=47 velocity=50 time=96
note_off channel=0 note=41 velocity=0 time=0
note_off channel=0 note=47 velocity=0 time=96
note_on channel=0 note=41 velocity=50 time=96
note_on channel=0 note=47 velocity=50 time=96
note_off channel=0 note=41 velocity=0 time=0
note_on channel=0 note=52 velocity=50 time=96
note_off channel=0 note=47 velocity=0 time=0
note_off channel=0 note=52 velocity=0 time=96
note_on channel=0 note=40 velocity=50 time=96
note_on channel=0 note=64 velocity=50 time=0
note_off channel=0 note=40 velocity=0 time=96
note_off channel=0 note=64 velocity=0 time=0
note_on channel=0 note=41 velocity=50 time=0
note_on channel=0 note=47 velocity=50 time=96
note_off channel=0 note=41 velocity=0 time=0
note_off channel=0 note=47 velocity=0 time=96
note_on channel=0 note=64 velocity=50 time=96
note_on channel=0 note=41 velocity=50 time=0
note_on channel=0 note=47 velocity=50 time=96
note_off channel=0 note=64 velocity=0 time=0
note_off channel=0 note=41 velocity=0 time=0
note_off channel=0 note=47 velocity=0 time=96
note_on channel=0 note=52 velocity=50 time=0
note_off channel=0 note=52 velocity=0 time=96
note_on channel=0 note=40 velocity=50 time=96
note_on channel=0 note=41 velocity=50 time=96
note_off channel=0 note=40 velocity=0 time=0
note_on channel=0 note=47 velocity=50 time=96
note_off channel=0 note=41 velocity=0 time=0
note_off channel=0 note=47 velocity=0 time=96
note_on channel=0 note=41 velocity=50 time=96
note_on channel=0 note=76 velocity=50 time=0
note_off channel=0 note=76 velocity=0 time=96
note_on channel=0 note=47 velocity=50 time=0
note_off channel=0 note=41 velocity=0 time=0
note_on channel=0 note=52 velocity=50 time=96
note_off channel=0 note=47 velocity=0 time=0
note_off channel=0 note=52 velocity=0 time=96
note_on channel=0 note=40 velocity=50 time=96
note_on channel=0 note=42 velocity=50 time=96
note_off channel=0 note=40 velocity=0 time=0
note_on channel=0 note=45 velocity=50 time=96
note_off channel=0 note=42 velocity=0 time=0
note_off channel=0 note=45 velocity=0 time=96
note_on channel=0 note=42 velocity=50 time=96
note_off channel=0 note=42 velocity=0 time=96
note_on channel=0 note=45 velocity=50 time=0
note_on channel=0 note=52 velocity=50 time=96
note_off channel=0 note=45 velocity=0 time=0
note_off channel=0 note=52 velocity=0 time=96
note_on channel=0 note=40 velocity=50 time=96
note_on channel=0 note=43 velocity=50 time=96
note_off channel=0 note=40 velocity=0 time=0
note_on channel=0 note=46 velocity=50 time=96
note_off channel=0 note=43 velocity=0 time=0
note_off channel=0 note=46 velocity=0 time=96
note_on channel=0 note=43 velocity=50 time=96
note_on channel=0 note=47 velocity=50 time=96
note_off channel=0 note=43 velocity=0 time=0
note_on channel=0 note=52 velocity=50 time=96
note_off channel=0 note=47 velocity=0 time=0
note_off channel=0 note=52 velocity=0 time=96
note_on channel=0 note=76 velocity=50 time=96
note_on channel=0 note=40 velocity=50 time=0
note_on channel=0 note=44 velocity=50 time=96
note_off channel=0 note=40 velocity=0 time=0
note_off channel=0 note=76 velocity=0 time=0
note_on channel=0 note=47 velocity=50 time=96
note_off channel=0 note=44 velocity=0 time=0
note_off channel=0 note=47 velocity=0 time=96
note_on channel=0 note=76 velocity=50 time=96
note_on channel=0 note=44 velocity=50 time=0
note_on channel=0 note=47 velocity=50 time=96
note_off channel=0 note=76 velocity=0 time=0
note_off channel=0 note=44 velocity=0 time=0
note_off channel=0 note=47 velocity=0 time=96
note_on channel=0 note=52 velocity=50 time=0
note_off channel=0 note=52 velocity=0 time=96
note_on channel=0 note=45 velocity=50 time=96
note_on channel=0 note=48 velocity=50 time=96
note_off channel=0 note=45 velocity=0 time=0
note_on channel=0 note=52 velocity=50 time=96
note_off channel=0 note=48 velocity=0 time=0
note_off channel=0 note=52 velocity=0 time=96
note_on channel=0 note=46 velocity=50 time=96
note_on channel=0 note=88 velocity=50 time=0
note_off channel=0 note=46 velocity=0 time=96
note_on channel=0 note=49 velocity=50 time=0
note_off channel=0 note=88 velocity=0 time=0
note_off channel=0 note=49 velocity=0 time=96
note_on channel=0 note=52 velocity=50 time=0
note_off channel=0 note=52 velocity=0 time=96
note_on channel=0 note=64 velocity=50 time=96
note_on channel=0 note=40 velocity=50 time=0
note_on channel=0 note=47 velocity=50 time=96
note_off channel=0 note=64 velocity=0 time=0
note_off channel=0 note=40 velocity=0 time=0
note_on channel=0 note=50 velocity=50 time=96
note_off channel=0 note=47 velocity=0 time=0
note_off channel=0 note=50 velocity=0 time=96
note_on channel=0 note=64 velocity=50 time=96
note_on channel=0 note=47 velocity=50 time=0
note_on channel=0 note=50 velocity=50 time=96
note_off channel=0 note=64 velocity=0 time=0
note_off channel=0 note=47 velocity=0 time=0
note_off channel=0 note=50 velocity=0 time=96
note_on channel=0 note=52 velocity=50 time=0
note_off channel=0 note=52 velocity=0 time=96
note_on channel=0 note=50 velocity=50 time=96
note_on channel=0 note=52 velocity=50 time=96
note_off channel=0 note=50 velocity=0 time=0
note_on channel=0 note=56 velocity=50 time=96
note_off channel=0 note=52 velocity=0 time=0
note_off channel=0 note=56 velocity=0 time=96
note_on channel=0 note=76 velocity=50 time=96
note_on channel=0 note=52 velocity=50 time=0
note_off channel=0 note=52 velocity=0 time=96
note_on channel=0 note=56 velocity=50 time=0
note_off channel=0 note=76 velocity=0 time=0
note_on channel=0 note=59 velocity=50 time=96
note_off channel=0 note=56 velocity=0 time=0
note_off channel=0 note=59 velocity=0 time=96
note_on channel=0 note=56 velocity=50 time=96
note_on channel=0 note=59 velocity=50 time=96
note_off channel=0 note=56 velocity=0 time=0
note_on channel=0 note=62 velocity=50 time=96
note_off channel=0 note=59 velocity=0 time=0
note_off channel=0 note=62 velocity=0 time=96
note_on channel=0 note=56 velocity=50 time=96
note_on channel=0 note=64 velocity=50 time=0
note_on channel=0 note=59 velocity=50 time=96
note_off channel=0 note=56 velocity=0 time=0
note_off channel=0 note=64 velocity=0 time=0
note_on channel=0 note=62 velocity=50 time=96
note_off channel=0 note=59 velocity=0 time=0
note_off channel=0 note=62 velocity=0 time=96
note_on channel=0 note=52 velocity=50 time=96
note_off channel=0 note=52 velocity=0 time=96
note_on channel=0 note=56 velocity=50 time=0
note_on channel=0 note=59 velocity=50 time=96
note_off channel=0 note=56 velocity=0 time=0
note_off channel=0 note=59 velocity=0 time=96
note_on channel=0 note=50 velocity=50 time=96
note_on channel=0 note=76 velocity=50 time=0
note_on channel=0 note=52 velocity=50 time=96
note_off channel=0 note=50 velocity=0 time=0
note_off channel=0 note=76 velocity=0 time=0
note_off channel=0 note=52 velocity=0 time=96
note_on channel=0 note=56 velocity=50 time=0
note_off channel=0 note=56 velocity=0 time=96
note_on channel=0 note=62 velocity=50 time=96
note_on channel=0 note=47 velocity=50 time=0
note_on channel=0 note=50 velocity=50 time=96
note_off channel=0 note=47 velocity=0 time=0
note_off channel=0 note=62 velocity=0 time=0
note_on channel=0 note=52 velocity=50 time=96
note_off channel=0 note=50 velocity=0 time=0
note_off channel=0 note=52 velocity=0 time=96
note_on channel=0 note=64 velocity=50 time=96
note_on channel=0 note=50 velocity=50 time=0
note_off channel=0 note=64 velocity=0 time=96
note_on channel=0 note=52 velocity=50 time=0
note_off channel=0 note=50 velocity=0 time=0
note_on channel=0 note=56 velocity=50 time=96
note_off channel=0 note=52 velocity=0 time=0
note_off channel=0 note=56 velocity=0 time=96
note_on channel=0 note=47 velocity=50 time=96
note_on channel=0 note=50 velocity=50 time=96
note_off channel=0 note=47 velocity=0 time=0
note_on channel=0 note=52 velocity=50 time=96
note_off channel=0 note=50 velocity=0 time=0
note_off channel=0 note=52 velocity=0 time=96
note_on channel=0 note=76 velocity=50 time=96
note_on channel=0 note=50 velocity=50 time=0
note_on channel=0 note=52 velocity=50 time=96
note_off channel=0 note=76 velocity=0 time=0
note_off channel=0 note=50 velocity=0 time=0
note_on channel=0 note=56 velocity=50 time=96
note_off channel=0 note=52 velocity=0 time=0
note_off channel=0 note=56 velocity=0 time=96
note_on channel=0 note=47 velocity=50 time=96
note_on channel=0 note=62 velocity=50 time=0
note_on channel=0 note=50 velocity=50 time=96
note_off channel=0 note=62 velocity=0 time=0
note_off channel=0 note=47 velocity=0 time=0
note_on channel=0 note=52 velocity=50 time=96
note_off channel=0 note=50 velocity=0 time=0
note_off channel=0 note=52 velocity=0 time=96
note_on channel=0 note=64 velocity=50 time=96
note_on channel=0 note=50 velocity=50 time=0
note_off channel=0 note=50 velocity=0 time=96
note_on channel=0 note=52 velocity=50 time=0
note_off channel=0 note=64 velocity=0 time=0
note_on channel=0 note=56 velocity=50 time=96
note_off channel=0 note=52 velocity=0 time=0
note_off channel=0 note=56 velocity=0 time=96
note_on channel=0 note=47 velocity=50 time=96
note_on channel=0 note=50 velocity=50 time=96
note_off channel=0 note=47 velocity=0 time=0
note_on channel=0 note=52 velocity=50 time=96
note_off channel=0 note=50 velocity=0 time=0
note_off channel=0 note=52 velocity=0 time=96
note_on channel=0 note=76 velocity=50 time=96
note_on channel=0 note=50 velocity=50 time=0
note_off channel=0 note=76 velocity=0 time=96
note_on channel=0 note=52 velocity=50 time=0
note_off channel=0 note=50 velocity=0 time=0
note_on channel=0 note=56 velocity=50 time=96
note_off channel=0 note=52 velocity=0 time=0
note_off channel=0 note=56 velocity=0 time=96
note_on channel=0 note=61 velocity=50 time=96
note_on channel=0 note=73 velocity=50 time=0
note_on channel=0 note=45 velocity=50 time=0
note_off channel=0 note=61 velocity=0 time=96
note_off channel=0 note=73 velocity=0 time=0
note_on channel=0 note=49 velocity=50 time=0
note_off channel=0 note=45 velocity=0 time=0
note_on channel=0 note=52 velocity=50 time=96
note_off channel=0 note=49 velocity=0 time=0
note_off channel=0 note=52 velocity=0 time=96
note_on channel=0 note=76 velocity=50 time=96
note_on channel=0 note=64 velocity=50 time=0
note_on channel=0 note=49 velocity=50 time=0
note_on channel=0 note=52 velocity=50 time=96
note_off channel=0 note=76 velocity=0 time=0
note_off channel=0 note=64 velocity=0 time=0
note_off channel=0 note=49 velocity=0 time=0
note_on channel=0 note=57 velocity=50 time=96
note_off channel=0 note=52 velocity=0 time=0
note_off channel=0 note=57 velocity=0 time=96
note_on channel=0 note=49 velocity=50 time=96
note_off channel=0 note=49 velocity=0 time=96
note_on channel=0 note=52 velocity=50 time=0
note_on channel=0 note=57 velocity=50 time=96
note_off channel=0 note=52 velocity=0 time=0
note_off channel=0 note=57 velocity=0 time=96
note_on channel=0 note=69 velocity=50 time=96
note_on channel=0 note=52 velocity=50 time=0
note_on channel=0 note=81 velocity=50 time=0
note_on channel=0 note=57 velocity=50 time=96
note_off channel=0 note=69 velocity=0 time=0
note_off channel=0 note=52 velocity=0 time=0
note_off channel=0 note=81 velocity=0 time=0
note_off channel=0 note=57 velocity=0 time=96
note_on channel=0 note=61 velocity=50 time=0
note_off channel=0 note=61 velocity=0 time=96
note_on channel=0 note=47 velocity=50 time=96
note_on channel=0 note=81 velocity=50 time=0
note_on channel=0 note=69 velocity=50 time=0
note_on channel=0 note=50 velocity=50 time=96
note_off channel=0 note=47 velocity=0 time=0
note_off channel=0 note=81 velocity=0 time=0
note_off channel=0 note=69 velocity=0 time=0
note_on channel=0 note=52 velocity=50 time=96
note_off channel=0 note=50 velocity=0 time=0
note_off channel=0 note=52 velocity=0 time=96
note_on channel=0 note=50 velocity=50 time=96
note_on channel=0 note=68 velocity=50 time=0
note_on channel=0 note=80 velocity=50 time=0
note_on channel=0 note=52 velocity=50 time=96
note_off channel=0 note=50 velocity=0 time=0
note_off channel=0 note=68 velocity=0 time=0
note_off channel=0 note=80 velocity=0 time=0
note_off channel=0 note=52 velocity=0 time=96
note_on channel=0 note=59 velocity=50 time=0
note_off channel=0 note=59 velocity=0 time=96
note_on channel=0 note=69 velocity=50 time=96
note_on channel=0 note=49 velocity=50 time=0
note_on channel=0 note=81 velocity=50 time=0
note_on channel=0 note=52 velocity=50 time=96
note_off channel=0 note=69 velocity=0 time=0
note_off channel=0 note=49 velocity=0 time=0
note_off channel=0 note=81 velocity=0 time=0
note_off channel=0 note=52 velocity=0 time=96
note_on channel=0 note=57 velocity=50 time=0
note_off channel=0 note=57 velocity=0 time=96
note_on channel=0 note=52 velocity=50 time=96
note_on channel=0 note=57 velocity=50 time=96
note_off channel=0 note=52 velocity=0 time=0
note_on channel=0 note=61 velocity=50 time=96
note_off channel=0 note=57 velocity=0 time=0
note_off channel=0 note=61 velocity=0 time=96
note_on channel=0 note=71 velocity=50 time=96
note_on channel=0 note=83 velocity=50 time=0
note_on channel=0 note=50 velocity=50 time=0
note_off channel=0 note=71 velocity=0 time=96
note_off channel=0 note=83 velocity=0 time=0
note_off channel=0 note=50 velocity=0 time=0
note_on channel=0 note=54 velocity=50 time=0
note_on channel=0 note=57 velocity=50 time=96
note_off channel=0 note=54 velocity=0 time=0
note_off channel=0 note=57 velocity=0 time=96
note_on channel=0 note=54 velocity=50 time=96
note_on channel=0 note=57 velocity=50 time=96
note_off channel=0 note=54 velocity=0 time=0
note_on channel=0 note=59 velocity=50 time=96
note_off channel=0 note=57 velocity=0 time=0
note_on channel=0 note=71 velocity=50 time=0
note_on channel=0 note=83 velocity=50 time=0
note_off channel=0 note=83 velocity=0 time=96
note_off channel=0 note=71 velocity=0 time=0
note_off channel=0 note=59 velocity=0 time=0
note_on channel=0 note=51 velocity=50 time=96
note_on channel=0 note=73 velocity=50 time=0
note_on channel=0 note=85 velocity=50 time=0
note_off channel=0 note=51 velocity=0 time=96
note_off channel=0 note=73 velocity=0 time=0
note_off channel=0 note=85 velocity=0 time=0
note_on channel=0 note=54 velocity=50 time=0
note_on channel=0 note=57 velocity=50 time=96
note_off channel=0 note=54 velocity=0 time=0
note_off channel=0 note=57 velocity=0 time=96
note_on channel=0 note=54 velocity=50 time=96
note_on channel=0 note=69 velocity=50 time=0
note_on channel=0 note=81 velocity=50 time=0
note_on channel=0 note=57 velocity=50 time=96
note_off channel=0 note=69 velocity=0 time=0
note_off channel=0 note=81 velocity=0 time=0
note_off channel=0 note=54 velocity=0 time=0
note_on channel=0 note=61 velocity=50 time=96
note_off channel=0 note=57 velocity=0 time=0
note_off channel=0 note=61 velocity=0 time=96
note_on channel=0 note=81 velocity=50 time=96
note_on channel=0 note=69 velocity=50 time=0
note_on channel=0 note=52 velocity=50 time=0
note_off channel=0 note=81 velocity=0 time=96
note_off channel=0 note=69 velocity=0 time=0
note_off channel=0 note=52 velocity=0 time=0
note_on channel=0 note=57 velocity=50 time=0
note_on channel=0 note=61 velocity=50 time=96
note_off channel=0 note=57 velocity=0 time=0
note_off channel=0 note=61 velocity=0 time=96
note_on channel=0 note=57 velocity=50 time=96
note_on channel=0 note=61 velocity=50 time=96
note_off channel=0 note=57 velocity=0 time=0
note_on channel=0 note=64 velocity=50 time=96
note_off channel=0 note=61 velocity=0 time=0
note_off channel=0 note=64 velocity=0 time=96
note_on channel=0 note=80 velocity=50 time=96
note_on channel=0 note=52 velocity=50 time=0
note_on channel=0 note=68 velocity=50 time=0
note_on channel=0 note=59 velocity=50 time=96
note_off channel=0 note=52 velocity=0 time=0
note_off channel=0 note=68 velocity=0 time=0
note_off channel=0 note=80 velocity=0 time=0
note_on channel=0 note=62 velocity=50 time=96
note_off channel=0 note=59 velocity=0 time=0
note_on channel=0 note=66 velocity=50 time=0
note_on channel=0 note=78 velocity=50 time=0
note_off channel=0 note=78 velocity=0 time=96
note_off channel=0 note=66 velocity=0 time=0
note_off channel=0 note=62 velocity=0 time=0
note_on channel=0 note=64 velocity=50 time=96
note_on channel=0 note=76 velocity=50 time=0
note_on channel=0 note=59 velocity=50 time=0
note_off channel=0 note=76 velocity=0 time=96
note_off channel=0 note=59 velocity=0 time=0
note_off channel=0 note=64 velocity=0 time=0
note_on channel=0 note=62 velocity=50 time=0
note_on channel=0 note=64 velocity=50 time=96
note_off channel=0 note=62 velocity=0 time=0
note_on channel=0 note=62 velocity=50 time=0
note_on channel=0 note=74 velocity=50 time=0
note_off channel=0 note=74 velocity=0 time=96
note_off channel=0 note=62 velocity=0 time=0
note_off channel=0 note=64 velocity=0 time=0
note_on channel=0 note=45 velocity=50 time=96
note_on channel=0 note=73 velocity=50 time=0
note_on channel=0 note=61 velocity=50 time=0
note_off channel=0 note=73 velocity=0 time=96
note_on channel=0 note=49 velocity=50 time=0
note_off channel=0 note=45 velocity=0 time=0
note_off channel=0 note=61 velocity=0 time=0
note_on channel=0 note=52 velocity=50 time=96
note_off channel=0 note=49 velocity=0 time=0
note_off channel=0 note=52 velocity=0 time=96
note_on channel=0 note=76 velocity=50 time=96
note_on channel=0 note=64 velocity=50 time=0
note_on channel=0 note=49 velocity=50 time=0
note_on channel=0 note=52 velocity=50 time=96
note_off channel=0 note=76 velocity=0 time=0
note_off channel=0 note=49 velocity=0 time=0
note_off channel=0 note=64 velocity=0 time=0
note_on channel=0 note=57 velocity=50 time=96
note_off channel=0 note=52 velocity=0 time=0
note_off channel=0 note=57 velocity=0 time=96
note_on channel=0 note=49 velocity=50 time=96
note_on channel=0 note=52 velocity=50 time=96
note_off channel=0 note=49 velocity=0 time=0
note_on channel=0 note=57 velocity=50 time=96
note_off channel=0 note=52 velocity=0 time=0
note_off channel=0 note=57 velocity=0 time=96
note_on channel=0 note=69 velocity=50 time=96
note_on channel=0 note=52 velocity=50 time=0
note_on channel=0 note=81 velocity=50 time=0
note_on channel=0 note=57 velocity=50 time=96
note_off channel=0 note=69 velocity=0 time=0
note_off channel=0 note=52 velocity=0 time=0
note_off channel=0 note=81 velocity=0 time=0
note_on channel=0 note=61 velocity=50 time=96
note_off channel=0 note=57 velocity=0 time=0
note_off channel=0 note=61 velocity=0 time=96
note_on channel=0 note=81 velocity=50 time=96
note_on channel=0 note=69 velocity=50 time=0
note_on channel=0 note=47 velocity=50 time=0
note_on channel=0 note=50 velocity=50 time=96
note_off channel=0 note=81 velocity=0 time=0
note_off channel=0 note=69 velocity=0 time=0
note_off channel=0 note=47 velocity=0 time=0
note_off channel=0 note=50 velocity=0 time=96
note_on channel=0 note=52 velocity=50 time=0
note_off channel=0 note=52 velocity=0 time=96
note_on channel=0 note=80 velocity=50 time=96
note_on channel=0 note=50 velocity=50 time=0
note_on channel=0 note=68 velocity=50 time=0
note_on channel=0 note=52 velocity=50 time=96
note_off channel=0 note=80 velocity=0 time=0
note_off channel=0 note=50 velocity=0 time=0
note_off channel=0 note=68 velocity=0 time=0
note_off channel=0 note=52 velocity=0 time=96
note_on channel=0 note=59 velocity=50 time=0
note_off channel=0 note=59 velocity=0 time=96
note_on channel=0 note=81 velocity=50 time=96
note_on channel=0 note=69 velocity=50 time=0
note_on channel=0 note=49 velocity=50 time=0
note_on channel=0 note=52 velocity=50 time=96
note_off channel=0 note=81 velocity=0 time=0
note_off channel=0 note=69 velocity=0 time=0
note_off channel=0 note=49 velocity=0 time=0
note_off channel=0 note=52 velocity=0 time=96
note_on channel=0 note=57 velocity=50 time=0
note_off channel=0 note=57 velocity=0 time=96
note_on channel=0 note=52 velocity=50 time=96
note_on channel=0 note=57 velocity=50 time=96
note_off channel=0 note=52 velocity=0 time=0
note_on channel=0 note=61 velocity=50 time=96
note_off channel=0 note=57 velocity=0 time=0
note_off channel=0 note=61 velocity=0 time=96
note_on channel=0 note=83 velocity=50 time=96
note_on channel=0 note=71 velocity=50 time=0
note_on channel=0 note=50 velocity=50 time=0
note_on channel=0 note=54 velocity=50 time=96
note_off channel=0 note=71 velocity=0 time=0
note_off channel=0 note=50 velocity=0 time=0
note_off channel=0 note=83 velocity=0 time=0
note_on channel=0 note=57 velocity=50 time=96
note_off channel=0 note=54 velocity=0 time=0
note_off channel=0 note=57 velocity=0 time=96
note_on channel=0 note=85 velocity=50 time=96
note_on channel=0 note=52 velocity=50 time=0
note_on channel=0 note=73 velocity=50 time=0
note_on channel=0 note=57 velocity=50 time=96
note_off channel=0 note=73 velocity=0 time=0
note_off channel=0 note=85 velocity=0 time=0
note_off channel=0 note=52 velocity=0 time=0
note_on channel=0 note=86 velocity=50 time=96
note_on channel=0 note=54 velocity=50 time=0
note_on channel=0 note=74 velocity=50 time=0
note_off channel=0 note=57 velocity=0 time=0
note_off channel=0 note=86 velocity=0 time=96
note_off channel=0 note=54 velocity=0 time=0
note_off channel=0 note=74 velocity=0 time=0
note_on channel=0 note=85 velocity=50 time=96
note_on channel=0 note=73 velocity=50 time=0
note_on channel=0 note=52 velocity=50 time=0
note_off channel=0 note=73 velocity=0 time=96
note_off channel=0 note=85 velocity=0 time=0
note_on channel=0 note=57 velocity=50 time=0
note_off channel=0 note=52 velocity=0 time=0
note_on channel=0 note=61 velocity=50 time=96
note_off channel=0 note=57 velocity=0 time=0
note_off channel=0 note=61 velocity=0 time=96
note_on channel=0 note=71 velocity=50 time=96
note_on channel=0 note=83 velocity=50 time=0
note_on channel=0 note=52 velocity=50 time=0
note_off channel=0 note=52 velocity=0 time=96
note_off channel=0 note=83 velocity=0 time=0
note_on channel=0 note=59 velocity=50 time=0
note_off channel=0 note=71 velocity=0 time=0
note_on channel=0 note=62 velocity=50 time=96
note_off channel=0 note=59 velocity=0 time=0
note_off channel=0 note=62 velocity=0 time=96
note_on channel=0 note=71 velocity=50 time=96
note_on channel=0 note=83 velocity=50 time=0
note_on channel=0 note=45 velocity=50 time=0
note_off channel=0 note=71 velocity=0 time=96
note_off channel=0 note=83 velocity=0 time=0
note_on channel=0 note=52 velocity=50 time=0
note_off channel=0 note=45 velocity=0 time=0
note_on channel=0 note=56 velocity=50 time=96
note_off channel=0 note=52 velocity=0 time=0
note_off channel=0 note=56 velocity=0 time=96
note_on channel=0 note=52 velocity=50 time=96
note_on channel=0 note=56 velocity=50 time=96
note_off channel=0 note=52 velocity=0 time=0
note_on channel=0 note=62 velocity=50 time=96
note_off channel=0 note=56 velocity=0 time=0
note_off channel=0 note=62 velocity=0 time=96
note_on channel=0 note=57 velocity=50 time=96
note_on channel=0 note=61 velocity=50 time=0
note_on channel=0 note=81 velocity=50 time=0
note_on channel=0 note=69 velocity=50 time=0
note_off channel=0 note=61 velocity=0 time=96
note_off channel=0 note=81 velocity=0 time=0
note_off channel=0 note=69 velocity=0 time=0
note_off channel=0 note=57 velocity=0 time=0
note_on channel=0 note=59 velocity=50 time=96
note_off channel=0 note=59 velocity=0 time=96
note_on channel=0 note=61 velocity=50 time=96
note_off channel=0 note=61 velocity=0 time=96
note_on channel=0 note=62 velocity=50 time=96
note_off channel=0 note=62 velocity=0 time=96
note_on channel=0 note=61 velocity=50 time=96
note_on channel=0 note=64 velocity=50 time=0
note_on channel=0 note=69 velocity=50 time=0
note_off channel=0 note=69 velocity=0 time=96
note_off channel=0 note=61 velocity=0 time=0
note_off channel=0 note=64 velocity=0 time=0
note_on channel=0 note=71 velocity=50 time=96
note_off channel=0 note=71 velocity=0 time=96
note_on channel=0 note=73 velocity=50 time=96
note_off channel=0 note=73 velocity=0 time=96
note_on channel=0 note=74 velocity=50 time=96
note_on channel=0 note=64 velocity=50 time=0
note_off channel=0 note=64 velocity=0 time=96
note_off channel=0 note=74 velocity=0 time=0
note_on channel=0 note=66 velocity=50 time=96
note_on channel=0 note=58 velocity=50 time=0
note_on channel=0 note=76 velocity=50 time=0
note_off channel=0 note=66 velocity=0 time=96
note_off channel=0 note=58 velocity=0 time=0
note_on channel=0 note=75 velocity=50 time=0
note_off channel=0 note=76 velocity=0 time=0
note_on channel=0 note=76 velocity=50 time=96
note_off channel=0 note=75 velocity=0 time=0
note_off channel=0 note=76 velocity=0 time=96
note_on channel=0 note=78 velocity=50 time=96
note_on channel=0 note=85 velocity=50 time=96
note_off channel=0 note=78 velocity=0 time=0
note_on channel=0 note=77 velocity=50 time=96
note_off channel=0 note=85 velocity=0 time=0
note_off channel=0 note=77 velocity=0 time=96
note_on channel=0 note=59 velocity=50 time=96
note_on channel=0 note=64 velocity=50 time=0
note_on channel=0 note=78 velocity=50 time=0
note_on channel=0 note=77 velocity=50 time=96
note_off channel=0 note=78 velocity=0 time=0
note_off channel=0 note=59 velocity=0 time=0
note_off channel=0 note=64 velocity=0 time=0
note_on channel=0 note=78 velocity=50 time=96
note_off channel=0 note=77 velocity=0 time=0
note_off channel=0 note=78 velocity=0 time=96
note_on channel=0 note=63 velocity=50 time=96
note_on channel=0 note=79 velocity=50 time=0
note_off channel=0 note=63 velocity=0 time=96
note_off channel=0 note=79 velocity=0 time=0
note_on channel=0 note=80 velocity=50 time=0
note_on channel=0 note=82 velocity=50 time=96
note_off channel=0 note=80 velocity=0 time=0
note_off channel=0 note=82 velocity=0 time=96
note_on channel=0 note=59 velocity=50 time=96
note_on channel=0 note=83 velocity=50 time=0
note_off channel=0 note=59 velocity=0 time=96
note_off channel=0 note=83 velocity=0 time=0
note_on channel=0 note=61 velocity=50 time=480
note_off channel=0 note=61 velocity=0 time=96
note_on channel=0 note=62 velocity=50 time=96
note_off channel=0 note=62 velocity=0 time=96
note_on channel=0 note=54 velocity=50 time=96
note_on channel=0 note=74 velocity=50 time=0
note_off channel=0 note=54 velocity=0 time=96
note_off channel=0 note=74 velocity=0 time=0
note_on channel=0 note=76 velocity=50 time=96
note_on channel=0 note=56 velocity=50 time=0
note_off channel=0 note=76 velocity=0 time=96
note_off channel=0 note=56 velocity=0 time=0
note_on channel=0 note=78 velocity=50 time=96
note_on channel=0 note=57 velocity=50 time=0
note_off channel=0 note=57 velocity=0 time=96
note_off channel=0 note=78 velocity=0 time=0
note_on channel=0 note=76 velocity=50 time=96
note_on channel=0 note=64 velocity=50 time=0
note_on channel=0 note=56 velocity=50 time=0
note_on channel=0 note=80 velocity=50 time=96
note_off channel=0 note=76 velocity=0 time=0
note_off channel=0 note=64 velocity=0 time=0
note_off channel=0 note=56 velocity=0 time=0
note_off channel=0 note=80 velocity=0 time=96
note_on channel=0 note=81 velocity=50 time=0
note_off channel=0 note=81 velocity=0 time=96
note_on channel=0 note=83 velocity=50 time=96
note_on channel=0 note=80 velocity=50 time=96
note_off channel=0 note=83 velocity=0 time=0
note_on channel=0 note=74 velocity=50 time=96
note_off channel=0 note=80 velocity=0 time=0
note_off channel=0 note=74 velocity=0 time=96
note_on channel=0 note=57 velocity=50 time=96
note_on channel=0 note=73 velocity=50 time=0
note_off channel=0 note=73 velocity=0 time=96
note_on channel=0 note=71 velocity=50 time=0
note_off channel=0 note=57 velocity=0 time=0
note_on channel=0 note=73 velocity=50 time=96
note_off channel=0 note=71 velocity=0 time=0
note_off channel=0 note=73 velocity=0 time=96
note_on channel=0 note=74 velocity=50 time=96
note_on channel=0 note=73 velocity=50 time=96
note_off channel=0 note=74 velocity=0 time=0
note_on channel=0 note=59 velocity=50 time=96
note_off channel=0 note=73 velocity=0 time=0
note_on channel=0 note=74 velocity=50 time=0
note_off channel=0 note=59 velocity=0 time=96
note_off channel=0 note=74 velocity=0 time=0
note_on channel=0 note=76 velocity=50 time=96
note_on channel=0 note=61 velocity=50 time=0
note_on channel=0 note=78 velocity=50 time=96
note_off channel=0 note=76 velocity=0 time=0
note_off channel=0 note=61 velocity=0 time=0
note_on channel=0 note=80 velocity=50 time=96
note_off channel=0 note=78 velocity=0 time=0
note_off channel=0 note=80 velocity=0 time=96
note_on channel=0 note=81 velocity=50 time=96
note_off channel=0 note=81 velocity=0 time=96
note_on channel=0 note=76 velocity=50 time=0
note_on channel=0 note=73 velocity=50 time=96
note_off channel=0 note=76 velocity=0 time=0
note_off channel=0 note=73 velocity=0 time=96
note_on channel=0 note=59 velocity=50 time=96
note_on channel=0 note=78 velocity=50 time=0
note_on channel=0 note=50 velocity=50 time=0
note_off channel=0 note=78 velocity=0 time=96
note_off channel=0 note=50 velocity=0 time=0
note_on channel=0 note=71 velocity=50 time=0
note_off channel=0 note=59 velocity=0 time=0
note_on channel=0 note=78 velocity=50 time=96
note_off channel=0 note=71 velocity=0 time=0
note_off channel=0 note=78 velocity=0 time=96
note_on channel=0 note=59 velocity=50 time=96
note_on channel=0 note=81 velocity=50 time=0
note_on channel=0 note=71 velocity=50 time=96
note_off channel=0 note=59 velocity=0 time=0
note_off channel=0 note=81 velocity=0 time=0
note_off channel=0 note=71 velocity=0 time=96
note_on channel=0 note=81 velocity=50 time=0
note_off channel=0 note=81 velocity=0 time=96
note_on channel=0 note=59 velocity=50 time=96
note_on channel=0 note=52 velocity=50 time=0
note_on channel=0 note=80 velocity=50 time=0
note_on channel=0 note=71 velocity=50 time=96
note_off channel=0 note=59 velocity=0 time=0
note_off channel=0 note=52 velocity=0 time=0
note_off channel=0 note=80 velocity=0 time=0
note_off channel=0 note=71 velocity=0 time=96
note_on channel=0 note=80 velocity=50 time=0
note_off channel=0 note=80 velocity=0 time=96
note_on channel=0 note=62 velocity=50 time=96
note_on channel=0 note=83 velocity=50 time=0
note_on channel=0 note=80 velocity=50 time=96
note_off channel=0 note=62 velocity=0 time=0
note_off channel=0 note=83 velocity=0 time=0
note_on channel=0 note=61 velocity=50 time=96
note_on channel=0 note=83 velocity=50 time=0
note_off channel=0 note=80 velocity=0 time=0
note_off channel=0 note=83 velocity=0 time=96
note_off channel=0 note=61 velocity=0 time=0
note_on channel=0 note=81 velocity=50 time=96
note_on channel=0 note=61 velocity=50 time=0
note_on channel=0 note=57 velocity=50 time=0
note_on channel=0 note=83 velocity=50 time=96
note_off channel=0 note=81 velocity=0 time=0
note_off channel=0 note=61 velocity=0 time=0
note_off channel=0 note=57 velocity=0 time=0
note_on channel=0 note=80 velocity=50 time=96
note_off channel=0 note=83 velocity=0 time=0
note_off channel=0 note=80 velocity=0 time=96
note_on channel=0 note=81 velocity=50 time=96
note_on channel=0 note=83 velocity=50 time=96
note_off channel=0 note=81 velocity=0 time=0
note_on channel=0 note=84 velocity=50 time=96
note_off channel=0 note=83 velocity=0 time=0
note_off channel=0 note=84 velocity=0 time=96
note_on channel=0 note=85 velocity=50 time=96
note_on channel=0 note=64 velocity=50 time=0
note_off channel=0 note=85 velocity=0 time=96
note_off channel=0 note=64 velocity=0 time=0
note_on channel=0 note=86 velocity=50 time=0
note_on channel=0 note=88 velocity=50 time=96
note_off channel=0 note=86 velocity=0 time=0
note_off channel=0 note=88 velocity=0 time=96
note_on channel=0 note=90 velocity=50 time=96
note_on channel=0 note=92 velocity=50 time=96
note_on channel=0 note=62 velocity=50 time=0
note_off channel=0 note=90 velocity=0 time=0
note_off channel=0 note=92 velocity=0 time=96
note_off channel=0 note=62 velocity=0 time=0
note_on channel=0 note=61 velocity=50 time=0
note_on channel=0 note=93 velocity=50 time=0
note_off channel=0 note=93 velocity=0 time=96
note_off channel=0 note=61 velocity=0 time=0
note_on channel=0 note=59 velocity=50 time=96
note_on channel=0 note=78 velocity=50 time=0
note_on channel=0 note=50 velocity=50 time=0
note_off channel=0 note=50 velocity=0 time=96
note_on channel=0 note=71 velocity=50 time=0
note_off channel=0 note=59 velocity=0 time=0
note_off channel=0 note=78 velocity=0 time=0
note_on channel=0 note=78 velocity=50 time=96
note_off channel=0 note=71 velocity=0 time=0
note_off channel=0 note=78 velocity=0 time=96
note_on channel=0 note=59 velocity=50 time=96
note_on channel=0 note=81 velocity=50 time=0
note_on channel=0 note=51 velocity=50 time=0
note_on channel=0 note=71 velocity=50 time=96
note_off channel=0 note=59 velocity=0 time=0
note_off channel=0 note=81 velocity=0 time=0
note_off channel=0 note=51 velocity=0 time=0
note_on channel=0 note=81 velocity=50 time=96
note_off channel=0 note=71 velocity=0 time=0
note_off channel=0 note=81 velocity=0 time=96
note_on channel=0 note=59 velocity=50 time=96
note_on channel=0 note=80 velocity=50 time=0
note_on channel=0 note=52 velocity=50 time=0
note_on channel=0 note=71 velocity=50 time=96
note_off channel=0 note=59 velocity=0 time=0
note_off channel=0 note=80 velocity=0 time=0
note_off channel=0 note=52 velocity=0 time=0
note_off channel=0 note=71 velocity=0 time=96
note_on channel=0 note=80 velocity=50 time=0
note_off channel=0 note=80 velocity=0 time=96
note_on channel=0 note=83 velocity=50 time=96
note_on channel=0 note=62 velocity=50 time=0
note_on channel=0 note=80 velocity=50 time=96
note_off channel=0 note=83 velocity=0 time=0
note_off channel=0 note=62 velocity=0 time=0
note_on channel=0 note=88 velocity=50 time=96
note_off channel=0 note=80 velocity=0 time=0
note_on channel=0 note=61 velocity=50 time=0
note_off channel=0 note=61 velocity=0 time=96
note_off channel=0 note=88 velocity=0 time=0
note_on channel=0 note=85 velocity=50 time=96
note_on channel=0 note=45 velocity=50 time=0
note_on channel=0 note=57 velocity=50 time=0
note_on channel=0 note=81 velocity=50 time=96
note_off channel=0 note=85 velocity=0 time=0
note_off channel=0 note=45 velocity=0 time=0
note_off channel=0 note=57 velocity=0 time=0
note_off channel=0 note=81 velocity=0 time=96
note_on channel=0 note=76 velocity=50 time=0
note_off channel=0 note=76 velocity=0 time=96
note_on channel=0 note=73 velocity=50 time=96
note_on channel=0 note=74 velocity=50 time=96
note_off channel=0 note=73 velocity=0 time=0
note_on channel=0 note=71 velocity=50 time=96
note_off channel=0 note=74 velocity=0 time=0
note_off channel=0 note=71 velocity=0 time=96
note_on channel=0 note=69 velocity=50 time=96
note_off channel=0 note=69 velocity=0 time=96
note_on channel=0 note=44 velocity=50 time=96
note_off channel=0 note=44 velocity=0 time=96
note_on channel=0 note=45 velocity=50 time=96
note_off channel=0 note=45 velocity=0 time=96
note_on channel=0 note=47 velocity=50 time=96
note_off channel=0 note=47 velocity=0 time=96
note_on channel=0 note=84 velocity=50 time=96
note_on channel=0 note=45 velocity=50 time=0
note_on channel=0 note=48 velocity=50 time=0
note_off channel=0 note=84 velocity=0 time=96
note_off channel=0 note=45 velocity=0 time=0
note_off channel=0 note=48 velocity=0 time=0
note_on channel=0 note=86 velocity=50 time=0
note_on channel=0 note=88 velocity=50 time=96
note_off channel=0 note=86 velocity=0 time=0
note_off channel=0 note=88 velocity=0 time=96
note_on channel=0 note=52 velocity=50 time=96
note_on channel=0 note=86 velocity=50 time=0
note_on channel=0 note=84 velocity=50 time=96
note_off channel=0 note=52 velocity=0 time=0
note_off channel=0 note=86 velocity=0 time=0
note_off channel=0 note=84 velocity=0 time=96
note_on channel=0 note=83 velocity=50 time=0
note_off channel=0 note=83 velocity=0 time=96
note_on channel=0 note=81 velocity=50 time=96
note_on channel=0 note=48 velocity=50 time=0
note_on channel=0 note=83 velocity=50 time=96
note_off channel=0 note=81 velocity=0 time=0
note_off channel=0 note=48 velocity=0 time=0
note_on channel=0 note=84 velocity=50 time=96
note_off channel=0 note=83 velocity=0 time=0
note_off channel=0 note=84 velocity=0 time=96
note_on channel=0 note=81 velocity=50 time=96
note_on channel=0 note=57 velocity=50 time=0
note_off channel=0 note=81 velocity=0 time=96
note_on channel=0 note=79 velocity=50 time=0
note_off channel=0 note=57 velocity=0 time=0
note_on channel=0 note=77 velocity=50 time=96
note_off channel=0 note=79 velocity=0 time=0
note_off channel=0 note=77 velocity=0 time=96
note_on channel=0 note=57 velocity=50 time=96
note_on channel=0 note=47 velocity=50 time=0
note_on channel=0 note=76 velocity=50 time=0
note_off channel=0 note=57 velocity=0 time=96
note_off channel=0 note=76 velocity=0 time=0
note_on channel=0 note=75 velocity=50 time=0
note_off channel=0 note=47 velocity=0 time=0
note_off channel=0 note=75 velocity=0 time=96
note_on channel=0 note=76 velocity=50 time=0
note_off channel=0 note=76 velocity=0 time=96
note_on channel=0 note=77 velocity=50 time=96
note_on channel=0 note=56 velocity=50 time=0
note_on channel=0 note=76 velocity=50 time=96
note_off channel=0 note=77 velocity=0 time=0
note_off channel=0 note=56 velocity=0 time=0
note_on channel=0 note=74 velocity=50 time=96
note_off channel=0 note=76 velocity=0 time=0
note_off channel=0 note=74 velocity=0 time=96
note_on channel=0 note=72 velocity=50 time=96
note_on channel=0 note=57 velocity=50 time=0
note_on channel=0 note=48 velocity=50 time=0
note_off channel=0 note=72 velocity=0 time=96
note_off channel=0 note=57 velocity=0 time=0
note_off channel=0 note=48 velocity=0 time=0
note_on channel=0 note=71 velocity=50 time=0
note_on channel=0 note=69 velocity=50 time=96
note_off channel=0 note=71 velocity=0 time=0
note_off channel=0 note=69 velocity=0 time=96
note_on channel=0 note=68 velocity=50 time=96
note_on channel=0 note=71 velocity=50 time=96
note_off channel=0 note=68 velocity=0 time=0
note_on channel=0 note=69 velocity=50 time=96
note_off channel=0 note=71 velocity=0 time=0
note_off channel=0 note=69 velocity=0 time=96
note_on channel=0 note=50 velocity=50 time=96
note_on channel=0 note=59 velocity=50 time=0
note_on channel=0 note=65 velocity=50 time=0
note_off channel=0 note=50 velocity=0 time=96
note_on channel=0 note=69 velocity=50 time=0
note_off channel=0 note=65 velocity=0 time=0
note_off channel=0 note=59 velocity=0 time=0
note_on channel=0 note=81 velocity=50 time=96
note_off channel=0 note=69 velocity=0 time=0
note_off channel=0 note=81 velocity=0 time=96
note_on channel=0 note=69 velocity=50 time=96
note_on channel=0 note=81 velocity=50 time=96
note_off channel=0 note=69 velocity=0 time=0
note_on channel=0 note=69 velocity=50 time=96
note_on channel=0 note=59 velocity=50 time=0
note_off channel=0 note=81 velocity=0 time=0
note_off channel=0 note=69 velocity=0 time=96
note_off channel=0 note=59 velocity=0 time=0
note_on channel=0 note=51 velocity=50 time=96
note_on channel=0 note=66 velocity=50 time=0
note_on channel=0 note=60 velocity=50 time=0
note_on channel=0 note=69 velocity=50 time=96
note_off channel=0 note=60 velocity=0 time=0
note_off channel=0 note=51 velocity=0 time=0
note_off channel=0 note=66 velocity=0 time=0
note_on channel=0 note=81 velocity=50 time=96
note_off channel=0 note=69 velocity=0 time=0
note_off channel=0 note=81 velocity=0 time=96
note_on channel=0 note=69 velocity=50 time=96
note_on channel=0 note=57 velocity=50 time=0
note_off channel=0 note=69 velocity=0 time=96
note_off channel=0 note=57 velocity=0 time=0
note_on channel=0 note=72 velocity=50 time=0
note_on channel=0 note=84 velocity=50 time=96
note_off channel=0 note=72 velocity=0 time=0
note_off channel=0 note=84 velocity=0 time=96
note_on channel=0 note=57 velocity=50 time=96
note_on channel=0 note=52 velocity=50 time=0
note_on channel=0 note=72 velocity=50 time=0
note_on channel=0 note=76 velocity=50 time=96
note_off channel=0 note=57 velocity=0 time=0
note_off channel=0 note=52 velocity=0 time=0
note_off channel=0 note=72 velocity=0 time=0
note_off channel=0 note=76 velocity=0 time=96
note_on channel=0 note=80 velocity=50 time=0
note_off channel=0 note=80 velocity=0 time=96
note_on channel=0 note=81 velocity=50 time=96
note_on channel=0 note=83 velocity=50 time=96
note_off channel=0 note=81 velocity=0 time=0
note_on channel=0 note=84 velocity=50 time=96
note_off channel=0 note=83 velocity=0 time=0
note_off channel=0 note=84 velocity=0 time=96
note_on channel=0 note=56 velocity=50 time=96
note_on channel=0 note=83 velocity=50 time=0
note_off channel=0 note=56 velocity=0 time=96
note_on channel=0 note=84 velocity=50 time=0
note_off channel=0 note=83 velocity=0 time=0
note_on channel=0 note=86 velocity=50 time=96
note_on channel=0 note=50 velocity=50 time=0
note_off channel=0 note=84 velocity=0 time=0
note_off channel=0 note=86 velocity=0 time=96
note_off channel=0 note=50 velocity=0 time=0
note_on channel=0 note=48 velocity=50 time=96
note_on channel=0 note=88 velocity=50 time=0
note_on channel=0 note=90 velocity=50 time=96
note_off channel=0 note=48 velocity=0 time=0
note_off channel=0 note=88 velocity=0 time=0
note_on channel=0 note=47 velocity=50 time=96
note_on channel=0 note=92 velocity=50 time=0
note_off channel=0 note=90 velocity=0 time=0
note_off channel=0 note=47 velocity=0 time=96
note_off channel=0 note=92 velocity=0 time=0
note_on channel=0 note=93 velocity=50 time=96
note_on channel=0 note=45 velocity=50 time=0
note_on channel=0 note=33 velocity=50 time=0
note_off channel=0 note=33 velocity=0 time=96
note_off channel=0 note=45 velocity=0 time=0
note_off channel=0 note=93 velocity=0 time=0
note_on channel=0 note=72 velocity=50 time=96
note_off channel=0 note=72 velocity=0 time=96
note_on channel=0 note=48 velocity=50 time=96
note_on channel=0 note=76 velocity=50 time=0
note_on channel=0 note=36 velocity=50 time=0
note_off channel=0 note=76 velocity=0 time=96
note_off channel=0 note=36 velocity=0 time=0
note_off channel=0 note=48 velocity=0 time=0
note_on channel=0 note=69 velocity=50 time=96
note_off channel=0 note=69 velocity=0 time=96
note_on channel=0 note=72 velocity=50 time=96
note_off channel=0 note=72 velocity=0 time=96
note_on channel=0 note=64 velocity=50 time=96
note_off channel=0 note=64 velocity=0 time=96
note_on channel=0 note=69 velocity=50 time=96
note_on channel=0 note=41 velocity=50 time=0
note_on channel=0 note=53 velocity=50 time=0
note_off channel=0 note=69 velocity=0 time=96
note_off channel=0 note=53 velocity=0 time=0
note_off channel=0 note=41 velocity=0 time=0
note_on channel=0 note=60 velocity=50 time=96
note_off channel=0 note=60 velocity=0 time=96
note_on channel=0 note=40 velocity=50 time=96
note_on channel=0 note=52 velocity=50 time=0
note_on channel=0 note=83 velocity=50 time=0
note_off channel=0 note=40 velocity=0 time=96
note_off channel=0 note=52 velocity=0 time=0
note_off channel=0 note=83 velocity=0 time=0
note_on channel=0 note=78 velocity=50 time=96
note_off channel=0 note=78 velocity=0 time=96
note_on channel=0 note=51 velocity=50 time=96
note_on channel=0 note=39 velocity=50 time=0
note_on channel=0 note=81 velocity=50 time=0
note_off channel=0 note=51 velocity=0 time=96
note_off channel=0 note=39 velocity=0 time=0
note_off channel=0 note=81 velocity=0 time=0
note_on channel=0 note=71 velocity=50 time=96
note_off channel=0 note=71 velocity=0 time=96
note_on channel=0 note=71 velocity=50 time=96
note_on channel=0 note=52 velocity=50 time=0
note_on channel=0 note=40 velocity=50 time=0
note_off channel=0 note=52 velocity=0 time=96
note_off channel=0 note=40 velocity=0 time=0
note_off channel=0 note=71 velocity=0 time=0
note_on channel=0 note=64 velocity=50 time=96
note_off channel=0 note=64 velocity=0 time=96
note_on channel=0 note=67 velocity=50 time=96
note_off channel=0 note=67 velocity=0 time=96
note_on channel=0 note=59 velocity=50 time=96
note_off channel=0 note=59 velocity=0 time=96
note_on channel=0 note=52 velocity=50 time=96
note_on channel=0 note=88 velocity=50 time=0
note_on channel=0 note=40 velocity=50 time=0
note_off channel=0 note=52 velocity=0 time=96
note_off channel=0 note=88 velocity=0 time=0
note_off channel=0 note=40 velocity=0 time=0
note_on channel=0 note=79 velocity=50 time=96
note_off channel=0 note=79 velocity=0 time=96
note_on channel=0 note=43 velocity=50 time=96
note_on channel=0 note=55 velocity=50 time=0
note_on channel=0 note=83 velocity=50 time=0
note_off channel=0 note=43 velocity=0 time=96
note_off channel=0 note=55 velocity=0 time=0
note_off channel=0 note=83 velocity=0 time=0
note_on channel=0 note=76 velocity=50 time=96
note_off channel=0 note=76 velocity=0 time=96
note_on channel=0 note=79 velocity=50 time=96
note_off channel=0 note=79 velocity=0 time=96
note_on channel=0 note=71 velocity=50 time=96
note_off channel=0 note=71 velocity=0 time=96
note_on channel=0 note=60 velocity=50 time=96
note_on channel=0 note=76 velocity=50 time=0
note_on channel=0 note=48 velocity=50 time=0
note_off channel=0 note=76 velocity=0 time=96
note_off channel=0 note=60 velocity=0 time=0
note_off channel=0 note=48 velocity=0 time=0
note_on channel=0 note=67 velocity=50 time=96
note_off channel=0 note=67 velocity=0 time=96
note_on channel=0 note=90 velocity=50 time=96
note_on channel=0 note=59 velocity=50 time=0
note_on channel=0 note=47 velocity=50 time=0
note_off channel=0 note=90 velocity=0 time=96
note_off channel=0 note=59 velocity=0 time=0
note_off channel=0 note=47 velocity=0 time=0
note_on channel=0 note=85 velocity=50 time=96
note_off channel=0 note=85 velocity=0 time=96
note_on channel=0 note=46 velocity=50 time=96
note_on channel=0 note=58 velocity=50 time=0
note_on channel=0 note=88 velocity=50 time=0
note_off channel=0 note=88 velocity=0 time=96
note_off channel=0 note=46 velocity=0 time=0
note_off channel=0 note=58 velocity=0 time=0
note_on channel=0 note=78 velocity=50 time=96
note_off channel=0 note=78 velocity=0 time=96
note_on channel=0 note=59 velocity=50 time=96
note_on channel=0 note=47 velocity=50 time=0
note_on channel=0 note=78 velocity=50 time=0
note_off channel=0 note=59 velocity=0 time=96
note_off channel=0 note=47 velocity=0 time=0
note_off channel=0 note=78 velocity=0 time=0
note_on channel=0 note=71 velocity=50 time=96
note_off channel=0 note=71 velocity=0 time=96
note_on channel=0 note=74 velocity=50 time=96
note_off channel=0 note=74 velocity=0 time=96
note_on channel=0 note=66 velocity=50 time=96
note_on channel=0 note=62 velocity=50 time=0
note_on channel=0 note=50 velocity=50 time=0
note_off channel=0 note=50 velocity=0 time=96
note_off channel=0 note=66 velocity=0 time=0
note_off channel=0 note=62 velocity=0 time=0
note_on channel=0 note=57 velocity=50 time=96
note_on channel=0 note=88 velocity=50 time=0
note_on channel=0 note=45 velocity=50 time=0
note_off channel=0 note=45 velocity=0 time=96
note_off channel=0 note=57 velocity=0 time=0
note_off channel=0 note=88 velocity=0 time=0
note_on channel=0 note=83 velocity=50 time=96
note_off channel=0 note=83 velocity=0 time=96
note_on channel=0 note=56 velocity=50 time=96
note_on channel=0 note=86 velocity=50 time=0
note_on channel=0 note=44 velocity=50 time=0
note_off channel=0 note=86 velocity=0 time=96
note_off channel=0 note=56 velocity=0 time=0
note_off channel=0 note=44 velocity=0 time=0
note_on channel=0 note=76 velocity=50 time=96
note_off channel=0 note=76 velocity=0 time=96
note_on channel=0 note=57 velocity=50 time=96
note_on channel=0 note=45 velocity=50 time=0
note_on channel=0 note=76 velocity=50 time=0
note_off channel=0 note=57 velocity=0 time=96
note_off channel=0 note=45 velocity=0 time=0
note_off channel=0 note=76 velocity=0 time=0
note_on channel=0 note=69 velocity=50 time=96
note_off channel=0 note=69 velocity=0 time=96
note_on channel=0 note=72 velocity=50 time=96
note_off channel=0 note=72 velocity=0 time=96
note_on channel=0 note=48 velocity=50 time=96
note_on channel=0 note=60 velocity=50 time=0
note_on channel=0 note=64 velocity=50 time=0
note_off channel=0 note=64 velocity=0 time=96
note_off channel=0 note=48 velocity=0 time=0
note_off channel=0 note=60 velocity=0 time=0
note_on channel=0 note=52 velocity=50 time=96
note_on channel=0 note=40 velocity=50 time=0
note_on channel=0 note=83 velocity=50 time=0
note_off channel=0 note=83 velocity=0 time=96
note_off channel=0 note=52 velocity=0 time=0
note_off channel=0 note=40 velocity=0 time=0
note_on channel=0 note=78 velocity=50 time=96
note_off channel=0 note=78 velocity=0 time=96
note_on channel=0 note=39 velocity=50 time=96
note_on channel=0 note=81 velocity=50 time=0
note_on channel=0 note=51 velocity=50 time=0
note_off channel=0 note=81 velocity=0 time=96
note_off channel=0 note=39 velocity=0 time=0
note_off channel=0 note=51 velocity=0 time=0
note_on channel=0 note=71 velocity=50 time=96
note_off channel=0 note=71 velocity=0 time=96
note_on channel=0 note=52 velocity=50 time=96
note_on channel=0 note=40 velocity=50 time=0
note_on channel=0 note=64 velocity=50 time=0
note_on channel=0 note=67 velocity=50 time=0
note_on channel=0 note=71 velocity=50 time=0
note_off channel=0 note=52 velocity=0 time=96
note_off channel=0 note=64 velocity=0 time=0
note_off channel=0 note=67 velocity=0 time=0
note_off channel=0 note=71 velocity=0 time=0
note_off channel=0 note=40 velocity=0 time=0
note_on channel=0 note=59 velocity=50 time=96
note_off channel=0 note=59 velocity=0 time=96
note_on channel=0 note=67 velocity=50 time=96
note_on channel=0 note=64 velocity=50 time=0
note_on channel=0 note=70 velocity=50 time=0
note_off channel=0 note=67 velocity=0 time=96
note_off channel=0 note=64 velocity=0 time=0
note_off channel=0 note=70 velocity=0 time=0
note_on channel=0 note=58 velocity=50 time=96
note_on channel=0 note=48 velocity=50 time=0
note_on channel=0 note=36 velocity=50 time=0
note_off channel=0 note=48 velocity=0 time=96
note_off channel=0 note=36 velocity=0 time=0
note_off channel=0 note=58 velocity=0 time=0
note_on channel=0 note=63 velocity=50 time=96
note_on channel=0 note=35 velocity=50 time=0
note_on channel=0 note=71 velocity=50 time=0
note_on channel=0 note=47 velocity=50 time=0
note_off channel=0 note=71 velocity=0 time=96
note_off channel=0 note=35 velocity=0 time=0
note_off channel=0 note=47 velocity=0 time=0
note_off channel=0 note=63 velocity=0 time=0
note_on channel=0 note=59 velocity=50 time=96
note_off channel=0 note=59 velocity=0 time=96
note_on channel=0 note=72 velocity=50 time=96
note_on channel=0 note=75 velocity=50 time=0
note_on channel=0 note=47 velocity=50 time=0
note_on channel=0 note=45 velocity=50 time=0
note_off channel=0 note=47 velocity=0 time=96
note_off channel=0 note=72 velocity=0 time=0
note_off channel=0 note=45 velocity=0 time=0
note_off channel=0 note=75 velocity=0 time=0
note_on channel=0 note=71 velocity=50 time=96
note_off channel=0 note=71 velocity=0 time=96
note_on channel=0 note=76 velocity=50 time=96
note_on channel=0 note=47 velocity=50 time=0
note_on channel=0 note=43 velocity=50 time=0
note_off channel=0 note=76 velocity=0 time=96
note_off channel=0 note=47 velocity=0 time=0
note_off channel=0 note=43 velocity=0 time=0
note_on channel=0 note=71 velocity=50 time=96
note_off channel=0 note=71 velocity=0 time=96
note_on channel=0 note=78 velocity=50 time=96
note_on channel=0 note=47 velocity=50 time=0
note_on channel=0 note=75 velocity=50 time=0
note_on channel=0 note=42 velocity=50 time=0
note_off channel=0 note=75 velocity=0 time=96
note_off channel=0 note=42 velocity=0 time=0
note_off channel=0 note=47 velocity=0 time=0
note_off channel=0 note=78 velocity=0 time=0
note_on channel=0 note=71 velocity=50 time=96
note_off channel=0 note=71 velocity=0 time=96
note_on channel=0 note=40 velocity=50 time=96
note_on channel=0 note=79 velocity=50 time=0
note_on channel=0 note=76 velocity=50 time=0
note_off channel=0 note=79 velocity=0 time=96
note_off channel=0 note=76 velocity=0 time=0
note_off channel=0 note=40 velocity=0 time=0
note_on channel=0 note=55 velocity=50 time=96
note_off channel=0 note=55 velocity=0 time=96
note_on channel=0 note=67 velocity=50 time=96
note_on channel=0 note=79 velocity=50 time=0
note_on channel=0 note=59 velocity=50 time=0
note_off channel=0 note=59 velocity=0 time=96
note_off channel=0 note=79 velocity=0 time=0
note_off channel=0 note=67 velocity=0 time=0
note_on channel=0 note=52 velocity=50 time=96
note_off channel=0 note=52 velocity=0 time=96
note_on channel=0 note=55 velocity=50 time=96
note_off channel=0 note=55 velocity=0 time=96
note_on channel=0 note=47 velocity=50 time=96
note_off channel=0 note=47 velocity=0 time=96
note_on channel=0 note=72 velocity=50 time=96
note_on channel=0 note=84 velocity=50 time=0
note_on channel=0 note=52 velocity=50 time=0
note_off channel=0 note=84 velocity=0 time=96
note_off channel=0 note=52 velocity=0 time=0
note_off channel=0 note=72 velocity=0 time=0
note_on channel=0 note=43 velocity=50 time=96
note_off channel=0 note=43 velocity=0 time=96
note_on channel=0 note=53 velocity=50 time=96
note_on channel=0 note=83 velocity=50 time=0
note_on channel=0 note=71 velocity=50 time=0
note_off channel=0 note=53 velocity=0 time=96
note_off channel=0 note=83 velocity=0 time=0
note_off channel=0 note=71 velocity=0 time=0
note_on channel=0 note=43 velocity=50 time=96
note_off channel=0 note=43 velocity=0 time=96
note_on channel=0 note=70 velocity=50 time=96
note_on channel=0 note=82 velocity=50 time=0
note_on channel=0 note=54 velocity=50 time=0
note_off channel=0 note=82 velocity=0 time=96
note_off channel=0 note=54 velocity=0 time=0
note_off channel=0 note=70 velocity=0 time=0
note_on channel=0 note=42 velocity=50 time=96
note_off channel=0 note=42 velocity=0 time=96
note_on channel=0 note=83 velocity=50 time=96
note_on channel=0 note=71 velocity=50 time=0
note_on channel=0 note=51 velocity=50 time=0
note_off channel=0 note=83 velocity=0 time=96
note_off channel=0 note=71 velocity=0 time=0
note_off channel=0 note=51 velocity=0 time=0
note_on channel=0 note=39 velocity=50 time=96
note_off channel=0 note=39 velocity=0 time=96
note_on channel=0 note=47 velocity=50 time=96
note_off channel=0 note=47 velocity=0 time=96
note_on channel=0 note=35 velocity=50 time=96
note_off channel=0 note=35 velocity=0 time=96
note_on channel=0 note=47 velocity=50 time=96
note_on channel=0 note=71 velocity=50 time=0
note_on channel=0 note=59 velocity=50 time=0
note_off channel=0 note=71 velocity=0 time=96
note_off channel=0 note=47 velocity=0 time=0
note_off channel=0 note=59 velocity=0 time=0
note_on channel=0 note=50 velocity=50 time=96
note_off channel=0 note=50 velocity=0 time=96
note_on channel=0 note=62 velocity=50 time=96
note_on channel=0 note=74 velocity=50 time=0
note_on channel=0 note=54 velocity=50 time=0
note_off channel=0 note=62 velocity=0 time=96
note_off channel=0 note=74 velocity=0 time=0
note_off channel=0 note=54 velocity=0 time=0
note_on channel=0 note=47 velocity=50 time=96
note_off channel=0 note=47 velocity=0 time=96
note_on channel=0 note=50 velocity=50 time=96
note_off channel=0 note=50 velocity=0 time=96
note_on channel=0 note=42 velocity=50 time=96
note_off channel=0 note=42 velocity=0 time=96
note_on channel=0 note=47 velocity=50 time=96
note_on channel=0 note=67 velocity=50 time=0
note_on channel=0 note=79 velocity=50 time=0
note_off channel=0 note=67 velocity=0 time=96
note_off channel=0 note=79 velocity=0 time=0
note_off channel=0 note=47 velocity=0 time=0
note_on channel=0 note=38 velocity=50 time=96
note_off channel=0 note=38 velocity=0 time=96
note_on channel=0 note=66 velocity=50 time=96
note_on channel=0 note=78 velocity=50 time=0
note_on channel=0 note=48 velocity=50 time=0
note_off channel=0 note=48 velocity=0 time=96
note_off channel=0 note=78 velocity=0 time=0
note_off channel=0 note=66 velocity=0 time=0
note_on channel=0 note=38 velocity=50 time=96
note_off channel=0 note=38 velocity=0 time=96
note_on channel=0 note=77 velocity=50 time=96
note_on channel=0 note=65 velocity=50 time=0
note_on channel=0 note=49 velocity=50 time=0
note_off channel=0 note=77 velocity=0 time=96
note_off channel=0 note=65 velocity=0 time=0
note_off channel=0 note=49 velocity=0 time=0
note_on channel=0 note=37 velocity=50 time=96
note_off channel=0 note=37 velocity=0 time=96
note_on channel=0 note=66 velocity=50 time=96
note_on channel=0 note=78 velocity=50 time=0
note_on channel=0 note=45 velocity=50 time=0
note_off channel=0 note=45 velocity=0 time=96
note_off channel=0 note=66 velocity=0 time=0
note_off channel=0 note=78 velocity=0 time=0
note_on channel=0 note=33 velocity=50 time=96
note_off channel=0 note=33 velocity=0 time=96
note_on channel=0 note=45 velocity=50 time=96
note_off channel=0 note=45 velocity=0 time=96
note_on channel=0 note=47 velocity=50 time=96
note_off channel=0 note=47 velocity=0 time=96
note_on channel=0 note=64 velocity=50 time=96
note_on channel=0 note=76 velocity=50 time=0
note_on channel=0 note=48 velocity=50 time=0
note_off channel=0 note=64 velocity=0 time=96
note_off channel=0 note=76 velocity=0 time=0
note_off channel=0 note=48 velocity=0 time=0
note_on channel=0 note=58 velocity=50 time=96
note_off channel=0 note=58 velocity=0 time=96
note_on channel=0 note=75 velocity=50 time=96
note_on channel=0 note=59 velocity=50 time=0
note_on channel=0 note=63 velocity=50 time=0
note_off channel=0 note=75 velocity=0 time=96
note_off channel=0 note=59 velocity=0 time=0
note_off channel=0 note=63 velocity=0 time=0
note_on channel=0 note=47 velocity=50 time=96
note_off channel=0 note=47 velocity=0 time=96
note_on channel=0 note=64 velocity=50 time=96
note_on channel=0 note=43 velocity=50 time=0
note_on channel=0 note=76 velocity=50 time=0
note_off channel=0 note=64 velocity=0 time=96
note_off channel=0 note=43 velocity=0 time=0
note_off channel=0 note=76 velocity=0 time=0
note_on channel=0 note=55 velocity=50 time=96
note_off channel=0 note=55 velocity=0 time=96
note_on channel=0 note=52 velocity=50 time=96
note_off channel=0 note=52 velocity=0 time=96
note_on channel=0 note=48 velocity=50 time=96
note_on channel=0 note=79 velocity=50 time=0
note_on channel=0 note=67 velocity=50 time=0
note_off channel=0 note=48 velocity=0 time=96
note_off channel=0 note=79 velocity=0 time=0
note_off channel=0 note=67 velocity=0 time=0
note_on channel=0 note=59 velocity=50 time=96
note_on channel=0 note=71 velocity=50 time=0
note_on channel=0 note=53 velocity=50 time=0
note_off channel=0 note=59 velocity=0 time=96
note_off channel=0 note=71 velocity=0 time=0
note_off channel=0 note=53 velocity=0 time=0
note_on channel=0 note=43 velocity=50 time=96
note_off channel=0 note=43 velocity=0 time=96
note_on channel=0 note=70 velocity=50 time=96
note_on channel=0 note=58 velocity=50 time=0
note_on channel=0 note=54 velocity=50 time=0
note_off channel=0 note=58 velocity=0 time=96
note_off channel=0 note=54 velocity=0 time=0
note_off channel=0 note=70 velocity=0 time=0
note_on channel=0 note=42 velocity=50 time=96
note_off channel=0 note=42 velocity=0 time=96
note_on channel=0 note=71 velocity=50 time=96
note_on channel=0 note=51 velocity=50 time=0
note_on channel=0 note=59 velocity=50 time=0
note_off channel=0 note=71 velocity=0 time=96
note_off channel=0 note=51 velocity=0 time=0
note_off channel=0 note=59 velocity=0 time=0
note_on channel=0 note=39 velocity=50 time=96
note_off channel=0 note=39 velocity=0 time=96
note_on channel=0 note=52 velocity=50 time=96
note_off channel=0 note=52 velocity=0 time=96
note_on channel=0 note=67 velocity=50 time=96
note_on channel=0 note=55 velocity=50 time=0
note_on channel=0 note=40 velocity=50 time=0
note_off channel=0 note=67 velocity=0 time=96
note_off channel=0 note=55 velocity=0 time=0
note_off channel=0 note=40 velocity=0 time=0
note_on channel=0 note=66 velocity=50 time=96
note_on channel=0 note=54 velocity=50 time=0
note_on channel=0 note=50 velocity=50 time=0
note_off channel=0 note=66 velocity=0 time=96
note_off channel=0 note=54 velocity=0 time=0
note_off channel=0 note=50 velocity=0 time=0
note_on channel=0 note=42 velocity=50 time=96
note_off channel=0 note=42 velocity=0 time=96
note_on channel=0 note=43 velocity=50 time=96
note_on channel=0 note=52 velocity=50 time=0
note_on channel=0 note=64 velocity=50 time=0
note_off channel=0 note=52 velocity=0 time=96
note_off channel=0 note=64 velocity=0 time=0
note_off channel=0 note=43 velocity=0 time=0
note_on channel=0 note=47 velocity=50 time=96
note_off channel=0 note=47 velocity=0 time=96
note_on channel=0 note=50 velocity=50 time=96
note_on channel=0 note=62 velocity=50 time=0
note_on channel=0 note=42 velocity=50 time=0
note_off channel=0 note=50 velocity=0 time=96
note_off channel=0 note=62 velocity=0 time=0
note_off channel=0 note=42 velocity=0 time=0
note_on channel=0 note=47 velocity=50 time=96
note_off channel=0 note=47 velocity=0 time=96
note_on channel=0 note=49 velocity=50 time=96
note_on channel=0 note=61 velocity=50 time=0
note_on channel=0 note=42 velocity=50 time=0
note_off channel=0 note=61 velocity=0 time=96
note_off channel=0 note=49 velocity=0 time=0
note_off channel=0 note=42 velocity=0 time=0
note_on channel=0 note=46 velocity=50 time=96
note_off channel=0 note=46 velocity=0 time=96
note_on channel=0 note=47 velocity=50 time=96
note_on channel=0 note=59 velocity=50 time=96
note_off channel=0 note=47 velocity=0 time=0
note_on channel=0 note=61 velocity=50 time=96
note_off channel=0 note=59 velocity=0 time=0
note_on channel=0 note=62 velocity=50 time=96
note_off channel=0 note=61 velocity=0 time=0
note_off channel=0 note=62 velocity=0 time=96
note_on channel=0 note=64 velocity=50 time=0
note_on channel=0 note=66 velocity=50 time=96
note_off channel=0 note=64 velocity=0 time=0
note_off channel=0 note=66 velocity=0 time=96
note_on channel=0 note=59 velocity=50 time=0
note_on channel=0 note=68 velocity=50 time=0
note_on channel=0 note=70 velocity=50 time=96
note_off channel=0 note=59 velocity=0 time=0
note_off channel=0 note=68 velocity=0 time=0
note_on channel=0 note=55 velocity=50 time=96
note_on channel=0 note=71 velocity=50 time=0
note_on channel=0 note=67 velocity=50 time=0
note_off channel=0 note=70 velocity=0 time=0
note_off channel=0 note=71 velocity=0 time=96
note_off channel=0 note=67 velocity=0 time=0
note_on channel=0 note=73 velocity=50 time=0
note_off channel=0 note=55 velocity=0 time=0
note_off channel=0 note=73 velocity=0 time=96
note_on channel=0 note=74 velocity=50 time=0
note_on channel=0 note=76 velocity=50 time=96
note_off channel=0 note=74 velocity=0 time=0
note_on channel=0 note=66 velocity=50 time=96
note_on channel=0 note=78 velocity=50 time=0
note_on channel=0 note=54 velocity=50 time=0
note_off channel=0 note=76 velocity=0 time=0
note_on channel=0 note=80 velocity=50 time=96
note_off channel=0 note=66 velocity=0 time=0
note_off channel=0 note=78 velocity=0 time=0
note_off channel=0 note=54 velocity=0 time=0
note_on channel=0 note=82 velocity=50 time=96
note_off channel=0 note=80 velocity=0 time=0
note_on channel=0 note=83 velocity=50 time=96
note_off channel=0 note=82 velocity=0 time=0
note_on channel=0 note=65 velocity=50 time=96
note_on channel=0 note=61 velocity=50 time=0
note_on channel=0 note=56 velocity=50 time=0
note_on channel=0 note=53 velocity=50 time=0
note_on channel=0 note=85 velocity=50 time=0
note_off channel=0 note=83 velocity=0 time=0
note_off channel=0 note=65 velocity=0 time=96
note_off channel=0 note=61 velocity=0 time=0
note_off channel=0 note=56 velocity=0 time=0
note_off channel=0 note=53 velocity=0 time=0
note_off channel=0 note=85 velocity=0 time=0
note_on channel=0 note=73 velocity=50 time=96
note_off channel=0 note=73 velocity=0 time=96
note_on channel=0 note=85 velocity=50 time=96
note_off channel=0 note=85 velocity=0 time=96
note_on channel=0 note=85 velocity=50 time=96
note_off channel=0 note=85 velocity=0 time=96
note_on channel=0 note=71 velocity=50 time=96
note_on channel=0 note=44 velocity=50 time=0
note_on channel=0 note=32 velocity=50 time=0
note_on channel=0 note=73 velocity=50 time=96
note_off channel=0 note=71 velocity=0 time=0
note_off channel=0 note=44 velocity=0 time=0
note_off channel=0 note=32 velocity=0 time=0
note_on channel=0 note=74 velocity=50 time=96
note_off channel=0 note=73 velocity=0 time=0
note_on channel=0 note=76 velocity=50 time=96
note_off channel=0 note=74 velocity=0 time=0
note_off channel=0 note=76 velocity=0 time=96
note_on channel=0 note=78 velocity=50 time=0
note_on channel=0 note=30 velocity=50 time=0
note_on channel=0 note=42 velocity=50 time=0
note_on channel=0 note=80 velocity=50 time=96
note_off channel=0 note=30 velocity=0 time=0
note_off channel=0 note=42 velocity=0 time=0
note_off channel=0 note=78 velocity=0 time=0
note_on channel=0 note=82 velocity=50 time=96
note_off channel=0 note=80 velocity=0 time=0
note_on channel=0 note=83 velocity=50 time=96
note_off channel=0 note=82 velocity=0 time=0
note_on channel=0 note=85 velocity=50 time=96
note_off channel=0 note=83 velocity=0 time=0
note_on channel=0 note=41 velocity=50 time=0
note_on channel=0 note=29 velocity=50 time=0
note_off channel=0 note=29 velocity=0 time=96
note_off channel=0 note=85 velocity=0 time=0
note_off channel=0 note=41 velocity=0 time=0
note_on channel=0 note=73 velocity=50 time=96
note_off channel=0 note=73 velocity=0 time=96
note_on channel=0 note=85 velocity=50 time=96
note_off channel=0 note=85 velocity=0 time=96
note_on channel=0 note=85 velocity=50 time=96
note_off channel=0 note=85 velocity=0 time=96
note_on channel=0 note=73 velocity=50 time=96
note_on channel=0 note=41 velocity=50 time=0
note_on channel=0 note=85 velocity=50 time=0
note_on channel=0 note=80 velocity=50 time=0
note_off channel=0 note=41 velocity=0 time=96
note_off channel=0 note=85 velocity=0 time=0
note_off channel=0 note=80 velocity=0 time=0
note_on channel=0 note=44 velocity=50 time=0
note_off channel=0 note=73 velocity=0 time=0
note_on channel=0 note=49 velocity=50 time=96
note_off channel=0 note=44 velocity=0 time=0
note_off channel=0 note=49 velocity=0 time=96
note_on channel=0 note=53 velocity=50 time=96
note_on channel=0 note=56 velocity=50 time=96
note_off channel=0 note=53 velocity=0 time=0
note_on channel=0 note=80 velocity=50 time=96
note_on channel=0 note=73 velocity=50 time=0
note_on channel=0 note=61 velocity=50 time=0
note_on channel=0 note=85 velocity=50 time=0
note_off channel=0 note=56 velocity=0 time=0
note_off channel=0 note=80 velocity=0 time=96
note_off channel=0 note=61 velocity=0 time=0
note_off channel=0 note=85 velocity=0 time=0
note_off channel=0 note=73 velocity=0 time=0
note_on channel=0 note=42 velocity=50 time=96
note_on channel=0 note=81 velocity=50 time=0
note_on channel=0 note=78 velocity=50 time=0
note_off channel=0 note=42 velocity=0 time=96
note_off channel=0 note=81 velocity=0 time=0
note_on channel=0 note=54 velocity=50 time=0
note_off channel=0 note=78 velocity=0 time=0
note_on channel=0 note=73 velocity=50 time=0
note_on channel=0 note=78 velocity=50 time=96
note_on channel=0 note=42 velocity=50 time=0
note_on channel=0 note=81 velocity=50 time=0
note_off channel=0 note=73 velocity=0 time=0
note_off channel=0 note=54 velocity=0 time=0
note_off channel=0 note=81 velocity=0 time=96
note_off channel=0 note=78 velocity=0 time=0
note_off channel=0 note=42 velocity=0 time=0
note_on channel=0 note=83 velocity=50 time=96
note_on channel=0 note=80 velocity=50 time=0
note_on channel=0 note=35 velocity=50 time=0
note_off channel=0 note=80 velocity=0 time=96
note_off channel=0 note=35 velocity=0 time=0
note_on channel=0 note=47 velocity=50 time=0
note_off channel=0 note=83 velocity=0 time=0
note_on channel=0 note=74 velocity=50 time=0
note_on channel=0 note=83 velocity=50 time=96
note_on channel=0 note=80 velocity=50 time=0
note_on channel=0 note=35 velocity=50 time=0
note_off channel=0 note=74 velocity=0 time=0
note_off channel=0 note=47 velocity=0 time=0
note_off channel=0 note=83 velocity=0 time=96
note_off channel=0 note=80 velocity=0 time=0
note_off channel=0 note=35 velocity=0 time=0
note_on channel=0 note=37 velocity=50 time=96
note_on channel=0 note=78 velocity=50 time=0
note_on channel=0 note=81 velocity=50 time=0
note_off channel=0 note=37 velocity=0 time=96
note_off channel=0 note=78 velocity=0 time=0
note_on channel=0 note=73 velocity=50 time=0
note_off channel=0 note=81 velocity=0 time=0
note_on channel=0 note=49 velocity=50 time=0
note_on channel=0 note=81 velocity=50 time=96
note_off channel=0 note=49 velocity=0 time=0
note_off channel=0 note=73 velocity=0 time=0
note_on channel=0 note=78 velocity=50 time=0
note_on channel=0 note=37 velocity=50 time=0
note_off channel=0 note=37 velocity=0 time=96
note_off channel=0 note=78 velocity=0 time=0
note_off channel=0 note=81 velocity=0 time=0
note_on channel=0 note=77 velocity=50 time=96
note_on channel=0 note=80 velocity=50 time=0
note_on channel=0 note=49 velocity=50 time=0
note_off channel=0 note=77 velocity=0 time=96
note_off channel=0 note=80 velocity=0 time=0
note_off channel=0 note=49 velocity=0 time=0
note_on channel=0 note=37 velocity=50 time=0
note_on channel=0 note=73 velocity=50 time=0
note_on channel=0 note=49 velocity=50 time=96
note_on channel=0 note=80 velocity=50 time=0
note_on channel=0 note=77 velocity=50 time=0
note_off channel=0 note=73 velocity=0 time=0
note_off channel=0 note=37 velocity=0 time=0
note_off channel=0 note=49 velocity=0 time=96
note_off channel=0 note=80 velocity=0 time=0
note_off channel=0 note=77 velocity=0 time=0
note_on channel=0 note=50 velocity=50 time=96
note_on channel=0 note=38 velocity=50 time=0
note_on channel=0 note=54 velocity=50 time=96
note_off channel=0 note=38 velocity=0 time=0
note_off channel=0 note=50 velocity=0 time=0
note_on channel=0 note=56 velocity=50 time=96
note_off channel=0 note=54 velocity=0 time=0
note_on channel=0 note=57 velocity=50 time=96
note_off channel=0 note=56 velocity=0 time=0
note_on channel=0 note=59 velocity=50 time=96
note_off channel=0 note=57 velocity=0 time=0
note_off channel=0 note=59 velocity=0 time=96
note_on channel=0 note=61 velocity=50 time=0
note_on channel=0 note=63 velocity=50 time=96
note_off channel=0 note=61 velocity=0 time=0
note_on channel=0 note=65 velocity=50 time=96
note_off channel=0 note=63 velocity=0 time=0
note_on channel=0 note=62 velocity=50 time=96
note_on channel=0 note=50 velocity=50 time=0
note_on channel=0 note=66 velocity=50 time=0
note_off channel=0 note=65 velocity=0 time=0
note_off channel=0 note=66 velocity=0 time=96
note_off channel=0 note=62 velocity=0 time=0
note_on channel=0 note=68 velocity=50 time=0
note_off channel=0 note=50 velocity=0 time=0
note_on channel=0 note=69 velocity=50 time=96
note_off channel=0 note=68 velocity=0 time=0
note_on channel=0 note=71 velocity=50 time=96
note_off channel=0 note=69 velocity=0 time=0
note_on channel=0 note=73 velocity=50 time=96
note_on channel=0 note=61 velocity=50 time=0
note_on channel=0 note=49 velocity=50 time=0
note_off channel=0 note=71 velocity=0 time=0
note_off channel=0 note=73 velocity=0 time=96
note_on channel=0 note=75 velocity=50 time=0
note_off channel=0 note=61 velocity=0 time=0
note_off channel=0 note=49 velocity=0 time=0
note_on channel=0 note=77 velocity=50 time=96
note_off channel=0 note=75 velocity=0 time=0
note_on channel=0 note=78 velocity=50 time=96
note_off channel=0 note=77 velocity=0 time=0
note_on channel=0 note=51 velocity=50 time=96
note_off channel=0 note=78 velocity=0 time=0
note_on channel=0 note=56 velocity=50 time=0
note_on channel=0 note=60 velocity=50 time=0
note_on channel=0 note=48 velocity=50 time=0
note_on channel=0 note=80 velocity=50 time=0
note_off channel=0 note=48 velocity=0 time=96
note_off channel=0 note=80 velocity=0 time=0
note_off channel=0 note=60 velocity=0 time=0
note_off channel=0 note=51 velocity=0 time=0
note_off channel=0 note=56 velocity=0 time=0
note_on channel=0 note=68 velocity=50 time=96
note_off channel=0 note=68 velocity=0 time=96
note_on channel=0 note=92 velocity=50 time=96
note_off channel=0 note=92 velocity=0 time=96
note_on channel=0 note=80 velocity=50 time=96
note_off channel=0 note=80 velocity=0 time=96
note_on channel=0 note=66 velocity=50 time=96
note_on channel=0 note=50 velocity=50 time=0
note_on channel=0 note=38 velocity=50 time=0
note_on channel=0 note=68 velocity=50 time=96
note_off channel=0 note=66 velocity=0 time=0
note_off channel=0 note=50 velocity=0 time=0
note_off channel=0 note=38 velocity=0 time=0
note_on channel=0 note=69 velocity=50 time=96
note_off channel=0 note=68 velocity=0 time=0
note_on channel=0 note=71 velocity=50 time=96
note_off channel=0 note=69 velocity=0 time=0
note_on channel=0 note=37 velocity=50 time=96
note_on channel=0 note=49 velocity=50 time=0
note_on channel=0 note=73 velocity=50 time=0
note_off channel=0 note=71 velocity=0 time=0
note_off channel=0 note=37 velocity=0 time=96
note_on channel=0 note=75 velocity=50 time=0
note_off channel=0 note=49 velocity=0 time=0
note_off channel=0 note=73 velocity=0 time=0
note_on channel=0 note=77 velocity=50 time=96
note_off channel=0 note=75 velocity=0 time=0
note_on channel=0 note=78 velocity=50 time=96
note_off channel=0 note=77 velocity=0 time=0
note_on channel=0 note=39 velocity=50 time=96
note_off channel=0 note=78 velocity=0 time=0
note_on channel=0 note=44 velocity=50 time=0
note_on channel=0 note=48 velocity=50 time=0
note_on channel=0 note=36 velocity=50 time=0
note_on channel=0 note=80 velocity=50 time=0
note_off channel=0 note=36 velocity=0 time=96
note_off channel=0 note=80 velocity=0 time=0
note_off channel=0 note=48 velocity=0 time=0
note_off channel=0 note=39 velocity=0 time=0
note_off channel=0 note=44 velocity=0 time=0
note_on channel=0 note=68 velocity=50 time=96
note_off channel=0 note=68 velocity=0 time=96
note_on channel=0 note=92 velocity=50 time=96
note_off channel=0 note=92 velocity=0 time=96
note_on channel=0 note=80 velocity=50 time=96
note_off channel=0 note=80 velocity=0 time=96
note_on channel=0 note=36 velocity=50 time=96
note_on channel=0 note=68 velocity=50 time=0
note_on channel=0 note=80 velocity=50 time=0
note_on channel=0 note=75 velocity=50 time=0
note_off channel=0 note=36 velocity=0 time=96
note_off channel=0 note=68 velocity=0 time=0
note_on channel=0 note=39 velocity=50 time=0
note_off channel=0 note=75 velocity=0 time=0
note_off channel=0 note=80 velocity=0 time=0
note_on channel=0 note=44 velocity=50 time=96
note_off channel=0 note=39 velocity=0 time=0
note_off channel=0 note=44 velocity=0 time=96
note_on channel=0 note=48 velocity=50 time=96
note_on channel=0 note=51 velocity=50 time=96
note_off channel=0 note=48 velocity=0 time=0
note_on channel=0 note=75 velocity=50 time=96
note_off channel=0 note=51 velocity=0 time=0
note_on channel=0 note=80 velocity=50 time=0
note_on channel=0 note=68 velocity=50 time=0
note_on channel=0 note=56 velocity=50 time=0
note_off channel=0 note=80 velocity=0 time=96
note_off channel=0 note=56 velocity=0 time=0
note_off channel=0 note=68 velocity=0 time=0
note_off channel=0 note=75 velocity=0 time=0
note_on channel=0 note=37 velocity=50 time=96
note_on channel=0 note=73 velocity=50 time=0
note_on channel=0 note=76 velocity=50 time=0
note_off channel=0 note=73 velocity=0 time=96
note_off channel=0 note=76 velocity=0 time=0
note_on channel=0 note=68 velocity=50 time=0
note_off channel=0 note=37 velocity=0 time=0
note_on channel=0 note=49 velocity=50 time=0
note_on channel=0 note=76 velocity=50 time=96
note_on channel=0 note=37 velocity=50 time=0
note_on channel=0 note=73 velocity=50 time=0
note_off channel=0 note=49 velocity=0 time=0
note_off channel=0 note=68 velocity=0 time=0
note_off channel=0 note=76 velocity=0 time=96
note_off channel=0 note=37 velocity=0 time=0
note_off channel=0 note=73 velocity=0 time=0
note_on channel=0 note=78 velocity=50 time=96
note_on channel=0 note=30 velocity=50 time=0
note_on channel=0 note=75 velocity=50 time=0
note_on channel=0 note=42 velocity=50 time=96
note_on channel=0 note=69 velocity=50 time=0
note_off channel=0 note=30 velocity=0 time=0
note_off channel=0 note=75 velocity=0 time=0
note_off channel=0 note=78 velocity=0 time=0
note_off channel=0 note=42 velocity=0 time=96
note_off channel=0 note=69 velocity=0 time=0
note_on channel=0 note=78 velocity=50 time=0
note_on channel=0 note=75 velocity=50 time=0
note_on channel=0 note=30 velocity=50 time=0
note_off channel=0 note=75 velocity=0 time=96
note_off channel=0 note=30 velocity=0 time=0
note_off channel=0 note=78 velocity=0 time=0
note_on channel=0 note=76 velocity=50 time=96
note_on channel=0 note=32 velocity=50 time=0
note_on channel=0 note=73 velocity=50 time=0
note_off channel=0 note=32 velocity=0 time=96
note_off channel=0 note=73 velocity=0 time=0
note_on channel=0 note=68 velocity=50 time=0
note_off channel=0 note=76 velocity=0 time=0
note_on channel=0 note=44 velocity=50 time=0
note_on channel=0 note=32 velocity=50 time=96
note_on channel=0 note=76 velocity=50 time=0
note_on channel=0 note=73 velocity=50 time=0
note_off channel=0 note=44 velocity=0 time=0
note_off channel=0 note=68 velocity=0 time=0
note_off channel=0 note=76 velocity=0 time=96
note_off channel=0 note=73 velocity=0 time=0
note_off channel=0 note=32 velocity=0 time=0
note_on channel=0 note=44 velocity=50 time=96
note_on channel=0 note=75 velocity=50 time=0
note_on channel=0 note=72 velocity=50 time=0
note_on channel=0 note=32 velocity=50 time=96
note_on channel=0 note=68 velocity=50 time=0
note_off channel=0 note=44 velocity=0 time=0
note_off channel=0 note=75 velocity=0 time=0
note_off channel=0 note=72 velocity=0 time=0
note_off channel=0 note=32 velocity=0 time=96
note_off channel=0 note=68 velocity=0 time=0
note_on channel=0 note=44 velocity=50 time=0
note_on channel=0 note=75 velocity=50 time=0
note_on channel=0 note=72 velocity=50 time=0
note_off channel=0 note=75 velocity=0 time=96
note_off channel=0 note=72 velocity=0 time=0
note_off channel=0 note=44 velocity=0 time=0
note_on channel=0 note=37 velocity=50 time=96
note_on channel=0 note=73 velocity=50 time=0
note_off channel=0 note=37 velocity=0 time=96
note_on channel=0 note=36 velocity=50 time=0
note_off channel=0 note=73 velocity=0 time=0
note_on channel=0 note=37 velocity=50 time=96
note_off channel=0 note=36 velocity=0 time=0
note_off channel=0 note=37 velocity=0 time=96
note_on channel=0 note=64 velocity=50 time=96
note_on channel=0 note=40 velocity=50 time=0
note_on channel=0 note=52 velocity=50 time=0
note_on channel=0 note=37 velocity=50 time=96
note_off channel=0 note=64 velocity=0 time=0
note_off channel=0 note=40 velocity=0 time=0
note_off channel=0 note=52 velocity=0 time=0
note_on channel=0 note=40 velocity=50 time=96
note_off channel=0 note=37 velocity=0 time=0
note_off channel=0 note=40 velocity=0 time=96
note_on channel=0 note=37 velocity=50 time=96
note_on channel=0 note=36 velocity=50 time=96
note_off channel=0 note=37 velocity=0 time=0
note_on channel=0 note=37 velocity=50 time=96
note_off channel=0 note=36 velocity=0 time=0
note_off channel=0 note=37 velocity=0 time=96
note_on channel=0 note=69 velocity=50 time=96
note_on channel=0 note=40 velocity=50 time=0
note_on channel=0 note=57 velocity=50 time=0
note_off channel=0 note=69 velocity=0 time=96
note_on channel=0 note=37 velocity=50 time=0
note_off channel=0 note=57 velocity=0 time=0
note_off channel=0 note=40 velocity=0 time=0
note_on channel=0 note=40 velocity=50 time=96
note_off channel=0 note=37 velocity=0 time=0
note_off channel=0 note=40 velocity=0 time=96
note_on channel=0 note=56 velocity=50 time=96
note_on channel=0 note=68 velocity=50 time=0
note_on channel=0 note=37 velocity=50 time=0
note_off channel=0 note=56 velocity=0 time=96
note_off channel=0 note=68 velocity=0 time=0
note_off channel=0 note=37 velocity=0 time=0
note_on channel=0 note=36 velocity=50 time=0
note_on channel=0 note=37 velocity=50 time=96
note_off channel=0 note=36 velocity=0 time=0
note_off channel=0 note=37 velocity=0 time=96
note_on channel=0 note=40 velocity=50 time=96
note_on channel=0 note=67 velocity=50 time=0
note_on channel=0 note=55 velocity=50 time=0
note_off channel=0 note=40 velocity=0 time=96
note_off channel=0 note=67 velocity=0 time=0
note_on channel=0 note=37 velocity=50 time=0
note_off channel=0 note=55 velocity=0 time=0
note_off channel=0 note=37 velocity=0 time=96
note_on channel=0 note=40 velocity=50 time=0
note_off channel=0 note=40 velocity=0 time=96
note_on channel=0 note=68 velocity=50 time=96
note_on channel=0 note=61 velocity=50 time=0
note_on channel=0 note=37 velocity=50 time=0
note_on channel=0 note=64 velocity=50 time=0
note_on channel=0 note=56 velocity=50 time=0
note_off channel=0 note=68 velocity=0 time=96
note_off channel=0 note=61 velocity=0 time=0
note_off channel=0 note=64 velocity=0 time=0
note_off channel=0 note=56 velocity=0 time=0
note_on channel=0 note=36 velocity=50 time=0
note_off channel=0 note=37 velocity=0 time=0
note_on channel=0 note=37 velocity=50 time=96
note_off channel=0 note=36 velocity=0 time=0
note_off channel=0 note=37 velocity=0 time=96
note_on channel=0 note=40 velocity=50 time=96
note_on channel=0 note=37 velocity=50 time=96
note_off channel=0 note=40 velocity=0 time=0
note_on channel=0 note=40 velocity=50 time=96
note_off channel=0 note=37 velocity=0 time=0
note_off channel=0 note=40 velocity=0 time=96
note_on channel=0 note=56 velocity=50 time=96
note_on channel=0 note=68 velocity=50 time=0
note_on channel=0 note=39 velocity=50 time=0
note_on channel=0 note=38 velocity=50 time=96
note_off channel=0 note=56 velocity=0 time=0
note_off channel=0 note=68 velocity=0 time=0
note_off channel=0 note=39 velocity=0 time=0
note_on channel=0 note=39 velocity=50 time=96
note_off channel=0 note=38 velocity=0 time=0
note_off channel=0 note=39 velocity=0 time=96
note_on channel=0 note=42 velocity=50 time=96
note_on channel=0 note=67 velocity=50 time=0
note_on channel=0 note=55 velocity=50 time=0
note_off channel=0 note=55 velocity=0 time=96
note_on channel=0 note=39 velocity=50 time=0
note_off channel=0 note=42 velocity=0 time=0
note_off channel=0 note=67 velocity=0 time=0
note_on channel=0 note=42 velocity=50 time=96
note_off channel=0 note=39 velocity=0 time=0
note_off channel=0 note=42 velocity=0 time=96
note_on channel=0 note=60 velocity=50 time=96
note_on channel=0 note=66 velocity=50 time=0
note_on channel=0 note=56 velocity=50 time=0
note_on channel=0 note=39 velocity=50 time=0
note_on channel=0 note=68 velocity=50 time=0
note_on channel=0 note=38 velocity=50 time=96
note_off channel=0 note=60 velocity=0 time=0
note_off channel=0 note=66 velocity=0 time=0
note_off channel=0 note=56 velocity=0 time=0
note_off channel=0 note=39 velocity=0 time=0
note_off channel=0 note=68 velocity=0 time=0
note_on channel=0 note=39 velocity=50 time=96
note_off channel=0 note=38 velocity=0 time=0
note_off channel=0 note=39 velocity=0 time=96
note_on channel=0 note=42 velocity=50 time=96
note_off channel=0 note=42 velocity=0 time=96
note_on channel=0 note=39 velocity=50 time=0
note_on channel=0 note=42 velocity=50 time=96
note_off channel=0 note=39 velocity=0 time=0
note_off channel=0 note=42 velocity=0 time=96
note_on channel=0 note=40 velocity=50 time=96
note_on channel=0 note=56 velocity=50 time=0
note_on channel=0 note=68 velocity=50 time=0
note_off channel=0 note=40 velocity=0 time=96
note_off channel=0 note=68 velocity=0 time=0
note_on channel=0 note=39 velocity=50 time=0
note_off channel=0 note=56 velocity=0 time=0
note_on channel=0 note=40 velocity=50 time=96
note_off channel=0 note=39 velocity=0 time=0
note_off channel=0 note=40 velocity=0 time=96
note_on channel=0 note=44 velocity=50 time=96
note_on channel=0 note=55 velocity=50 time=0
note_on channel=0 note=67 velocity=50 time=0
note_off channel=0 note=55 velocity=0 time=96
note_off channel=0 note=67 velocity=0 time=0
note_on channel=0 note=40 velocity=50 time=0
note_off channel=0 note=44 velocity=0 time=0
note_off channel=0 note=40 velocity=0 time=96
note_on channel=0 note=44 velocity=50 time=0
note_off channel=0 note=44 velocity=0 time=96
note_on channel=0 note=40 velocity=50 time=96
note_on channel=0 note=68 velocity=50 time=0
note_on channel=0 note=61 velocity=50 time=0
note_on channel=0 note=73 velocity=50 time=0
note_off channel=0 note=40 velocity=0 time=96
note_off channel=0 note=61 velocity=0 time=0
note_off channel=0 note=73 velocity=0 time=0
note_on channel=0 note=39 velocity=50 time=0
note_off channel=0 note=68 velocity=0 time=0
note_on channel=0 note=40 velocity=50 time=96
note_off channel=0 note=39 velocity=0 time=0
note_off channel=0 note=40 velocity=0 time=96
note_on channel=0 note=44 velocity=50 time=96
note_off channel=0 note=44 velocity=0 time=96
note_on channel=0 note=40 velocity=50 time=0
note_on channel=0 note=44 velocity=50 time=96
note_off channel=0 note=40 velocity=0 time=0
note_off channel=0 note=44 velocity=0 time=96
note_on channel=0 note=42 velocity=50 time=96
note_on channel=0 note=69 velocity=50 time=0
note_on channel=0 note=57 velocity=50 time=0
note_on channel=0 note=41 velocity=50 time=96
note_off channel=0 note=42 velocity=0 time=0
note_off channel=0 note=69 velocity=0 time=0
note_off channel=0 note=57 velocity=0 time=0
note_off channel=0 note=41 velocity=0 time=96
note_on channel=0 note=42 velocity=50 time=0
note_off channel=0 note=42 velocity=0 time=96
note_on channel=0 note=45 velocity=50 time=96
note_on channel=0 note=54 velocity=50 time=0
note_on channel=0 note=66 velocity=50 time=0
note_on channel=0 note=42 velocity=50 time=96
note_off channel=0 note=45 velocity=0 time=0
note_off channel=0 note=54 velocity=0 time=0
note_off channel=0 note=66 velocity=0 time=0
note_on channel=0 note=45 velocity=50 time=96
note_off channel=0 note=42 velocity=0 time=0
note_off channel=0 note=45 velocity=0 time=96
note_on channel=0 note=63 velocity=50 time=96
note_on channel=0 note=44 velocity=50 time=0
note_on channel=0 note=51 velocity=50 time=0
note_on channel=0 note=43 velocity=50 time=96
note_off channel=0 note=44 velocity=0 time=0
note_off channel=0 note=51 velocity=0 time=0
note_off channel=0 note=63 velocity=0 time=0
note_on channel=0 note=44 velocity=50 time=96
note_off channel=0 note=43 velocity=0 time=0
note_off channel=0 note=44 velocity=0 time=96
note_on channel=0 note=56 velocity=50 time=96
note_on channel=0 note=48 velocity=50 time=0
note_on channel=0 note=68 velocity=50 time=0
note_on channel=0 note=44 velocity=50 time=96
note_off channel=0 note=48 velocity=0 time=0
note_off channel=0 note=68 velocity=0 time=0
note_off channel=0 note=56 velocity=0 time=0
note_on channel=0 note=48 velocity=50 time=96
note_off channel=0 note=44 velocity=0 time=0
note_off channel=0 note=48 velocity=0 time=96
note_on channel=0 note=49 velocity=50 time=96
note_on channel=0 note=73 velocity=50 time=0
note_on channel=0 note=72 velocity=50 time=96
note_off channel=0 note=49 velocity=0 time=0
note_off channel=0 note=73 velocity=0 time=0
note_on channel=0 note=73 velocity=50 time=96
note_off channel=0 note=72 velocity=0 time=0
note_on channel=0 note=75 velocity=50 time=96
note_off channel=0 note=73 velocity=0 time=0
note_off channel=0 note=75 velocity=0 time=96
note_on channel=0 note=52 velocity=50 time=0
note_on channel=0 note=76 velocity=50 time=0
note_on channel=0 note=78 velocity=50 time=96
note_off channel=0 note=76 velocity=0 time=0
note_off channel=0 note=52 velocity=0 time=0
note_on channel=0 note=76 velocity=50 time=96
note_off channel=0 note=78 velocity=0 time=0
note_on channel=0 note=75 velocity=50 time=96
note_off channel=0 note=76 velocity=0 time=0
note_on channel=0 note=73 velocity=50 time=96
note_off channel=0 note=75 velocity=0 time=0
note_on channel=0 note=72 velocity=50 time=96
note_off channel=0 note=73 velocity=0 time=0
note_on channel=0 note=73 velocity=50 time=96
note_off channel=0 note=72 velocity=0 time=0
note_on channel=0 note=75 velocity=50 time=96
note_off channel=0 note=73 velocity=0 time=0
note_on channel=0 note=76 velocity=50 time=96
note_off channel=0 note=75 velocity=0 time=0
note_on channel=0 note=57 velocity=50 time=0
note_on channel=0 note=78 velocity=50 time=96
note_off channel=0 note=57 velocity=0 time=0
note_off channel=0 note=76 velocity=0 time=0
note_on channel=0 note=76 velocity=50 time=96
note_off channel=0 note=78 velocity=0 time=0
note_on channel=0 note=75 velocity=50 time=96
note_off channel=0 note=76 velocity=0 time=0
note_on channel=0 note=73 velocity=50 time=96
note_off channel=0 note=75 velocity=0 time=0
note_on channel=0 note=56 velocity=50 time=0
note_on channel=0 note=72 velocity=50 time=96
note_off channel=0 note=56 velocity=0 time=0
note_off channel=0 note=73 velocity=0 time=0
note_on channel=0 note=73 velocity=50 time=96
note_off channel=0 note=72 velocity=0 time=0
note_on channel=0 note=75 velocity=50 time=96
note_off channel=0 note=73 velocity=0 time=0
note_on channel=0 note=55 velocity=50 time=96
note_off channel=0 note=75 velocity=0 time=0
note_on channel=0 note=76 velocity=50 time=0
note_on channel=0 note=78 velocity=50 time=96
note_off channel=0 note=76 velocity=0 time=0
note_off channel=0 note=55 velocity=0 time=0
note_on channel=0 note=76 velocity=50 time=96
note_off channel=0 note=78 velocity=0 time=0
note_on channel=0 note=75 velocity=50 time=96
note_off channel=0 note=76 velocity=0 time=0
note_on channel=0 note=49 velocity=50 time=96
note_on channel=0 note=73 velocity=50 time=0
note_off channel=0 note=75 velocity=0 time=0
note_on channel=0 note=52 velocity=50 time=0
note_on channel=0 note=56 velocity=50 time=0
note_off channel=0 note=56 velocity=0 time=96
note_on channel=0 note=72 velocity=50 time=0
note_off channel=0 note=52 velocity=0 time=0
note_off channel=0 note=73 velocity=0 time=0
note_off channel=0 note=49 velocity=0 time=0
note_off channel=0 note=72 velocity=0 time=96
note_on channel=0 note=73 velocity=50 time=0
note_on channel=0 note=75 velocity=50 time=96
note_off channel=0 note=73 velocity=0 time=0
note_on channel=0 note=76 velocity=50 time=96
note_off channel=0 note=75 velocity=0 time=0
note_on channel=0 note=78 velocity=50 time=96
note_off channel=0 note=76 velocity=0 time=0
note_on channel=0 note=76 velocity=50 time=96
note_off channel=0 note=78 velocity=0 time=0
note_on channel=0 note=73 velocity=50 time=96
note_off channel=0 note=76 velocity=0 time=0
note_on channel=0 note=75 velocity=50 time=96
note_on channel=0 note=56 velocity=50 time=0
note_off channel=0 note=73 velocity=0 time=0
note_off channel=0 note=75 velocity=0 time=96
note_off channel=0 note=56 velocity=0 time=0
note_on channel=0 note=74 velocity=50 time=0
note_on channel=0 note=75 velocity=50 time=96
note_off channel=0 note=74 velocity=0 time=0
note_on channel=0 note=76 velocity=50 time=96
note_off channel=0 note=75 velocity=0 time=0
note_on channel=0 note=55 velocity=50 time=96
note_on channel=0 note=78 velocity=50 time=0
note_off channel=0 note=76 velocity=0 time=0
note_on channel=0 note=80 velocity=50 time=96
note_off channel=0 note=55 velocity=0 time=0
note_off channel=0 note=78 velocity=0 time=0
note_on channel=0 note=78 velocity=50 time=96
note_off channel=0 note=80 velocity=0 time=0
note_on channel=0 note=76 velocity=50 time=96
note_off channel=0 note=78 velocity=0 time=0
note_on channel=0 note=48 velocity=50 time=96
note_off channel=0 note=76 velocity=0 time=0
note_on channel=0 note=75 velocity=50 time=0
note_on channel=0 note=56 velocity=50 time=0
note_on channel=0 note=54 velocity=50 time=0
note_on channel=0 note=74 velocity=50 time=96
note_off channel=0 note=56 velocity=0 time=0
note_off channel=0 note=48 velocity=0 time=0
note_off channel=0 note=75 velocity=0 time=0
note_off channel=0 note=54 velocity=0 time=0
note_on channel=0 note=75 velocity=50 time=96
note_off channel=0 note=74 velocity=0 time=0
note_on channel=0 note=76 velocity=50 time=96
note_off channel=0 note=75 velocity=0 time=0
note_off channel=0 note=76 velocity=0 time=96
note_on channel=0 note=78 velocity=50 time=0
note_on channel=0 note=80 velocity=50 time=96
note_off channel=0 note=78 velocity=0 time=0
note_on channel=0 note=78 velocity=50 time=96
note_off channel=0 note=80 velocity=0 time=0
note_on channel=0 note=75 velocity=50 time=96
note_off channel=0 note=78 velocity=0 time=0
note_on channel=0 note=76 velocity=50 time=96
note_on channel=0 note=56 velocity=50 time=0
note_off channel=0 note=75 velocity=0 time=0
note_off channel=0 note=76 velocity=0 time=96
note_on channel=0 note=75 velocity=50 time=0
note_off channel=0 note=56 velocity=0 time=0
note_off channel=0 note=75 velocity=0 time=96
note_on channel=0 note=76 velocity=50 time=0
note_on channel=0 note=78 velocity=50 time=96
note_off channel=0 note=76 velocity=0 time=0
note_on channel=0 note=55 velocity=50 time=96
note_on channel=0 note=80 velocity=50 time=0
note_off channel=0 note=78 velocity=0 time=0
note_off channel=0 note=80 velocity=0 time=96
note_on channel=0 note=81 velocity=50 time=0
note_off channel=0 note=55 velocity=0 time=0
note_on channel=0 note=80 velocity=50 time=96
note_off channel=0 note=81 velocity=0 time=0
note_on channel=0 note=78 velocity=50 time=96
note_off channel=0 note=80 velocity=0 time=0
note_on channel=0 note=52 velocity=50 time=96
note_on channel=0 note=76 velocity=50 time=0
note_off channel=0 note=78 velocity=0 time=0
note_on channel=0 note=61 velocity=50 time=0
note_on channel=0 note=56 velocity=50 time=0
note_off channel=0 note=76 velocity=0 time=96
note_on channel=0 note=75 velocity=50 time=0
note_off channel=0 note=56 velocity=0 time=0
note_off channel=0 note=61 velocity=0 time=0
note_off channel=0 note=52 velocity=0 time=0
note_on channel=0 note=76 velocity=50 time=96
note_off channel=0 note=75 velocity=0 time=0
note_on channel=0 note=78 velocity=50 time=96
note_off channel=0 note=76 velocity=0 time=0
note_on channel=0 note=80 velocity=50 time=96
note_off channel=0 note=78 velocity=0 time=0
note_on channel=0 note=81 velocity=50 time=96
note_off channel=0 note=80 velocity=0 time=0
note_on channel=0 note=80 velocity=50 time=96
note_off channel=0 note=81 velocity=0 time=0
note_on channel=0 note=76 velocity=50 time=96
note_off channel=0 note=80 velocity=0 time=0
note_on channel=0 note=78 velocity=50 time=96
note_off channel=0 note=76 velocity=0 time=0
note_on channel=0 note=57 velocity=50 time=0
note_off channel=0 note=57 velocity=0 time=96
note_on channel=0 note=77 velocity=50 time=0
note_off channel=0 note=78 velocity=0 time=0
note_on channel=0 note=78 velocity=50 time=96
note_off channel=0 note=77 velocity=0 time=0
note_on channel=0 note=80 velocity=50 time=96
note_off channel=0 note=78 velocity=0 time=0
note_on channel=0 note=54 velocity=50 time=96
note_on channel=0 note=81 velocity=50 time=0
note_off channel=0 note=80 velocity=0 time=0
note_off channel=0 note=81 velocity=0 time=96
note_on channel=0 note=83 velocity=50 time=0
note_off channel=0 note=54 velocity=0 time=0
note_on channel=0 note=81 velocity=50 time=96
note_off channel=0 note=83 velocity=0 time=0
note_on channel=0 note=80 velocity=50 time=96
note_off channel=0 note=81 velocity=0 time=0
note_on channel=0 note=78 velocity=50 time=96
note_on channel=0 note=51 velocity=50 time=0
note_off channel=0 note=80 velocity=0 time=0
note_off channel=0 note=78 velocity=0 time=96
note_off channel=0 note=51 velocity=0 time=0
note_on channel=0 note=80 velocity=50 time=0
note_off channel=0 note=80 velocity=0 time=96
note_on channel=0 note=78 velocity=50 time=0
note_on channel=0 note=76 velocity=50 time=96
note_off channel=0 note=78 velocity=0 time=0
note_on channel=0 note=75 velocity=50 time=96
note_on channel=0 note=55 velocity=50 time=0
note_off channel=0 note=76 velocity=0 time=0
note_on channel=0 note=76 velocity=50 time=96
note_off channel=0 note=75 velocity=0 time=0
note_off channel=0 note=55 velocity=0 time=0
note_on channel=0 note=75 velocity=50 time=96
note_off channel=0 note=76 velocity=0 time=0
note_on channel=0 note=73 velocity=50 time=96
note_off channel=0 note=75 velocity=0 time=0
note_on channel=0 note=72 velocity=50 time=96
note_on channel=0 note=56 velocity=50 time=0
note_off channel=0 note=73 velocity=0 time=0
note_on channel=0 note=75 velocity=50 time=96
note_off channel=0 note=72 velocity=0 time=0
note_off channel=0 note=56 velocity=0 time=0
note_off channel=0 note=75 velocity=0 time=96
note_on channel=0 note=72 velocity=50 time=0
note_off channel=0 note=72 velocity=0 time=96
note_on channel=0 note=69 velocity=50 time=0
note_on channel=0 note=68 velocity=50 time=96
note_on channel=0 note=56 velocity=50 time=0
note_on channel=0 note=54 velocity=50 time=0
note_off channel=0 note=69 velocity=0 time=0
note_on channel=0 note=69 velocity=50 time=96
note_off channel=0 note=68 velocity=0 time=0
note_off channel=0 note=56 velocity=0 time=0
note_off channel=0 note=54 velocity=0 time=0
note_on channel=0 note=68 velocity=50 time=96
note_off channel=0 note=69 velocity=0 time=0
note_on channel=0 note=66 velocity=50 time=96
note_off channel=0 note=68 velocity=0 time=0
note_on channel=0 note=64 velocity=50 time=96
note_on channel=0 note=52 velocity=50 time=0
note_on channel=0 note=56 velocity=50 time=0
note_off channel=0 note=66 velocity=0 time=0
note_off channel=0 note=64 velocity=0 time=96
note_on channel=0 note=68 velocity=50 time=0
note_off channel=0 note=56 velocity=0 time=0
note_off channel=0 note=52 velocity=0 time=0
note_on channel=0 note=66 velocity=50 time=96
note_off channel=0 note=68 velocity=0 time=0
note_on channel=0 note=64 velocity=50 time=96
note_off channel=0 note=66 velocity=0 time=0
note_on channel=0 note=63 velocity=50 time=96
note_on channel=0 note=56 velocity=50 time=0
note_on channel=0 note=51 velocity=50 time=0
note_off channel=0 note=64 velocity=0 time=0
note_off channel=0 note=56 velocity=0 time=96
note_off channel=0 note=51 velocity=0 time=0
note_off channel=0 note=63 velocity=0 time=0
note_on channel=0 note=66 velocity=50 time=0
note_on channel=0 note=64 velocity=50 time=96
note_off channel=0 note=66 velocity=0 time=0
note_on channel=0 note=63 velocity=50 time=96
note_off channel=0 note=64 velocity=0 time=0
note_on channel=0 note=49 velocity=50 time=96
note_on channel=0 note=61 velocity=50 time=0
note_off channel=0 note=63 velocity=0 time=0
note_off channel=0 note=61 velocity=0 time=96
note_on channel=0 note=52 velocity=50 time=0
note_off channel=0 note=49 velocity=0 time=0
note_on channel=0 note=56 velocity=50 time=96
note_off channel=0 note=52 velocity=0 time=0
note_off channel=0 note=56 velocity=0 time=96
note_on channel=0 note=49 velocity=50 time=96
note_on channel=0 note=64 velocity=50 time=0
note_on channel=0 note=52 velocity=50 time=96
note_off channel=0 note=49 velocity=0 time=0
note_off channel=0 note=64 velocity=0 time=0
note_off channel=0 note=52 velocity=0 time=96
note_on channel=0 note=56 velocity=50 time=0
note_on channel=0 note=68 velocity=50 time=0
note_off channel=0 note=68 velocity=0 time=96
note_off channel=0 note=56 velocity=0 time=0
note_on channel=0 note=73 velocity=50 time=96
note_on channel=0 note=49 velocity=50 time=0
note_on channel=0 note=52 velocity=50 time=96
note_off channel=0 note=73 velocity=0 time=0
note_off channel=0 note=49 velocity=0 time=0
note_off channel=0 note=52 velocity=0 time=96
note_on channel=0 note=56 velocity=50 time=0
note_on channel=0 note=76 velocity=50 time=0
note_off channel=0 note=76 velocity=0 time=96
note_off channel=0 note=56 velocity=0 time=0
note_on channel=0 note=49 velocity=50 time=96
note_on channel=0 note=80 velocity=50 time=0
note_off channel=0 note=80 velocity=0 time=96
note_on channel=0 note=52 velocity=50 time=0
note_off channel=0 note=49 velocity=0 time=0
note_on channel=0 note=85 velocity=50 time=96
note_off channel=0 note=52 velocity=0 time=0
note_on channel=0 note=56 velocity=50 time=0
note_off channel=0 note=85 velocity=0 time=96
note_off channel=0 note=56 velocity=0 time=0
note_on channel=0 note=72 velocity=50 time=96
note_on channel=0 note=84 velocity=50 time=0
note_on channel=0 note=52 velocity=50 time=0
note_on channel=0 note=56 velocity=50 time=96
note_off channel=0 note=72 velocity=0 time=0
note_off channel=0 note=84 velocity=0 time=0
note_off channel=0 note=52 velocity=0 time=0
note_on channel=0 note=61 velocity=50 time=96
note_off channel=0 note=56 velocity=0 time=0
note_off channel=0 note=61 velocity=0 time=96
note_on channel=0 note=85 velocity=50 time=96
note_on channel=0 note=73 velocity=50 time=0
note_on channel=0 note=52 velocity=50 time=0
note_on channel=0 note=56 velocity=50 time=96
note_off channel=0 note=85 velocity=0 time=0
note_off channel=0 note=73 velocity=0 time=0
note_off channel=0 note=52 velocity=0 time=0
note_off channel=0 note=56 velocity=0 time=96
note_on channel=0 note=61 velocity=50 time=0
note_off channel=0 note=61 velocity=0 time=96
note_on channel=0 note=52 velocity=50 time=96
note_on channel=0 note=40 velocity=50 time=0
note_on channel=0 note=56 velocity=50 time=96
note_off channel=0 note=52 velocity=0 time=0
note_off channel=0 note=40 velocity=0 time=0
note_on channel=0 note=61 velocity=50 time=96
note_off channel=0 note=56 velocity=0 time=0
note_off channel=0 note=61 velocity=0 time=96
note_on channel=0 note=52 velocity=50 time=96
note_on channel=0 note=56 velocity=50 time=96
note_off channel=0 note=52 velocity=0 time=0
note_on channel=0 note=61 velocity=50 time=96
note_off channel=0 note=56 velocity=0 time=0
note_off channel=0 note=61 velocity=0 time=96
note_on channel=0 note=72 velocity=50 time=96
note_on channel=0 note=54 velocity=50 time=0
note_on channel=0 note=84 velocity=50 time=0
note_off channel=0 note=72 velocity=0 time=96
note_off channel=0 note=54 velocity=0 time=0
note_off channel=0 note=84 velocity=0 time=0
note_on channel=0 note=57 velocity=50 time=0
note_on channel=0 note=61 velocity=50 time=96
note_off channel=0 note=57 velocity=0 time=0
note_off channel=0 note=61 velocity=0 time=96
note_on channel=0 note=73 velocity=50 time=96
note_on channel=0 note=85 velocity=50 time=0
note_on channel=0 note=54 velocity=50 time=0
note_on channel=0 note=57 velocity=50 time=96
note_off channel=0 note=73 velocity=0 time=0
note_off channel=0 note=85 velocity=0 time=0
note_off channel=0 note=54 velocity=0 time=0
note_on channel=0 note=61 velocity=50 time=96
note_off channel=0 note=57 velocity=0 time=0
note_off channel=0 note=61 velocity=0 time=96
note_on channel=0 note=54 velocity=50 time=96
note_on channel=0 note=42 velocity=50 time=0
note_on channel=0 note=57 velocity=50 time=96
note_off channel=0 note=42 velocity=0 time=0
note_off channel=0 note=54 velocity=0 time=0
note_on channel=0 note=61 velocity=50 time=96
note_off channel=0 note=57 velocity=0 time=0
note_off channel=0 note=61 velocity=0 time=96
note_on channel=0 note=54 velocity=50 time=96
note_on channel=0 note=57 velocity=50 time=96
note_off channel=0 note=54 velocity=0 time=0
note_on channel=0 note=61 velocity=50 time=96
note_off channel=0 note=57 velocity=0 time=0
note_off channel=0 note=61 velocity=0 time=96
note_on channel=0 note=56 velocity=50 time=96
note_on channel=0 note=76 velocity=50 time=0
note_on channel=0 note=88 velocity=50 time=0
note_off channel=0 note=56 velocity=0 time=96
note_off channel=0 note=76 velocity=0 time=0
note_on channel=0 note=61 velocity=50 time=0
note_off channel=0 note=88 velocity=0 time=0
note_off channel=0 note=61 velocity=0 time=96
note_on channel=0 note=64 velocity=50 time=0
note_off channel=0 note=64 velocity=0 time=96
note_on channel=0 note=85 velocity=50 time=96
note_on channel=0 note=73 velocity=50 time=0
note_on channel=0 note=56 velocity=50 time=0
note_off channel=0 note=73 velocity=0 time=96
note_off channel=0 note=56 velocity=0 time=0
note_on channel=0 note=61 velocity=50 time=0
note_off channel=0 note=85 velocity=0 time=0
note_on channel=0 note=64 velocity=50 time=96
note_off channel=0 note=61 velocity=0 time=0
note_off channel=0 note=64 velocity=0 time=96
note_on channel=0 note=56 velocity=50 time=96
note_on channel=0 note=44 velocity=50 time=0
note_off channel=0 note=56 velocity=0 time=96
note_off channel=0 note=44 velocity=0 time=0
note_on channel=0 note=61 velocity=50 time=0
note_off channel=0 note=61 velocity=0 time=96
note_on channel=0 note=64 velocity=50 time=0
note_off channel=0 note=64 velocity=0 time=96
note_on channel=0 note=57 velocity=50 time=96
note_on channel=0 note=45 velocity=50 time=0
note_on channel=0 note=61 velocity=50 time=96
note_off channel=0 note=57 velocity=0 time=0
note_off channel=0 note=45 velocity=0 time=0
note_on channel=0 note=64 velocity=50 time=96
note_off channel=0 note=61 velocity=0 time=0
note_off channel=0 note=64 velocity=0 time=96
note_on channel=0 note=47 velocity=50 time=96
note_on channel=0 note=59 velocity=50 time=0
note_on channel=0 note=64 velocity=50 time=96
note_off channel=0 note=47 velocity=0 time=0
note_off channel=0 note=59 velocity=0 time=0
note_off channel=0 note=64 velocity=0 time=96
note_on channel=0 note=68 velocity=50 time=0
note_off channel=0 note=68 velocity=0 time=96
note_on channel=0 note=59 velocity=50 time=96
note_on channel=0 note=64 velocity=50 time=96
note_off channel=0 note=59 velocity=0 time=0
note_on channel=0 note=68 velocity=50 time=96
note_off channel=0 note=64 velocity=0 time=0
note_off channel=0 note=68 velocity=0 time=96
note_on channel=0 note=83 velocity=50 time=96
note_on channel=0 note=71 velocity=50 time=0
note_on channel=0 note=59 velocity=50 time=0
note_off channel=0 note=71 velocity=0 time=96
note_on channel=0 note=64 velocity=50 time=0
note_off channel=0 note=59 velocity=0 time=0
note_off channel=0 note=83 velocity=0 time=0
note_on channel=0 note=68 velocity=50 time=96
note_off channel=0 note=64 velocity=0 time=0
note_off channel=0 note=68 velocity=0 time=96
note_on channel=0 note=59 velocity=50 time=96
note_on channel=0 note=85 velocity=50 time=0
note_on channel=0 note=73 velocity=50 time=0
note_on channel=0 note=64 velocity=50 time=96
note_off channel=0 note=59 velocity=0 time=0
note_off channel=0 note=73 velocity=0 time=0
note_off channel=0 note=85 velocity=0 time=0
note_on channel=0 note=68 velocity=50 time=96
note_off channel=0 note=64 velocity=0 time=0
note_off channel=0 note=68 velocity=0 time=96
note_on channel=0 note=87 velocity=50 time=96
note_on channel=0 note=75 velocity=50 time=0
note_on channel=0 note=60 velocity=50 time=0
note_on channel=0 note=66 velocity=50 time=96
note_off channel=0 note=60 velocity=0 time=0
note_off channel=0 note=87 velocity=0 time=0
note_off channel=0 note=75 velocity=0 time=0
note_on channel=0 note=68 velocity=50 time=96
note_off channel=0 note=66 velocity=0 time=0
note_off channel=0 note=68 velocity=0 time=96
note_on channel=0 note=60 velocity=50 time=96
note_on channel=0 note=66 velocity=50 time=96
note_off channel=0 note=60 velocity=0 time=0
note_on channel=0 note=68 velocity=50 time=96
note_off channel=0 note=66 velocity=0 time=0
note_off channel=0 note=68 velocity=0 time=96
note_on channel=0 note=76 velocity=50 time=96
note_on channel=0 note=88 velocity=50 time=0
note_on channel=0 note=61 velocity=50 time=0
note_on channel=0 note=64 velocity=50 time=96
note_off channel=0 note=88 velocity=0 time=0
note_off channel=0 note=61 velocity=0 time=0
note_off channel=0 note=76 velocity=0 time=0
note_on channel=0 note=68 velocity=50 time=96
note_off channel=0 note=64 velocity=0 time=0
note_off channel=0 note=68 velocity=0 time=96
note_on channel=0 note=61 velocity=50 time=96
note_on channel=0 note=64 velocity=50 time=96
note_off channel=0 note=61 velocity=0 time=0
note_on channel=0 note=68 velocity=50 time=96
note_off channel=0 note=64 velocity=0 time=0
note_off channel=0 note=68 velocity=0 time=96
note_on channel=0 note=42 velocity=50 time=96
note_on channel=0 note=61 velocity=50 time=0
note_on channel=0 note=63 velocity=50 time=96
note_off channel=0 note=42 velocity=0 time=0
note_off channel=0 note=61 velocity=0 time=0
note_off channel=0 note=63 velocity=0 time=96
note_on channel=0 note=69 velocity=50 time=0
note_off channel=0 note=69 velocity=0 time=96
note_on channel=0 note=61 velocity=50 time=96
note_on channel=0 note=63 velocity=50 time=96
note_off channel=0 note=61 velocity=0 time=0
note_on channel=0 note=69 velocity=50 time=96
note_off channel=0 note=63 velocity=0 time=0
note_off channel=0 note=69 velocity=0 time=96
note_on channel=0 note=44 velocity=50 time=96
note_on channel=0 note=60 velocity=50 time=0
note_off channel=0 note=60 velocity=0 time=96
note_on channel=0 note=63 velocity=50 time=0
note_off channel=0 note=44 velocity=0 time=0
note_on channel=0 note=68 velocity=50 time=96
note_off channel=0 note=63 velocity=0 time=0
note_off channel=0 note=68 velocity=0 time=96
note_on channel=0 note=60 velocity=50 time=96
note_on channel=0 note=63 velocity=50 time=96
note_off channel=0 note=60 velocity=0 time=0
note_on channel=0 note=68 velocity=50 time=96
note_off channel=0 note=63 velocity=0 time=0
note_off channel=0 note=68 velocity=0 time=96
note_on channel=0 note=57 velocity=50 time=96
note_on channel=0 note=45 velocity=50 time=0
note_off channel=0 note=57 velocity=0 time=96
note_on channel=0 note=61 velocity=50 time=0
note_off channel=0 note=45 velocity=0 time=0
note_off channel=0 note=61 velocity=0 time=96
note_on channel=0 note=64 velocity=50 time=0
note_off channel=0 note=64 velocity=0 time=96
note_on channel=0 note=57 velocity=50 time=96
note_on channel=0 note=61 velocity=50 time=96
note_off channel=0 note=57 velocity=0 time=0
note_on channel=0 note=69 velocity=50 time=96
note_on channel=0 note=64 velocity=50 time=0
note_off channel=0 note=61 velocity=0 time=0
note_off channel=0 note=69 velocity=0 time=96
note_off channel=0 note=64 velocity=0 time=0
note_on channel=0 note=73 velocity=50 time=96
note_on channel=0 note=56 velocity=50 time=0
note_on channel=0 note=61 velocity=50 time=96
note_off channel=0 note=73 velocity=0 time=0
note_off channel=0 note=56 velocity=0 time=0
note_off channel=0 note=61 velocity=0 time=96
note_on channel=0 note=76 velocity=50 time=0
note_on channel=0 note=64 velocity=50 time=0
note_off channel=0 note=64 velocity=0 time=96
note_off channel=0 note=76 velocity=0 time=0
note_on channel=0 note=54 velocity=50 time=96
note_on channel=0 note=81 velocity=50 time=0
note_off channel=0 note=81 velocity=0 time=96
note_on channel=0 note=61 velocity=50 time=0
note_off channel=0 note=54 velocity=0 time=0
note_on channel=0 note=64 velocity=50 time=96
note_off channel=0 note=61 velocity=0 time=0
note_on channel=0 note=85 velocity=50 time=0
note_off channel=0 note=64 velocity=0 time=96
note_off channel=0 note=85 velocity=0 time=0
note_on channel=0 note=52 velocity=50 time=96
note_on channel=0 note=72 velocity=50 time=0
note_on channel=0 note=84 velocity=50 time=0
note_on channel=0 note=56 velocity=50 time=96
note_off channel=0 note=52 velocity=0 time=0
note_off channel=0 note=72 velocity=0 time=0
note_off channel=0 note=84 velocity=0 time=0
note_on channel=0 note=61 velocity=50 time=96
note_off channel=0 note=56 velocity=0 time=0
note_off channel=0 note=61 velocity=0 time=96
note_on channel=0 note=85 velocity=50 time=96
note_on channel=0 note=52 velocity=50 time=0
note_on channel=0 note=73 velocity=50 time=0
note_on channel=0 note=56 velocity=50 time=96
note_off channel=0 note=52 velocity=0 time=0
note_off channel=0 note=73 velocity=0 time=0
note_off channel=0 note=85 velocity=0 time=0
note_on channel=0 note=61 velocity=50 time=96
note_off channel=0 note=56 velocity=0 time=0
note_off channel=0 note=61 velocity=0 time=96
note_on channel=0 note=40 velocity=50 time=96
note_on channel=0 note=52 velocity=50 time=0
note_on channel=0 note=56 velocity=50 time=96
note_off channel=0 note=52 velocity=0 time=0
note_off channel=0 note=40 velocity=0 time=0
note_on channel=0 note=61 velocity=50 time=96
note_off channel=0 note=56 velocity=0 time=0
note_off channel=0 note=61 velocity=0 time=96
note_on channel=0 note=52 velocity=50 time=96
note_on channel=0 note=56 velocity=50 time=96
note_off channel=0 note=52 velocity=0 time=0
note_on channel=0 note=61 velocity=50 time=96
note_off channel=0 note=56 velocity=0 time=0
note_off channel=0 note=61 velocity=0 time=96
note_on channel=0 note=54 velocity=50 time=96
note_on channel=0 note=72 velocity=50 time=0
note_on channel=0 note=84 velocity=50 time=0
note_off channel=0 note=54 velocity=0 time=96
note_off channel=0 note=72 velocity=0 time=0
note_off channel=0 note=84 velocity=0 time=0
note_on channel=0 note=57 velocity=50 time=0
note_on channel=0 note=61 velocity=50 time=96
note_off channel=0 note=57 velocity=0 time=0
note_off channel=0 note=61 velocity=0 time=96
note_on channel=0 note=54 velocity=50 time=96
note_on channel=0 note=73 velocity=50 time=0
note_on channel=0 note=85 velocity=50 time=0
note_off channel=0 note=54 velocity=0 time=96
note_off channel=0 note=73 velocity=0 time=0
note_on channel=0 note=57 velocity=50 time=0
note_off channel=0 note=85 velocity=0 time=0
note_on channel=0 note=61 velocity=50 time=96
note_off channel=0 note=57 velocity=0 time=0
note_off channel=0 note=61 velocity=0 time=96
note_on channel=0 note=54 velocity=50 time=96
note_on channel=0 note=42 velocity=50 time=0
note_on channel=0 note=57 velocity=50 time=96
note_off channel=0 note=42 velocity=0 time=0
note_off channel=0 note=54 velocity=0 time=0
note_on channel=0 note=61 velocity=50 time=96
note_off channel=0 note=57 velocity=0 time=0
note_off channel=0 note=61 velocity=0 time=96
note_on channel=0 note=54 velocity=50 time=96
note_on channel=0 note=57 velocity=50 time=96
note_off channel=0 note=54 velocity=0 time=0
note_on channel=0 note=61 velocity=50 time=96
note_off channel=0 note=57 velocity=0 time=0
note_off channel=0 note=61 velocity=0 time=96
note_on channel=0 note=56 velocity=50 time=96
note_on channel=0 note=88 velocity=50 time=0
note_on channel=0 note=76 velocity=50 time=0
note_off channel=0 note=56 velocity=0 time=96
note_on channel=0 note=61 velocity=50 time=0
note_off channel=0 note=76 velocity=0 time=0
note_off channel=0 note=88 velocity=0 time=0
note_on channel=0 note=64 velocity=50 time=96
note_off channel=0 note=61 velocity=0 time=0
note_off channel=0 note=64 velocity=0 time=96
note_on channel=0 note=73 velocity=50 time=96
note_on channel=0 note=85 velocity=50 time=0
note_on channel=0 note=56 velocity=50 time=0
note_on channel=0 note=61 velocity=50 time=96
note_off channel=0 note=73 velocity=0 time=0
note_off channel=0 note=85 velocity=0 time=0
note_off channel=0 note=56 velocity=0 time=0
note_on channel=0 note=64 velocity=50 time=96
note_off channel=0 note=61 velocity=0 time=0
note_off channel=0 note=64 velocity=0 time=96
note_on channel=0 note=56 velocity=50 time=96
note_on channel=0 note=44 velocity=50 time=0
note_on channel=0 note=61 velocity=50 time=96
note_off channel=0 note=56 velocity=0 time=0
note_off channel=0 note=44 velocity=0 time=0
note_on channel=0 note=64 velocity=50 time=96
note_off channel=0 note=61 velocity=0 time=0
note_off channel=0 note=64 velocity=0 time=96
note_on channel=0 note=57 velocity=50 time=96
note_on channel=0 note=45 velocity=50 time=0
note_off channel=0 note=57 velocity=0 time=96
note_off channel=0 note=45 velocity=0 time=0
note_on channel=0 note=61 velocity=50 time=0
note_on channel=0 note=64 velocity=50 time=96
note_off channel=0 note=61 velocity=0 time=0
note_off channel=0 note=64 velocity=0 time=96
note_on channel=0 note=47 velocity=50 time=96
note_on channel=0 note=59 velocity=50 time=0
note_on channel=0 note=64 velocity=50 time=96
note_off channel=0 note=47 velocity=0 time=0
note_off channel=0 note=59 velocity=0 time=0
note_off channel=0 note=64 velocity=0 time=96
note_on channel=0 note=68 velocity=50 time=0
note_off channel=0 note=68 velocity=0 time=96
note_on channel=0 note=59 velocity=50 time=96
note_on channel=0 note=64 velocity=50 time=96
note_off channel=0 note=59 velocity=0 time=0
note_on channel=0 note=68 velocity=50 time=96
note_off channel=0 note=64 velocity=0 time=0
note_off channel=0 note=68 velocity=0 time=96
note_on channel=0 note=68 velocity=50 time=96
note_on channel=0 note=80 velocity=50 time=0
note_on channel=0 note=59 velocity=50 time=0
note_on channel=0 note=64 velocity=50 time=96
note_off channel=0 note=59 velocity=0 time=0
note_off channel=0 note=80 velocity=0 time=0
note_off channel=0 note=68 velocity=0 time=0
note_on channel=0 note=68 velocity=50 time=96
note_off channel=0 note=64 velocity=0 time=0
note_off channel=0 note=68 velocity=0 time=96
note_on channel=0 note=69 velocity=50 time=96
note_on channel=0 note=59 velocity=50 time=0
note_on channel=0 note=81 velocity=50 time=0
note_on channel=0 note=64 velocity=50 time=96
note_off channel=0 note=81 velocity=0 time=0
note_off channel=0 note=59 velocity=0 time=0
note_off channel=0 note=69 velocity=0 time=0
note_off channel=0 note=64 velocity=0 time=96
note_on channel=0 note=68 velocity=50 time=0
note_off channel=0 note=68 velocity=0 time=96
note_on channel=0 note=83 velocity=50 time=96
note_on channel=0 note=59 velocity=50 time=0
note_on channel=0 note=71 velocity=50 time=0
note_off channel=0 note=59 velocity=0 time=96
note_off channel=0 note=83 velocity=0 time=0
note_on channel=0 note=64 velocity=50 time=0
note_off channel=0 note=71 velocity=0 time=0
note_on channel=0 note=68 velocity=50 time=96
note_off channel=0 note=64 velocity=0 time=0
note_off channel=0 note=68 velocity=0 time=96
note_on channel=0 note=59 velocity=50 time=96
note_on channel=0 note=64 velocity=50 time=96
note_off channel=0 note=59 velocity=0 time=0
note_on channel=0 note=68 velocity=50 time=96
note_off channel=0 note=64 velocity=0 time=0
note_off channel=0 note=68 velocity=0 time=96
note_on channel=0 note=84 velocity=50 time=96
note_on channel=0 note=72 velocity=50 time=0
note_on channel=0 note=56 velocity=50 time=0
note_on channel=0 note=63 velocity=50 time=96
note_off channel=0 note=84 velocity=0 time=0
note_off channel=0 note=72 velocity=0 time=0
note_off channel=0 note=56 velocity=0 time=0
note_off channel=0 note=63 velocity=0 time=96
note_on channel=0 note=66 velocity=50 time=0
note_off channel=0 note=66 velocity=0 time=96
note_on channel=0 note=56 velocity=50 time=96
note_on channel=0 note=63 velocity=50 time=96
note_off channel=0 note=56 velocity=0 time=0
note_on channel=0 note=66 velocity=50 time=96
note_off channel=0 note=63 velocity=0 time=0
note_off channel=0 note=66 velocity=0 time=96
note_on channel=0 note=73 velocity=50 time=96
note_on channel=0 note=57 velocity=50 time=0
note_on channel=0 note=85 velocity=50 time=0
note_on channel=0 note=61 velocity=50 time=96
note_off channel=0 note=85 velocity=0 time=0
note_off channel=0 note=57 velocity=0 time=0
note_off channel=0 note=73 velocity=0 time=0
note_on channel=0 note=64 velocity=50 time=96
note_off channel=0 note=61 velocity=0 time=0
note_off channel=0 note=64 velocity=0 time=96
note_on channel=0 note=57 velocity=50 time=96
note_off channel=0 note=57 velocity=0 time=96
note_on channel=0 note=61 velocity=50 time=0
note_on channel=0 note=64 velocity=50 time=96
note_off channel=0 note=61 velocity=0 time=0
note_off channel=0 note=64 velocity=0 time=96
note_on channel=0 note=42 velocity=50 time=96
note_on channel=0 note=57 velocity=50 time=0
note_on channel=0 note=61 velocity=50 time=96
note_off channel=0 note=42 velocity=0 time=0
note_off channel=0 note=57 velocity=0 time=0
note_on channel=0 note=63 velocity=50 time=96
note_off channel=0 note=61 velocity=0 time=0
note_off channel=0 note=63 velocity=0 time=96
note_on channel=0 note=57 velocity=50 time=96
note_on channel=0 note=61 velocity=50 time=96
note_off channel=0 note=57 velocity=0 time=0
note_on channel=0 note=63 velocity=50 time=96
note_off channel=0 note=61 velocity=0 time=0
note_off channel=0 note=63 velocity=0 time=96
note_on channel=0 note=44 velocity=50 time=96
note_on channel=0 note=56 velocity=50 time=0
note_off channel=0 note=44 velocity=0 time=96
note_off channel=0 note=56 velocity=0 time=0
note_on channel=0 note=61 velocity=50 time=0
note_on channel=0 note=64 velocity=50 time=96
note_off channel=0 note=61 velocity=0 time=0
note_off channel=0 note=64 velocity=0 time=96
note_on channel=0 note=56 velocity=50 time=96
note_on channel=0 note=61 velocity=50 time=96
note_off channel=0 note=56 velocity=0 time=0
note_on channel=0 note=64 velocity=50 time=96
note_off channel=0 note=61 velocity=0 time=0
note_off channel=0 note=64 velocity=0 time=96
note_on channel=0 note=45 velocity=50 time=96
note_on channel=0 note=57 velocity=50 time=0
note_off channel=0 note=57 velocity=0 time=96
note_on channel=0 note=64 velocity=50 time=0
note_off channel=0 note=45 velocity=0 time=0
note_on channel=0 note=66 velocity=50 time=96
note_off channel=0 note=64 velocity=0 time=0
note_off channel=0 note=66 velocity=0 time=96
note_on channel=0 note=58 velocity=50 time=96
note_on channel=0 note=46 velocity=50 time=0
note_on channel=0 note=64 velocity=50 time=96
note_off channel=0 note=58 velocity=0 time=0
note_off channel=0 note=46 velocity=0 time=0
note_on channel=0 note=66 velocity=50 time=96
note_off channel=0 note=64 velocity=0 time=0
note_off channel=0 note=66 velocity=0 time=96
note_on channel=0 note=47 velocity=50 time=96
note_on channel=0 note=59 velocity=50 time=0
note_on channel=0 note=64 velocity=50 time=96
note_off channel=0 note=47 velocity=0 time=0
note_off channel=0 note=59 velocity=0 time=0
note_on channel=0 note=68 velocity=50 time=96
note_off channel=0 note=64 velocity=0 time=0
note_off channel=0 note=68 velocity=0 time=96
note_on channel=0 note=59 velocity=50 time=96
note_off channel=0 note=59 velocity=0 time=96
note_on channel=0 note=64 velocity=50 time=0
note_on channel=0 note=68 velocity=50 time=96
note_off channel=0 note=64 velocity=0 time=0
note_off channel=0 note=68 velocity=0 time=96
note_on channel=0 note=95 velocity=50 time=96
note_on channel=0 note=59 velocity=50 time=0
note_on channel=0 note=83 velocity=50 time=0
note_on channel=0 note=64 velocity=50 time=96
note_off channel=0 note=83 velocity=0 time=0
note_off channel=0 note=95 velocity=0 time=0
note_off channel=0 note=59 velocity=0 time=0
note_on channel=0 note=68 velocity=50 time=96
note_off channel=0 note=64 velocity=0 time=0
note_off channel=0 note=68 velocity=0 time=96
note_on channel=0 note=60 velocity=50 time=96
note_on channel=0 note=84 velocity=50 time=0
note_on channel=0 note=84 velocity=50 time=0
note_off channel=0 note=84 velocity=0 time=96
note_off channel=0 note=84 velocity=0 time=0
note_off channel=0 note=60 velocity=0 time=0
note_on channel=0 note=64 velocity=50 time=0
note_on channel=0 note=68 velocity=50 time=96
note_off channel=0 note=64 velocity=0 time=0
note_off channel=0 note=68 velocity=0 time=96
note_on channel=0 note=85 velocity=50 time=96
note_on channel=0 note=85 velocity=50 time=0
note_on channel=0 note=61 velocity=50 time=0
note_off channel=0 note=85 velocity=0 time=96
note_off channel=0 note=61 velocity=0 time=0
note_on channel=0 note=64 velocity=50 time=0
note_off channel=0 note=85 velocity=0 time=0
note_on channel=0 note=68 velocity=50 time=96
note_off channel=0 note=64 velocity=0 time=0
note_off channel=0 note=68 velocity=0 time=96
note_on channel=0 note=61 velocity=50 time=96
note_on channel=0 note=64 velocity=50 time=96
note_off channel=0 note=61 velocity=0 time=0
note_on channel=0 note=68 velocity=50 time=96
note_off channel=0 note=64 velocity=0 time=0
note_off channel=0 note=68 velocity=0 time=96
note_on channel=0 note=45 velocity=50 time=96
note_on channel=0 note=57 velocity=50 time=0
note_on channel=0 note=64 velocity=50 time=96
note_off channel=0 note=45 velocity=0 time=0
note_off channel=0 note=57 velocity=0 time=0
note_on channel=0 note=66 velocity=50 time=96
note_off channel=0 note=64 velocity=0 time=0
note_off channel=0 note=66 velocity=0 time=96
note_on channel=0 note=58 velocity=50 time=96
note_on channel=0 note=46 velocity=50 time=0
note_on channel=0 note=64 velocity=50 time=96
note_off channel=0 note=46 velocity=0 time=0
note_off channel=0 note=58 velocity=0 time=0
note_on channel=0 note=66 velocity=50 time=96
note_off channel=0 note=64 velocity=0 time=0
note_off channel=0 note=66 velocity=0 time=96
note_on channel=0 note=47 velocity=50 time=96
note_on channel=0 note=59 velocity=50 time=0
note_on channel=0 note=64 velocity=50 time=96
note_off channel=0 note=59 velocity=0 time=0
note_off channel=0 note=47 velocity=0 time=0
note_off channel=0 note=64 velocity=0 time=96
note_on channel=0 note=68 velocity=50 time=0
note_off channel=0 note=68 velocity=0 time=96
note_on channel=0 note=59 velocity=50 time=96
note_on channel=0 note=64 velocity=50 time=96
note_off channel=0 note=59 velocity=0 time=0
note_on channel=0 note=68 velocity=50 time=96
note_off channel=0 note=64 velocity=0 time=0
note_off channel=0 note=68 velocity=0 time=96
note_on channel=0 note=59 velocity=50 time=96
note_on channel=0 note=83 velocity=50 time=0
note_on channel=0 note=95 velocity=50 time=0
note_off channel=0 note=59 velocity=0 time=96
note_off channel=0 note=95 velocity=0 time=0
note_on channel=0 note=64 velocity=50 time=0
note_off channel=0 note=83 velocity=0 time=0
note_on channel=0 note=68 velocity=50 time=96
note_off channel=0 note=64 velocity=0 time=0
note_off channel=0 note=68 velocity=0 time=96
note_on channel=0 note=84 velocity=50 time=96
note_on channel=0 note=60 velocity=50 time=0
note_on channel=0 note=84 velocity=50 time=0
note_off channel=0 note=84 velocity=0 time=96
note_off channel=0 note=60 velocity=0 time=0
note_on channel=0 note=64 velocity=50 time=0
note_off channel=0 note=84 velocity=0 time=0
note_on channel=0 note=68 velocity=50 time=96
note_off channel=0 note=64 velocity=0 time=0
note_off channel=0 note=68 velocity=0 time=96
note_on channel=0 note=85 velocity=50 time=96
note_on channel=0 note=85 velocity=50 time=0
note_on channel=0 note=61 velocity=50 time=0
note_on channel=0 note=64 velocity=50 time=96
note_off channel=0 note=85 velocity=0 time=0
note_off channel=0 note=85 velocity=0 time=0
note_off channel=0 note=61 velocity=0 time=0
note_on channel=0 note=68 velocity=50 time=96
note_off channel=0 note=64 velocity=0 time=0
note_off channel=0 note=68 velocity=0 time=96
note_on channel=0 note=61 velocity=50 time=96
note_off channel=0 note=61 velocity=0 time=96
note_on channel=0 note=64 velocity=50 time=0
note_on channel=0 note=68 velocity=50 time=96
note_off channel=0 note=64 velocity=0 time=0
note_off channel=0 note=68 velocity=0 time=96
note_on channel=0 note=42 velocity=50 time=96
note_on channel=0 note=61 velocity=50 time=0
note_on channel=0 note=63 velocity=50 time=96
note_off channel=0 note=42 velocity=0 time=0
note_off channel=0 note=61 velocity=0 time=0
note_on channel=0 note=69 velocity=50 time=96
note_off channel=0 note=63 velocity=0 time=0
note_off channel=0 note=69 velocity=0 time=96
note_on channel=0 note=61 velocity=50 time=96
note_on channel=0 note=43 velocity=50 time=0
note_on channel=0 note=63 velocity=50 time=96
note_off channel=0 note=43 velocity=0 time=0
note_off channel=0 note=61 velocity=0 time=0
note_on channel=0 note=69 velocity=50 time=96
note_off channel=0 note=63 velocity=0 time=0
note_off channel=0 note=69 velocity=0 time=96
note_on channel=0 note=44 velocity=50 time=96
note_on channel=0 note=61 velocity=50 time=0
note_off channel=0 note=44 velocity=0 time=96
note_on channel=0 note=64 velocity=50 time=0
note_off channel=0 note=61 velocity=0 time=0
note_on channel=0 note=68 velocity=50 time=96
note_off channel=0 note=64 velocity=0 time=0
note_off channel=0 note=68 velocity=0 time=96
note_on channel=0 note=61 velocity=50 time=96
note_on channel=0 note=64 velocity=50 time=96
note_off channel=0 note=61 velocity=0 time=0
note_on channel=0 note=68 velocity=50 time=96
note_off channel=0 note=64 velocity=0 time=0
note_off channel=0 note=68 velocity=0 time=96
note_on channel=0 note=61 velocity=50 time=96
note_on channel=0 note=45 velocity=50 time=0
note_on channel=0 note=64 velocity=50 time=96
note_off channel=0 note=61 velocity=0 time=0
note_off channel=0 note=45 velocity=0 time=0
note_on channel=0 note=69 velocity=50 time=96
note_off channel=0 note=64 velocity=0 time=0
note_off channel=0 note=69 velocity=0 time=96
note_on channel=0 note=61 velocity=50 time=96
note_on channel=0 note=64 velocity=50 time=96
note_off channel=0 note=61 velocity=0 time=0
note_on channel=0 note=69 velocity=50 time=96
note_off channel=0 note=64 velocity=0 time=0
note_off channel=0 note=69 velocity=0 time=96
note_on channel=0 note=42 velocity=50 time=96
note_on channel=0 note=61 velocity=50 time=0
note_on channel=0 note=63 velocity=50 time=96
note_off channel=0 note=42 velocity=0 time=0
note_off channel=0 note=61 velocity=0 time=0
note_off channel=0 note=63 velocity=0 time=96
note_on channel=0 note=66 velocity=50 time=0
note_off channel=0 note=66 velocity=0 time=96
note_on channel=0 note=61 velocity=50 time=96
note_on channel=0 note=63 velocity=50 time=96
note_off channel=0 note=61 velocity=0 time=0
note_on channel=0 note=66 velocity=50 time=96
note_off channel=0 note=63 velocity=0 time=0
note_off channel=0 note=66 velocity=0 time=96
note_on channel=0 note=44 velocity=50 time=96
note_on channel=0 note=60 velocity=50 time=0
note_off channel=0 note=44 velocity=0 time=96
note_on channel=0 note=63 velocity=50 time=0
note_off channel=0 note=60 velocity=0 time=0
note_on channel=0 note=68 velocity=50 time=96
note_off channel=0 note=63 velocity=0 time=0
note_off channel=0 note=68 velocity=0 time=96
note_on channel=0 note=60 velocity=50 time=96
note_on channel=0 note=63 velocity=50 time=96
note_off channel=0 note=60 velocity=0 time=0
note_on channel=0 note=68 velocity=50 time=96
note_off channel=0 note=63 velocity=0 time=0
note_off channel=0 note=68 velocity=0 time=96
note_on channel=0 note=37 velocity=50 time=96
note_on channel=0 note=61 velocity=50 time=0
note_on channel=0 note=65 velocity=50 time=96
note_off channel=0 note=37 velocity=0 time=0
note_off channel=0 note=61 velocity=0 time=0
note_on channel=0 note=68 velocity=50 time=96
note_off channel=0 note=65 velocity=0 time=0
note_off channel=0 note=68 velocity=0 time=96
note_on channel=0 note=61 velocity=50 time=96
note_off channel=0 note=61 velocity=0 time=96
note_on channel=0 note=65 velocity=50 time=0
note_on channel=0 note=68 velocity=50 time=96
note_off channel=0 note=65 velocity=0 time=0
note_off channel=0 note=68 velocity=0 time=96
note_on channel=0 note=61 velocity=50 time=96
note_on channel=0 note=84 velocity=50 time=0
note_on channel=0 note=65 velocity=50 time=96
note_off channel=0 note=61 velocity=0 time=0
note_off channel=0 note=84 velocity=0 time=0
note_on channel=0 note=68 velocity=50 time=96
note_off channel=0 note=65 velocity=0 time=0
note_off channel=0 note=68 velocity=0 time=96
note_on channel=0 note=85 velocity=50 time=96
note_on channel=0 note=61 velocity=50 time=0
note_on channel=0 note=65 velocity=50 time=96
note_off channel=0 note=85 velocity=0 time=0
note_off channel=0 note=61 velocity=0 time=0
note_on channel=0 note=68 velocity=50 time=96
note_off channel=0 note=65 velocity=0 time=0
note_off channel=0 note=68 velocity=0 time=96
note_on channel=0 note=61 velocity=50 time=96
note_on channel=0 note=86 velocity=50 time=0
note_on channel=0 note=66 velocity=50 time=96
note_off channel=0 note=61 velocity=0 time=0
note_off channel=0 note=86 velocity=0 time=0
note_on channel=0 note=69 velocity=50 time=96
note_off channel=0 note=66 velocity=0 time=0
note_off channel=0 note=69 velocity=0 time=96
note_on channel=0 note=61 velocity=50 time=96
note_off channel=0 note=61 velocity=0 time=96
note_on channel=0 note=66 velocity=50 time=0
note_on channel=0 note=69 velocity=50 time=96
note_off channel=0 note=66 velocity=0 time=0
note_off channel=0 note=69 velocity=0 time=96
note_on channel=0 note=42 velocity=50 time=96
note_on channel=0 note=61 velocity=50 time=0
note_on channel=0 note=66 velocity=50 time=96
note_off channel=0 note=42 velocity=0 time=0
note_off channel=0 note=61 velocity=0 time=0
note_off channel=0 note=66 velocity=0 time=96
note_on channel=0 note=69 velocity=50 time=0
note_off channel=0 note=69 velocity=0 time=96
note_on channel=0 note=45 velocity=50 time=96
note_on channel=0 note=61 velocity=50 time=0
note_on channel=0 note=66 velocity=50 time=96
note_off channel=0 note=61 velocity=0 time=0
note_off channel=0 note=45 velocity=0 time=0
note_on channel=0 note=69 velocity=50 time=96
note_off channel=0 note=66 velocity=0 time=0
note_off channel=0 note=69 velocity=0 time=96
note_on channel=0 note=61 velocity=50 time=96
note_on channel=0 note=49 velocity=50 time=0
note_off channel=0 note=61 velocity=0 time=96
note_on channel=0 note=65 velocity=50 time=0
note_off channel=0 note=49 velocity=0 time=0
note_on channel=0 note=68 velocity=50 time=96
note_off channel=0 note=65 velocity=0 time=0
note_off channel=0 note=68 velocity=0 time=96
note_on channel=0 note=61 velocity=50 time=96
note_on channel=0 note=65 velocity=50 time=96
note_off channel=0 note=61 velocity=0 time=0
note_on channel=0 note=68 velocity=50 time=96
note_off channel=0 note=65 velocity=0 time=0
note_off channel=0 note=68 velocity=0 time=96
note_on channel=0 note=61 velocity=50 time=96
note_on channel=0 note=84 velocity=50 time=0
note_on channel=0 note=65 velocity=50 time=96
note_off channel=0 note=61 velocity=0 time=0
note_off channel=0 note=84 velocity=0 time=0
note_on channel=0 note=68 velocity=50 time=96
note_off channel=0 note=65 velocity=0 time=0
note_off channel=0 note=68 velocity=0 time=96
note_on channel=0 note=61 velocity=50 time=96
note_on channel=0 note=85 velocity=50 time=0
note_on channel=0 note=65 velocity=50 time=96
note_off channel=0 note=85 velocity=0 time=0
note_off channel=0 note=61 velocity=0 time=0
note_on channel=0 note=68 velocity=50 time=96
note_off channel=0 note=65 velocity=0 time=0
note_off channel=0 note=68 velocity=0 time=96
note_on channel=0 note=61 velocity=50 time=96
note_on channel=0 note=86 velocity=50 time=0
note_on channel=0 note=66 velocity=50 time=96
note_off channel=0 note=86 velocity=0 time=0
note_off channel=0 note=61 velocity=0 time=0
note_on channel=0 note=69 velocity=50 time=96
note_off channel=0 note=66 velocity=0 time=0
note_off channel=0 note=69 velocity=0 time=96
note_on channel=0 note=61 velocity=50 time=96
note_on channel=0 note=66 velocity=50 time=96
note_off channel=0 note=61 velocity=0 time=0
note_on channel=0 note=69 velocity=50 time=96
note_off channel=0 note=66 velocity=0 time=0
note_off channel=0 note=69 velocity=0 time=96
note_on channel=0 note=61 velocity=50 time=96
note_on channel=0 note=42 velocity=50 time=0
note_on channel=0 note=66 velocity=50 time=96
note_off channel=0 note=42 velocity=0 time=0
note_off channel=0 note=61 velocity=0 time=0
note_on channel=0 note=69 velocity=50 time=96
note_off channel=0 note=66 velocity=0 time=0
note_off channel=0 note=69 velocity=0 time=96
note_on channel=0 note=45 velocity=50 time=96
note_on channel=0 note=61 velocity=50 time=0
note_off channel=0 note=45 velocity=0 time=96
note_on channel=0 note=66 velocity=50 time=0
note_off channel=0 note=61 velocity=0 time=0
note_off channel=0 note=66 velocity=0 time=96
note_on channel=0 note=69 velocity=50 time=0
note_off channel=0 note=69 velocity=0 time=96
note_on channel=0 note=49 velocity=50 time=96
note_on channel=0 note=61 velocity=50 time=0
note_on channel=0 note=65 velocity=50 time=96
note_off channel=0 note=49 velocity=0 time=0
note_off channel=0 note=61 velocity=0 time=0
note_on channel=0 note=68 velocity=50 time=96
note_off channel=0 note=65 velocity=0 time=0
note_off channel=0 note=68 velocity=0 time=96
note_on channel=0 note=61 velocity=50 time=96
note_on channel=0 note=65 velocity=50 time=96
note_off channel=0 note=61 velocity=0 time=0
note_on channel=0 note=68 velocity=50 time=96
note_off channel=0 note=65 velocity=0 time=0
note_off channel=0 note=68 velocity=0 time=96
note_on channel=0 note=61 velocity=50 time=96
note_on channel=0 note=78 velocity=50 time=0
note_on channel=0 note=66 velocity=50 time=96
note_off channel=0 note=78 velocity=0 time=0
note_off channel=0 note=61 velocity=0 time=0
note_on channel=0 note=69 velocity=50 time=96
note_off channel=0 note=66 velocity=0 time=0
note_off channel=0 note=69 velocity=0 time=96
note_on channel=0 note=81 velocity=50 time=96
note_on channel=0 note=61 velocity=50 time=0
note_off channel=0 note=61 velocity=0 time=96
note_on channel=0 note=66 velocity=50 time=0
note_off channel=0 note=81 velocity=0 time=0
note_on channel=0 note=69 velocity=50 time=96
note_off channel=0 note=66 velocity=0 time=0
note_off channel=0 note=69 velocity=0 time=96
note_on channel=0 note=85 velocity=50 time=96
note_on channel=0 note=61 velocity=50 time=0
note_on channel=0 note=65 velocity=50 time=96
note_off channel=0 note=85 velocity=0 time=0
note_off channel=0 note=61 velocity=0 time=0
note_off channel=0 note=65 velocity=0 time=96
note_on channel=0 note=68 velocity=50 time=0
note_off channel=0 note=68 velocity=0 time=96
note_on channel=0 note=61 velocity=50 time=96
note_on channel=0 note=65 velocity=50 time=96
note_off channel=0 note=61 velocity=0 time=0
note_on channel=0 note=68 velocity=50 time=96
note_off channel=0 note=65 velocity=0 time=0
note_off channel=0 note=68 velocity=0 time=96
note_on channel=0 note=42 velocity=50 time=96
note_on channel=0 note=61 velocity=50 time=0
note_off channel=0 note=61 velocity=0 time=96
note_on channel=0 note=66 velocity=50 time=0
note_off channel=0 note=42 velocity=0 time=0
note_on channel=0 note=69 velocity=50 time=96
note_off channel=0 note=66 velocity=0 time=0
note_off channel=0 note=69 velocity=0 time=96
note_on channel=0 note=45 velocity=50 time=96
note_off channel=0 note=45 velocity=0 time=96
note_on channel=0 note=49 velocity=50 time=288
note_off channel=0 note=49 velocity=0 time=96
note_on channel=0 note=49 velocity=50 time=672
note_off channel=0 note=49 velocity=0 time=96
note_on channel=0 note=49 velocity=50 time=672
note_off channel=0 note=49 velocity=0 time=96
note_on channel=0 note=49 velocity=50 time=672
note_off channel=0 note=49 velocity=0 time=96
note_on channel=0 note=49 velocity=50 time=672
note_off channel=0 note=49 velocity=0 time=96
note_on channel=0 note=73 velocity=50 time=4896
note_off channel=0 note=73 velocity=0 time=96
note_on channel=0 note=72 velocity=50 time=672
note_off channel=0 note=72 velocity=0 time=96
note_on channel=0 note=71 velocity=50 time=96
note_off channel=0 note=71 velocity=0 time=96
note_on channel=0 note=70 velocity=50 time=96
note_off channel=0 note=70 velocity=0 time=96
note_on channel=0 note=73 velocity=50 time=288
note_on channel=0 note=70 velocity=50 time=0
note_off channel=0 note=73 velocity=0 time=96
note_off channel=0 note=70 velocity=0 time=0
note_on channel=0 note=78 velocity=50 time=672
note_on channel=0 note=73 velocity=50 time=0
note_on channel=0 note=70 velocity=50 time=0
note_off channel=0 note=78 velocity=0 time=96
note_off channel=0 note=70 velocity=0 time=0
note_off channel=0 note=73 velocity=0 time=0
note_on channel=0 note=78 velocity=50 time=288
note_on channel=0 note=73 velocity=50 time=0
note_on channel=0 note=71 velocity=50 time=0
note_off channel=0 note=71 velocity=0 time=96
note_off channel=0 note=78 velocity=0 time=0
note_off channel=0 note=73 velocity=0 time=0
note_on channel=0 note=77 velocity=50 time=288
note_off channel=0 note=77 velocity=0 time=96
note_on channel=0 note=78 velocity=50 time=288
note_on channel=0 note=70 velocity=50 time=0
note_on channel=0 note=73 velocity=50 time=0
note_off channel=0 note=70 velocity=0 time=96
note_off channel=0 note=78 velocity=0 time=0
note_off channel=0 note=73 velocity=0 time=0
note_on channel=0 note=80 velocity=50 time=672
note_on channel=0 note=75 velocity=50 time=0
note_off channel=0 note=80 velocity=0 time=96
note_off channel=0 note=75 velocity=0 time=0
note_on channel=0 note=75 velocity=50 time=480
note_on channel=0 note=80 velocity=50 time=0
note_off channel=0 note=80 velocity=0 time=96
note_off channel=0 note=75 velocity=0 time=0
note_on channel=0 note=82 velocity=50 time=96
note_on channel=0 note=75 velocity=50 time=0
note_off channel=0 note=82 velocity=0 time=96
note_off channel=0 note=75 velocity=0 time=0
note_on channel=0 note=78 velocity=50 time=288
note_on channel=0 note=75 velocity=50 time=0
note_off channel=0 note=75 velocity=0 time=96
note_off channel=0 note=78 velocity=0 time=0
note_on channel=0 note=73 velocity=50 time=288
note_on channel=0 note=78 velocity=50 time=0
note_off channel=0 note=73 velocity=0 time=96
note_off channel=0 note=78 velocity=0 time=0
note_on channel=0 note=77 velocity=50 time=672
note_on channel=0 note=68 velocity=50 time=0
note_off channel=0 note=77 velocity=0 time=96
note_off channel=0 note=68 velocity=0 time=0
note_on channel=0 note=71 velocity=50 time=96
note_on channel=0 note=75 velocity=50 time=0
note_off channel=0 note=75 velocity=0 time=96
note_off channel=0 note=71 velocity=0 time=0
note_on channel=0 note=73 velocity=50 time=96
note_on channel=0 note=70 velocity=50 time=0
note_off channel=0 note=73 velocity=0 time=96
note_off channel=0 note=70 velocity=0 time=0
note_on channel=0 note=68 velocity=50 time=96
note_on channel=0 note=71 velocity=50 time=0
note_off channel=0 note=68 velocity=0 time=96
note_off channel=0 note=71 velocity=0 time=0
note_on channel=0 note=70 velocity=50 time=96
note_off channel=0 note=70 velocity=0 time=96
note_on channel=0 note=70 velocity=50 time=288
note_on channel=0 note=73 velocity=50 time=0
note_off channel=0 note=70 velocity=0 time=96
note_off channel=0 note=73 velocity=0 time=0
note_on channel=0 note=73 velocity=50 time=672
note_on channel=0 note=70 velocity=50 time=0
note_on channel=0 note=78 velocity=50 time=0
note_off channel=0 note=70 velocity=0 time=96
note_off channel=0 note=78 velocity=0 time=0
note_off channel=0 note=73 velocity=0 time=0
note_on channel=0 note=78 velocity=50 time=288
note_on channel=0 note=73 velocity=50 time=0
note_on channel=0 note=71 velocity=50 time=0
note_off channel=0 note=71 velocity=0 time=96
note_off channel=0 note=78 velocity=0 time=0
note_off channel=0 note=73 velocity=0 time=0
note_on channel=0 note=77 velocity=50 time=288
note_off channel=0 note=77 velocity=0 time=96
note_on channel=0 note=78 velocity=50 time=288
note_on channel=0 note=73 velocity=50 time=0
note_on channel=0 note=70 velocity=50 time=0
note_off channel=0 note=73 velocity=0 time=96
note_off channel=0 note=78 velocity=0 time=0
note_off channel=0 note=70 velocity=0 time=0
note_on channel=0 note=74 velocity=50 time=672
note_on channel=0 note=80 velocity=50 time=0
note_off channel=0 note=74 velocity=0 time=96
note_off channel=0 note=80 velocity=0 time=0
note_on channel=0 note=74 velocity=50 time=480
note_on channel=0 note=80 velocity=50 time=0
note_off channel=0 note=80 velocity=0 time=96
note_off channel=0 note=74 velocity=0 time=0
note_on channel=0 note=74 velocity=50 time=96
note_on channel=0 note=81 velocity=50 time=0
note_off channel=0 note=74 velocity=0 time=96
note_off channel=0 note=81 velocity=0 time=0
note_on channel=0 note=78 velocity=50 time=288
note_on channel=0 note=74 velocity=50 time=0
note_off channel=0 note=78 velocity=0 time=96
note_off channel=0 note=74 velocity=0 time=0
note_on channel=0 note=73 velocity=50 time=288
note_on channel=0 note=78 velocity=50 time=0
note_off channel=0 note=78 velocity=0 time=96
note_off channel=0 note=73 velocity=0 time=0
note_on channel=0 note=73 velocity=50 time=480
note_on channel=0 note=78 velocity=50 time=0
note_off channel=0 note=73 velocity=0 time=96
note_off channel=0 note=78 velocity=0 time=0
note_on channel=0 note=81 velocity=50 time=96
note_on channel=0 note=72 velocity=50 time=0
note_off channel=0 note=81 velocity=0 time=96
note_off channel=0 note=72 velocity=0 time=0
note_on channel=0 note=72 velocity=50 time=288
note_on channel=0 note=78 velocity=50 time=0
note_off channel=0 note=72 velocity=0 time=96
note_off channel=0 note=78 velocity=0 time=0
note_on channel=0 note=81 velocity=50 time=288
note_on channel=0 note=76 velocity=50 time=0
note_off channel=0 note=81 velocity=0 time=96
note_off channel=0 note=76 velocity=0 time=0
note_on channel=0 note=76 velocity=50 time=480
note_on channel=0 note=81 velocity=50 time=0
note_off channel=0 note=81 velocity=0 time=96
note_off channel=0 note=76 velocity=0 time=0
note_on channel=0 note=81 velocity=50 time=96
note_on channel=0 note=85 velocity=50 time=0
note_off channel=0 note=81 velocity=0 time=96
note_off channel=0 note=85 velocity=0 time=0
note_on channel=0 note=80 velocity=50 time=288
note_on channel=0 note=83 velocity=50 time=0
note_off channel=0 note=80 velocity=0 time=96
note_off channel=0 note=83 velocity=0 time=0
note_on channel=0 note=73 velocity=50 time=288
note_off channel=0 note=73 velocity=0 time=96
note_on channel=0 note=76 velocity=50 time=288
note_on channel=0 note=73 velocity=50 time=0
note_off channel=0 note=73 velocity=0 time=96
note_off channel=0 note=76 velocity=0 time=0
note_on channel=0 note=76 velocity=50 time=672
note_on channel=0 note=81 velocity=50 time=0
note_on channel=0 note=73 velocity=50 time=0
note_off channel=0 note=76 velocity=0 time=96
note_off channel=0 note=81 velocity=0 time=0
note_off channel=0 note=73 velocity=0 time=0
note_on channel=0 note=74 velocity=50 time=288
note_on channel=0 note=76 velocity=50 time=0
note_on channel=0 note=81 velocity=50 time=0
note_off channel=0 note=81 velocity=0 time=96
note_off channel=0 note=76 velocity=0 time=0
note_off channel=0 note=74 velocity=0 time=0
note_on channel=0 note=80 velocity=50 time=288
note_off channel=0 note=80 velocity=0 time=96
note_on channel=0 note=81 velocity=50 time=288
note_on channel=0 note=76 velocity=50 time=0
note_on channel=0 note=73 velocity=50 time=0
note_off channel=0 note=76 velocity=0 time=96
note_off channel=0 note=81 velocity=0 time=0
note_off channel=0 note=73 velocity=0 time=0
note_on channel=0 note=78 velocity=50 time=672
note_on channel=0 note=83 velocity=50 time=0
note_off channel=0 note=78 velocity=0 time=96
note_off channel=0 note=83 velocity=0 time=0
note_on channel=0 note=78 velocity=50 time=480
note_on channel=0 note=83 velocity=50 time=0
note_off channel=0 note=78 velocity=0 time=96
note_off channel=0 note=83 velocity=0 time=0
note_on channel=0 note=85 velocity=50 time=96
note_on channel=0 note=78 velocity=50 time=0
note_off channel=0 note=78 velocity=0 time=96
note_off channel=0 note=85 velocity=0 time=0
note_on channel=0 note=73 velocity=50 time=288
note_on channel=0 note=81 velocity=50 time=0
note_off channel=0 note=73 velocity=0 time=96
note_off channel=0 note=81 velocity=0 time=0
note_on channel=0 note=81 velocity=50 time=288
note_on channel=0 note=76 velocity=50 time=0
note_off channel=0 note=76 velocity=0 time=96
note_off channel=0 note=81 velocity=0 time=0
note_on channel=0 note=80 velocity=50 time=672
note_on channel=0 note=71 velocity=50 time=0
note_off channel=0 note=80 velocity=0 time=96
note_off channel=0 note=71 velocity=0 time=0
note_on channel=0 note=78 velocity=50 time=96
note_on channel=0 note=74 velocity=50 time=0
note_off channel=0 note=74 velocity=0 time=96
note_off channel=0 note=78 velocity=0 time=0
note_on channel=0 note=73 velocity=50 time=96
note_on channel=0 note=76 velocity=50 time=0
note_off channel=0 note=73 velocity=0 time=96
note_off channel=0 note=76 velocity=0 time=0
note_on channel=0 note=74 velocity=50 time=96
note_on channel=0 note=71 velocity=50 time=0
note_off channel=0 note=74 velocity=0 time=96
note_off channel=0 note=71 velocity=0 time=0
note_on channel=0 note=73 velocity=50 time=96
note_off channel=0 note=73 velocity=0 time=96
note_on channel=0 note=76 velocity=50 time=288
note_on channel=0 note=73 velocity=50 time=0
note_off channel=0 note=73 velocity=0 time=96
note_off channel=0 note=76 velocity=0 time=0
note_on channel=0 note=81 velocity=50 time=672
note_on channel=0 note=73 velocity=50 time=0
note_on channel=0 note=76 velocity=50 time=0
note_off channel=0 note=81 velocity=0 time=96
note_off channel=0 note=73 velocity=0 time=0
note_off channel=0 note=76 velocity=0 time=0
note_on channel=0 note=76 velocity=50 time=288
note_on channel=0 note=81 velocity=50 time=0
note_on channel=0 note=74 velocity=50 time=0
note_off channel=0 note=81 velocity=0 time=96
note_off channel=0 note=76 velocity=0 time=0
note_off channel=0 note=74 velocity=0 time=0
note_on channel=0 note=80 velocity=50 time=288
note_off channel=0 note=80 velocity=0 time=96
note_on channel=0 note=81 velocity=50 time=288
note_on channel=0 note=76 velocity=50 time=0
note_on channel=0 note=73 velocity=50 time=0
note_off channel=0 note=76 velocity=0 time=96
note_off channel=0 note=81 velocity=0 time=0
note_off channel=0 note=73 velocity=0 time=0
note_on channel=0 note=83 velocity=50 time=672
note_on channel=0 note=78 velocity=50 time=0
note_off channel=0 note=83 velocity=0 time=96
note_off channel=0 note=78 velocity=0 time=0
note_on channel=0 note=85 velocity=50 time=288
note_on channel=0 note=76 velocity=50 time=0
note_on channel=0 note=64 velocity=50 time=0
note_off channel=0 note=85 velocity=0 time=96
note_off channel=0 note=76 velocity=0 time=0
note_off channel=0 note=64 velocity=0 time=0
note_on channel=0 note=74 velocity=50 time=96
note_on channel=0 note=66 velocity=50 time=0
note_on channel=0 note=86 velocity=50 time=0
note_off channel=0 note=74 velocity=0 time=96
note_off channel=0 note=66 velocity=0 time=0
note_off channel=0 note=86 velocity=0 time=0
note_on channel=0 note=85 velocity=50 time=96
note_on channel=0 note=76 velocity=50 time=0
note_on channel=0 note=64 velocity=50 time=0
note_off channel=0 note=76 velocity=0 time=96
note_off channel=0 note=64 velocity=0 time=0
note_off channel=0 note=85 velocity=0 time=0
note_on channel=0 note=83 velocity=50 time=288
note_on channel=0 note=76 velocity=50 time=0
note_on channel=0 note=74 velocity=50 time=0
note_off channel=0 note=83 velocity=0 time=96
note_off channel=0 note=76 velocity=0 time=0
note_off channel=0 note=74 velocity=0 time=0
note_on channel=0 note=57 velocity=50 time=288
note_on channel=0 note=83 velocity=50 time=0
note_on channel=0 note=76 velocity=50 time=0
note_on channel=0 note=74 velocity=50 time=0
note_off channel=0 note=83 velocity=0 time=96
note_off channel=0 note=76 velocity=0 time=0
note_off channel=0 note=74 velocity=0 time=0
note_off channel=0 note=57 velocity=0 time=0
note_on channel=0 note=81 velocity=50 time=672
note_on channel=0 note=73 velocity=50 time=0
note_off channel=0 note=81 velocity=0 time=96
note_off channel=0 note=73 velocity=0 time=0
note_on channel=0 note=83 velocity=50 time=96
note_on channel=0 note=71 velocity=50 time=0
note_off channel=0 note=83 velocity=0 time=96
note_off channel=0 note=71 velocity=0 time=0
note_on channel=0 note=73 velocity=50 time=96
note_on channel=0 note=85 velocity=50 time=0
note_off channel=0 note=73 velocity=0 time=96
note_off channel=0 note=85 velocity=0 time=0
note_on channel=0 note=86 velocity=50 time=96
note_on channel=0 note=74 velocity=50 time=0
note_off channel=0 note=74 velocity=0 time=96
note_off channel=0 note=86 velocity=0 time=0
note_on channel=0 note=88 velocity=50 time=96
note_on channel=0 note=76 velocity=50 time=0
note_off channel=0 note=88 velocity=0 time=96
note_off channel=0 note=76 velocity=0 time=0
note_on channel=0 note=76 velocity=50 time=480
note_on channel=0 note=88 velocity=50 time=0
note_off channel=0 note=76 velocity=0 time=96
note_off channel=0 note=88 velocity=0 time=0
note_on channel=0 note=90 velocity=50 time=96
note_on channel=0 note=78 velocity=50 time=0
note_off channel=0 note=90 velocity=0 time=96
note_off channel=0 note=78 velocity=0 time=0
note_on channel=0 note=88 velocity=50 time=672
note_on channel=0 note=76 velocity=50 time=0
note_off channel=0 note=76 velocity=0 time=96
note_off channel=0 note=88 velocity=0 time=0
note_on channel=0 note=87 velocity=50 time=288
note_on channel=0 note=75 velocity=50 time=0
note_off channel=0 note=87 velocity=0 time=96
note_off channel=0 note=75 velocity=0 time=0
note_on channel=0 note=83 velocity=50 time=288
note_on channel=0 note=71 velocity=50 time=0
note_off channel=0 note=83 velocity=0 time=96
note_off channel=0 note=71 velocity=0 time=0
note_on channel=0 note=73 velocity=50 time=480
note_on channel=0 note=85 velocity=50 time=0
note_off channel=0 note=85 velocity=0 time=96
note_off channel=0 note=73 velocity=0 time=0
note_on channel=0 note=86 velocity=50 time=96
note_on channel=0 note=74 velocity=50 time=0
note_off channel=0 note=86 velocity=0 time=96
note_off channel=0 note=74 velocity=0 time=0
note_on channel=0 note=86 velocity=50 time=480
note_on channel=0 note=74 velocity=50 time=0
note_off channel=0 note=86 velocity=0 time=96
note_off channel=0 note=74 velocity=0 time=0
note_on channel=0 note=76 velocity=50 time=96
note_on channel=0 note=88 velocity=50 time=0
note_off channel=0 note=88 velocity=0 time=96
note_off channel=0 note=76 velocity=0 time=0
note_on channel=0 note=81 velocity=50 time=672
note_on channel=0 note=69 velocity=50 time=0
note_off channel=0 note=81 velocity=0 time=96
note_off channel=0 note=69 velocity=0 time=0
note_on channel=0 note=83 velocity=50 time=480
note_on channel=0 note=71 velocity=50 time=0
note_off channel=0 note=71 velocity=0 time=96
note_off channel=0 note=83 velocity=0 time=0
note_on channel=0 note=85 velocity=50 time=96
note_on channel=0 note=73 velocity=50 time=0
note_off channel=0 note=85 velocity=0 time=96
note_off channel=0 note=73 velocity=0 time=0
note_on channel=0 note=83 velocity=50 time=672
note_on channel=0 note=71 velocity=50 time=0
note_off channel=0 note=83 velocity=0 time=96
note_off channel=0 note=71 velocity=0 time=0
note_on channel=0 note=83 velocity=50 time=288
note_on channel=0 note=71 velocity=50 time=0
note_off channel=0 note=71 velocity=0 time=96
note_off channel=0 note=83 velocity=0 time=0
note_on channel=0 note=83 velocity=50 time=288
note_on channel=0 note=71 velocity=50 time=0
note_off channel=0 note=83 velocity=0 time=96
note_off channel=0 note=71 velocity=0 time=0
note_on channel=0 note=74 velocity=50 time=288
note_on channel=0 note=86 velocity=50 time=0
note_off channel=0 note=74 velocity=0 time=96
note_off channel=0 note=86 velocity=0 time=0
note_on channel=0 note=73 velocity=50 time=192
note_on channel=0 note=85 velocity=50 time=0
note_on channel=0 note=85 velocity=50 time=96
note_on channel=0 note=73 velocity=50 time=0
note_off channel=0 note=85 velocity=0 time=0
note_off channel=0 note=73 velocity=0 time=0
note_off channel=0 note=85 velocity=0 time=96
note_off channel=0 note=73 velocity=0 time=0
note_on channel=0 note=88 velocity=50 time=672
note_on channel=0 note=76 velocity=50 time=0
note_off channel=0 note=76 velocity=0 time=96
note_off channel=0 note=88 velocity=0 time=0
note_on channel=0 note=86 velocity=50 time=480
note_on channel=0 note=85 velocity=50 time=96
note_off channel=0 note=86 velocity=0 time=0
note_on channel=0 note=83 velocity=50 time=96
note_on channel=0 note=71 velocity=50 time=0
note_off channel=0 note=85 velocity=0 time=0
note_off channel=0 note=83 velocity=0 time=96
note_off channel=0 note=71 velocity=0 time=0
note_on channel=0 note=71 velocity=50 time=288
note_on channel=0 note=83 velocity=50 time=0
note_off channel=0 note=83 velocity=0 time=96
note_off channel=0 note=71 velocity=0 time=0
note_on channel=0 note=71 velocity=50 time=288
note_on channel=0 note=83 velocity=50 time=0
note_off channel=0 note=71 velocity=0 time=96
note_off channel=0 note=83 velocity=0 time=0
note_on channel=0 note=74 velocity=50 time=288
note_on channel=0 note=86 velocity=50 time=0
note_off channel=0 note=74 velocity=0 time=96
note_off channel=0 note=86 velocity=0 time=0
note_on channel=0 note=73 velocity=50 time=192
note_on channel=0 note=85 velocity=50 time=0
note_on channel=0 note=81 velocity=50 time=96
note_off channel=0 note=85 velocity=0 time=0
note_off channel=0 note=73 velocity=0 time=0
note_off channel=0 note=81 velocity=0 time=96
note_on channel=0 note=69 velocity=50 time=1440
note_off channel=0 note=69 velocity=0 time=96
note_on channel=0 note=71 velocity=50 time=96
note_off channel=0 note=71 velocity=0 time=96
note_on channel=0 note=73 velocity=50 time=96
note_off channel=0 note=73 velocity=0 time=96
note_on channel=0 note=74 velocity=50 time=96
note_off channel=0 note=74 velocity=0 time=96
note_on channel=0 note=76 velocity=50 time=96
note_on channel=0 note=75 velocity=50 time=96
note_off channel=0 note=76 velocity=0 time=0
note_on channel=0 note=76 velocity=50 time=96
note_off channel=0 note=75 velocity=0 time=0
note_off channel=0 note=76 velocity=0 time=96
note_on channel=0 note=78 velocity=50 time=96
note_off channel=0 note=78 velocity=0 time=96
note_on channel=0 note=85 velocity=50 time=0
note_on channel=0 note=77 velocity=50 time=96
note_off channel=0 note=85 velocity=0 time=0
note_off channel=0 note=77 velocity=0 time=96
note_on channel=0 note=78 velocity=50 time=96
note_on channel=0 note=77 velocity=50 time=96
note_off channel=0 note=78 velocity=0 time=0
note_on channel=0 note=78 velocity=50 time=96
note_off channel=0 note=77 velocity=0 time=0
note_off channel=0 note=78 velocity=0 time=96
note_on channel=0 note=79 velocity=50 time=96
note_on channel=0 note=80 velocity=50 time=96
note_off channel=0 note=79 velocity=0 time=0
note_on channel=0 note=82 velocity=50 time=96
note_off channel=0 note=80 velocity=0 time=0
note_off channel=0 note=82 velocity=0 time=96
note_on channel=0 note=83 velocity=50 time=96
note_off channel=0 note=83 velocity=0 time=96
note_on channel=0 note=74 velocity=50 time=864
note_off channel=0 note=74 velocity=0 time=96
note_on channel=0 note=76 velocity=50 time=96
note_off channel=0 note=76 velocity=0 time=96
note_on channel=0 note=78 velocity=50 time=96
note_off channel=0 note=78 velocity=0 time=96
note_on channel=0 note=76 velocity=50 time=96
note_on channel=0 note=80 velocity=50 time=96
note_off channel=0 note=76 velocity=0 time=0
note_on channel=0 note=81 velocity=50 time=96
note_off channel=0 note=80 velocity=0 time=0
note_off channel=0 note=81 velocity=0 time=96
note_on channel=0 note=83 velocity=50 time=96
note_on channel=0 note=80 velocity=50 time=96
note_off channel=0 note=83 velocity=0 time=0
note_on channel=0 note=74 velocity=50 time=96
note_off channel=0 note=80 velocity=0 time=0
note_off channel=0 note=74 velocity=0 time=96
note_on channel=0 note=73 velocity=50 time=96
note_on channel=0 note=71 velocity=50 time=96
note_off channel=0 note=73 velocity=0 time=0
note_on channel=0 note=73 velocity=50 time=96
note_off channel=0 note=71 velocity=0 time=0
note_off channel=0 note=73 velocity=0 time=96
note_on channel=0 note=74 velocity=50 time=96
note_on channel=0 note=73 velocity=50 time=96
note_off channel=0 note=74 velocity=0 time=0
note_on channel=0 note=74 velocity=50 time=96
note_off channel=0 note=73 velocity=0 time=0
note_off channel=0 note=74 velocity=0 time=96
note_on channel=0 note=76 velocity=50 time=96
note_on channel=0 note=78 velocity=50 time=96
note_off channel=0 note=76 velocity=0 time=0
note_off channel=0 note=78 velocity=0 time=96
note_on channel=0 note=80 velocity=50 time=0
note_off channel=0 note=80 velocity=0 time=96
note_on channel=0 note=81 velocity=50 time=96
note_on channel=0 note=76 velocity=50 time=96
note_off channel=0 note=81 velocity=0 time=0
note_on channel=0 note=73 velocity=50 time=96
note_off channel=0 note=76 velocity=0 time=0
note_off channel=0 note=73 velocity=0 time=96
note_on channel=0 note=78 velocity=50 time=96
note_on channel=0 note=71 velocity=50 time=96
note_off channel=0 note=78 velocity=0 time=0
note_on channel=0 note=78 velocity=50 time=96
note_off channel=0 note=71 velocity=0 time=0
note_off channel=0 note=78 velocity=0 time=96
note_on channel=0 note=81 velocity=50 time=96
note_on channel=0 note=71 velocity=50 time=96
note_off channel=0 note=81 velocity=0 time=0
note_on channel=0 note=81 velocity=50 time=96
note_off channel=0 note=71 velocity=0 time=0
note_off channel=0 note=81 velocity=0 time=96
note_on channel=0 note=80 velocity=50 time=96
note_off channel=0 note=80 velocity=0 time=96
note_on channel=0 note=71 velocity=50 time=0
note_off channel=0 note=71 velocity=0 time=96
note_on channel=0 note=80 velocity=50 time=0
note_off channel=0 note=80 velocity=0 time=96
note_on channel=0 note=83 velocity=50 time=96
note_on channel=0 note=80 velocity=50 time=96
note_off channel=0 note=83 velocity=0 time=0
note_on channel=0 note=83 velocity=50 time=96
note_off channel=0 note=80 velocity=0 time=0
note_off channel=0 note=83 velocity=0 time=96
note_on channel=0 note=81 velocity=50 time=96
note_on channel=0 note=83 velocity=50 time=96
note_off channel=0 note=81 velocity=0 time=0
note_on channel=0 note=80 velocity=50 time=96
note_off channel=0 note=83 velocity=0 time=0
note_off channel=0 note=80 velocity=0 time=96
note_on channel=0 note=81 velocity=50 time=96
note_on channel=0 note=83 velocity=50 time=96
note_off channel=0 note=81 velocity=0 time=0
note_on channel=0 note=84 velocity=50 time=96
note_off channel=0 note=83 velocity=0 time=0
note_off channel=0 note=84 velocity=0 time=96
note_on channel=0 note=85 velocity=50 time=96
note_on channel=0 note=86 velocity=50 time=96
note_off channel=0 note=85 velocity=0 time=0
note_on channel=0 note=88 velocity=50 time=96
note_off channel=0 note=86 velocity=0 time=0
note_off channel=0 note=88 velocity=0 time=96
note_on channel=0 note=90 velocity=50 time=96
note_on channel=0 note=92 velocity=50 time=96
note_off channel=0 note=90 velocity=0 time=0
note_off channel=0 note=92 velocity=0 time=96
note_on channel=0 note=93 velocity=50 time=0
note_off channel=0 note=93 velocity=0 time=96
note_on channel=0 note=78 velocity=50 time=96
note_on channel=0 note=71 velocity=50 time=96
note_off channel=0 note=78 velocity=0 time=0
note_on channel=0 note=78 velocity=50 time=96
note_off channel=0 note=71 velocity=0 time=0
note_off channel=0 note=78 velocity=0 time=96
note_on channel=0 note=81 velocity=50 time=96
note_off channel=0 note=81 velocity=0 time=96
note_on channel=0 note=71 velocity=50 time=0
note_off channel=0 note=71 velocity=0 time=96
note_on channel=0 note=81 velocity=50 time=0
note_off channel=0 note=81 velocity=0 time=96
note_on channel=0 note=80 velocity=50 time=96
note_on channel=0 note=71 velocity=50 time=96
note_off channel=0 note=80 velocity=0 time=0
note_on channel=0 note=80 velocity=50 time=96
note_off channel=0 note=71 velocity=0 time=0
note_off channel=0 note=80 velocity=0 time=96
note_on channel=0 note=83 velocity=50 time=96
note_on channel=0 note=80 velocity=50 time=96
note_off channel=0 note=83 velocity=0 time=0
note_on channel=0 note=88 velocity=50 time=96
note_off channel=0 note=80 velocity=0 time=0
note_off channel=0 note=88 velocity=0 time=96
note_on channel=0 note=85 velocity=50 time=96
note_on channel=0 note=80 velocity=50 time=96
note_off channel=0 note=85 velocity=0 time=0
note_on channel=0 note=92 velocity=50 time=96
note_off channel=0 note=80 velocity=0 time=0
note_off channel=0 note=92 velocity=0 time=96
note_on channel=0 note=89 velocity=50 time=96
note_on channel=0 note=85 velocity=50 time=96
note_off channel=0 note=89 velocity=0 time=0
note_on channel=0 note=85 velocity=50 time=96
note_off channel=0 note=85 velocity=0 time=0
note_off channel=0 note=85 velocity=0 time=96
note_on channel=0 note=92 velocity=50 time=96
note_on channel=0 note=89 velocity=50 time=96
note_off channel=0 note=92 velocity=0 time=0
note_off channel=0 note=89 velocity=0 time=96
note_on channel=0 note=85 velocity=50 time=0
note_off channel=0 note=85 velocity=0 time=96
note_on channel=0 note=73 velocity=50 time=96
note_on channel=0 note=85 velocity=50 time=96
note_off channel=0 note=73 velocity=0 time=0
note_on channel=0 note=73 velocity=50 time=96
note_off channel=0 note=85 velocity=0 time=0
note_off channel=0 note=73 velocity=0 time=96
note_on channel=0 note=81 velocity=50 time=96
note_off channel=0 note=81 velocity=0 time=96
note_on channel=0 note=78 velocity=50 time=0
note_off channel=0 note=78 velocity=0 time=96
note_on channel=0 note=86 velocity=50 time=0
note_off channel=0 note=86 velocity=0 time=96
note_on channel=0 note=81 velocity=50 time=96
note_on channel=0 note=78 velocity=50 time=96
note_off channel=0 note=81 velocity=0 time=0
note_on channel=0 note=90 velocity=50 time=96
note_off channel=0 note=78 velocity=0 time=0
note_off channel=0 note=90 velocity=0 time=96
note_on channel=0 note=86 velocity=50 time=96
note_on channel=0 note=81 velocity=50 time=96
note_off channel=0 note=86 velocity=0 time=0
note_on channel=0 note=93 velocity=50 time=96
note_off channel=0 note=81 velocity=0 time=0
note_off channel=0 note=93 velocity=0 time=96
note_on channel=0 note=78 velocity=50 time=96
note_on channel=0 note=80 velocity=50 time=96
note_off channel=0 note=78 velocity=0 time=0
note_on channel=0 note=81 velocity=50 time=96
note_off channel=0 note=80 velocity=0 time=0
note_off channel=0 note=81 velocity=0 time=96
note_on channel=0 note=83 velocity=50 time=96
note_on channel=0 note=76 velocity=50 time=96
note_off channel=0 note=83 velocity=0 time=0
note_on channel=0 note=88 velocity=50 time=96
note_off channel=0 note=76 velocity=0 time=0
note_off channel=0 note=88 velocity=0 time=96
note_on channel=0 note=83 velocity=50 time=96
note_on channel=0 note=80 velocity=50 time=96
note_off channel=0 note=83 velocity=0 time=0
note_off channel=0 note=80 velocity=0 time=96
note_on channel=0 note=92 velocity=50 time=0
note_off channel=0 note=92 velocity=0 time=96
note_on channel=0 note=88 velocity=50 time=96
note_on channel=0 note=83 velocity=50 time=96
note_off channel=0 note=88 velocity=0 time=0
note_on channel=0 note=95 velocity=50 time=96
note_off channel=0 note=83 velocity=0 time=0
note_off channel=0 note=95 velocity=0 time=96
note_on channel=0 note=92 velocity=50 time=96
note_off channel=0 note=92 velocity=0 time=96
note_on channel=0 note=88 velocity=50 time=0
note_off channel=0 note=88 velocity=0 time=96
note_on channel=0 note=88 velocity=50 time=0
note_off channel=0 note=88 velocity=0 time=96
note_on channel=0 note=81 velocity=50 time=96
note_on channel=0 note=69 velocity=50 time=96
note_off channel=0 note=81 velocity=0 time=0
note_on channel=0 note=81 velocity=50 time=96
note_off channel=0 note=69 velocity=0 time=0
note_off channel=0 note=81 velocity=0 time=96
note_on channel=0 note=85 velocity=50 time=96
note_on channel=0 note=73 velocity=50 time=96
note_off channel=0 note=85 velocity=0 time=0
note_on channel=0 note=85 velocity=50 time=96
note_off channel=0 note=73 velocity=0 time=0
note_off channel=0 note=85 velocity=0 time=96
note_on channel=0 note=88 velocity=50 time=96
note_on channel=0 note=76 velocity=50 time=96
note_off channel=0 note=88 velocity=0 time=0
note_on channel=0 note=88 velocity=50 time=96
note_off channel=0 note=76 velocity=0 time=0
note_off channel=0 note=88 velocity=0 time=96
note_on channel=0 note=93 velocity=50 time=96
note_on channel=0 note=81 velocity=50 time=96
note_off channel=0 note=93 velocity=0 time=0
note_on channel=0 note=93 velocity=50 time=96
note_off channel=0 note=81 velocity=0 time=0
note_off channel=0 note=93 velocity=0 time=96
note_on channel=0 note=81 velocity=50 time=96
note_on channel=0 note=93 velocity=50 time=96
note_off channel=0 note=81 velocity=0 time=0
note_on channel=0 note=90 velocity=50 time=96
note_off channel=0 note=93 velocity=0 time=0
note_off channel=0 note=90 velocity=0 time=96
note_on channel=0 note=86 velocity=50 time=96
note_on channel=0 note=81 velocity=50 time=96
note_off channel=0 note=86 velocity=0 time=0
note_on channel=0 note=77 velocity=50 time=96
note_off channel=0 note=81 velocity=0 time=0
note_off channel=0 note=77 velocity=0 time=96
note_on channel=0 note=78 velocity=50 time=96
note_on channel=0 note=80 velocity=50 time=96
note_off channel=0 note=78 velocity=0 time=0
note_on channel=0 note=81 velocity=50 time=96
note_off channel=0 note=80 velocity=0 time=0
note_off channel=0 note=81 velocity=0 time=96
note_on channel=0 note=83 velocity=50 time=96
note_on channel=0 note=85 velocity=50 time=96
note_off channel=0 note=83 velocity=0 time=0
note_on channel=0 note=86 velocity=50 time=96
note_off channel=0 note=85 velocity=0 time=0
note_off channel=0 note=86 velocity=0 time=96
note_on channel=0 note=88 velocity=50 time=96
note_off channel=0 note=88 velocity=0 time=96
note_on channel=0 note=85 velocity=50 time=0
note_on channel=0 note=81 velocity=50 time=96
note_off channel=0 note=85 velocity=0 time=0
note_off channel=0 note=81 velocity=0 time=96
note_on channel=0 note=76 velocity=50 time=96
note_on channel=0 note=73 velocity=50 time=96
note_off channel=0 note=76 velocity=0 time=0
note_on channel=0 note=76 velocity=50 time=96
note_off channel=0 note=73 velocity=0 time=0
note_off channel=0 note=76 velocity=0 time=96
note_on channel=0 note=85 velocity=50 time=96
note_on channel=0 note=76 velocity=50 time=96
note_off channel=0 note=85 velocity=0 time=0
note_on channel=0 note=81 velocity=50 time=96
note_off channel=0 note=76 velocity=0 time=0
note_off channel=0 note=81 velocity=0 time=96
note_on channel=0 note=83 velocity=50 time=96
note_on channel=0 note=76 velocity=50 time=96
note_off channel=0 note=83 velocity=0 time=0
note_on channel=0 note=80 velocity=50 time=96
note_off channel=0 note=76 velocity=0 time=0
note_off channel=0 note=80 velocity=0 time=96
note_on channel=0 note=69 velocity=50 time=96
note_on channel=0 note=83 velocity=50 time=96
note_off channel=0 note=69 velocity=0 time=0
note_on channel=0 note=81 velocity=50 time=96
note_off channel=0 note=83 velocity=0 time=0
note_off channel=0 note=81 velocity=0 time=96
note_on channel=0 note=73 velocity=50 time=96
note_on channel=0 note=86 velocity=50 time=96
note_off channel=0 note=73 velocity=0 time=0
note_on channel=0 note=85 velocity=50 time=96
note_off channel=0 note=86 velocity=0 time=0
note_off channel=0 note=85 velocity=0 time=96
note_on channel=0 note=76 velocity=50 time=96
note_on channel=0 note=90 velocity=50 time=96
note_off channel=0 note=76 velocity=0 time=0
note_on channel=0 note=88 velocity=50 time=96
note_off channel=0 note=90 velocity=0 time=0
note_off channel=0 note=88 velocity=0 time=96
note_on channel=0 note=81 velocity=50 time=96
note_on channel=0 note=95 velocity=50 time=96
note_off channel=0 note=81 velocity=0 time=0
note_on channel=0 note=93 velocity=50 time=96
note_off channel=0 note=95 velocity=0 time=0
note_off channel=0 note=93 velocity=0 time=96
note_on channel=0 note=81 velocity=50 time=96
note_off channel=0 note=81 velocity=0 time=96
note_on channel=0 note=93 velocity=50 time=0
note_on channel=0 note=90 velocity=50 time=96
note_off channel=0 note=93 velocity=0 time=0
note_off channel=0 note=90 velocity=0 time=96
note_on channel=0 note=86 velocity=50 time=96
note_on channel=0 note=81 velocity=50 time=96
note_off channel=0 note=86 velocity=0 time=0
note_on channel=0 note=77 velocity=50 time=96
note_off channel=0 note=81 velocity=0 time=0
note_off channel=0 note=77 velocity=0 time=96
note_on channel=0 note=78 velocity=50 time=96
note_on channel=0 note=80 velocity=50 time=96
note_off channel=0 note=78 velocity=0 time=0
note_on channel=0 note=81 velocity=50 time=96
note_off channel=0 note=80 velocity=0 time=0
note_off channel=0 note=81 velocity=0 time=96
note_on channel=0 note=83 velocity=50 time=96
note_off channel=0 note=83 velocity=0 time=96
note_on channel=0 note=85 velocity=50 time=0
note_on channel=0 note=86 velocity=50 time=96
note_off channel=0 note=85 velocity=0 time=0
note_off channel=0 note=86 velocity=0 time=96
note_on channel=0 note=76 velocity=50 time=96
note_on channel=0 note=88 velocity=50 time=96
note_off channel=0 note=76 velocity=0 time=0
note_on channel=0 note=85 velocity=50 time=96
note_off channel=0 note=88 velocity=0 time=0
note_off channel=0 note=85 velocity=0 time=96
note_on channel=0 note=81 velocity=50 time=96
note_on channel=0 note=76 velocity=50 time=96
note_off channel=0 note=81 velocity=0 time=0
note_on channel=0 note=73 velocity=50 time=96
note_off channel=0 note=76 velocity=0 time=0
note_off channel=0 note=73 velocity=0 time=96
note_on channel=0 note=75 velocity=50 time=96
note_on channel=0 note=93 velocity=50 time=96
note_off channel=0 note=75 velocity=0 time=0
note_on channel=0 note=90 velocity=50 time=96
note_off channel=0 note=93 velocity=0 time=0
note_off channel=0 note=90 velocity=0 time=96
note_on channel=0 note=87 velocity=50 time=96
note_on channel=0 note=83 velocity=50 time=96
note_off channel=0 note=87 velocity=0 time=0
note_on channel=0 note=87 velocity=50 time=96
note_off channel=0 note=83 velocity=0 time=0
note_off channel=0 note=87 velocity=0 time=96
note_on channel=0 note=88 velocity=50 time=96
note_off channel=0 note=88 velocity=0 time=96
note_on channel=0 note=83 velocity=50 time=288
note_on channel=0 note=87 velocity=50 time=0
note_on channel=0 note=81 velocity=50 time=0
note_off channel=0 note=83 velocity=0 time=96
note_off channel=0 note=87 velocity=0 time=0
note_off channel=0 note=81 velocity=0 time=0
note_on channel=0 note=88 velocity=50 time=288
note_on channel=0 note=83 velocity=50 time=0
note_on channel=0 note=81 velocity=50 time=0
note_off channel=0 note=88 velocity=0 time=96
note_off channel=0 note=83 velocity=0 time=0
note_off channel=0 note=81 velocity=0 time=0
note_on channel=0 note=81 velocity=50 time=288
note_on channel=0 note=83 velocity=50 time=0
note_on channel=0 note=90 velocity=50 time=0
note_off channel=0 note=90 velocity=0 time=96
note_off channel=0 note=83 velocity=0 time=0
note_off channel=0 note=81 velocity=0 time=0
note_on channel=0 note=80 velocity=50 time=288
note_on channel=0 note=83 velocity=50 time=0
note_on channel=0 note=88 velocity=50 time=0
note_off channel=0 note=80 velocity=0 time=96
note_off channel=0 note=83 velocity=0 time=0
note_off channel=0 note=88 velocity=0 time=0
note_on channel=0 note=78 velocity=50 time=288
note_on channel=0 note=71 velocity=50 time=96
note_off channel=0 note=78 velocity=0 time=0
note_on channel=0 note=69 velocity=50 time=96
note_off channel=0 note=71 velocity=0 time=0
note_off channel=0 note=69 velocity=0 time=96
note_on channel=0 note=76 velocity=50 time=96
note_on channel=0 note=71 velocity=50 time=96
note_off channel=0 note=76 velocity=0 time=0
note_on channel=0 note=69 velocity=50 time=96
note_off channel=0 note=71 velocity=0 time=0
note_off channel=0 note=69 velocity=0 time=96
note_on channel=0 note=75 velocity=50 time=96
note_on channel=0 note=71 velocity=50 time=96
note_off channel=0 note=75 velocity=0 time=0
note_on channel=0 note=69 velocity=50 time=96
note_off channel=0 note=71 velocity=0 time=0
note_off channel=0 note=69 velocity=0 time=96
note_on channel=0 note=76 velocity=50 time=96
note_on channel=0 note=71 velocity=50 time=96
note_off channel=0 note=76 velocity=0 time=0
note_off channel=0 note=71 velocity=0 time=96
note_on channel=0 note=68 velocity=50 time=0
note_off channel=0 note=68 velocity=0 time=96
note_on channel=0 note=81 velocity=50 time=96
note_on channel=0 note=83 velocity=50 time=0
note_on channel=0 note=90 velocity=50 time=0
note_off channel=0 note=81 velocity=0 time=96
note_off channel=0 note=83 velocity=0 time=0
note_off channel=0 note=90 velocity=0 time=0
note_on channel=0 note=88 velocity=50 time=288
note_on channel=0 note=83 velocity=50 time=0
note_on channel=0 note=81 velocity=50 time=0
note_off channel=0 note=88 velocity=0 time=96
note_off channel=0 note=83 velocity=0 time=0
note_off channel=0 note=81 velocity=0 time=0
note_on channel=0 note=81 velocity=50 time=288
note_on channel=0 note=83 velocity=50 time=0
note_on channel=0 note=87 velocity=50 time=0
note_off channel=0 note=87 velocity=0 time=96
note_off channel=0 note=83 velocity=0 time=0
note_off channel=0 note=81 velocity=0 time=0
note_on channel=0 note=88 velocity=50 time=288
note_on channel=0 note=83 velocity=50 time=0
note_on channel=0 note=80 velocity=50 time=0
note_off channel=0 note=88 velocity=0 time=96
note_off channel=0 note=83 velocity=0 time=0
note_off channel=0 note=80 velocity=0 time=0
note_on channel=0 note=75 velocity=50 time=288
note_on channel=0 note=71 velocity=50 time=96
note_off channel=0 note=75 velocity=0 time=0
note_on channel=0 note=69 velocity=50 time=96
note_off channel=0 note=71 velocity=0 time=0
note_off channel=0 note=69 velocity=0 time=96
note_on channel=0 note=76 velocity=50 time=96
note_off channel=0 note=76 velocity=0 time=96
note_on channel=0 note=71 velocity=50 time=0
note_on channel=0 note=69 velocity=50 time=96
note_off channel=0 note=71 velocity=0 time=0
note_off channel=0 note=69 velocity=0 time=96
note_on channel=0 note=78 velocity=50 time=96
note_on channel=0 note=71 velocity=50 time=96
note_off channel=0 note=78 velocity=0 time=0
note_on channel=0 note=69 velocity=50 time=96
note_off channel=0 note=71 velocity=0 time=0
note_off channel=0 note=69 velocity=0 time=96
note_on channel=0 note=76 velocity=50 time=96
note_on channel=0 note=71 velocity=50 time=96
note_off channel=0 note=76 velocity=0 time=0
note_on channel=0 note=68 velocity=50 time=96
note_off channel=0 note=71 velocity=0 time=0
note_off channel=0 note=68 velocity=0 time=96
note_on channel=0 note=64 velocity=50 time=96
note_on channel=0 note=59 velocity=50 time=96
note_off channel=0 note=64 velocity=0 time=0
note_on channel=0 note=56 velocity=50 time=96
note_off channel=0 note=59 velocity=0 time=0
note_off channel=0 note=56 velocity=0 time=96
note_on channel=0 note=76 velocity=50 time=1632
note_off channel=0 note=76 velocity=0 time=96
note_on channel=0 note=76 velocity=50 time=288
note_off channel=0 note=76 velocity=0 time=96
note_on channel=0 note=76 velocity=50 time=288
note_off channel=0 note=76 velocity=0 time=96
note_on channel=0 note=76 velocity=50 time=672
note_off channel=0 note=76 velocity=0 time=96
note_on channel=0 note=76 velocity=50 time=96
note_off channel=0 note=76 velocity=0 time=96
note_on channel=0 note=78 velocity=50 time=96
note_off channel=0 note=78 velocity=0 time=96
note_on channel=0 note=80 velocity=50 time=96
note_off channel=0 note=80 velocity=0 time=96
note_on channel=0 note=81 velocity=50 time=96
note_off channel=0 note=81 velocity=0 time=96
note_on channel=0 note=81 velocity=50 time=672
note_on channel=0 note=69 velocity=50 time=0
note_off channel=0 note=81 velocity=0 time=96
note_off channel=0 note=69 velocity=0 time=0
note_on channel=0 note=81 velocity=50 time=96
note_on channel=0 note=69 velocity=50 time=0
note_off channel=0 note=69 velocity=0 time=96
note_off channel=0 note=81 velocity=0 time=0
note_on channel=0 note=71 velocity=50 time=96
note_on channel=0 note=83 velocity=50 time=0
note_off channel=0 note=71 velocity=0 time=96
note_off channel=0 note=83 velocity=0 time=0
note_on channel=0 note=73 velocity=50 time=96
note_on channel=0 note=85 velocity=50 time=0
note_off channel=0 note=73 velocity=0 time=96
note_off channel=0 note=85 velocity=0 time=0
note_on channel=0 note=86 velocity=50 time=96
note_on channel=0 note=74 velocity=50 time=0
note_off channel=0 note=86 velocity=0 time=96
note_off channel=0 note=74 velocity=0 time=0
note_on channel=0 note=90 velocity=50 time=672
note_on channel=0 note=78 velocity=50 time=0
note_off channel=0 note=78 velocity=0 time=96
note_off channel=0 note=90 velocity=0 time=0
note_on channel=0 note=90 velocity=50 time=288
note_on channel=0 note=78 velocity=50 time=0
note_off channel=0 note=90 velocity=0 time=96
note_off channel=0 note=78 velocity=0 time=0
note_on channel=0 note=88 velocity=50 time=288
note_on channel=0 note=76 velocity=50 time=0
note_off channel=0 note=88 velocity=0 time=96
note_off channel=0 note=76 velocity=0 time=0
note_on channel=0 note=78 velocity=50 time=288
note_on channel=0 note=90 velocity=50 time=0
note_off channel=0 note=78 velocity=0 time=96
note_off channel=0 note=90 velocity=0 time=0
note_on channel=0 note=76 velocity=50 time=288
note_on channel=0 note=88 velocity=50 time=0
note_off channel=0 note=88 velocity=0 time=96
note_off channel=0 note=76 velocity=0 time=0
note_on channel=0 note=73 velocity=50 time=288
note_on channel=0 note=85 velocity=50 time=0
note_off channel=0 note=73 velocity=0 time=96
note_off channel=0 note=85 velocity=0 time=0
note_on channel=0 note=71 velocity=50 time=288
note_on channel=0 note=83 velocity=50 time=0
note_off channel=0 note=71 velocity=0 time=96
note_off channel=0 note=83 velocity=0 time=0
note_on channel=0 note=76 velocity=50 time=672
note_off channel=0 note=76 velocity=0 time=96
note_on channel=0 note=76 velocity=50 time=288
note_off channel=0 note=76 velocity=0 time=96
note_on channel=0 note=76 velocity=50 time=288
note_off channel=0 note=76 velocity=0 time=96
note_on channel=0 note=76 velocity=50 time=672
note_off channel=0 note=76 velocity=0 time=96
note_on channel=0 note=76 velocity=50 time=96
note_off channel=0 note=76 velocity=0 time=96
note_on channel=0 note=78 velocity=50 time=96
note_off channel=0 note=78 velocity=0 time=96
note_on channel=0 note=79 velocity=50 time=96
note_off channel=0 note=79 velocity=0 time=96
note_on channel=0 note=78 velocity=50 time=96
note_off channel=0 note=78 velocity=0 time=96
note_on channel=0 note=78 velocity=50 time=672
note_on channel=0 note=66 velocity=50 time=0
note_off channel=0 note=78 velocity=0 time=96
note_off channel=0 note=66 velocity=0 time=0
note_on channel=0 note=66 velocity=50 time=96
note_on channel=0 note=78 velocity=50 time=0
note_off channel=0 note=78 velocity=0 time=96
note_off channel=0 note=66 velocity=0 time=0
note_on channel=0 note=80 velocity=50 time=96
note_on channel=0 note=68 velocity=50 time=0
note_off channel=0 note=80 velocity=0 time=96
note_off channel=0 note=68 velocity=0 time=0
note_on channel=0 note=82 velocity=50 time=96
note_on channel=0 note=70 velocity=50 time=0
note_off channel=0 note=82 velocity=0 time=96
note_off channel=0 note=70 velocity=0 time=0
note_on channel=0 note=83 velocity=50 time=96
note_on channel=0 note=71 velocity=50 time=0
note_off channel=0 note=83 velocity=0 time=96
note_off channel=0 note=71 velocity=0 time=0
note_on channel=0 note=73 velocity=50 time=672
note_on channel=0 note=85 velocity=50 time=0
note_off channel=0 note=85 velocity=0 time=96
note_off channel=0 note=73 velocity=0 time=0
note_on channel=0 note=73 velocity=50 time=288
note_on channel=0 note=85 velocity=50 time=0
note_off channel=0 note=73 velocity=0 time=96
note_off channel=0 note=85 velocity=0 time=0
note_on channel=0 note=86 velocity=50 time=288
note_on channel=0 note=74 velocity=50 time=0
note_off channel=0 note=86 velocity=0 time=96
note_off channel=0 note=74 velocity=0 time=0
note_on channel=0 note=73 velocity=50 time=288
note_on channel=0 note=85 velocity=50 time=0
note_off channel=0 note=73 velocity=0 time=96
note_off channel=0 note=85 velocity=0 time=0
note_on channel=0 note=71 velocity=50 time=288
note_on channel=0 note=83 velocity=50 time=0
note_off channel=0 note=83 velocity=0 time=96
note_off channel=0 note=71 velocity=0 time=0
note_on channel=0 note=82 velocity=50 time=288
note_on channel=0 note=70 velocity=50 time=0
note_off channel=0 note=70 velocity=0 time=96
note_off channel=0 note=82 velocity=0 time=0
note_on channel=0 note=83 velocity=50 time=288
note_on channel=0 note=71 velocity=50 time=0
note_off channel=0 note=83 velocity=0 time=96
note_off channel=0 note=71 velocity=0 time=0
note_on channel=0 note=71 velocity=50 time=288
note_on channel=0 note=74 velocity=50 time=96
note_off channel=0 note=71 velocity=0 time=0
note_on channel=0 note=78 velocity=50 time=96
note_off channel=0 note=74 velocity=0 time=0
note_off channel=0 note=78 velocity=0 time=96
note_on channel=0 note=71 velocity=50 time=96
note_on channel=0 note=74 velocity=50 time=96
note_off channel=0 note=71 velocity=0 time=0
note_on channel=0 note=78 velocity=50 time=96
note_off channel=0 note=74 velocity=0 time=0
note_off channel=0 note=78 velocity=0 time=96
note_on channel=0 note=71 velocity=50 time=96
note_on channel=0 note=74 velocity=50 time=96
note_off channel=0 note=71 velocity=0 time=0
note_on channel=0 note=78 velocity=50 time=96
note_off channel=0 note=74 velocity=0 time=0
note_off channel=0 note=78 velocity=0 time=96
note_on channel=0 note=70 velocity=50 time=96
note_on channel=0 note=73 velocity=50 time=96
note_off channel=0 note=70 velocity=0 time=0
note_off channel=0 note=73 velocity=0 time=96
note_on channel=0 note=78 velocity=50 time=0
note_off channel=0 note=78 velocity=0 time=96
note_on channel=0 note=70 velocity=50 time=96
note_off channel=0 note=70 velocity=0 time=96
note_on channel=0 note=73 velocity=50 time=0
note_on channel=0 note=78 velocity=50 time=96
note_off channel=0 note=73 velocity=0 time=0
note_off channel=0 note=78 velocity=0 time=96
note_on channel=0 note=73 velocity=50 time=96
note_on channel=0 note=76 velocity=50 time=96
note_off channel=0 note=73 velocity=0 time=0
note_on channel=0 note=78 velocity=50 time=96
note_off channel=0 note=76 velocity=0 time=0
note_off channel=0 note=78 velocity=0 time=96
note_on channel=0 note=73 velocity=50 time=96
note_on channel=0 note=76 velocity=50 time=96
note_off channel=0 note=73 velocity=0 time=0
note_on channel=0 note=78 velocity=50 time=96
note_off channel=0 note=76 velocity=0 time=0
note_off channel=0 note=78 velocity=0 time=96
note_on channel=0 note=74 velocity=50 time=96
note_on channel=0 note=78 velocity=50 time=96
note_off channel=0 note=74 velocity=0 time=0
note_on channel=0 note=74 velocity=50 time=96
note_off channel=0 note=78 velocity=0 time=0
note_off channel=0 note=74 velocity=0 time=96
note_on channel=0 note=71 velocity=50 time=96
note_on channel=0 note=74 velocity=50 time=96
note_off channel=0 note=71 velocity=0 time=0
note_on channel=0 note=78 velocity=50 time=96
note_off channel=0 note=74 velocity=0 time=0
note_off channel=0 note=78 velocity=0 time=96
note_on channel=0 note=78 velocity=50 time=96
note_on channel=0 note=81 velocity=50 time=96
note_off channel=0 note=78 velocity=0 time=0
note_on channel=0 note=83 velocity=50 time=96
note_off channel=0 note=81 velocity=0 time=0
note_off channel=0 note=83 velocity=0 time=96
note_on channel=0 note=78 velocity=50 time=96
note_on channel=0 note=81 velocity=50 time=96
note_off channel=0 note=78 velocity=0 time=0
note_on channel=0 note=83 velocity=50 time=96
note_off channel=0 note=81 velocity=0 time=0
note_off channel=0 note=83 velocity=0 time=96
note_on channel=0 note=76 velocity=50 time=96
note_on channel=0 note=79 velocity=50 time=96
note_off channel=0 note=76 velocity=0 time=0
note_off channel=0 note=79 velocity=0 time=96
note_on channel=0 note=83 velocity=50 time=0
note_off channel=0 note=83 velocity=0 time=96
note_on channel=0 note=76 velocity=50 time=96
note_on channel=0 note=79 velocity=50 time=96
note_off channel=0 note=76 velocity=0 time=0
note_on channel=0 note=83 velocity=50 time=96
note_off channel=0 note=79 velocity=0 time=0
note_off channel=0 note=83 velocity=0 time=96
note_on channel=0 note=83 velocity=50 time=96
note_on channel=0 note=88 velocity=50 time=96
note_off channel=0 note=83 velocity=0 time=0
note_on channel=0 note=91 velocity=50 time=96
note_off channel=0 note=88 velocity=0 time=0
note_off channel=0 note=91 velocity=0 time=96
note_on channel=0 note=83 velocity=50 time=96
note_on channel=0 note=88 velocity=50 time=96
note_off channel=0 note=83 velocity=0 time=0
note_on channel=0 note=91 velocity=50 time=96
note_off channel=0 note=88 velocity=0 time=0
note_off channel=0 note=91 velocity=0 time=96
note_on channel=0 note=81 velocity=50 time=96
note_on channel=0 note=86 velocity=50 time=96
note_off channel=0 note=81 velocity=0 time=0
note_on channel=0 note=93 velocity=50 time=96
note_off channel=0 note=86 velocity=0 time=0
note_off channel=0 note=93 velocity=0 time=96
note_on channel=0 note=83 velocity=50 time=96
note_on channel=0 note=86 velocity=50 time=96
note_off channel=0 note=83 velocity=0 time=0
note_on channel=0 note=91 velocity=50 time=96
note_off channel=0 note=86 velocity=0 time=0
note_off channel=0 note=91 velocity=0 time=96
note_on channel=0 note=81 velocity=50 time=96
note_on channel=0 note=86 velocity=50 time=96
note_off channel=0 note=81 velocity=0 time=0
note_on channel=0 note=90 velocity=50 time=96
note_off channel=0 note=86 velocity=0 time=0
note_off channel=0 note=90 velocity=0 time=96
note_on channel=0 note=81 velocity=50 time=96
note_on channel=0 note=85 velocity=50 time=96
note_off channel=0 note=81 velocity=0 time=0
note_on channel=0 note=88 velocity=50 time=96
note_off channel=0 note=85 velocity=0 time=0
note_off channel=0 note=88 velocity=0 time=96
note_on channel=0 note=86 velocity=50 time=96
note_on channel=0 note=90 velocity=50 time=96
note_off channel=0 note=86 velocity=0 time=0
note_on channel=0 note=86 velocity=50 time=96
note_off channel=0 note=90 velocity=0 time=0
note_off channel=0 note=86 velocity=0 time=96
note_on channel=0 note=81 velocity=50 time=96
note_on channel=0 note=78 velocity=50 time=96
note_off channel=0 note=81 velocity=0 time=0
note_on channel=0 note=74 velocity=50 time=96
note_off channel=0 note=78 velocity=0 time=0
note_off channel=0 note=74 velocity=0 time=96
note_on channel=0 note=81 velocity=50 time=96
note_on channel=0 note=78 velocity=50 time=96
note_off channel=0 note=81 velocity=0 time=0
note_on channel=0 note=74 velocity=50 time=96
note_off channel=0 note=78 velocity=0 time=0
note_off channel=0 note=74 velocity=0 time=96
note_on channel=0 note=81 velocity=50 time=96
note_on channel=0 note=78 velocity=50 time=96
note_off channel=0 note=81 velocity=0 time=0
note_on channel=0 note=74 velocity=50 time=96
note_off channel=0 note=78 velocity=0 time=0
note_off channel=0 note=74 velocity=0 time=96
note_on channel=0 note=73 velocity=50 time=96
note_on channel=0 note=76 velocity=50 time=96
note_off channel=0 note=73 velocity=0 time=0
note_on channel=0 note=81 velocity=50 time=96
note_off channel=0 note=76 velocity=0 time=0
note_off channel=0 note=81 velocity=0 time=96
note_on channel=0 note=73 velocity=50 time=96
note_on channel=0 note=76 velocity=50 time=96
note_off channel=0 note=73 velocity=0 time=0
note_off channel=0 note=76 velocity=0 time=96
note_on channel=0 note=81 velocity=50 time=0
note_off channel=0 note=81 velocity=0 time=96
note_on channel=0 note=81 velocity=50 time=96
note_on channel=0 note=85 velocity=50 time=96
note_off channel=0 note=81 velocity=0 time=0
note_on channel=0 note=88 velocity=50 time=96
note_off channel=0 note=85 velocity=0 time=0
note_off channel=0 note=88 velocity=0 time=96
note_on channel=0 note=93 velocity=50 time=96
note_on channel=0 note=85 velocity=50 time=96
note_off channel=0 note=93 velocity=0 time=0
note_off channel=0 note=85 velocity=0 time=96
note_on channel=0 note=88 velocity=50 time=0
note_off channel=0 note=88 velocity=0 time=96
note_on channel=0 note=86 velocity=50 time=96
note_on channel=0 note=93 velocity=50 time=96
note_off channel=0 note=86 velocity=0 time=0
note_on channel=0 note=90 velocity=50 time=96
note_off channel=0 note=93 velocity=0 time=0
note_off channel=0 note=90 velocity=0 time=96
note_on channel=0 note=86 velocity=50 time=96
note_on channel=0 note=81 velocity=50 time=96
note_off channel=0 note=86 velocity=0 time=0
note_on channel=0 note=78 velocity=50 time=96
note_off channel=0 note=81 velocity=0 time=0
note_off channel=0 note=78 velocity=0 time=96
note_on channel=0 note=81 velocity=50 time=96
note_on channel=0 note=78 velocity=50 time=96
note_off channel=0 note=81 velocity=0 time=0
note_on channel=0 note=74 velocity=50 time=96
note_off channel=0 note=78 velocity=0 time=0
note_off channel=0 note=74 velocity=0 time=96
note_on channel=0 note=81 velocity=50 time=96
note_on channel=0 note=78 velocity=50 time=96
note_off channel=0 note=81 velocity=0 time=0
note_on channel=0 note=74 velocity=50 time=96
note_off channel=0 note=78 velocity=0 time=0
note_off channel=0 note=74 velocity=0 time=96
note_on channel=0 note=73 velocity=50 time=96
note_on channel=0 note=76 velocity=50 time=96
note_off channel=0 note=73 velocity=0 time=0
note_off channel=0 note=76 velocity=0 time=96
note_on channel=0 note=81 velocity=50 time=0
note_off channel=0 note=81 velocity=0 time=96
note_on channel=0 note=73 velocity=50 time=96
note_on channel=0 note=76 velocity=50 time=96
note_off channel=0 note=73 velocity=0 time=0
note_on channel=0 note=81 velocity=50 time=96
note_off channel=0 note=76 velocity=0 time=0
note_off channel=0 note=81 velocity=0 time=96
note_on channel=0 note=81 velocity=50 time=96
note_on channel=0 note=85 velocity=50 time=96
note_off channel=0 note=81 velocity=0 time=0
note_off channel=0 note=85 velocity=0 time=96
note_on channel=0 note=88 velocity=50 time=0
note_off channel=0 note=88 velocity=0 time=96
note_on channel=0 note=93 velocity=50 time=96
note_on channel=0 note=85 velocity=50 time=96
note_off channel=0 note=93 velocity=0 time=0
note_on channel=0 note=88 velocity=50 time=96
note_off channel=0 note=85 velocity=0 time=0
note_off channel=0 note=88 velocity=0 time=96
note_on channel=0 note=86 velocity=50 time=96
note_on channel=0 note=93 velocity=50 time=96
note_off channel=0 note=86 velocity=0 time=0
note_on channel=0 note=90 velocity=50 time=96
note_off channel=0 note=93 velocity=0 time=0
note_off channel=0 note=90 velocity=0 time=96
note_on channel=0 note=86 velocity=50 time=96
note_on channel=0 note=81 velocity=50 time=96
note_off channel=0 note=86 velocity=0 time=0
note_on channel=0 note=78 velocity=50 time=96
note_off channel=0 note=81 velocity=0 time=0
note_off channel=0 note=78 velocity=0 time=96
note_on channel=0 note=81 velocity=50 time=96
note_on channel=0 note=85 velocity=50 time=96
note_off channel=0 note=81 velocity=0 time=0
note_on channel=0 note=88 velocity=50 time=96
note_off channel=0 note=85 velocity=0 time=0
note_off channel=0 note=88 velocity=0 time=96
note_on channel=0 note=93 velocity=50 time=96
note_on channel=0 note=85 velocity=50 time=96
note_off channel=0 note=93 velocity=0 time=0
note_off channel=0 note=85 velocity=0 time=96
note_on channel=0 note=88 velocity=50 time=0
note_off channel=0 note=88 velocity=0 time=96
note_on channel=0 note=86 velocity=50 time=96
note_on channel=0 note=93 velocity=50 time=96
note_off channel=0 note=86 velocity=0 time=0
note_on channel=0 note=90 velocity=50 time=96
note_off channel=0 note=93 velocity=0 time=0
note_off channel=0 note=90 velocity=0 time=96
note_on channel=0 note=86 velocity=50 time=96
note_on channel=0 note=81 velocity=50 time=96
note_off channel=0 note=86 velocity=0 time=0
note_off channel=0 note=81 velocity=0 time=96
note_on channel=0 note=78 velocity=50 time=0
note_off channel=0 note=78 velocity=0 time=96
note_on channel=0 note=81 velocity=50 time=96
note_on channel=0 note=85 velocity=50 time=96
note_off channel=0 note=81 velocity=0 time=0
note_on channel=0 note=88 velocity=50 time=96
note_off channel=0 note=85 velocity=0 time=0
note_off channel=0 note=88 velocity=0 time=96
note_on channel=0 note=93 velocity=50 time=96
note_on channel=0 note=85 velocity=50 time=96
note_off channel=0 note=93 velocity=0 time=0
note_on channel=0 note=88 velocity=50 time=96
note_off channel=0 note=85 velocity=0 time=0
note_off channel=0 note=88 velocity=0 time=96
note_on channel=0 note=86 velocity=50 time=96
note_on channel=0 note=93 velocity=50 time=96
note_off channel=0 note=86 velocity=0 time=0
note_on channel=0 note=90 velocity=50 time=96
note_off channel=0 note=93 velocity=0 time=0
note_off channel=0 note=90 velocity=0 time=96
note_on channel=0 note=86 velocity=50 time=96
note_on channel=0 note=81 velocity=50 time=96
note_off channel=0 note=86 velocity=0 time=0
note_on channel=0 note=78 velocity=50 time=96
note_off channel=0 note=81 velocity=0 time=0
note_off channel=0 note=78 velocity=0 time=96
note_on channel=0 note=81 velocity=50 time=96
note_off channel=0 note=81 velocity=0 time=96
note_on channel=0 note=81 velocity=50 time=288
note_off channel=0 note=81 velocity=0 time=96
note_on channel=0 note=81 velocity=50 time=288
note_off channel=0 note=81 velocity=0 time=96
note_on channel=0 note=81 velocity=50 time=672
note_off channel=0 note=81 velocity=0 time=96
note_on channel=0 note=81 velocity=50 time=288
note_off channel=0 note=81 velocity=0 time=96
note_on channel=0 note=81 velocity=50 time=288
note_off channel=0 note=81 velocity=0 time=96
note_on channel=0 note=81 velocity=50 time=672
note_off channel=0 note=81 velocity=0 time=96
note_on channel=0 note=81 velocity=50 time=96
note_off channel=0 note=81 velocity=0 time=96
note_on channel=0 note=83 velocity=50 time=96
note_off channel=0 note=83 velocity=0 time=96
note_on channel=0 note=84 velocity=50 time=96
note_off channel=0 note=84 velocity=0 time=96
note_on channel=0 note=86 velocity=50 time=96
note_off channel=0 note=86 velocity=0 time=96
note_on channel=0 note=84 velocity=50 time=288
note_off channel=0 note=84 velocity=0 time=96
note_on channel=0 note=83 velocity=50 time=288
note_off channel=0 note=83 velocity=0 time=96
note_on channel=0 note=81 velocity=50 time=288
note_off channel=0 note=81 velocity=0 time=96
note_on channel=0 note=83 velocity=50 time=288
note_off channel=0 note=83 velocity=0 time=96
note_on channel=0 note=74 velocity=50 time=672
note_off channel=0 note=74 velocity=0 time=96
note_on channel=0 note=74 velocity=50 time=288
note_off channel=0 note=74 velocity=0 time=96
note_on channel=0 note=74 velocity=50 time=288
note_off channel=0 note=74 velocity=0 time=96
note_on channel=0 note=74 velocity=50 time=672
note_off channel=0 note=74 velocity=0 time=96
note_on channel=0 note=74 velocity=50 time=288
note_off channel=0 note=74 velocity=0 time=96
note_on channel=0 note=74 velocity=50 time=288
note_off channel=0 note=74 velocity=0 time=96
note_on channel=0 note=74 velocity=50 time=672
note_off channel=0 note=74 velocity=0 time=96
note_on channel=0 note=74 velocity=50 time=96
note_off channel=0 note=74 velocity=0 time=96
note_on channel=0 note=76 velocity=50 time=96
note_off channel=0 note=76 velocity=0 time=96
note_on channel=0 note=77 velocity=50 time=96
note_off channel=0 note=77 velocity=0 time=96
note_on channel=0 note=79 velocity=50 time=96
note_off channel=0 note=79 velocity=0 time=96
note_on channel=0 note=77 velocity=50 time=288
note_off channel=0 note=77 velocity=0 time=96
note_on channel=0 note=76 velocity=50 time=288
note_off channel=0 note=76 velocity=0 time=96
note_on channel=0 note=74 velocity=50 time=288
note_off channel=0 note=74 velocity=0 time=96
note_on channel=0 note=76 velocity=50 time=288
note_off channel=0 note=76 velocity=0 time=96
note_on channel=0 note=76 velocity=50 time=672
note_on channel=0 note=88 velocity=50 time=0
note_off channel=0 note=88 velocity=0 time=96
note_off channel=0 note=76 velocity=0 time=0
note_on channel=0 note=88 velocity=50 time=96
note_on channel=0 note=76 velocity=50 time=0
note_off channel=0 note=88 velocity=0 time=96
note_off channel=0 note=76 velocity=0 time=0
note_on channel=0 note=78 velocity=50 time=96
note_on channel=0 note=90 velocity=50 time=0
note_off channel=0 note=78 velocity=0 time=96
note_off channel=0 note=90 velocity=0 time=0
note_on channel=0 note=80 velocity=50 time=96
note_on channel=0 note=92 velocity=50 time=0
note_off channel=0 note=80 velocity=0 time=96
note_off channel=0 note=92 velocity=0 time=0
note_on channel=0 note=93 velocity=50 time=96
note_on channel=0 note=81 velocity=50 time=0
note_off channel=0 note=93 velocity=0 time=96
note_off channel=0 note=81 velocity=0 time=0
note_on channel=0 note=69 velocity=50 time=672
note_on channel=0 note=81 velocity=50 time=0
note_off channel=0 note=81 velocity=0 time=96
note_off channel=0 note=69 velocity=0 time=0
note_on channel=0 note=69 velocity=50 time=96
note_on channel=0 note=81 velocity=50 time=0
note_off channel=0 note=69 velocity=0 time=96
note_off channel=0 note=81 velocity=0 time=0
note_on channel=0 note=71 velocity=50 time=96
note_on channel=0 note=83 velocity=50 time=0
note_off channel=0 note=83 velocity=0 time=96
note_off channel=0 note=71 velocity=0 time=0
note_on channel=0 note=85 velocity=50 time=96
note_on channel=0 note=73 velocity=50 time=0
note_off channel=0 note=85 velocity=0 time=96
note_off channel=0 note=73 velocity=0 time=0
note_on channel=0 note=86 velocity=50 time=96
note_on channel=0 note=74 velocity=50 time=0
note_off channel=0 note=86 velocity=0 time=96
note_off channel=0 note=74 velocity=0 time=0
note_on channel=0 note=78 velocity=50 time=672
note_on channel=0 note=90 velocity=50 time=0
note_off channel=0 note=90 velocity=0 time=96
note_off channel=0 note=78 velocity=0 time=0
note_on channel=0 note=90 velocity=50 time=288
note_on channel=0 note=78 velocity=50 time=0
note_off channel=0 note=90 velocity=0 time=96
note_off channel=0 note=78 velocity=0 time=0
note_on channel=0 note=88 velocity=50 time=288
note_on channel=0 note=76 velocity=50 time=0
note_off channel=0 note=76 velocity=0 time=96
note_off channel=0 note=88 velocity=0 time=0
note_on channel=0 note=86 velocity=50 time=288
note_on channel=0 note=74 velocity=50 time=0
note_off channel=0 note=86 velocity=0 time=96
note_off channel=0 note=74 velocity=0 time=0
note_on channel=0 note=85 velocity=50 time=288
note_on channel=0 note=73 velocity=50 time=0
note_off channel=0 note=85 velocity=0 time=96
note_off channel=0 note=73 velocity=0 time=0
note_on channel=0 note=71 velocity=50 time=288
note_on channel=0 note=83 velocity=50 time=0
note_off channel=0 note=83 velocity=0 time=96
note_off channel=0 note=71 velocity=0 time=0
note_on channel=0 note=81 velocity=50 time=288
note_on channel=0 note=69 velocity=50 time=0
note_off channel=0 note=81 velocity=0 time=96
note_off channel=0 note=69 velocity=0 time=0
note_on channel=0 note=69 velocity=50 time=672
note_on channel=0 note=72 velocity=50 time=96
note_off channel=0 note=69 velocity=0 time=0
note_on channel=0 note=76 velocity=50 time=96
note_off channel=0 note=72 velocity=0 time=0
note_off channel=0 note=76 velocity=0 time=96
note_on channel=0 note=69 velocity=50 time=96
note_on channel=0 note=72 velocity=50 time=96
note_off channel=0 note=69 velocity=0 time=0
note_on channel=0 note=76 velocity=50 time=96
note_off channel=0 note=72 velocity=0 time=0
note_off channel=0 note=76 velocity=0 time=96
note_on channel=0 note=68 velocity=50 time=96
note_on channel=0 note=71 velocity=50 time=96
note_off channel=0 note=68 velocity=0 time=0
note_off channel=0 note=71 velocity=0 time=96
note_on channel=0 note=76 velocity=50 time=0
note_off channel=0 note=76 velocity=0 time=96
note_on channel=0 note=68 velocity=50 time=96
note_on channel=0 note=71 velocity=50 time=96
note_off channel=0 note=68 velocity=0 time=0
note_on channel=0 note=76 velocity=50 time=96
note_off channel=0 note=71 velocity=0 time=0
note_off channel=0 note=76 velocity=0 time=96
note_on channel=0 note=71 velocity=50 time=96
note_off channel=0 note=71 velocity=0 time=96
note_on channel=0 note=74 velocity=50 time=0
note_on channel=0 note=76 velocity=50 time=96
note_off channel=0 note=74 velocity=0 time=0
note_off channel=0 note=76 velocity=0 time=96
note_on channel=0 note=71 velocity=50 time=96
note_on channel=0 note=74 velocity=50 time=96
note_off channel=0 note=71 velocity=0 time=0
note_on channel=0 note=76 velocity=50 time=96
note_off channel=0 note=74 velocity=0 time=0
note_off channel=0 note=76 velocity=0 time=96
note_on channel=0 note=72 velocity=50 time=96
note_on channel=0 note=76 velocity=50 time=96
note_off channel=0 note=72 velocity=0 time=0
note_on channel=0 note=72 velocity=50 time=96
note_off channel=0 note=76 velocity=0 time=0
note_off channel=0 note=72 velocity=0 time=96
note_on channel=0 note=69 velocity=50 time=96
note_on channel=0 note=72 velocity=50 time=96
note_off channel=0 note=69 velocity=0 time=0
note_off channel=0 note=72 velocity=0 time=96
note_on channel=0 note=76 velocity=50 time=0
note_off channel=0 note=76 velocity=0 time=96
note_on channel=0 note=76 velocity=50 time=96
note_on channel=0 note=79 velocity=50 time=96
note_off channel=0 note=76 velocity=0 time=0
note_on channel=0 note=81 velocity=50 time=96
note_off channel=0 note=79 velocity=0 time=0
note_off channel=0 note=81 velocity=0 time=96
note_on channel=0 note=76 velocity=50 time=96
note_on channel=0 note=79 velocity=50 time=96
note_off channel=0 note=76 velocity=0 time=0
note_off channel=0 note=79 velocity=0 time=96
note_on channel=0 note=81 velocity=50 time=0
note_off channel=0 note=81 velocity=0 time=96
note_on channel=0 note=74 velocity=50 time=96
note_on channel=0 note=77 velocity=50 time=96
note_off channel=0 note=74 velocity=0 time=0
note_on channel=0 note=81 velocity=50 time=96
note_off channel=0 note=77 velocity=0 time=0
note_off channel=0 note=81 velocity=0 time=96
note_on channel=0 note=74 velocity=50 time=96
note_on channel=0 note=77 velocity=50 time=96
note_off channel=0 note=74 velocity=0 time=0
note_on channel=0 note=81 velocity=50 time=96
note_off channel=0 note=77 velocity=0 time=0
note_off channel=0 note=81 velocity=0 time=96
note_on channel=0 note=81 velocity=50 time=96
note_on channel=0 note=86 velocity=50 time=96
note_off channel=0 note=81 velocity=0 time=0
note_on channel=0 note=89 velocity=50 time=96
note_off channel=0 note=86 velocity=0 time=0
note_off channel=0 note=89 velocity=0 time=96
note_on channel=0 note=81 velocity=50 time=96
note_on channel=0 note=86 velocity=50 time=96
note_off channel=0 note=81 velocity=0 time=0
note_on channel=0 note=89 velocity=50 time=96
note_off channel=0 note=86 velocity=0 time=0
note_off channel=0 note=89 velocity=0 time=96
note_on channel=0 note=79 velocity=50 time=96
note_on channel=0 note=84 velocity=50 time=96
note_off channel=0 note=79 velocity=0 time=0
note_on channel=0 note=91 velocity=50 time=96
note_off channel=0 note=84 velocity=0 time=0
note_off channel=0 note=91 velocity=0 time=96
note_on channel=0 note=81 velocity=50 time=96
note_on channel=0 note=84 velocity=50 time=96
note_off channel=0 note=81 velocity=0 time=0
note_on channel=0 note=89 velocity=50 time=96
note_off channel=0 note=84 velocity=0 time=0
note_off channel=0 note=89 velocity=0 time=96
note_on channel=0 note=79 velocity=50 time=96
note_on channel=0 note=84 velocity=50 time=96
note_off channel=0 note=79 velocity=0 time=0
note_off channel=0 note=84 velocity=0 time=96
note_on channel=0 note=88 velocity=50 time=0
note_off channel=0 note=88 velocity=0 time=96
note_on channel=0 note=79 velocity=50 time=96
note_on channel=0 note=83 velocity=50 time=96
note_off channel=0 note=79 velocity=0 time=0
note_on channel=0 note=86 velocity=50 time=96
note_off channel=0 note=83 velocity=0 time=0
note_off channel=0 note=86 velocity=0 time=96
note_on channel=0 note=88 velocity=50 time=96
note_on channel=0 note=86 velocity=50 time=96
note_off channel=0 note=88 velocity=0 time=0
note_on channel=0 note=83 velocity=50 time=96
note_off channel=0 note=86 velocity=0 time=0
note_off channel=0 note=83 velocity=0 time=96
note_on channel=0 note=76 velocity=50 time=96
note_on channel=0 note=74 velocity=50 time=96
note_off channel=0 note=76 velocity=0 time=0
note_on channel=0 note=71 velocity=50 time=96
note_off channel=0 note=74 velocity=0 time=0
note_off channel=0 note=71 velocity=0 time=96
note_on channel=0 note=64 velocity=50 time=96
note_on channel=0 note=76 velocity=50 time=96
note_off channel=0 note=64 velocity=0 time=0
note_on channel=0 note=64 velocity=50 time=96
note_off channel=0 note=76 velocity=0 time=0
note_off channel=0 note=64 velocity=0 time=96
note_on channel=0 note=76 velocity=50 time=96
note_on channel=0 note=64 velocity=50 time=96
note_off channel=0 note=76 velocity=0 time=0
note_off channel=0 note=64 velocity=0 time=96
note_on channel=0 note=76 velocity=50 time=0
note_off channel=0 note=76 velocity=0 time=96
note_on channel=0 note=71 velocity=50 time=96
note_on channel=0 note=74 velocity=50 time=96
note_off channel=0 note=71 velocity=0 time=0
note_on channel=0 note=77 velocity=50 time=96
note_off channel=0 note=74 velocity=0 time=0
note_off channel=0 note=77 velocity=0 time=96
note_on channel=0 note=83 velocity=50 time=96
note_on channel=0 note=86 velocity=50 time=96
note_off channel=0 note=83 velocity=0 time=0
note_off channel=0 note=86 velocity=0 time=96
note_on channel=0 note=89 velocity=50 time=0
note_off channel=0 note=89 velocity=0 time=96
note_on channel=0 note=95 velocity=50 time=96
note_on channel=0 note=83 velocity=50 time=96
note_off channel=0 note=95 velocity=0 time=0
note_on channel=0 note=95 velocity=50 time=96
note_off channel=0 note=83 velocity=0 time=0
note_off channel=0 note=95 velocity=0 time=96
note_on channel=0 note=83 velocity=50 time=96
note_on channel=0 note=95 velocity=50 time=96
note_off channel=0 note=83 velocity=0 time=0
note_on channel=0 note=83 velocity=50 time=96
note_off channel=0 note=95 velocity=0 time=0
note_off channel=0 note=83 velocity=0 time=96
note_on channel=0 note=88 velocity=50 time=96
note_on channel=0 note=86 velocity=50 time=96
note_off channel=0 note=88 velocity=0 time=0
note_on channel=0 note=83 velocity=50 time=96
note_off channel=0 note=86 velocity=0 time=0
note_off channel=0 note=83 velocity=0 time=96
note_on channel=0 note=76 velocity=50 time=96
note_on channel=0 note=74 velocity=50 time=96
note_off channel=0 note=76 velocity=0 time=0
note_on channel=0 note=71 velocity=50 time=96
note_off channel=0 note=74 velocity=0 time=0
note_off channel=0 note=71 velocity=0 time=96
note_on channel=0 note=64 velocity=50 time=96
note_on channel=0 note=76 velocity=50 time=96
note_off channel=0 note=64 velocity=0 time=0
note_off channel=0 note=76 velocity=0 time=96
note_on channel=0 note=64 velocity=50 time=0
note_off channel=0 note=64 velocity=0 time=96
note_on channel=0 note=76 velocity=50 time=96
note_on channel=0 note=64 velocity=50 time=96
note_off channel=0 note=76 velocity=0 time=0
note_on channel=0 note=76 velocity=50 time=96
note_off channel=0 note=64 velocity=0 time=0
note_off channel=0 note=76 velocity=0 time=96
note_on channel=0 note=71 velocity=50 time=96
note_on channel=0 note=74 velocity=50 time=96
note_off channel=0 note=71 velocity=0 time=0
note_off channel=0 note=74 velocity=0 time=96
note_on channel=0 note=77 velocity=50 time=0
note_off channel=0 note=77 velocity=0 time=96
note_on channel=0 note=83 velocity=50 time=96
note_on channel=0 note=86 velocity=50 time=96
note_off channel=0 note=83 velocity=0 time=0
note_on channel=0 note=89 velocity=50 time=96
note_off channel=0 note=86 velocity=0 time=0
note_off channel=0 note=89 velocity=0 time=96
note_on channel=0 note=95 velocity=50 time=96
note_on channel=0 note=83 velocity=50 time=96
note_off channel=0 note=95 velocity=0 time=0
note_on channel=0 note=95 velocity=50 time=96
note_off channel=0 note=83 velocity=0 time=0
note_off channel=0 note=95 velocity=0 time=96
note_on channel=0 note=83 velocity=50 time=96
note_on channel=0 note=95 velocity=50 time=96
note_off channel=0 note=83 velocity=0 time=0
note_on channel=0 note=83 velocity=50 time=96
note_off channel=0 note=95 velocity=0 time=0
note_off channel=0 note=83 velocity=0 time=96
note_on channel=0 note=86 velocity=50 time=96
note_on channel=0 note=85 velocity=50 time=96
note_off channel=0 note=86 velocity=0 time=0
note_on channel=0 note=95 velocity=50 time=96
note_off channel=0 note=85 velocity=0 time=0
note_off channel=0 note=95 velocity=0 time=96
note_on channel=0 note=93 velocity=50 time=96
note_on channel=0 note=92 velocity=50 time=96
note_off channel=0 note=93 velocity=0 time=0
note_off channel=0 note=92 velocity=0 time=96
note_on channel=0 note=90 velocity=50 time=0
note_off channel=0 note=90 velocity=0 time=96
note_on channel=0 note=88 velocity=50 time=96
note_on channel=0 note=86 velocity=50 time=96
note_off channel=0 note=88 velocity=0 time=0
note_on channel=0 note=85 velocity=50 time=96
note_off channel=0 note=86 velocity=0 time=0
note_off channel=0 note=85 velocity=0 time=96
note_on channel=0 note=83 velocity=50 time=96
note_on channel=0 note=81 velocity=50 time=96
note_off channel=0 note=83 velocity=0 time=0
note_on channel=0 note=80 velocity=50 time=96
note_off channel=0 note=81 velocity=0 time=0
note_off channel=0 note=80 velocity=0 time=96
note_on channel=0 note=78 velocity=50 time=96
note_on channel=0 note=76 velocity=50 time=96
note_off channel=0 note=78 velocity=0 time=0
note_on channel=0 note=74 velocity=50 time=96
note_off channel=0 note=76 velocity=0 time=0
note_off channel=0 note=74 velocity=0 time=96
note_on channel=0 note=73 velocity=50 time=96
note_on channel=0 note=71 velocity=50 time=96
note_off channel=0 note=73 velocity=0 time=0
note_on channel=0 note=69 velocity=50 time=96
note_off channel=0 note=71 velocity=0 time=0
note_off channel=0 note=69 velocity=0 time=96
note_on channel=0 note=68 velocity=50 time=96
note_on channel=0 note=66 velocity=50 time=96
note_off channel=0 note=68 velocity=0 time=0
note_on channel=0 note=64 velocity=50 time=96
note_off channel=0 note=66 velocity=0 time=0
note_off channel=0 note=64 velocity=0 time=96
note_on channel=0 note=63 velocity=50 time=96
note_on channel=0 note=64 velocity=50 time=96
note_off channel=0 note=63 velocity=0 time=0
note_on channel=0 note=66 velocity=50 time=96
note_off channel=0 note=64 velocity=0 time=0
note_off channel=0 note=66 velocity=0 time=96
note_on channel=0 note=68 velocity=50 time=96
note_on channel=0 note=69 velocity=50 time=96
note_off channel=0 note=68 velocity=0 time=0
note_on channel=0 note=71 velocity=50 time=96
note_off channel=0 note=69 velocity=0 time=0
note_off channel=0 note=71 velocity=0 time=96
note_on channel=0 note=73 velocity=50 time=96
note_on channel=0 note=74 velocity=50 time=96
note_off channel=0 note=73 velocity=0 time=0
note_on channel=0 note=75 velocity=50 time=96
note_off channel=0 note=74 velocity=0 time=0
note_off channel=0 note=75 velocity=0 time=96
note_on channel=0 note=76 velocity=50 time=96
note_off channel=0 note=76 velocity=0 time=96
note_on channel=0 note=76 velocity=50 time=288
note_off channel=0 note=76 velocity=0 time=96
note_on channel=0 note=76 velocity=50 time=288
note_off channel=0 note=76 velocity=0 time=96
note_on channel=0 note=76 velocity=50 time=672
note_off channel=0 note=76 velocity=0 time=96
note_on channel=0 note=76 velocity=50 time=96
note_off channel=0 note=76 velocity=0 time=96
note_on channel=0 note=78 velocity=50 time=96
note_off channel=0 note=78 velocity=0 time=96
note_on channel=0 note=80 velocity=50 time=96
note_off channel=0 note=80 velocity=0 time=96
note_on channel=0 note=81 velocity=50 time=96
note_off channel=0 note=81 velocity=0 time=96
note_on channel=0 note=72 velocity=50 time=672
note_off channel=0 note=72 velocity=0 time=96
note_on channel=0 note=72 velocity=50 time=288
note_off channel=0 note=72 velocity=0 time=96
note_on channel=0 note=72 velocity=50 time=288
note_off channel=0 note=72 velocity=0 time=96
note_on channel=0 note=81 velocity=50 time=672
note_on channel=0 note=69 velocity=50 time=0
note_off channel=0 note=81 velocity=0 time=96
note_off channel=0 note=69 velocity=0 time=0
note_on channel=0 note=81 velocity=50 time=288
note_on channel=0 note=69 velocity=50 time=0
note_off channel=0 note=81 velocity=0 time=96
note_off channel=0 note=69 velocity=0 time=0
note_on channel=0 note=82 velocity=50 time=288
note_on channel=0 note=70 velocity=50 time=0
note_off channel=0 note=82 velocity=0 time=96
note_off channel=0 note=70 velocity=0 time=0
note_on channel=0 note=72 velocity=50 time=672
note_off channel=0 note=72 velocity=0 time=96
note_on channel=0 note=72 velocity=50 time=288
note_off channel=0 note=72 velocity=0 time=96
note_on channel=0 note=72 velocity=50 time=288
note_off channel=0 note=72 velocity=0 time=96
note_on channel=0 note=94 velocity=50 time=672
note_on channel=0 note=91 velocity=50 time=96
note_off channel=0 note=94 velocity=0 time=0
note_on channel=0 note=88 velocity=50 time=96
note_off channel=0 note=91 velocity=0 time=0
note_on channel=0 note=82 velocity=50 time=96
note_off channel=0 note=88 velocity=0 time=0
note_off channel=0 note=82 velocity=0 time=96
note_on channel=0 note=79 velocity=50 time=0
note_on channel=0 note=76 velocity=50 time=96
note_off channel=0 note=79 velocity=0 time=0
note_on channel=0 note=70 velocity=50 time=96
note_off channel=0 note=76 velocity=0 time=0
note_off channel=0 note=70 velocity=0 time=96
note_on channel=0 note=69 velocity=50 time=96
note_off channel=0 note=69 velocity=0 time=96
note_on channel=0 note=72 velocity=50 time=672
note_off channel=0 note=72 velocity=0 time=96
note_on channel=0 note=72 velocity=50 time=288
note_off channel=0 note=72 velocity=0 time=96
note_on channel=0 note=72 velocity=50 time=288
note_off channel=0 note=72 velocity=0 time=96
note_on channel=0 note=81 velocity=50 time=672
note_on channel=0 note=69 velocity=50 time=0
note_off channel=0 note=81 velocity=0 time=96
note_off channel=0 note=69 velocity=0 time=0
note_on channel=0 note=81 velocity=50 time=96
note_on channel=0 note=69 velocity=50 time=0
note_off channel=0 note=69 velocity=0 time=96
note_off channel=0 note=81 velocity=0 time=0
note_on channel=0 note=69 velocity=50 time=96
note_on channel=0 note=81 velocity=50 time=0
note_off channel=0 note=69 velocity=0 time=96
note_off channel=0 note=81 velocity=0 time=0
note_on channel=0 note=81 velocity=50 time=96
note_on channel=0 note=69 velocity=50 time=0
note_off channel=0 note=81 velocity=0 time=96
note_off channel=0 note=69 velocity=0 time=0
note_on channel=0 note=82 velocity=50 time=96
note_on channel=0 note=70 velocity=50 time=0
note_off channel=0 note=70 velocity=0 time=96
note_off channel=0 note=82 velocity=0 time=0
note_on channel=0 note=74 velocity=50 time=576
note_on channel=0 note=72 velocity=50 time=96
note_off channel=0 note=74 velocity=0 time=0
note_off channel=0 note=72 velocity=0 time=96
note_on channel=0 note=71 velocity=50 time=96
note_off channel=0 note=71 velocity=0 time=96
note_on channel=0 note=72 velocity=50 time=96
note_off channel=0 note=72 velocity=0 time=96
note_on channel=0 note=74 velocity=50 time=96
note_off channel=0 note=74 velocity=0 time=96
note_on channel=0 note=74 velocity=50 time=96
note_off channel=0 note=74 velocity=0 time=96
note_on channel=0 note=72 velocity=50 time=288
note_off channel=0 note=72 velocity=0 time=96
note_on channel=0 note=94 velocity=50 time=288
note_on channel=0 note=91 velocity=50 time=96
note_off channel=0 note=94 velocity=0 time=0
note_on channel=0 note=88 velocity=50 time=96
note_off channel=0 note=91 velocity=0 time=0
note_on channel=0 note=82 velocity=50 time=96
note_off channel=0 note=88 velocity=0 time=0
note_on channel=0 note=79 velocity=50 time=96
note_off channel=0 note=82 velocity=0 time=0
note_on channel=0 note=76 velocity=50 time=96
note_off channel=0 note=79 velocity=0 time=0
note_on channel=0 note=70 velocity=50 time=96
note_off channel=0 note=76 velocity=0 time=0
note_off channel=0 note=70 velocity=0 time=96
note_on channel=0 note=69 velocity=50 time=96
note_off channel=0 note=69 velocity=0 time=96
note_on channel=0 note=93 velocity=50 time=480
note_off channel=0 note=93 velocity=0 time=96
note_on channel=0 note=94 velocity=50 time=96
note_on channel=0 note=91 velocity=50 time=96
note_off channel=0 note=94 velocity=0 time=0
note_on channel=0 note=88 velocity=50 time=96
note_off channel=0 note=91 velocity=0 time=0
note_off channel=0 note=88 velocity=0 time=96
note_on channel=0 note=82 velocity=50 time=0
note_on channel=0 note=79 velocity=50 time=96
note_off channel=0 note=82 velocity=0 time=0
note_on channel=0 note=76 velocity=50 time=96
note_off channel=0 note=79 velocity=0 time=0
note_on channel=0 note=70 velocity=50 time=96
note_off channel=0 note=76 velocity=0 time=0
note_off channel=0 note=70 velocity=0 time=96
note_on channel=0 note=69 velocity=50 time=96
note_off channel=0 note=69 velocity=0 time=96
note_on channel=0 note=93 velocity=50 time=480
note_off channel=0 note=93 velocity=0 time=96
note_on channel=0 note=94 velocity=50 time=96
note_on channel=0 note=91 velocity=50 time=96
note_off channel=0 note=94 velocity=0 time=0
note_on channel=0 note=88 velocity=50 time=96
note_off channel=0 note=91 velocity=0 time=0
note_on channel=0 note=82 velocity=50 time=96
note_off channel=0 note=88 velocity=0 time=0
note_on channel=0 note=79 velocity=50 time=96
note_off channel=0 note=82 velocity=0 time=0
note_on channel=0 note=76 velocity=50 time=96
note_off channel=0 note=79 velocity=0 time=0
note_on channel=0 note=70 velocity=50 time=96
note_off channel=0 note=76 velocity=0 time=0
note_off channel=0 note=70 velocity=0 time=96
note_on channel=0 note=69 velocity=50 time=96
note_off channel=0 note=69 velocity=0 time=96
note_on channel=0 note=81 velocity=50 time=288
note_on channel=0 note=69 velocity=50 time=96
note_off channel=0 note=81 velocity=0 time=0
note_off channel=0 note=69 velocity=0 time=96
note_on channel=0 note=81 velocity=50 time=0
note_off channel=0 note=81 velocity=0 time=96
note_on channel=0 note=82 velocity=50 time=96
note_on channel=0 note=70 velocity=50 time=96
note_off channel=0 note=82 velocity=0 time=0
note_on channel=0 note=82 velocity=50 time=96
note_off channel=0 note=70 velocity=0 time=0
note_off channel=0 note=82 velocity=0 time=96
note_on channel=0 note=83 velocity=50 time=96
note_on channel=0 note=71 velocity=50 time=96
note_off channel=0 note=83 velocity=0 time=0
note_off channel=0 note=71 velocity=0 time=96
note_on channel=0 note=83 velocity=50 time=0
note_off channel=0 note=83 velocity=0 time=96
note_on channel=0 note=84 velocity=50 time=96
note_on channel=0 note=72 velocity=50 time=96
note_off channel=0 note=84 velocity=0 time=0
note_on channel=0 note=84 velocity=50 time=96
note_off channel=0 note=72 velocity=0 time=0
note_off channel=0 note=84 velocity=0 time=96
note_on channel=0 note=85 velocity=50 time=96
note_on channel=0 note=73 velocity=50 time=96
note_off channel=0 note=85 velocity=0 time=0
note_on channel=0 note=85 velocity=50 time=96
note_off channel=0 note=73 velocity=0 time=0
note_off channel=0 note=85 velocity=0 time=96
note_on channel=0 note=86 velocity=50 time=96
note_on channel=0 note=74 velocity=50 time=96
note_off channel=0 note=86 velocity=0 time=0
note_on channel=0 note=86 velocity=50 time=96
note_off channel=0 note=74 velocity=0 time=0
note_off channel=0 note=86 velocity=0 time=96
note_on channel=0 note=87 velocity=50 time=96
note_on channel=0 note=75 velocity=50 time=96
note_off channel=0 note=87 velocity=0 time=0
note_on channel=0 note=87 velocity=50 time=96
note_off channel=0 note=75 velocity=0 time=0
note_off channel=0 note=87 velocity=0 time=96
note_on channel=0 note=88 velocity=50 time=96
note_on channel=0 note=85 velocity=50 time=96
note_off channel=0 note=88 velocity=0 time=0
note_off channel=0 note=85 velocity=0 time=96
note_on channel=0 note=81 velocity=50 time=0
note_off channel=0 note=81 velocity=0 time=96
note_on channel=0 note=76 velocity=50 time=96
note_on channel=0 note=73 velocity=50 time=96
note_off channel=0 note=76 velocity=0 time=0
note_on channel=0 note=69 velocity=50 time=96
note_off channel=0 note=73 velocity=0 time=0
note_off channel=0 note=69 velocity=0 time=96
note_on channel=0 note=76 velocity=50 time=96
note_off channel=0 note=76 velocity=0 time=96
note_on channel=0 note=73 velocity=50 time=0
note_on channel=0 note=69 velocity=50 time=96
note_off channel=0 note=73 velocity=0 time=0
note_off channel=0 note=69 velocity=0 time=96
note_on channel=0 note=64 velocity=50 time=96
note_on channel=0 note=61 velocity=50 time=96
note_off channel=0 note=64 velocity=0 time=0
note_on channel=0 note=57 velocity=50 time=96
note_off channel=0 note=61 velocity=0 time=0
note_off channel=0 note=57 velocity=0 time=96
note_on channel=0 note=52 velocity=50 time=96
note_off channel=0 note=52 velocity=0 time=96
note_on channel=0 note=73 velocity=50 time=288
note_on channel=0 note=64 velocity=50 time=0
note_on channel=0 note=69 velocity=50 time=0
note_off channel=0 note=64 velocity=0 time=96
note_off channel=0 note=69 velocity=0 time=0
note_off channel=0 note=73 velocity=0 time=0
note_on channel=0 note=64 velocity=50 time=672
note_on channel=0 note=71 velocity=50 time=0
note_on channel=0 note=68 velocity=50 time=0
note_off channel=0 note=64 velocity=0 time=96
note_off channel=0 note=68 velocity=0 time=0
note_off channel=0 note=71 velocity=0 time=0
note_on channel=0 note=69 velocity=50 time=288
note_on channel=0 note=64 velocity=50 time=96
note_off channel=0 note=69 velocity=0 time=0
note_on channel=0 note=61 velocity=50 time=96
note_off channel=0 note=64 velocity=0 time=0
note_off channel=0 note=61 velocity=0 time=96
note_on channel=0 note=64 velocity=50 time=96
note_off channel=0 note=64 velocity=0 time=96
note_on channel=0 note=69 velocity=50 time=0
note_on channel=0 note=73 velocity=50 time=96
note_off channel=0 note=69 velocity=0 time=0
note_off channel=0 note=73 velocity=0 time=96
note_on channel=0 note=76 velocity=50 time=96
note_on channel=0 note=73 velocity=50 time=96
note_off channel=0 note=76 velocity=0 time=0
note_on channel=0 note=69 velocity=50 time=96
note_off channel=0 note=73 velocity=0 time=0
note_off channel=0 note=69 velocity=0 time=96
note_on channel=0 note=76 velocity=50 time=96
note_on channel=0 note=73 velocity=50 time=96
note_off channel=0 note=76 velocity=0 time=0
note_on channel=0 note=69 velocity=50 time=96
note_off channel=0 note=73 velocity=0 time=0
note_off channel=0 note=69 velocity=0 time=96
note_on channel=0 note=68 velocity=50 time=96
note_on channel=0 note=71 velocity=50 time=96
note_off channel=0 note=68 velocity=0 time=0
note_off channel=0 note=71 velocity=0 time=96
note_on channel=0 note=76 velocity=50 time=0
note_off channel=0 note=76 velocity=0 time=96
note_on channel=0 note=68 velocity=50 time=96
note_on channel=0 note=71 velocity=50 time=96
note_off channel=0 note=68 velocity=0 time=0
note_on channel=0 note=76 velocity=50 time=96
note_off channel=0 note=71 velocity=0 time=0
note_off channel=0 note=76 velocity=0 time=96
note_on channel=0 note=76 velocity=50 time=96
note_off channel=0 note=76 velocity=0 time=96
note_on channel=0 note=80 velocity=50 time=0
note_off channel=0 note=80 velocity=0 time=96
note_on channel=0 note=83 velocity=50 time=0
note_off channel=0 note=83 velocity=0 time=96
note_on channel=0 note=88 velocity=50 time=96
note_on channel=0 note=92 velocity=50 time=96
note_off channel=0 note=88 velocity=0 time=0
note_on channel=0 note=95 velocity=50 time=96
note_off channel=0 note=92 velocity=0 time=0
note_off channel=0 note=95 velocity=0 time=96
note_on channel=0 note=93 velocity=50 time=96
note_on channel=0 note=88 velocity=50 time=96
note_off channel=0 note=93 velocity=0 time=0
note_on channel=0 note=85 velocity=50 time=96
note_off channel=0 note=88 velocity=0 time=0
note_off channel=0 note=85 velocity=0 time=96
note_on channel=0 note=81 velocity=50 time=96
note_on channel=0 note=76 velocity=50 time=96
note_off channel=0 note=81 velocity=0 time=0
note_on channel=0 note=73 velocity=50 time=96
note_off channel=0 note=76 velocity=0 time=0
note_off channel=0 note=73 velocity=0 time=96
note_on channel=0 note=76 velocity=50 time=96
note_on channel=0 note=73 velocity=50 time=96
note_off channel=0 note=76 velocity=0 time=0
note_on channel=0 note=69 velocity=50 time=96
note_off channel=0 note=73 velocity=0 time=0
note_off channel=0 note=69 velocity=0 time=96
note_on channel=0 note=76 velocity=50 time=96
note_on channel=0 note=73 velocity=50 time=96
note_off channel=0 note=76 velocity=0 time=0
note_off channel=0 note=73 velocity=0 time=96
note_on channel=0 note=69 velocity=50 time=0
note_off channel=0 note=69 velocity=0 time=96
note_on channel=0 note=68 velocity=50 time=96
note_on channel=0 note=71 velocity=50 time=96
note_off channel=0 note=68 velocity=0 time=0
note_on channel=0 note=76 velocity=50 time=96
note_off channel=0 note=71 velocity=0 time=0
note_off channel=0 note=76 velocity=0 time=96
note_on channel=0 note=68 velocity=50 time=96
note_off channel=0 note=68 velocity=0 time=96
note_on channel=0 note=71 velocity=50 time=0
note_on channel=0 note=76 velocity=50 time=96
note_off channel=0 note=71 velocity=0 time=0
note_off channel=0 note=76 velocity=0 time=96
note_on channel=0 note=76 velocity=50 time=96
note_on channel=0 note=80 velocity=50 time=96
note_off channel=0 note=76 velocity=0 time=0
note_on channel=0 note=83 velocity=50 time=96
note_off channel=0 note=80 velocity=0 time=0
note_off channel=0 note=83 velocity=0 time=96
note_on channel=0 note=88 velocity=50 time=96
note_on channel=0 note=92 velocity=50 time=96
note_off channel=0 note=88 velocity=0 time=0
note_on channel=0 note=95 velocity=50 time=96
note_off channel=0 note=92 velocity=0 time=0
note_off channel=0 note=95 velocity=0 time=96
note_on channel=0 note=93 velocity=50 time=96
note_on channel=0 note=88 velocity=50 time=96
note_off channel=0 note=93 velocity=0 time=0
note_off channel=0 note=88 velocity=0 time=96
note_on channel=0 note=85 velocity=50 time=0
note_off channel=0 note=85 velocity=0 time=96
note_on channel=0 note=81 velocity=50 time=96
note_on channel=0 note=76 velocity=50 time=96
note_off channel=0 note=81 velocity=0 time=0
note_on channel=0 note=73 velocity=50 time=96
note_off channel=0 note=76 velocity=0 time=0
note_off channel=0 note=73 velocity=0 time=96
note_on channel=0 note=76 velocity=50 time=96
note_on channel=0 note=80 velocity=50 time=96
note_off channel=0 note=76 velocity=0 time=0
note_off channel=0 note=80 velocity=0 time=96
note_on channel=0 note=83 velocity=50 time=0
note_off channel=0 note=83 velocity=0 time=96
note_on channel=0 note=88 velocity=50 time=96
note_on channel=0 note=92 velocity=50 time=96
note_off channel=0 note=88 velocity=0 time=0
note_on channel=0 note=95 velocity=50 time=96
note_off channel=0 note=92 velocity=0 time=0
note_off channel=0 note=95 velocity=0 time=96
note_on channel=0 note=93 velocity=50 time=96
note_off channel=0 note=93 velocity=0 time=96
note_on channel=0 note=88 velocity=50 time=0
note_on channel=0 note=85 velocity=50 time=96
note_off channel=0 note=88 velocity=0 time=0
note_off channel=0 note=85 velocity=0 time=96
note_on channel=0 note=81 velocity=50 time=96
note_on channel=0 note=76 velocity=50 time=96
note_off channel=0 note=81 velocity=0 time=0
note_on channel=0 note=73 velocity=50 time=96
note_off channel=0 note=76 velocity=0 time=0
note_off channel=0 note=73 velocity=0 time=96
note_on channel=0 note=76 velocity=50 time=96
note_on channel=0 note=80 velocity=50 time=96
note_off channel=0 note=76 velocity=0 time=0
note_on channel=0 note=83 velocity=50 time=96
note_off channel=0 note=80 velocity=0 time=0
note_off channel=0 note=83 velocity=0 time=96
note_on channel=0 note=88 velocity=50 time=96
note_on channel=0 note=92 velocity=50 time=96
note_off channel=0 note=88 velocity=0 time=0
note_off channel=0 note=92 velocity=0 time=96
note_on channel=0 note=95 velocity=50 time=0
note_off channel=0 note=95 velocity=0 time=96
note_on channel=0 note=93 velocity=50 time=96
note_on channel=0 note=88 velocity=50 time=96
note_off channel=0 note=93 velocity=0 time=0
note_on channel=0 note=85 velocity=50 time=96
note_off channel=0 note=88 velocity=0 time=0
note_off channel=0 note=85 velocity=0 time=96
note_on channel=0 note=81 velocity=50 time=96
note_off channel=0 note=81 velocity=0 time=96
note_on channel=0 note=76 velocity=50 time=0
note_on channel=0 note=73 velocity=50 time=96
note_off channel=0 note=76 velocity=0 time=0
note_off channel=0 note=73 velocity=0 time=96
note_on channel=0 note=80 velocity=50 time=96
note_on channel=0 note=86 velocity=50 time=0
note_on channel=0 note=88 velocity=50 time=0
note_off channel=0 note=80 velocity=0 time=96
note_off channel=0 note=86 velocity=0 time=0
note_off channel=0 note=88 velocity=0 time=0
note_on channel=0 note=86 velocity=50 time=288
note_on channel=0 note=88 velocity=50 time=0
note_on channel=0 note=80 velocity=50 time=0
note_off channel=0 note=88 velocity=0 time=96
note_off channel=0 note=80 velocity=0 time=0
note_off channel=0 note=86 velocity=0 time=0
note_on channel=0 note=81 velocity=50 time=288
note_on channel=0 note=85 velocity=50 time=0
note_on channel=0 note=88 velocity=50 time=0
note_off channel=0 note=88 velocity=0 time=96
note_off channel=0 note=81 velocity=0 time=0
note_off channel=0 note=85 velocity=0 time=0
note_on channel=0 note=80 velocity=50 time=672
note_on channel=0 note=86 velocity=50 time=0
note_on channel=0 note=88 velocity=50 time=0
note_off channel=0 note=80 velocity=0 time=96
note_off channel=0 note=86 velocity=0 time=0
note_off channel=0 note=88 velocity=0 time=0
note_on channel=0 note=86 velocity=50 time=288
note_on channel=0 note=88 velocity=50 time=0
note_on channel=0 note=80 velocity=50 time=0
note_off channel=0 note=80 velocity=0 time=96
note_off channel=0 note=88 velocity=0 time=0
note_off channel=0 note=86 velocity=0 time=0
note_on channel=0 note=85 velocity=50 time=288
note_on channel=0 note=88 velocity=50 time=0
note_on channel=0 note=81 velocity=50 time=0
note_off channel=0 note=85 velocity=0 time=96
note_off channel=0 note=88 velocity=0 time=0
note_off channel=0 note=81 velocity=0 time=0
note_on channel=0 note=88 velocity=50 time=672
note_on channel=0 note=86 velocity=50 time=0
note_on channel=0 note=80 velocity=50 time=0
note_off channel=0 note=80 velocity=0 time=96
note_off channel=0 note=86 velocity=0 time=0
note_off channel=0 note=88 velocity=0 time=0
note_on channel=0 note=80 velocity=50 time=288
note_on channel=0 note=86 velocity=50 time=0
note_on channel=0 note=88 velocity=50 time=0
note_off channel=0 note=80 velocity=0 time=96
note_off channel=0 note=86 velocity=0 time=0
note_off channel=0 note=88 velocity=0 time=0
note_on channel=0 note=61 velocity=50 time=1824
note_off channel=0 note=61 velocity=0 time=96
note_on channel=0 note=64 velocity=50 time=288
note_on channel=0 note=61 velocity=50 time=0
note_off channel=0 note=61 velocity=0 time=96
note_off channel=0 note=64 velocity=0 time=0
note_on channel=0 note=61 velocity=50 time=672
note_on channel=0 note=64 velocity=50 time=0
note_on channel=0 note=69 velocity=50 time=0
note_off channel=0 note=61 velocity=0 time=96
note_off channel=0 note=64 velocity=0 time=0
note_off channel=0 note=69 velocity=0 time=0
note_on channel=0 note=69 velocity=50 time=288
note_on channel=0 note=62 velocity=50 time=0
note_on channel=0 note=64 velocity=50 time=0
note_off channel=0 note=64 velocity=0 time=96
note_off channel=0 note=62 velocity=0 time=0
note_off channel=0 note=69 velocity=0 time=0
note_on channel=0 note=68 velocity=50 time=288
note_off channel=0 note=68 velocity=0 time=96
note_on channel=0 note=69 velocity=50 time=288
note_on channel=0 note=64 velocity=50 time=0
note_on channel=0 note=61 velocity=50 time=0
note_off channel=0 note=64 velocity=0 time=96
note_off channel=0 note=69 velocity=0 time=0
note_off channel=0 note=61 velocity=0 time=0
note_on channel=0 note=66 velocity=50 time=672
note_on channel=0 note=69 velocity=50 time=0
note_on channel=0 note=71 velocity=50 time=0
note_off channel=0 note=66 velocity=0 time=96
note_off channel=0 note=69 velocity=0 time=0
note_off channel=0 note=71 velocity=0 time=0
note_on channel=0 note=69 velocity=50 time=480
note_on channel=0 note=71 velocity=50 time=0
note_on channel=0 note=66 velocity=50 time=0
note_off channel=0 note=71 velocity=0 time=96
note_off channel=0 note=66 velocity=0 time=0
note_off channel=0 note=69 velocity=0 time=0
note_on channel=0 note=66 velocity=50 time=96
note_on channel=0 note=69 velocity=50 time=0
note_on channel=0 note=73 velocity=50 time=0
note_off channel=0 note=66 velocity=0 time=96
note_off channel=0 note=69 velocity=0 time=0
note_off channel=0 note=73 velocity=0 time=0
note_on channel=0 note=61 velocity=50 time=288
note_on channel=0 note=66 velocity=50 time=0
note_on channel=0 note=69 velocity=50 time=0
note_off channel=0 note=66 velocity=0 time=96
note_off channel=0 note=61 velocity=0 time=0
note_off channel=0 note=69 velocity=0 time=0
note_on channel=0 note=61 velocity=50 time=288
note_on channel=0 note=64 velocity=50 time=0
note_on channel=0 note=69 velocity=50 time=0
note_off channel=0 note=61 velocity=0 time=96
note_off channel=0 note=64 velocity=0 time=0
note_off channel=0 note=69 velocity=0 time=0
note_on channel=0 note=68 velocity=50 time=672
note_off channel=0 note=68 velocity=0 time=96
note_on channel=0 note=66 velocity=50 time=96
note_off channel=0 note=66 velocity=0 time=96
note_on channel=0 note=64 velocity=50 time=96
note_off channel=0 note=64 velocity=0 time=96
note_on channel=0 note=62 velocity=50 time=96
note_off channel=0 note=62 velocity=0 time=96
note_on channel=0 note=72 velocity=50 time=1632
note_off channel=0 note=72 velocity=0 time=96
note_on channel=0 note=72 velocity=50 time=288
note_on channel=0 note=76 velocity=50 time=0
note_off channel=0 note=76 velocity=0 time=96
note_off channel=0 note=72 velocity=0 time=0
note_on channel=0 note=81 velocity=50 time=672
note_on channel=0 note=76 velocity=50 time=0
note_on channel=0 note=72 velocity=50 time=0
note_off channel=0 note=81 velocity=0 time=96
note_off channel=0 note=76 velocity=0 time=0
note_off channel=0 note=72 velocity=0 time=0
note_on channel=0 note=81 velocity=50 time=288
note_on channel=0 note=74 velocity=50 time=0
note_on channel=0 note=76 velocity=50 time=0
note_off channel=0 note=74 velocity=0 time=96
note_off channel=0 note=81 velocity=0 time=0
note_off channel=0 note=76 velocity=0 time=0
note_on channel=0 note=80 velocity=50 time=288
note_off channel=0 note=80 velocity=0 time=96
note_on channel=0 note=81 velocity=50 time=288
note_on channel=0 note=72 velocity=50 time=0
note_on channel=0 note=76 velocity=50 time=0
note_off channel=0 note=72 velocity=0 time=96
note_off channel=0 note=81 velocity=0 time=0
note_off channel=0 note=76 velocity=0 time=0
note_on channel=0 note=82 velocity=50 time=672
note_on channel=0 note=77 velocity=50 time=0
note_off channel=0 note=82 velocity=0 time=96
note_off channel=0 note=77 velocity=0 time=0
note_on channel=0 note=84 velocity=50 time=288
note_on channel=0 note=76 velocity=50 time=0
note_off channel=0 note=84 velocity=0 time=96
note_off channel=0 note=76 velocity=0 time=0
note_on channel=0 note=86 velocity=50 time=96
note_on channel=0 note=74 velocity=50 time=0
note_off channel=0 note=86 velocity=0 time=96
note_off channel=0 note=74 velocity=0 time=0
note_on channel=0 note=77 velocity=50 time=96
note_on channel=0 note=84 velocity=50 time=0
note_off channel=0 note=77 velocity=0 time=96
note_off channel=0 note=84 velocity=0 time=0
note_on channel=0 note=84 velocity=50 time=288
note_on channel=0 note=76 velocity=50 time=0
note_off channel=0 note=76 velocity=0 time=96
note_off channel=0 note=84 velocity=0 time=0
note_on channel=0 note=72 velocity=50 time=1824
note_on channel=0 note=60 velocity=50 time=0
note_off channel=0 note=72 velocity=0 time=96
note_off channel=0 note=60 velocity=0 time=0
note_on channel=0 note=72 velocity=50 time=480
note_on channel=0 note=60 velocity=50 time=0
note_off channel=0 note=72 velocity=0 time=96
note_off channel=0 note=60 velocity=0 time=0
note_on channel=0 note=62 velocity=50 time=96
note_on channel=0 note=74 velocity=50 time=0
note_off channel=0 note=74 velocity=0 time=96
note_off channel=0 note=62 velocity=0 time=0
note_on channel=0 note=72 velocity=50 time=672
note_on channel=0 note=60 velocity=50 time=0
note_off channel=0 note=72 velocity=0 time=96
note_off channel=0 note=60 velocity=0 time=0
note_on channel=0 note=71 velocity=50 time=288
note_on channel=0 note=59 velocity=50 time=0
note_off channel=0 note=71 velocity=0 time=96
note_off channel=0 note=59 velocity=0 time=0
note_on channel=0 note=67 velocity=50 time=288
note_on channel=0 note=55 velocity=50 time=0
note_off channel=0 note=67 velocity=0 time=96
note_off channel=0 note=55 velocity=0 time=0
note_on channel=0 note=69 velocity=50 time=480
note_on channel=0 note=57 velocity=50 time=0
note_off channel=0 note=69 velocity=0 time=96
note_off channel=0 note=57 velocity=0 time=0
note_on channel=0 note=58 velocity=50 time=96
note_on channel=0 note=70 velocity=50 time=0
note_off channel=0 note=70 velocity=0 time=96
note_off channel=0 note=58 velocity=0 time=0
note_on channel=0 note=70 velocity=50 time=480
note_on channel=0 note=58 velocity=50 time=0
note_off channel=0 note=70 velocity=0 time=96
note_off channel=0 note=58 velocity=0 time=0
note_on channel=0 note=60 velocity=50 time=96
note_on channel=0 note=72 velocity=50 time=0
note_off channel=0 note=72 velocity=0 time=96
note_off channel=0 note=60 velocity=0 time=0
note_on channel=0 note=65 velocity=50 time=672
note_off channel=0 note=65 velocity=0 time=96
note_on channel=0 note=67 velocity=50 time=96
note_on channel=0 note=65 velocity=50 time=0
note_on channel=0 note=64 velocity=50 time=96
note_off channel=0 note=67 velocity=0 time=0
note_off channel=0 note=65 velocity=0 time=0
note_off channel=0 note=64 velocity=0 time=96
note_on channel=0 note=65 velocity=50 time=0
note_off channel=0 note=65 velocity=0 time=96
note_on channel=0 note=67 velocity=50 time=96
note_off channel=0 note=67 velocity=0 time=96
note_on channel=0 note=69 velocity=50 time=96
note_on channel=0 note=65 velocity=50 time=0
note_on channel=0 note=60 velocity=50 time=0
note_off channel=0 note=69 velocity=0 time=96
note_off channel=0 note=65 velocity=0 time=0
note_off channel=0 note=60 velocity=0 time=0
note_on channel=0 note=81 velocity=50 time=2208
note_off channel=0 note=81 velocity=0 time=96
note_on channel=0 note=81 velocity=50 time=96
note_on channel=0 note=83 velocity=50 time=0
note_on channel=0 note=80 velocity=50 time=96
note_off channel=0 note=81 velocity=0 time=0
note_off channel=0 note=83 velocity=0 time=0
note_on channel=0 note=81 velocity=50 time=96
note_off channel=0 note=80 velocity=0 time=0
note_off channel=0 note=81 velocity=0 time=96
note_on channel=0 note=83 velocity=50 time=96
note_off channel=0 note=83 velocity=0 time=96
note_on channel=0 note=84 velocity=50 time=96
note_on channel=0 note=81 velocity=50 time=0
note_on channel=0 note=75 velocity=50 time=0
note_off channel=0 note=84 velocity=0 time=96
note_off channel=0 note=81 velocity=0 time=0
note_off channel=0 note=75 velocity=0 time=0
note_on channel=0 note=69 velocity=50 time=2208
note_off channel=0 note=69 velocity=0 time=96
note_on channel=0 note=69 velocity=50 time=96
note_on channel=0 note=71 velocity=50 time=0
note_off channel=0 note=71 velocity=0 time=96
note_on channel=0 note=68 velocity=50 time=0
note_off channel=0 note=69 velocity=0 time=0
note_on channel=0 note=69 velocity=50 time=96
note_off channel=0 note=68 velocity=0 time=0
note_off channel=0 note=69 velocity=0 time=96
note_on channel=0 note=71 velocity=50 time=96
note_off channel=0 note=71 velocity=0 time=96
note_on channel=0 note=64 velocity=50 time=96
note_on channel=0 note=69 velocity=50 time=0
note_on channel=0 note=73 velocity=50 time=0
note_off channel=0 note=73 velocity=0 time=96
note_off channel=0 note=64 velocity=0 time=0
note_off channel=0 note=69 velocity=0 time=0
note_on channel=0 note=71 velocity=50 time=672
note_on channel=0 note=66 velocity=50 time=0
note_on channel=0 note=69 velocity=50 time=0
note_off channel=0 note=71 velocity=0 time=96
note_off channel=0 note=66 velocity=0 time=0
note_off channel=0 note=69 velocity=0 time=0
note_on channel=0 note=69 velocity=50 time=288
note_on channel=0 note=71 velocity=50 time=0
note_on channel=0 note=66 velocity=50 time=0
note_off channel=0 note=71 velocity=0 time=96
note_off channel=0 note=69 velocity=0 time=0
note_off channel=0 note=66 velocity=0 time=0
note_on channel=0 note=64 velocity=50 time=288
note_on channel=0 note=68 velocity=50 time=0
note_on channel=0 note=71 velocity=50 time=0
note_off channel=0 note=64 velocity=0 time=96
note_off channel=0 note=68 velocity=0 time=0
note_off channel=0 note=71 velocity=0 time=0
note_on channel=0 note=68 velocity=50 time=288
note_on channel=0 note=64 velocity=50 time=0
note_on channel=0 note=74 velocity=50 time=0
note_off channel=0 note=68 velocity=0 time=96
note_off channel=0 note=64 velocity=0 time=0
note_off channel=0 note=74 velocity=0 time=0
note_on channel=0 note=73 velocity=50 time=192
note_on channel=0 note=64 velocity=50 time=96
note_on channel=0 note=73 velocity=50 time=0
note_off channel=0 note=73 velocity=0 time=0
note_on channel=0 note=69 velocity=50 time=0
note_off channel=0 note=69 velocity=0 time=96
note_off channel=0 note=73 velocity=0 time=0
note_off channel=0 note=64 velocity=0 time=0
note_on channel=0 note=64 velocity=50 time=672
note_on channel=0 note=76 velocity=50 time=0
note_on channel=0 note=69 velocity=50 time=0
note_off channel=0 note=76 velocity=0 time=96
note_off channel=0 note=64 velocity=0 time=0
note_off channel=0 note=69 velocity=0 time=0
note_on channel=0 note=74 velocity=50 time=480
note_on channel=0 note=73 velocity=50 time=96
note_off channel=0 note=74 velocity=0 time=0
note_on channel=0 note=66 velocity=50 time=96
note_on channel=0 note=69 velocity=50 time=0
note_on channel=0 note=71 velocity=50 time=0
note_off channel=0 note=73 velocity=0 time=0
note_off channel=0 note=66 velocity=0 time=96
note_off channel=0 note=69 velocity=0 time=0
note_off channel=0 note=71 velocity=0 time=0
note_on channel=0 note=71 velocity=50 time=288
note_on channel=0 note=66 velocity=50 time=0
note_on channel=0 note=69 velocity=50 time=0
note_off channel=0 note=66 velocity=0 time=96
note_off channel=0 note=69 velocity=0 time=0
note_off channel=0 note=71 velocity=0 time=0
note_on channel=0 note=68 velocity=50 time=288
note_on channel=0 note=71 velocity=50 time=0
note_on channel=0 note=64 velocity=50 time=0
note_off channel=0 note=71 velocity=0 time=96
note_off channel=0 note=68 velocity=0 time=0
note_off channel=0 note=64 velocity=0 time=0
note_on channel=0 note=68 velocity=50 time=288
note_on channel=0 note=64 velocity=50 time=0
note_on channel=0 note=74 velocity=50 time=0
note_off channel=0 note=68 velocity=0 time=96
note_off channel=0 note=64 velocity=0 time=0
note_off channel=0 note=74 velocity=0 time=0
note_on channel=0 note=73 velocity=50 time=192
note_off channel=0 note=73 velocity=0 time=96
note_on channel=0 note=61 velocity=50 time=1536
note_on channel=0 note=64 velocity=50 time=96
note_off channel=0 note=61 velocity=0 time=0
note_on channel=0 note=69 velocity=50 time=96
note_off channel=0 note=64 velocity=0 time=0
note_off channel=0 note=69 velocity=0 time=96
note_on channel=0 note=73 velocity=50 time=96
note_on channel=0 note=76 velocity=50 time=96
note_off channel=0 note=73 velocity=0 time=0
note_on channel=0 note=81 velocity=50 time=96
note_off channel=0 note=76 velocity=0 time=0
note_off channel=0 note=81 velocity=0 time=96
note_on channel=0 note=85 velocity=50 time=96
note_on channel=0 note=81 velocity=50 time=96
note_off channel=0 note=85 velocity=0 time=0
note_on channel=0 note=85 velocity=50 time=96
note_off channel=0 note=81 velocity=0 time=0
note_off channel=0 note=85 velocity=0 time=96
note_on channel=0 note=88 velocity=50 time=96
note_on channel=0 note=85 velocity=50 time=96
note_off channel=0 note=88 velocity=0 time=0
note_on channel=0 note=88 velocity=50 time=96
note_off channel=0 note=85 velocity=0 time=0
note_off channel=0 note=88 velocity=0 time=96
note_on channel=0 note=61 velocity=50 time=96
note_on channel=0 note=64 velocity=50 time=96
note_off channel=0 note=61 velocity=0 time=0
note_on channel=0 note=69 velocity=50 time=96
note_off channel=0 note=64 velocity=0 time=0
note_off channel=0 note=69 velocity=0 time=96
note_on channel=0 note=73 velocity=50 time=96
note_on channel=0 note=76 velocity=50 time=96
note_off channel=0 note=73 velocity=0 time=0
note_on channel=0 note=81 velocity=50 time=96
note_off channel=0 note=76 velocity=0 time=0
note_off channel=0 note=81 velocity=0 time=96
note_on channel=0 note=85 velocity=50 time=96
note_on channel=0 note=81 velocity=50 time=96
note_off channel=0 note=85 velocity=0 time=0
note_on channel=0 note=85 velocity=50 time=96
note_off channel=0 note=81 velocity=0 time=0
note_off channel=0 note=85 velocity=0 time=96
note_on channel=0 note=88 velocity=50 time=96
note_on channel=0 note=85 velocity=50 time=96
note_off channel=0 note=88 velocity=0 time=0
note_on channel=0 note=88 velocity=50 time=96
note_off channel=0 note=85 velocity=0 time=0
note_off channel=0 note=88 velocity=0 time=96
note_on channel=0 note=74 velocity=50 time=96
note_on channel=0 note=78 velocity=50 time=96
note_off channel=0 note=74 velocity=0 time=0
note_on channel=0 note=81 velocity=50 time=96
note_off channel=0 note=78 velocity=0 time=0
note_off channel=0 note=81 velocity=0 time=96
note_on channel=0 note=86 velocity=50 time=96
note_on channel=0 note=90 velocity=50 time=96
note_off channel=0 note=86 velocity=0 time=0
note_off channel=0 note=90 velocity=0 time=96
note_on channel=0 note=93 velocity=50 time=0
note_off channel=0 note=93 velocity=0 time=96
note_on channel=0 note=73 velocity=50 time=96
note_on channel=0 note=76 velocity=50 time=96
note_off channel=0 note=73 velocity=0 time=0
note_on channel=0 note=81 velocity=50 time=96
note_off channel=0 note=76 velocity=0 time=0
note_off channel=0 note=81 velocity=0 time=96
note_on channel=0 note=85 velocity=50 time=96
note_on channel=0 note=88 velocity=50 time=96
note_off channel=0 note=85 velocity=0 time=0
note_on channel=0 note=93 velocity=50 time=96
note_off channel=0 note=88 velocity=0 time=0
note_off channel=0 note=93 velocity=0 time=96
note_on channel=0 note=74 velocity=50 time=96
note_on channel=0 note=78 velocity=50 time=96
note_off channel=0 note=74 velocity=0 time=0
note_on channel=0 note=81 velocity=50 time=96
note_off channel=0 note=78 velocity=0 time=0
note_off channel=0 note=81 velocity=0 time=96
note_on channel=0 note=86 velocity=50 time=96
note_on channel=0 note=90 velocity=50 time=96
note_off channel=0 note=86 velocity=0 time=0
note_on channel=0 note=93 velocity=50 time=96
note_off channel=0 note=90 velocity=0 time=0
note_off channel=0 note=93 velocity=0 time=96
note_on channel=0 note=73 velocity=50 time=96
note_on channel=0 note=76 velocity=50 time=96
note_off channel=0 note=73 velocity=0 time=0
note_off channel=0 note=76 velocity=0 time=96
note_on channel=0 note=81 velocity=50 time=0
note_off channel=0 note=81 velocity=0 time=96
note_on channel=0 note=85 velocity=50 time=96
note_on channel=0 note=88 velocity=50 time=96
note_off channel=0 note=85 velocity=0 time=0
note_on channel=0 note=93 velocity=50 time=96
note_off channel=0 note=88 velocity=0 time=0
note_off channel=0 note=93 velocity=0 time=96
note_on channel=0 note=62 velocity=50 time=96
note_on channel=0 note=65 velocity=50 time=96
note_off channel=0 note=62 velocity=0 time=0
note_off channel=0 note=65 velocity=0 time=96
note_on channel=0 note=64 velocity=50 time=0
note_off channel=0 note=64 velocity=0 time=96
note_on channel=0 note=65 velocity=50 time=96
note_on channel=0 note=69 velocity=50 time=96
note_off channel=0 note=65 velocity=0 time=0
note_on channel=0 note=68 velocity=50 time=96
note_off channel=0 note=69 velocity=0 time=0
note_off channel=0 note=68 velocity=0 time=96
note_on channel=0 note=69 velocity=50 time=96
note_on channel=0 note=74 velocity=50 time=96
note_off channel=0 note=69 velocity=0 time=0
note_on channel=0 note=73 velocity=50 time=96
note_off channel=0 note=74 velocity=0 time=0
note_off channel=0 note=73 velocity=0 time=96
note_on channel=0 note=74 velocity=50 time=96
note_on channel=0 note=86 velocity=50 time=96
note_off channel=0 note=74 velocity=0 time=0
note_on channel=0 note=85 velocity=50 time=96
note_off channel=0 note=86 velocity=0 time=0
note_off channel=0 note=85 velocity=0 time=96
note_on channel=0 note=86 velocity=50 time=96
note_on channel=0 note=82 velocity=50 time=96
note_off channel=0 note=86 velocity=0 time=0
note_on channel=0 note=77 velocity=50 time=96
note_off channel=0 note=82 velocity=0 time=0
note_off channel=0 note=77 velocity=0 time=96
note_on channel=0 note=74 velocity=50 time=96
note_on channel=0 note=70 velocity=50 time=96
note_off channel=0 note=74 velocity=0 time=0
note_on channel=0 note=65 velocity=50 time=96
note_off channel=0 note=70 velocity=0 time=0
note_off channel=0 note=65 velocity=0 time=96
note_on channel=0 note=62 velocity=50 time=96
note_on channel=0 note=65 velocity=50 time=96
note_off channel=0 note=62 velocity=0 time=0
note_on channel=0 note=70 velocity=50 time=96
note_off channel=0 note=65 velocity=0 time=0
note_off channel=0 note=70 velocity=0 time=96
note_on channel=0 note=74 velocity=50 time=96
note_on channel=0 note=70 velocity=50 time=96
note_off channel=0 note=74 velocity=0 time=0
note_off channel=0 note=70 velocity=0 time=96
note_on channel=0 note=65 velocity=50 time=0
note_off channel=0 note=65 velocity=0 time=96
note_on channel=0 note=62 velocity=50 time=96
note_on channel=0 note=65 velocity=50 time=96
note_off channel=0 note=62 velocity=0 time=0
note_on channel=0 note=64 velocity=50 time=96
note_off channel=0 note=65 velocity=0 time=0
note_off channel=0 note=64 velocity=0 time=96
note_on channel=0 note=65 velocity=50 time=96
note_on channel=0 note=69 velocity=50 time=96
note_off channel=0 note=65 velocity=0 time=0
note_on channel=0 note=68 velocity=50 time=96
note_off channel=0 note=69 velocity=0 time=0
note_off channel=0 note=68 velocity=0 time=96
note_on channel=0 note=69 velocity=50 time=96
note_on channel=0 note=74 velocity=50 time=96
note_off channel=0 note=69 velocity=0 time=0
note_on channel=0 note=73 velocity=50 time=96
note_off channel=0 note=74 velocity=0 time=0
note_off channel=0 note=73 velocity=0 time=96
note_on channel=0 note=74 velocity=50 time=96
note_on channel=0 note=86 velocity=50 time=96
note_off channel=0 note=74 velocity=0 time=0
note_on channel=0 note=85 velocity=50 time=96
note_off channel=0 note=86 velocity=0 time=0
note_off channel=0 note=85 velocity=0 time=96
note_on channel=0 note=86 velocity=50 time=96
note_on channel=0 note=82 velocity=50 time=96
note_off channel=0 note=86 velocity=0 time=0
note_off channel=0 note=82 velocity=0 time=96
note_on channel=0 note=77 velocity=50 time=0
note_off channel=0 note=77 velocity=0 time=96
note_on channel=0 note=74 velocity=50 time=96
note_on channel=0 note=70 velocity=50 time=96
note_off channel=0 note=74 velocity=0 time=0
note_on channel=0 note=65 velocity=50 time=96
note_off channel=0 note=70 velocity=0 time=0
note_off channel=0 note=65 velocity=0 time=96
note_on channel=0 note=62 velocity=50 time=96
note_on channel=0 note=65 velocity=50 time=96
note_off channel=0 note=62 velocity=0 time=0
note_off channel=0 note=65 velocity=0 time=96
note_on channel=0 note=70 velocity=50 time=0
note_off channel=0 note=70 velocity=0 time=96
note_on channel=0 note=74 velocity=50 time=96
note_on channel=0 note=68 velocity=50 time=0
note_on channel=0 note=65 velocity=50 time=0
note_off channel=0 note=74 velocity=0 time=96
note_off channel=0 note=68 velocity=0 time=0
note_off channel=0 note=65 velocity=0 time=0
note_on channel=0 note=69 velocity=50 time=288
note_on channel=0 note=72 velocity=50 time=96
note_off channel=0 note=69 velocity=0 time=0
note_on channel=0 note=71 velocity=50 time=96
note_off channel=0 note=72 velocity=0 time=0
note_off channel=0 note=71 velocity=0 time=96
note_on channel=0 note=72 velocity=50 time=96
note_on channel=0 note=76 velocity=50 time=96
note_off channel=0 note=72 velocity=0 time=0
note_on channel=0 note=75 velocity=50 time=96
note_off channel=0 note=76 velocity=0 time=0
note_off channel=0 note=75 velocity=0 time=96
note_on channel=0 note=76 velocity=50 time=96
note_on channel=0 note=81 velocity=50 time=96
note_off channel=0 note=76 velocity=0 time=0
note_on channel=0 note=80 velocity=50 time=96
note_off channel=0 note=81 velocity=0 time=0
note_off channel=0 note=80 velocity=0 time=96
note_on channel=0 note=81 velocity=50 time=96
note_on channel=0 note=93 velocity=50 time=96
note_off channel=0 note=81 velocity=0 time=0
note_off channel=0 note=93 velocity=0 time=96
note_on channel=0 note=92 velocity=50 time=0
note_off channel=0 note=92 velocity=0 time=96
note_on channel=0 note=93 velocity=50 time=96
note_on channel=0 note=89 velocity=50 time=96
note_off channel=0 note=93 velocity=0 time=0
note_on channel=0 note=84 velocity=50 time=96
note_off channel=0 note=89 velocity=0 time=0
note_off channel=0 note=84 velocity=0 time=96
note_on channel=0 note=81 velocity=50 time=96
note_on channel=0 note=77 velocity=50 time=96
note_off channel=0 note=81 velocity=0 time=0
note_off channel=0 note=77 velocity=0 time=96
note_on channel=0 note=72 velocity=50 time=0
note_off channel=0 note=72 velocity=0 time=96
note_on channel=0 note=69 velocity=50 time=96
note_on channel=0 note=72 velocity=50 time=96
note_off channel=0 note=69 velocity=0 time=0
note_on channel=0 note=77 velocity=50 time=96
note_off channel=0 note=72 velocity=0 time=0
note_off channel=0 note=77 velocity=0 time=96
note_on channel=0 note=81 velocity=50 time=96
note_on channel=0 note=77 velocity=50 time=96
note_off channel=0 note=81 velocity=0 time=0
note_on channel=0 note=72 velocity=50 time=96
note_off channel=0 note=77 velocity=0 time=0
note_off channel=0 note=72 velocity=0 time=96
note_on channel=0 note=69 velocity=50 time=96
note_on channel=0 note=72 velocity=50 time=96
note_off channel=0 note=69 velocity=0 time=0
note_on channel=0 note=71 velocity=50 time=96
note_off channel=0 note=72 velocity=0 time=0
note_off channel=0 note=71 velocity=0 time=96
note_on channel=0 note=72 velocity=50 time=96
note_on channel=0 note=76 velocity=50 time=96
note_off channel=0 note=72 velocity=0 time=0
note_on channel=0 note=75 velocity=50 time=96
note_off channel=0 note=76 velocity=0 time=0
note_off channel=0 note=75 velocity=0 time=96
note_on channel=0 note=76 velocity=50 time=96
note_on channel=0 note=81 velocity=50 time=96
note_off channel=0 note=76 velocity=0 time=0
note_off channel=0 note=81 velocity=0 time=96
note_on channel=0 note=80 velocity=50 time=0
note_off channel=0 note=80 velocity=0 time=96
note_on channel=0 note=81 velocity=50 time=96
note_on channel=0 note=93 velocity=50 time=96
note_off channel=0 note=81 velocity=0 time=0
note_on channel=0 note=92 velocity=50 time=96
note_off channel=0 note=93 velocity=0 time=0
note_off channel=0 note=92 velocity=0 time=96
note_on channel=0 note=93 velocity=50 time=96
note_on channel=0 note=89 velocity=50 time=96
note_off channel=0 note=93 velocity=0 time=0
note_off channel=0 note=89 velocity=0 time=96
note_on channel=0 note=84 velocity=50 time=0
note_off channel=0 note=84 velocity=0 time=96
note_on channel=0 note=81 velocity=50 time=96
note_on channel=0 note=77 velocity=50 time=96
note_off channel=0 note=81 velocity=0 time=0
note_on channel=0 note=72 velocity=50 time=96
note_off channel=0 note=77 velocity=0 time=0
note_off channel=0 note=72 velocity=0 time=96
note_on channel=0 note=69 velocity=50 time=96
note_on channel=0 note=72 velocity=50 time=96
note_off channel=0 note=69 velocity=0 time=0
note_on channel=0 note=77 velocity=50 time=96
note_off channel=0 note=72 velocity=0 time=0
note_off channel=0 note=77 velocity=0 time=96
note_on channel=0 note=72 velocity=50 time=96
note_on channel=0 note=84 velocity=50 time=96
note_off channel=0 note=72 velocity=0 time=0
note_on channel=0 note=83 velocity=50 time=96
note_off channel=0 note=84 velocity=0 time=0
note_off channel=0 note=83 velocity=0 time=96
note_on channel=0 note=72 velocity=50 time=96
note_on channel=0 note=84 velocity=50 time=96
note_off channel=0 note=72 velocity=0 time=0
note_on channel=0 note=80 velocity=50 time=96
note_off channel=0 note=84 velocity=0 time=0
note_off channel=0 note=80 velocity=0 time=96
note_on channel=0 note=77 velocity=50 time=96
note_on channel=0 note=72 velocity=50 time=96
note_off channel=0 note=77 velocity=0 time=0
note_off channel=0 note=72 velocity=0 time=96
note_on channel=0 note=68 velocity=50 time=0
note_off channel=0 note=68 velocity=0 time=96
note_on channel=0 note=65 velocity=50 time=96
note_on channel=0 note=68 velocity=50 time=96
note_off channel=0 note=65 velocity=0 time=0
note_on channel=0 note=72 velocity=50 time=96
note_off channel=0 note=68 velocity=0 time=0
note_off channel=0 note=72 velocity=0 time=96
note_on channel=0 note=73 velocity=50 time=96
note_on channel=0 note=85 velocity=50 time=96
note_off channel=0 note=73 velocity=0 time=0
note_on channel=0 note=84 velocity=50 time=96
note_off channel=0 note=85 velocity=0 time=0
note_off channel=0 note=84 velocity=0 time=96
note_on channel=0 note=73 velocity=50 time=96
note_on channel=0 note=85 velocity=50 time=96
note_off channel=0 note=73 velocity=0 time=0
note_on channel=0 note=80 velocity=50 time=96
note_off channel=0 note=85 velocity=0 time=0
note_off channel=0 note=80 velocity=0 time=96
note_on channel=0 note=76 velocity=50 time=96
note_off channel=0 note=76 velocity=0 time=96
note_on channel=0 note=73 velocity=50 time=0
note_off channel=0 note=73 velocity=0 time=96
note_on channel=0 note=68 velocity=50 time=0
note_off channel=0 note=68 velocity=0 time=96
note_on channel=0 note=64 velocity=50 time=96
note_on channel=0 note=68 velocity=50 time=96
note_off channel=0 note=64 velocity=0 time=0
note_on channel=0 note=73 velocity=50 time=96
note_off channel=0 note=68 velocity=0 time=0
note_off channel=0 note=73 velocity=0 time=96
note_on channel=0 note=74 velocity=50 time=96
note_on channel=0 note=86 velocity=50 time=96
note_off channel=0 note=74 velocity=0 time=0
note_on channel=0 note=85 velocity=50 time=96
note_off channel=0 note=86 velocity=0 time=0
note_off channel=0 note=85 velocity=0 time=96
note_on channel=0 note=74 velocity=50 time=96
note_on channel=0 note=86 velocity=50 time=96
note_off channel=0 note=74 velocity=0 time=0
note_on channel=0 note=83 velocity=50 time=96
note_off channel=0 note=86 velocity=0 time=0
note_off channel=0 note=83 velocity=0 time=96
note_on channel=0 note=80 velocity=50 time=96
note_on channel=0 note=74 velocity=50 time=96
note_off channel=0 note=80 velocity=0 time=0
note_on channel=0 note=71 velocity=50 time=96
note_off channel=0 note=74 velocity=0 time=0
note_off channel=0 note=71 velocity=0 time=96
note_on channel=0 note=68 velocity=50 time=96
note_on channel=0 note=71 velocity=50 time=96
note_off channel=0 note=68 velocity=0 time=0
note_on channel=0 note=74 velocity=50 time=96
note_off channel=0 note=71 velocity=0 time=0
note_off channel=0 note=74 velocity=0 time=96
note_on channel=0 note=75 velocity=50 time=96
note_on channel=0 note=87 velocity=50 time=96
note_off channel=0 note=75 velocity=0 time=0
note_on channel=0 note=86 velocity=50 time=96
note_off channel=0 note=87 velocity=0 time=0
note_off channel=0 note=86 velocity=0 time=96
note_on channel=0 note=75 velocity=50 time=96
note_on channel=0 note=87 velocity=50 time=96
note_off channel=0 note=75 velocity=0 time=0
note_on channel=0 note=83 velocity=50 time=96
note_off channel=0 note=87 velocity=0 time=0
note_off channel=0 note=83 velocity=0 time=96
note_on channel=0 note=76 velocity=50 time=96
note_on channel=0 note=88 velocity=50 time=96
note_off channel=0 note=76 velocity=0 time=0
note_on channel=0 note=87 velocity=50 time=96
note_off channel=0 note=88 velocity=0 time=0
note_off channel=0 note=87 velocity=0 time=96
note_on channel=0 note=76 velocity=50 time=96
note_off channel=0 note=76 velocity=0 time=96
note_on channel=0 note=88 velocity=50 time=0
note_on channel=0 note=83 velocity=50 time=96
note_off channel=0 note=88 velocity=0 time=0
note_off channel=0 note=83 velocity=0 time=96
note_on channel=0 note=80 velocity=50 time=96
note_on channel=0 note=92 velocity=50 time=96
note_off channel=0 note=80 velocity=0 time=0
note_on channel=0 note=86 velocity=50 time=96
note_off channel=0 note=92 velocity=0 time=0
note_off channel=0 note=86 velocity=0 time=96
note_on channel=0 note=81 velocity=50 time=96
note_on channel=0 note=93 velocity=50 time=0
note_on channel=0 note=85 velocity=50 time=0
note_off channel=0 note=93 velocity=0 time=96
note_off channel=0 note=85 velocity=0 time=0
note_off channel=0 note=81 velocity=0 time=0
note_on channel=0 note=90 velocity=50 time=672
note_on channel=0 note=78 velocity=50 time=0
note_on channel=0 note=81 velocity=50 time=0
note_on channel=0 note=86 velocity=50 time=0
note_off channel=0 note=81 velocity=0 time=96
note_off channel=0 note=86 velocity=0 time=0
note_off channel=0 note=90 velocity=0 time=0
note_off channel=0 note=78 velocity=0 time=0
note_on channel=0 note=76 velocity=50 time=672
note_on channel=0 note=85 velocity=50 time=0
note_on channel=0 note=88 velocity=50 time=0
note_off channel=0 note=76 velocity=0 time=96
note_off channel=0 note=85 velocity=0 time=0
note_off channel=0 note=88 velocity=0 time=0
note_on channel=0 note=88 velocity=50 time=672
note_on channel=0 note=83 velocity=50 time=0
note_on channel=0 note=76 velocity=50 time=0
note_on channel=0 note=80 velocity=50 time=0
note_off channel=0 note=83 velocity=0 time=96
note_off channel=0 note=76 velocity=0 time=0
note_off channel=0 note=80 velocity=0 time=0
note_off channel=0 note=88 velocity=0 time=0
note_on channel=0 note=76 velocity=50 time=2976
note_on channel=0 note=69 velocity=50 time=0
note_on channel=0 note=61 velocity=50 time=0
note_off channel=0 note=61 velocity=0 time=96
note_off channel=0 note=76 velocity=0 time=0
note_off channel=0 note=69 velocity=0 time=0
note_on channel=0 note=74 velocity=50 time=480
note_on channel=0 note=73 velocity=50 time=96
note_off channel=0 note=74 velocity=0 time=0
note_on channel=0 note=63 velocity=50 time=96
note_on channel=0 note=69 velocity=50 time=0
note_on channel=0 note=71 velocity=50 time=0
note_off channel=0 note=73 velocity=0 time=0
note_off channel=0 note=69 velocity=0 time=96
note_off channel=0 note=71 velocity=0 time=0
note_off channel=0 note=63 velocity=0 time=0
note_on channel=0 note=63 velocity=50 time=288
note_on channel=0 note=71 velocity=50 time=0
note_on channel=0 note=69 velocity=50 time=0
note_off channel=0 note=69 velocity=0 time=96
note_off channel=0 note=63 velocity=0 time=0
note_off channel=0 note=71 velocity=0 time=0
note_on channel=0 note=62 velocity=50 time=288
note_on channel=0 note=71 velocity=50 time=0
note_on channel=0 note=68 velocity=50 time=0
note_off channel=0 note=68 velocity=0 time=96
note_off channel=0 note=62 velocity=0 time=0
note_off channel=0 note=71 velocity=0 time=0
note_on channel=0 note=74 velocity=50 time=288
note_off channel=0 note=74 velocity=0 time=96
note_on channel=0 note=73 velocity=50 time=192
note_on channel=0 note=61 velocity=50 time=96
note_on channel=0 note=69 velocity=50 time=0
note_off channel=0 note=73 velocity=0 time=0
note_off channel=0 note=61 velocity=0 time=96
note_off channel=0 note=69 velocity=0 time=0
note_on channel=0 note=76 velocity=50 time=672
note_on channel=0 note=61 velocity=50 time=0
note_on channel=0 note=69 velocity=50 time=0
note_off channel=0 note=61 velocity=0 time=96
note_off channel=0 note=69 velocity=0 time=0
note_off channel=0 note=76 velocity=0 time=0
note_on channel=0 note=74 velocity=50 time=480
note_on channel=0 note=73 velocity=50 time=96
note_off channel=0 note=74 velocity=0 time=0
note_on channel=0 note=63 velocity=50 time=96
note_on channel=0 note=71 velocity=50 time=0
note_on channel=0 note=69 velocity=50 time=0
note_off channel=0 note=73 velocity=0 time=0
note_off channel=0 note=71 velocity=0 time=96
note_off channel=0 note=63 velocity=0 time=0
note_off channel=0 note=69 velocity=0 time=0
note_on channel=0 note=63 velocity=50 time=288
note_on channel=0 note=71 velocity=50 time=0
note_on channel=0 note=69 velocity=50 time=0
note_off channel=0 note=63 velocity=0 time=96
note_off channel=0 note=69 velocity=0 time=0
note_off channel=0 note=71 velocity=0 time=0
note_on channel=0 note=62 velocity=50 time=288
note_on channel=0 note=68 velocity=50 time=0
note_on channel=0 note=71 velocity=50 time=0
note_off channel=0 note=68 velocity=0 time=96
note_off channel=0 note=62 velocity=0 time=0
note_off channel=0 note=71 velocity=0 time=0
note_on channel=0 note=74 velocity=50 time=288
note_off channel=0 note=74 velocity=0 time=96
note_on channel=0 note=73 velocity=50 time=192
note_on channel=0 note=61 velocity=50 time=96
note_off channel=0 note=73 velocity=0 time=0
note_on channel=0 note=69 velocity=50 time=0
note_off channel=0 note=61 velocity=0 time=96
note_off channel=0 note=69 velocity=0 time=0
note_on channel=0 note=62 velocity=50 time=672
note_on channel=0 note=68 velocity=50 time=0
note_on channel=0 note=71 velocity=50 time=0
note_off channel=0 note=71 velocity=0 time=96
note_off channel=0 note=62 velocity=0 time=0
note_off channel=0 note=68 velocity=0 time=0
note_on channel=0 note=74 velocity=50 time=288
note_off channel=0 note=74 velocity=0 time=96
note_on channel=0 note=73 velocity=50 time=192
note_on channel=0 note=69 velocity=50 time=96
note_off channel=0 note=73 velocity=0 time=0
note_on channel=0 note=61 velocity=50 time=0
note_off channel=0 note=61 velocity=0 time=96
note_off channel=0 note=69 velocity=0 time=0
note_on channel=0 note=62 velocity=50 time=672
note_on channel=0 note=71 velocity=50 time=0
note_on channel=0 note=68 velocity=50 time=0
note_off channel=0 note=62 velocity=0 time=96
note_off channel=0 note=71 velocity=0 time=0
note_off channel=0 note=68 velocity=0 time=0
note_on channel=0 note=74 velocity=50 time=288
note_off channel=0 note=74 velocity=0 time=96
note_on channel=0 note=73 velocity=50 time=192
note_on channel=0 note=61 velocity=50 time=96
note_on channel=0 note=69 velocity=50 time=0
note_off channel=0 note=73 velocity=0 time=0
note_off channel=0 note=61 velocity=0 time=96
note_off channel=0 note=69 velocity=0 time=0
note_on channel=0 note=62 velocity=50 time=672
note_on channel=0 note=68 velocity=50 time=0
note_on channel=0 note=71 velocity=50 time=0
note_off channel=0 note=68 velocity=0 time=96
note_off channel=0 note=71 velocity=0 time=0
note_off channel=0 note=62 velocity=0 time=0
note_on channel=0 note=74 velocity=50 time=288
note_off channel=0 note=74 velocity=0 time=96
note_on channel=0 note=73 velocity=50 time=192
note_on channel=0 note=61 velocity=50 time=96
note_on channel=0 note=69 velocity=50 time=0
note_off channel=0 note=73 velocity=0 time=0
note_off channel=0 note=61 velocity=0 time=96
note_off channel=0 note=69 velocity=0 time=0
note_on channel=0 note=45 velocity=50 time=672
note_on channel=0 note=49 velocity=50 time=96
note_off channel=0 note=45 velocity=0 time=0
note_off channel=0 note=49 velocity=0 time=96
note_on channel=0 note=52 velocity=50 time=0
note_off channel=0 note=52 velocity=0 time=96
note_on channel=0 note=57 velocity=50 time=96
note_on channel=0 note=61 velocity=50 time=96
note_off channel=0 note=57 velocity=0 time=0
note_on channel=0 note=64 velocity=50 time=96
note_off channel=0 note=61 velocity=0 time=0
note_off channel=0 note=64 velocity=0 time=96
note_on channel=0 note=69 velocity=50 time=96
note_on channel=0 note=73 velocity=50 time=96
note_off channel=0 note=69 velocity=0 time=0
note_on channel=0 note=76 velocity=50 time=96
note_off channel=0 note=73 velocity=0 time=0
note_off channel=0 note=76 velocity=0 time=96
note_on channel=0 note=81 velocity=50 time=96
note_on channel=0 note=85 velocity=50 time=96
note_off channel=0 note=81 velocity=0 time=0
note_on channel=0 note=88 velocity=50 time=96
note_off channel=0 note=85 velocity=0 time=0
note_off channel=0 note=88 velocity=0 time=96
note_on channel=0 note=93 velocity=50 time=96
note_off channel=0 note=93 velocity=0 time=96
note_on channel=0 note=81 velocity=50 time=672
note_on channel=0 note=66 velocity=50 time=0
note_on channel=0 note=78 velocity=50 time=0
note_on channel=0 note=74 velocity=50 time=0
note_on channel=0 note=57 velocity=50 time=0
note_on channel=0 note=62 velocity=50 time=0
note_on channel=0 note=69 velocity=50 time=0
note_off channel=0 note=57 velocity=0 time=96
note_off channel=0 note=62 velocity=0 time=0
note_off channel=0 note=78 velocity=0 time=0
note_off channel=0 note=69 velocity=0 time=0
note_off channel=0 note=74 velocity=0 time=0
note_off channel=0 note=66 velocity=0 time=0
note_off channel=0 note=81 velocity=0 time=0
note_on channel=0 note=79 velocity=50 time=1440
note_on channel=0 note=57 velocity=50 time=0
note_on channel=0 note=81 velocity=50 time=0
note_on channel=0 note=64 velocity=50 time=0
note_on channel=0 note=67 velocity=50 time=0
note_on channel=0 note=69 velocity=50 time=0
note_on channel=0 note=76 velocity=50 time=0
note_off channel=0 note=76 velocity=0 time=96
note_off channel=0 note=57 velocity=0 time=0
note_off channel=0 note=81 velocity=0 time=0
note_off channel=0 note=64 velocity=0 time=0
note_off channel=0 note=67 velocity=0 time=0
note_off channel=0 note=79 velocity=0 time=0
note_off channel=0 note=69 velocity=0 time=0
note_on channel=0 note=81 velocity=50 time=1440
note_on channel=0 note=74 velocity=50 time=0
note_on channel=0 note=62 velocity=50 time=0
note_on channel=0 note=69 velocity=50 time=0
note_on channel=0 note=66 velocity=50 time=0
note_on channel=0 note=78 velocity=50 time=0
note_on channel=0 note=57 velocity=50 time=0
note_off channel=0 note=69 velocity=0 time=96
note_off channel=0 note=78 velocity=0 time=0
note_off channel=0 note=57 velocity=0 time=0
note_off channel=0 note=62 velocity=0 time=0
note_off channel=0 note=81 velocity=0 time=0
note_off channel=0 note=66 velocity=0 time=0
note_off channel=0 note=74 velocity=0 time=0
note_on channel=0 note=73 velocity=50 time=1440
note_on channel=0 note=64 velocity=50 time=0
note_on channel=0 note=61 velocity=50 time=0
note_on channel=0 note=57 velocity=50 time=0
note_on channel=0 note=69 velocity=50 time=0
note_on channel=0 note=81 velocity=50 time=0
note_on channel=0 note=76 velocity=50 time=0
note_off channel=0 note=73 velocity=0 time=96
note_off channel=0 note=57 velocity=0 time=0
note_off channel=0 note=69 velocity=0 time=0
note_off channel=0 note=61 velocity=0 time=0
note_off channel=0 note=76 velocity=0 time=0
note_off channel=0 note=64 velocity=0 time=0
note_off channel=0 note=81 velocity=0 time=0
note_on channel=0 note=62 velocity=50 time=672
note_on channel=0 note=57 velocity=50 time=0
note_on channel=0 note=69 velocity=50 time=0
note_on channel=0 note=81 velocity=50 time=0
note_on channel=0 note=59 velocity=50 time=0
note_on channel=0 note=74 velocity=50 time=0
note_on channel=0 note=71 velocity=50 time=0
note_off channel=0 note=57 velocity=0 time=96
note_off channel=0 note=69 velocity=0 time=0
note_off channel=0 note=81 velocity=0 time=0
note_off channel=0 note=59 velocity=0 time=0
note_off channel=0 note=62 velocity=0 time=0
note_off channel=0 note=74 velocity=0 time=0
note_off channel=0 note=71 velocity=0 time=0
note_on channel=0 note=81 velocity=50 time=672
note_on channel=0 note=57 velocity=50 time=0
note_on channel=0 note=69 velocity=50 time=0
note_on channel=0 note=61 velocity=50 time=0
note_on channel=0 note=64 velocity=50 time=0
note_on channel=0 note=73 velocity=50 time=0
note_on channel=0 note=76 velocity=50 time=0
note_off channel=0 note=57 velocity=0 time=96
note_off channel=0 note=69 velocity=0 time=0
note_off channel=0 note=61 velocity=0 time=0
note_off channel=0 note=64 velocity=0 time=0
note_off channel=0 note=73 velocity=0 time=0
note_off channel=0 note=76 velocity=0 time=0
note_off channel=0 note=81 velocity=0 time=0
<meta message end_of_track time=0>
