Track 6:
<meta message midi_port port=0 time=0>
program_change channel=4 program=48 time=0
control_change channel=4 control=7 value=70 time=0
control_change channel=4 control=10 value=87 time=0
control_change channel=4 control=121 value=0 time=8
control_change channel=4 control=101 value=0 time=28
control_change channel=4 control=100 value=0 time=0
control_change channel=4 control=6 value=12 time=0
control_change channel=4 control=38 value=0 time=0
control_change channel=4 control=93 value=70 time=2
control_change channel=4 control=91 value=40 time=1
note_on channel=4 note=78 velocity=67 time=32985
note_on channel=4 note=55 velocity=84 time=0
note_on channel=4 note=40 velocity=81 time=0
note_on channel=4 note=69 velocity=93 time=6
note_on channel=4 note=67 velocity=90 time=381
note_on channel=4 note=69 velocity=0 time=19
note_on channel=4 note=76 velocity=40 time=363
note_on channel=4 note=66 velocity=96 time=12
note_on channel=4 note=67 velocity=0 time=15
note_on channel=4 note=78 velocity=0 time=2
note_on channel=4 note=71 velocity=71 time=328
note_on channel=4 note=76 velocity=0 time=30
note_on channel=4 note=64 velocity=93 time=0
note_on channel=4 note=66 velocity=0 time=19
note_on channel=4 note=74 velocity=64 time=346
note_on channel=4 note=69 velocity=101 time=6
note_on channel=4 note=64 velocity=0 time=2
note_on channel=4 note=36 velocity=93 time=2
note_on channel=4 note=71 velocity=0 time=8
note_on channel=4 note=52 velocity=38 time=5
note_on channel=4 note=55 velocity=0 time=20
note_on channel=4 note=40 velocity=0 time=4
note_on channel=4 note=72 velocity=53 time=732
note_on channel=4 note=69 velocity=0 time=1
note_on channel=4 note=67 velocity=93 time=5
note_on channel=4 note=74 velocity=0 time=29
note_on channel=4 note=76 velocity=16 time=328
note_on channel=4 note=72 velocity=0 time=16
note_on channel=4 note=66 velocity=99 time=386
note_on channel=4 note=71 velocity=40 time=4
note_on channel=4 note=67 velocity=0 time=1
note_on channel=4 note=55 velocity=74 time=5
note_on channel=4 note=40 velocity=82 time=2
note_on channel=4 note=36 velocity=0 time=9
note_on channel=4 note=52 velocity=0 time=11
note_on channel=4 note=76 velocity=0 time=7
note_on channel=4 note=65 velocity=90 time=332
note_on channel=4 note=66 velocity=0 time=17
note_on channel=4 note=64 velocity=96 time=375
note_on channel=4 note=65 velocity=0 time=14
note_on channel=4 note=63 velocity=96 time=358
note_on channel=4 note=64 velocity=0 time=10
note_on channel=4 note=62 velocity=85 time=382
note_on channel=4 note=63 velocity=0 time=1
note_on channel=4 note=58 velocity=88 time=17
note_on channel=4 note=36 velocity=76 time=2
note_on channel=4 note=40 velocity=0 time=10
note_on channel=4 note=55 velocity=0 time=6
note_on channel=4 note=70 velocity=96 time=24
note_on channel=4 note=71 velocity=0 time=19
note_on channel=4 note=60 velocity=79 time=517
note_on channel=4 note=62 velocity=0 time=16
note_on channel=4 note=62 velocity=101 time=164
note_on channel=4 note=60 velocity=0 time=6
note_on channel=4 note=57 velocity=74 time=10
note_on channel=4 note=69 velocity=59 time=3
note_on channel=4 note=58 velocity=0 time=13
note_on channel=4 note=70 velocity=0 time=9
note_on channel=4 note=55 velocity=82 time=331
note_on channel=4 note=65 velocity=84 time=7
note_on channel=4 note=57 velocity=0 time=13
note_on channel=4 note=67 velocity=84 time=10
note_on channel=4 note=62 velocity=0 time=5
note_on channel=4 note=69 velocity=0 time=18
note_on channel=4 note=71 velocity=79 time=337
note_on channel=4 note=40 velocity=87 time=8
note_on channel=4 note=66 velocity=93 time=4
note_on channel=4 note=52 velocity=76 time=1
note_on channel=4 note=59 velocity=57 time=3
note_on channel=4 note=36 velocity=0 time=8
note_on channel=4 note=65 velocity=0 time=6
note_on channel=4 note=55 velocity=0 time=3
note_on channel=4 note=67 velocity=0 time=3
note_on channel=4 note=76 velocity=76 time=728
note_on channel=4 note=55 velocity=93 time=12
note_on channel=4 note=52 velocity=0 time=10
note_on channel=4 note=71 velocity=0 time=15
note_on channel=4 note=66 velocity=0 time=155
note_on channel=4 note=64 velocity=87 time=5
note_on channel=4 note=66 velocity=98 time=199
note_on channel=4 note=78 velocity=90 time=4
note_on channel=4 note=64 velocity=0 time=10
note_on channel=4 note=47 velocity=102 time=2
note_on channel=4 note=55 velocity=0 time=2
note_on channel=4 note=76 velocity=0 time=5
note_on channel=4 note=67 velocity=90 time=160
note_on channel=4 note=66 velocity=0 time=14
note_on channel=4 note=69 velocity=91 time=181
note_on channel=4 note=67 velocity=0 time=13
note_on channel=4 note=52 velocity=76 time=11
note_on channel=4 note=58 velocity=90 time=2
note_on channel=4 note=36 velocity=99 time=1
note_on channel=4 note=79 velocity=38 time=3
note_on channel=4 note=47 velocity=0 time=4
note_on channel=4 note=40 velocity=0 time=12
note_on channel=4 note=59 velocity=0 time=5
note_on channel=4 note=78 velocity=0 time=10
note_on channel=4 note=55 velocity=94 time=707
note_on channel=4 note=52 velocity=0 time=10
note_on channel=4 note=81 velocity=74 time=0
note_on channel=4 note=79 velocity=0 time=46
note_on channel=4 note=69 velocity=0 time=334
note_on channel=4 note=67 velocity=90 time=4
note_on channel=4 note=46 velocity=101 time=4
note_on channel=4 note=55 velocity=0 time=6
note_on channel=4 note=46 velocity=0 time=376
note_on channel=4 note=71 velocity=99 time=0
note_on channel=4 note=83 velocity=71 time=4
note_on channel=4 note=40 velocity=84 time=2
note_on channel=4 note=62 velocity=94 time=1
note_on channel=4 note=67 velocity=0 time=6
note_on channel=4 note=81 velocity=0 time=3
note_on channel=4 note=52 velocity=43 time=2
note_on channel=4 note=58 velocity=0 time=5
note_on channel=4 note=36 velocity=0 time=4
note_on channel=4 note=79 velocity=49 time=357
note_on channel=4 note=66 velocity=91 time=2
note_on channel=4 note=59 velocity=78 time=8
note_on channel=4 note=71 velocity=0 time=1
note_on channel=4 note=83 velocity=0 time=0
note_on channel=4 note=62 velocity=0 time=14
note_on channel=4 note=64 velocity=98 time=163
note_on channel=4 note=66 velocity=0 time=16
note_on channel=4 note=59 velocity=0 time=170
note_on channel=4 note=62 velocity=98 time=8
note_on channel=4 note=64 velocity=0 time=1
note_on channel=4 note=59 velocity=96 time=10
note_on channel=4 note=74 velocity=71 time=2
note_on channel=4 note=35 velocity=43 time=0
note_on channel=4 note=52 velocity=0 time=3
note_on channel=4 note=40 velocity=0 time=6
note_on channel=4 note=79 velocity=0 time=16
note_on channel=4 note=59 velocity=0 time=341
note_on channel=4 note=62 velocity=0 time=14
note_on channel=4 note=54 velocity=91 time=0
note_on channel=4 note=72 velocity=56 time=4
note_on channel=4 note=61 velocity=96 time=2
note_on channel=4 note=74 velocity=0 time=3
note_on channel=4 note=60 velocity=93 time=164
note_on channel=4 note=61 velocity=0 time=12
note_on channel=4 note=71 velocity=58 time=182
note_on channel=4 note=59 velocity=85 time=10
note_on channel=4 note=60 velocity=0 time=1
note_on channel=4 note=40 velocity=75 time=3
note_on channel=4 note=47 velocity=72 time=5
note_on channel=4 note=72 velocity=0 time=5
note_on channel=4 note=35 velocity=0 time=5
note_on channel=4 note=54 velocity=0 time=3
note_on channel=4 note=71 velocity=0 time=177
note_on channel=4 note=52 velocity=88 time=168
note_on channel=4 note=47 velocity=0 time=2
note_on channel=4 note=54 velocity=90 time=379
note_on channel=4 note=52 velocity=0 time=13
note_on channel=4 note=55 velocity=96 time=374
note_on channel=4 note=54 velocity=0 time=2
note_on channel=4 note=59 velocity=0 time=208
note_on channel=4 note=55 velocity=0 time=164
note_on channel=4 note=40 velocity=0 time=7
control_change channel=4 control=1 value=0 time=17684
control_change channel=4 control=1 value=0 time=48
control_change channel=4 control=1 value=0 time=48
control_change channel=4 control=1 value=0 time=48
control_change channel=4 control=1 value=0 time=48
control_change channel=4 control=1 value=0 time=48
control_change channel=4 control=1 value=0 time=48
control_change channel=4 control=1 value=0 time=48
control_change channel=4 control=1 value=0 time=48
control_change channel=4 control=1 value=0 time=48
control_change channel=4 control=1 value=0 time=48
control_change channel=4 control=1 value=0 time=48
control_change channel=4 control=1 value=0 time=48
control_change channel=4 control=1 value=0 time=48
control_change channel=4 control=1 value=0 time=48
control_change channel=4 control=1 value=0 time=48
<meta message end_of_track time=0>